<svg width="642" height="268" viewBox="0 0 642 268" fill="none" xmlns="http://www.w3.org/2000/svg">
<path d="M0 4C0 1.79086 1.79086 0 4 0H638C640.209 0 642 1.79086 642 4V268H0V4Z" fill="#E5EBFA"/>
<rect x="83" y="25" width="476" height="217" rx="8" fill="#D1DAF3"/>
<rect x="109" y="53" width="261" height="11" fill="#F1F4FC"/>
<rect x="109" y="77" width="261" height="11" fill="#F1F4FC"/>
<rect x="109" y="101" width="261" height="11" fill="#F1F4FC"/>
<rect x="109" y="139" width="435" height="11" fill="#F1F4FC"/>
<rect x="109" y="163" width="435" height="11" fill="#F1F4FC"/>
<rect x="109" y="187" width="435" height="11" fill="#F1F4FC"/>
<rect x="109" y="211" width="435" height="11" fill="#F1F4FC"/>
<circle cx="474" cy="43" r="10" fill="#F1F4FC"/>
<rect x="392" y="59" width="152" height="67" rx="4" fill="white"/>
<path d="M416.266 86L415.056 82.7051H410.469L409.252 86H408.452L412.444 75.4111H413.142L417.086 86H416.266ZM413.019 77.1406C412.964 76.9948 412.921 76.849 412.889 76.7031C412.852 76.5801 412.816 76.457 412.779 76.334H412.745C412.663 76.6621 412.583 76.9264 412.506 77.127L410.722 82.0352H414.81L413.019 77.1406ZM423.635 85.665C423.074 86.0114 422.404 86.1846 421.625 86.1846C420.6 86.1846 419.77 85.8314 419.137 85.125C418.508 84.4186 418.193 83.4935 418.193 82.3496C418.193 81.151 418.547 80.1689 419.253 79.4033C419.964 78.6377 420.875 78.2549 421.987 78.2549C422.566 78.2549 423.124 78.3734 423.662 78.6104V79.376C423.124 79.0433 422.532 78.877 421.885 78.877C421.001 78.877 420.283 79.196 419.731 79.834C419.18 80.472 418.904 81.2969 418.904 82.3086C418.904 83.2884 419.155 84.0768 419.656 84.6738C420.162 85.2663 420.83 85.5625 421.659 85.5625C422.416 85.5625 423.074 85.362 423.635 84.9609V85.665ZM430.348 85.665C429.787 86.0114 429.117 86.1846 428.338 86.1846C427.312 86.1846 426.483 85.8314 425.85 85.125C425.221 84.4186 424.906 83.4935 424.906 82.3496C424.906 81.151 425.259 80.1689 425.966 79.4033C426.677 78.6377 427.588 78.2549 428.7 78.2549C429.279 78.2549 429.837 78.3734 430.375 78.6104V79.376C429.837 79.0433 429.245 78.877 428.598 78.877C427.714 78.877 426.996 79.196 426.444 79.834C425.893 80.472 425.617 81.2969 425.617 82.3086C425.617 83.2884 425.868 84.0768 426.369 84.6738C426.875 85.2663 427.543 85.5625 428.372 85.5625C429.129 85.5625 429.787 85.362 430.348 84.9609V85.665ZM435.201 86.1846C434.098 86.1846 433.226 85.8223 432.583 85.0977C431.94 84.3685 431.619 83.4251 431.619 82.2676C431.619 81.0098 431.954 80.0277 432.624 79.3213C433.299 78.6104 434.185 78.2549 435.283 78.2549C436.359 78.2549 437.209 78.6081 437.833 79.3145C438.462 80.0163 438.776 80.9893 438.776 82.2334C438.776 83.4092 438.457 84.3617 437.819 85.0908C437.181 85.82 436.309 86.1846 435.201 86.1846ZM435.256 78.877C434.363 78.877 433.652 79.1777 433.123 79.7793C432.594 80.3763 432.33 81.2103 432.33 82.2812C432.33 83.2702 432.588 84.0654 433.103 84.667C433.622 85.264 434.328 85.5625 435.222 85.5625C436.133 85.5625 436.835 85.2686 437.327 84.6807C437.819 84.0882 438.065 83.2679 438.065 82.2197C438.065 81.1442 437.819 80.3193 437.327 79.7451C436.84 79.1663 436.149 78.877 435.256 78.877ZM445.646 86V84.626H445.619C445.09 85.665 444.277 86.1846 443.179 86.1846C441.392 86.1846 440.499 85.0589 440.499 82.8076V78.4395H441.189V82.6436C441.189 83.6644 441.358 84.4072 441.695 84.8721C442.033 85.3324 442.563 85.5625 443.288 85.5625C443.99 85.5625 444.557 85.305 444.99 84.79C445.428 84.2705 445.646 83.5801 445.646 82.7188V78.4395H446.33V86H445.646ZM453.891 86V81.5977C453.891 79.7839 453.237 78.877 451.929 78.877C451.2 78.877 450.6 79.1436 450.131 79.6768C449.661 80.21 449.427 80.8708 449.427 81.6592V86H448.75V78.4395H449.427V79.8135H449.461C450.012 78.7744 450.874 78.2549 452.045 78.2549C452.861 78.2549 453.485 78.5283 453.918 79.0752C454.351 79.6175 454.567 80.3923 454.567 81.3994V86H453.891ZM459.838 85.8975C459.482 86.0661 459.15 86.1504 458.84 86.1504C457.723 86.1504 457.165 85.4805 457.165 84.1406V79.0615H455.805V78.4395H457.165V76.4775C457.27 76.4365 457.382 76.3978 457.5 76.3613C457.618 76.3249 457.732 76.2861 457.842 76.2451V78.4395H459.838V79.0615H457.842V84.0518C457.842 84.5713 457.924 84.9495 458.088 85.1865C458.252 85.4189 458.532 85.5352 458.929 85.5352C459.207 85.5352 459.51 85.444 459.838 85.2617V85.8975ZM465.3 85.624V84.79C466.056 85.2731 466.824 85.5146 467.604 85.5146C468.433 85.5146 469.06 85.3438 469.483 85.002C469.912 84.6602 470.126 84.1816 470.126 83.5664C470.126 83.0241 469.982 82.5911 469.695 82.2676C469.408 81.944 468.784 81.5042 467.822 80.9482C466.751 80.3239 466.072 79.8021 465.785 79.3828C465.503 78.959 465.361 78.4714 465.361 77.9199C465.361 77.1725 465.651 76.5391 466.229 76.0195C466.813 75.4954 467.588 75.2334 468.554 75.2334C469.187 75.2334 469.818 75.3405 470.447 75.5547V76.3203C469.827 76.0423 469.164 75.9033 468.458 75.9033C467.743 75.9033 467.173 76.0856 466.749 76.4502C466.33 76.8102 466.12 77.2728 466.12 77.8379C466.12 78.3757 466.264 78.8063 466.551 79.1299C466.838 79.4489 467.46 79.8841 468.417 80.4355C469.406 80.9961 470.064 81.4951 470.393 81.9326C470.721 82.3656 470.885 82.8646 470.885 83.4297C470.885 84.2409 470.602 84.904 470.037 85.4189C469.472 85.9294 468.677 86.1846 467.651 86.1846C467.287 86.1846 466.865 86.1276 466.387 86.0137C465.913 85.8997 465.55 85.7699 465.3 85.624ZM473.168 82.2471C473.168 83.2861 473.407 84.0996 473.886 84.6875C474.364 85.2708 475.023 85.5625 475.861 85.5625C476.709 85.5625 477.536 85.2503 478.343 84.626V85.3506C477.559 85.9066 476.686 86.1846 475.725 86.1846C474.749 86.1846 473.961 85.8359 473.359 85.1387C472.758 84.4368 472.457 83.4502 472.457 82.1787C472.457 81.0758 472.771 80.1462 473.4 79.3896C474.029 78.6331 474.845 78.2549 475.848 78.2549C476.786 78.2549 477.507 78.5853 478.008 79.2461C478.514 79.9069 478.767 80.807 478.767 81.9463V82.2471H473.168ZM478.056 81.6318C478.024 80.7568 477.814 80.0801 477.427 79.6016C477.039 79.1185 476.504 78.877 475.82 78.877C475.109 78.877 474.521 79.1139 474.057 79.5879C473.592 80.0618 473.305 80.7432 473.195 81.6318H478.056ZM483.641 85.8975C483.285 86.0661 482.952 86.1504 482.643 86.1504C481.526 86.1504 480.968 85.4805 480.968 84.1406V79.0615H479.607V78.4395H480.968V76.4775C481.073 76.4365 481.184 76.3978 481.303 76.3613C481.421 76.3249 481.535 76.2861 481.645 76.2451V78.4395H483.641V79.0615H481.645V84.0518C481.645 84.5713 481.727 84.9495 481.891 85.1865C482.055 85.4189 482.335 85.5352 482.731 85.5352C483.009 85.5352 483.312 85.444 483.641 85.2617V85.8975ZM488.139 85.8975C487.783 86.0661 487.451 86.1504 487.141 86.1504C486.024 86.1504 485.466 85.4805 485.466 84.1406V79.0615H484.105V78.4395H485.466V76.4775C485.571 76.4365 485.682 76.3978 485.801 76.3613C485.919 76.3249 486.033 76.2861 486.143 76.2451V78.4395H488.139V79.0615H486.143V84.0518C486.143 84.5713 486.225 84.9495 486.389 85.1865C486.553 85.4189 486.833 85.5352 487.229 85.5352C487.507 85.5352 487.811 85.444 488.139 85.2617V85.8975ZM489.978 76.5322C489.827 76.5322 489.695 76.4798 489.581 76.375C489.472 76.2656 489.417 76.1266 489.417 75.958C489.417 75.7985 489.474 75.6686 489.588 75.5684C489.702 75.4635 489.832 75.4111 489.978 75.4111C490.128 75.4111 490.26 75.4613 490.374 75.5615C490.493 75.6572 490.552 75.7894 490.552 75.958C490.552 76.1175 490.495 76.2542 490.381 76.3682C490.267 76.4775 490.132 76.5322 489.978 76.5322ZM489.643 86V78.4395H490.319V86H489.643ZM497.887 86V81.5977C497.887 79.7839 497.233 78.877 495.925 78.877C495.196 78.877 494.596 79.1436 494.127 79.6768C493.658 80.21 493.423 80.8708 493.423 81.6592V86H492.746V78.4395H493.423V79.8135H493.457C494.008 78.7744 494.87 78.2549 496.041 78.2549C496.857 78.2549 497.481 78.5283 497.914 79.0752C498.347 79.6175 498.563 80.3923 498.563 81.3994V86H497.887ZM506.89 85.4395C506.89 86.8613 506.577 87.9004 505.953 88.5566C505.333 89.2174 504.369 89.5479 503.062 89.5479C502.332 89.5479 501.583 89.3564 500.812 88.9736V88.2695C501.61 88.7116 502.364 88.9326 503.075 88.9326C505.162 88.9326 506.206 87.8298 506.206 85.624V84.6396H506.179C505.582 85.6696 504.673 86.1846 503.451 86.1846C502.521 86.1846 501.763 85.8473 501.175 85.1729C500.587 84.4984 500.293 83.5573 500.293 82.3496C500.293 81.1465 500.61 80.1644 501.243 79.4033C501.881 78.6377 502.72 78.2549 503.759 78.2549C504.871 78.2549 505.677 78.7152 506.179 79.6357H506.206V78.4395H506.89V85.4395ZM506.206 81.3447C506.206 80.6748 505.98 80.096 505.529 79.6084C505.083 79.1208 504.497 78.877 503.772 78.877C502.938 78.877 502.269 79.1891 501.763 79.8135C501.257 80.4378 501.004 81.265 501.004 82.2949C501.004 83.3294 501.236 84.1338 501.701 84.708C502.166 85.2777 502.779 85.5625 503.54 85.5625C504.356 85.5625 505.003 85.3005 505.481 84.7764C505.965 84.2477 506.206 83.6029 506.206 82.8418V81.3447ZM508.927 85.665V84.8516C509.182 85.0703 509.492 85.2435 509.856 85.3711C510.221 85.4987 510.535 85.5625 510.8 85.5625C511.985 85.5625 512.577 85.0794 512.577 84.1133C512.577 83.776 512.447 83.4889 512.188 83.252C511.928 83.015 511.504 82.7712 510.916 82.5205C510.196 82.2061 509.688 81.8802 509.392 81.543C509.1 81.2057 508.954 80.7956 508.954 80.3125C508.954 79.6973 509.189 79.2005 509.658 78.8223C510.128 78.444 510.709 78.2549 511.401 78.2549C512.049 78.2549 512.604 78.387 513.069 78.6514V79.4238C512.509 79.0592 511.928 78.877 511.326 78.877C510.829 78.877 510.428 79.0068 510.123 79.2666C509.818 79.5218 509.665 79.8568 509.665 80.2715C509.665 80.6315 509.761 80.9232 509.952 81.1465C510.144 81.3698 510.567 81.6273 511.224 81.9189C512.012 82.2744 512.552 82.6025 512.844 82.9033C513.14 83.2041 513.288 83.6074 513.288 84.1133C513.288 84.7103 513.062 85.2048 512.611 85.5967C512.165 85.9886 511.545 86.1846 510.752 86.1846C510.023 86.1846 509.414 86.0114 508.927 85.665Z" fill="#3688FF"/>
<path d="M409.788 110V99.4111H410.52V109.337H414.765V110H409.788ZM419.604 110.185C418.502 110.185 417.629 109.822 416.986 109.098C416.344 108.368 416.022 107.425 416.022 106.268C416.022 105.01 416.357 104.028 417.027 103.321C417.702 102.61 418.588 102.255 419.687 102.255C420.762 102.255 421.612 102.608 422.236 103.314C422.865 104.016 423.18 104.989 423.18 106.233C423.18 107.409 422.861 108.362 422.223 109.091C421.585 109.82 420.712 110.185 419.604 110.185ZM419.659 102.877C418.766 102.877 418.055 103.178 417.526 103.779C416.998 104.376 416.733 105.21 416.733 106.281C416.733 107.27 416.991 108.065 417.506 108.667C418.025 109.264 418.732 109.562 419.625 109.562C420.536 109.562 421.238 109.269 421.73 108.681C422.223 108.088 422.469 107.268 422.469 106.22C422.469 105.144 422.223 104.319 421.73 103.745C421.243 103.166 420.552 102.877 419.659 102.877ZM431.109 109.439C431.109 110.861 430.797 111.9 430.173 112.557C429.553 113.217 428.589 113.548 427.281 113.548C426.552 113.548 425.802 113.356 425.032 112.974V112.27C425.83 112.712 426.584 112.933 427.295 112.933C429.382 112.933 430.426 111.83 430.426 109.624V108.64H430.398C429.801 109.67 428.892 110.185 427.671 110.185C426.741 110.185 425.982 109.847 425.395 109.173C424.807 108.498 424.513 107.557 424.513 106.35C424.513 105.146 424.829 104.164 425.463 103.403C426.101 102.638 426.939 102.255 427.979 102.255C429.09 102.255 429.897 102.715 430.398 103.636H430.426V102.439H431.109V109.439ZM430.426 105.345C430.426 104.675 430.2 104.096 429.749 103.608C429.302 103.121 428.717 102.877 427.992 102.877C427.158 102.877 426.488 103.189 425.982 103.813C425.477 104.438 425.224 105.265 425.224 106.295C425.224 107.329 425.456 108.134 425.921 108.708C426.386 109.278 426.999 109.562 427.76 109.562C428.576 109.562 429.223 109.3 429.701 108.776C430.184 108.248 430.426 107.603 430.426 106.842V105.345ZM442.184 110.185C440.689 110.185 439.497 109.688 438.608 108.694C437.72 107.701 437.275 106.409 437.275 104.818C437.275 103.128 437.731 101.774 438.643 100.758C439.554 99.7415 440.8 99.2334 442.382 99.2334C443.808 99.2334 444.964 99.7233 445.848 100.703C446.732 101.678 447.174 102.959 447.174 104.545C447.174 106.295 446.72 107.674 445.813 108.681C444.911 109.683 443.701 110.185 442.184 110.185ZM442.259 99.9033C441.028 99.9033 440.014 100.35 439.217 101.243C438.424 102.132 438.027 103.296 438.027 104.736C438.027 106.195 438.403 107.357 439.155 108.223C439.907 109.084 440.912 109.515 442.17 109.515C443.478 109.515 444.512 109.089 445.273 108.236C446.039 107.38 446.422 106.188 446.422 104.661C446.422 103.166 446.048 102 445.301 101.161C444.558 100.323 443.544 99.9033 442.259 99.9033ZM454.181 110V108.626H454.153C453.625 109.665 452.811 110.185 451.713 110.185C449.926 110.185 449.033 109.059 449.033 106.808V102.439H449.724V106.644C449.724 107.664 449.892 108.407 450.229 108.872C450.567 109.332 451.098 109.562 451.822 109.562C452.524 109.562 453.091 109.305 453.524 108.79C453.962 108.271 454.181 107.58 454.181 106.719V102.439H454.864V110H454.181ZM460.278 109.897C459.923 110.066 459.59 110.15 459.28 110.15C458.164 110.15 457.605 109.48 457.605 108.141V103.062H456.245V102.439H457.605V100.478C457.71 100.437 457.822 100.398 457.94 100.361C458.059 100.325 458.173 100.286 458.282 100.245V102.439H460.278V103.062H458.282V108.052C458.282 108.571 458.364 108.95 458.528 109.187C458.692 109.419 458.973 109.535 459.369 109.535C459.647 109.535 459.95 109.444 460.278 109.262V109.897Z" fill="black"/>
<path fill-rule="evenodd" clip-rule="evenodd" d="M543.906 40H543.017C542.957 40 542.9 40.0293 542.865 40.0773L539.5 44.6664L536.136 40.0773C536.1 40.0293 536.043 40 535.983 40H535.095C535.018 40 534.973 40.0867 535.018 40.1488L539.194 45.8453C539.345 46.0516 539.655 46.0516 539.806 45.8453L543.981 40.1488C544.028 40.0867 543.983 40 543.906 40Z" fill="#F1F4FC"/>
<rect x="495" y="37" width="30" height="11" fill="#F1F4FC"/>
<circle cx="532.667" cy="81.6667" r="9.66667" fill="#E1EDFF"/>
<circle cx="532.667" cy="81.6667" r="6.90476" fill="#94BFFF"/>
<circle cx="532.666" cy="81.6668" r="4.14286" fill="#3688FF"/>
<path d="M533.301 82.3007C533.159 82.431 533.061 82.6021 533.021 82.7904C532.98 82.9787 532.999 83.1748 533.075 83.3518L539.606 100.324C539.68 100.523 539.814 100.694 539.988 100.815C540.163 100.935 540.37 101 540.582 101C540.794 101 541.001 100.935 541.176 100.815C541.35 100.694 541.483 100.523 541.558 100.324L544.186 93.19L551.323 90.5611C551.519 90.4835 551.688 90.3494 551.809 90.1758C551.929 90.0023 551.995 89.797 551.999 89.5859C552.01 89.3714 551.95 89.1591 551.828 88.9823C551.706 88.8056 551.528 88.6745 551.323 88.6096L534.352 82.0753C534.175 81.9994 533.979 81.9803 533.79 82.0207C533.602 82.0611 533.431 82.1589 533.301 82.3007V82.3007Z" fill="#FF9F02"/>
</svg>
