<svg width="28" height="28" viewBox="0 0 28 28" fill="none" xmlns="http://www.w3.org/2000/svg">
<rect width="28" height="28" rx="4" fill="#37BCBD"/>
<path d="M19.8482 7.51119H16.625C15.8653 7.51119 14.8041 7.95361 14.2669 8.49437L8.85314 13.9438C8.31594 14.4845 8.31594 15.3694 8.85314 15.9101L12.8855 19.969C13.4227 20.5098 14.3018 20.5098 14.8391 19.969L20.2528 14.5197C20.7901 13.9789 21.2296 12.9108 21.2296 12.146V8.90163C21.2296 8.13688 20.608 7.51117 19.8482 7.51117V7.51119ZM18.0064 12.146C17.2435 12.146 16.625 11.5235 16.625 10.7556C16.625 9.98763 17.2435 9.3651 18.0064 9.3651C18.7693 9.3651 19.3878 9.98763 19.3878 10.7556C19.3878 11.5235 18.7693 12.146 18.0064 12.146ZM6.82058 15.2546L11.7471 20.2136C11.2253 20.4911 10.5606 20.4097 10.1228 19.969L6.0904 15.9101C5.5532 15.3694 5.5532 14.4845 6.0904 13.9437L11.5042 8.49437C12.0414 7.95361 13.1026 7.51117 13.8623 7.51117L6.82058 14.5992C6.64151 14.7795 6.64151 15.0744 6.82058 15.2547V15.2546Z" fill="white"/>
</svg>
