<?xml version="1.0" standalone="no"?><!DOCTYPE svg PUBLIC "-//W3C//DTD SVG 1.1//EN" "http://www.w3.org/Graphics/SVG/1.1/DTD/svg11.dtd"><svg t="1625564625913" class="icon" viewBox="0 0 1228 1024" version="1.1" xmlns="http://www.w3.org/2000/svg" p-id="24446" xmlns:xlink="http://www.w3.org/1999/xlink" width="239.84375" height="200"><defs><style type="text/css"></style></defs><path d="M1128.5376 599.3728l-0.1344 28.6976-523.712 304.288v-28.6912l523.8464-304.2944z" fill="#37BCBD" p-id="24447"></path><path d="M604.6976 903.6672v28.6912l-527.232-304.288 0.1344-28.6976 527.0976 304.2944z" fill="#37BCBD" p-id="24448"></path><path d="M1128.5376 599.3728l-523.84 304.2944-527.0976-304.2944 523.712-304.4224 527.2256 304.4224z" fill="#D9F2F2" p-id="24449"></path><path d="M247.616 453.3184L130.3936 521.408 12.224 453.312l117.3568-68.224 118.0352 68.224zM1128.1344 130.8928l-86.6304 50.3552-87.1744-50.3552 86.6304-50.3552 87.1744 50.3552zM1223.5584 493.9264l-45.4784 26.4-45.7536-26.4 45.4848-26.3936 45.7472 26.3936z" fill="#37BCBD" opacity=".4" p-id="24450"></path><path d="M170.592 425.7088l-84.0576 48.864L2.0672 425.7088l83.9296-48.7296 84.5952 48.7296zM680.0896 877.6768l-117.3568 68.0832-118.0352-68.0832 117.3568-68.224 118.0352 68.224z" fill="#37BCBD" opacity=".4" p-id="24451"></path><path d="M603.072 850.0608l-84.064 48.864-84.4608-48.864 83.9232-48.7296 84.6016 48.7296zM810.0352 985.696L744.384 1024l-66.1888-38.304 65.6512-38.176 66.1888 38.176z" fill="#37BCBD" opacity=".4" p-id="24452"></path><path d="M523.7504 553.3504v0.4096c-0.1344 1.0816-0.2752 2.0288-0.4096 3.1104v0.4096c-0.128 0.672-0.2688 1.4848-0.4032 2.1632-0.1344 0.6784-0.2688 1.216-0.4096 1.8944a7.616 7.616 0 0 1-0.5376 1.6256c-0.1344 0.544-0.4096 1.216-0.544 1.76-0.2688 0.8128-0.672 1.76-0.9472 2.5728-0.4032 1.0816-0.9472 2.1632-1.4912 3.2448 0 0.1344-0.128 0.1344-0.128 0.2752-0.544 0.9472-1.088 2.0288-1.6256 2.976-0.1408 0.1344-0.1408 0.2688-0.2752 0.4032-0.5376 0.9472-1.216 1.8944-1.8944 2.8416-0.1344 0.1408-0.2688 0.4096-0.4032 0.544a39.456 39.456 0 0 1-2.1696 2.8416c-0.128 0.1344-0.2688 0.4096-0.4032 0.544l-2.0288 2.432c-0.1408 0.2752-0.4096 0.4096-0.544 0.6784a49.728 49.728 0 0 1-3.1104 3.2512c-0.6784 0.6784-1.4912 1.3504-2.1696 2.0288-0.5376 0.544-1.216 1.088-1.76 1.6256-0.5376 0.544-1.0816 0.9472-1.76 1.4912-0.672 0.5376-1.3504 1.0816-2.0288 1.4848-0.6784 0.4096-1.216 0.9472-1.8944 1.3568-0.6784 0.5376-1.3568 0.9472-2.1632 1.4848-0.6784 0.4096-1.3568 0.9472-2.0352 1.3568-0.6784 0.5376-1.4848 0.9472-2.304 1.4912-0.9408 0.5376-1.888 1.216-2.976 1.76-1.3504 0.8064-2.7072 1.4848-4.192 2.304-0.4096 0.128-0.6784 0.4032-1.088 0.5376-1.216 0.672-2.5664 1.3504-3.7888 1.8944-0.128 0.128-0.2688 0.128-0.5376 0.2688l-4.4672 2.0288c-0.4096 0.1408-0.8128 0.2752-1.216 0.544-1.216 0.544-2.5728 1.088-3.7952 1.6256a1.92 1.92 0 0 1-0.8128 0.2688c-1.4848 0.544-3.1104 1.088-4.6016 1.6256-0.4032 0.1344-0.8128 0.2688-1.0816 0.4032-1.088 0.4096-2.1632 0.6784-3.2512 1.088-0.9472 0.2688-2.0288 0.672-3.1104 0.9472-0.8128 0.2688-1.76 0.5376-2.5728 0.8064-1.0816 0.2752-2.0288 0.544-3.1104 0.8128-0.8128 0.2752-1.76 0.4096-2.7072 0.6784-1.088 0.2688-2.1696 0.544-3.2512 0.6784-0.9472 0.1344-1.76 0.4032-2.7072 0.5376-1.088 0.2752-2.1632 0.4096-3.2448 0.6784-0.9536 0.1344-1.9008 0.4096-2.9824 0.544-0.4032 0.128-0.9472 0.128-1.3504 0.2688a46.8608 46.8608 0 0 1-4.608 0.6784c-0.2688 0-0.5376 0.1344-0.672 0.1344-1.76 0.2688-3.52 0.4032-5.28 0.6784-0.4032 0-0.8128 0.128-1.3504 0.128-1.088 0.1408-2.1696 0.2752-3.2512 0.2752-1.3568 0.1344-2.7072 0.2752-4.064 0.2752-0.8064 0-1.76 0.128-2.5664 0.128-1.3568 0.1408-2.848 0.1408-4.1984 0.2752-0.8128 0-1.6256 0.1344-2.432 0.1344-1.2224 0-2.4384 0-3.6608 0.1344h-8.8c-1.216 0-2.432-0.128-3.648-0.128-0.8192 0-1.632 0-2.5792-0.1408-1.3504-0.1344-2.5664-0.1344-3.7888-0.2688-0.8128 0-1.4848-0.1408-2.304-0.1408a595.8976 595.8976 0 0 0-4.5952-0.4032c-0.544 0-0.9472-0.1344-1.4912-0.1344-2.0288-0.2688-4.064-0.544-5.952-0.8128-0.2752 0-0.544-0.1344-0.9536-0.1344-1.76-0.2752-3.52-0.544-5.1392-0.8128-0.6784-0.1344-1.3568-0.2688-2.1696-0.4096-1.3504-0.2688-2.5728-0.5376-3.9232-0.672l-2.0288-0.4096c-1.3568-0.2688-2.8416-0.6784-4.1984-0.9472-0.8128-0.128-1.4912-0.4032-2.304-0.5376-1.216-0.2752-2.5664-0.6784-3.7888-0.9472-1.0816-0.2752-2.1632-0.544-3.2448-0.9472l-1.216-0.4096c-1.632-0.544-3.2512-0.9472-4.8768-1.4912-0.2688-0.128-0.544-0.2688-0.9472-0.2688-1.3568-0.4032-2.5728-0.9472-3.9232-1.3504a9.28 9.28 0 0 1-1.3568-0.544c-1.088-0.4032-2.0288-0.8128-3.1104-1.216l-2.0352-0.8128c-0.9472-0.4096-1.8944-0.8128-2.976-1.3568-0.6784-0.2688-1.216-0.5376-1.8944-0.8128-1.088-0.5376-2.0288-1.0816-3.1168-1.4848l-1.6192-0.8128c-1.4912-0.8128-3.1168-1.6256-4.608-2.432-24.768-14.3552-37.2224-33.1712-37.2224-51.9872l-0.128 44.128c0 18.816 12.3136 37.632 37.216 51.9808 1.4912 0.8128 2.9824 1.6256 4.608 2.4384 0.5376 0.2688 1.0816 0.5376 1.4848 0.8128 1.088 0.5376 2.0288 1.0816 3.1168 1.4848 0.672 0.2752 1.216 0.544 1.8944 0.8128 0.9472 0.4096 1.8944 0.9472 2.976 1.3568l2.0288 0.8128 2.0352 0.8064c0.4032 0.1408 0.672 0.2752 1.0816 0.4096 0.4032 0.1344 0.8128 0.2688 1.3504 0.544 1.3568 0.5376 2.5728 0.9472 3.9296 1.3504a1.9648 1.9648 0 0 0 0.9472 0.2688c1.6192 0.544 3.2448 1.088 4.8704 1.4912l1.216 0.4032c0.6784 0.2752 1.3568 0.4096 2.0352 0.6784 0.4032 0.1344 0.8128 0.1344 1.216 0.2688 1.216 0.4096 2.5728 0.6784 3.7888 0.9536 0.8128 0.1344 1.4912 0.4032 2.304 0.5376 1.3504 0.2688 2.8416 0.6784 4.192 0.9472l1.6256 0.4096c0.1344 0 0.2688 0 0.4096 0.1344 1.3504 0.2688 2.5664 0.5376 3.9232 0.6784 0.6784 0.1344 1.3504 0.2688 2.1632 0.4032 1.76 0.2688 3.392 0.544 5.1456 0.8128 0.2688 0 0.544 0.1344 0.8128 0.1344 2.0288 0.2688 4.0576 0.544 5.952 0.8128 0.544 0 0.9536 0.1344 1.4912 0.1344l4.608 0.4096h0.128c0.6784 0 1.3568 0.1344 2.1696 0.1344 1.3504 0.1344 2.5728 0.1344 3.9232 0.2688 0.8128 0 1.6256 0.1344 2.5728 0.1344 1.216 0 2.432 0.1344 3.6544 0.1344h8.8c1.216 0 2.432 0 3.648-0.1344h0.6848c0.5376 0 1.0816 0 1.76-0.1344 1.3504 0 2.8416-0.1344 4.192-0.2688 0.8128 0 1.76-0.1344 2.5728-0.1344 1.3568-0.1408 2.7072-0.2752 4.064-0.2752 0.4032 0 0.9472-0.1344 1.4848-0.1344 0.6784 0 1.216-0.1344 1.8944-0.1344 0.4096 0 0.8128-0.1344 1.3568-0.1344 1.76-0.1344 3.52-0.4096 5.28-0.6784 0.2688 0 0.5376-0.1344 0.8128-0.1344 1.4848-0.2688 2.976-0.4096 4.6016-0.6784 0.4032-0.1344 0.9472-0.1344 1.3504-0.2688 0.4096 0 0.6784-0.1344 1.088-0.1344 0.672-0.1344 1.216-0.2752 1.8944-0.4096 1.0816-0.2688 2.1632-0.4032 3.2448-0.6784 0.9472-0.1344 1.76-0.4032 2.7072-0.5376 1.088-0.2688 2.1632-0.544 3.2512-0.6784 0.9472-0.2688 1.76-0.4032 2.7072-0.6784 1.0816-0.2688 2.0288-0.5376 3.1104-0.8128 0.8128-0.2688 1.76-0.5376 2.5728-0.8064 1.088-0.2752 2.0288-0.6784 3.1104-0.9472 0.4096-0.1408 0.9472-0.2752 1.3568-0.4096 0.6784-0.1344 1.216-0.4032 1.8944-0.6784 0.4096-0.1344 0.8128-0.2688 1.088-0.4032 1.6192-0.544 3.1104-1.0816 4.5952-1.6256 0.2752-0.1344 0.544-0.2688 0.8128-0.2688 1.3568-0.544 2.5728-1.0816 3.7952-1.4912 0.4032-0.1344 0.8064-0.2688 1.216-0.5376l4.4672-2.0352c0.128-0.1344 0.2688-0.1344 0.5376-0.2688 1.3568-0.6784 2.5728-1.216 3.7952-1.8944 0.4032-0.1344 0.8064-0.4096 1.0816-0.544 1.3504-0.8128 2.8416-1.4848 4.192-2.2976 0.544-0.2752 1.088-0.544 1.4912-0.9472 0.544-0.2752 0.9472-0.544 1.3568-0.8128 0.8128-0.544 1.4848-0.9472 2.304-1.4912 0.672-0.4032 1.344-0.9472 2.0224-1.3504 0.6784-0.544 1.4912-0.9472 2.1696-1.4912 0.6784-0.4096 1.216-0.9472 1.8944-1.3568 0.6784-0.5376 1.3504-1.0816 2.0288-1.4848 0.544-0.544 1.216-0.9472 1.76-1.4912 0.6784-0.5376 1.216-1.0816 1.76-1.6256 0.2688-0.2688 0.544-0.4032 0.8128-0.672 0.544-0.4096 0.9472-0.9472 1.3504-1.3568 0.1408-0.1344 0.4096-0.2688 0.544-0.5376 0.9472-0.9472 1.76-1.76 2.5728-2.7136 0.1344-0.2688 0.4032-0.4032 0.544-0.672l2.0288-2.432c0.128-0.1408 0.2688-0.4096 0.4032-0.544 0-0.1408 0.1344-0.1408 0.1344-0.2752 0.6784-0.8128 1.3568-1.76 1.8944-2.5728 0.1408-0.128 0.2752-0.4032 0.4096-0.5376 0.6784-0.9472 1.216-1.8944 1.8944-2.8416 0.1344-0.1408 0.1344-0.2752 0.2688-0.4096 0.2752-0.4032 0.4096-0.6784 0.6784-1.088 0.4096-0.672 0.6784-1.216 1.088-1.888 0-0.1344 0-0.1344 0.128-0.2688 0.544-1.088 1.088-2.1696 1.4912-3.2512 0.2688-0.544 0.544-1.216 0.6784-1.76 0.128-0.2688 0.128-0.544 0.2688-0.8128 0.2688-0.5376 0.4096-1.216 0.544-1.76a7.616 7.616 0 0 1 0.5376-1.6256c0.1344-0.672 0.2752-1.216 0.4096-1.8944 0.128-0.2688 0.128-0.672 0.2688-0.9472 0.1344-0.4032 0.1344-0.8128 0.2688-1.216v-0.4096c0.1344-1.0816 0.2752-2.0288 0.4096-3.1104v-0.4096c0-0.672 0.128-1.4848 0.128-2.1632v-1.088l0.1408-44.1216c-0.1344 0.6784-0.1344 1.8944-0.2688 2.976z" fill="#54CCCC" opacity=".75" p-id="24453"></path><path d="M523.7504 546.5856v0.4032c-0.1344 1.088-0.2752 2.0288-0.4096 3.1168v0.4032c-0.128 0.6784-0.2688 1.4912-0.4032 2.1696-0.1344 0.672-0.2688 1.216-0.4096 1.8944a7.616 7.616 0 0 1-0.5376 1.6192c-0.1344 0.544-0.4096 1.216-0.544 1.76-0.2688 0.8128-0.672 1.76-0.9472 2.5728-0.4032 1.088-0.9472 2.1696-1.4912 3.2512 0 0.1344-0.128 0.1344-0.128 0.2688-0.544 0.9472-1.088 2.0288-1.6256 2.976-0.1408 0.1408-0.1408 0.2752-0.2752 0.4096-0.5376 0.9472-1.216 1.8944-1.8944 2.8416-0.1344 0.1344-0.2688 0.4032-0.4032 0.544a39.456 39.456 0 0 1-2.1696 2.8416c-0.128 0.128-0.2688 0.4032-0.4032 0.5376l-2.0288 2.4384c-0.1408 0.2688-0.4096 0.4032-0.544 0.6784a49.728 49.728 0 0 1-2.5728 2.7072l-0.5376 0.5376c-0.6784 0.6784-1.4912 1.3568-2.1696 2.0352-0.5376 0.5376-1.216 1.0816-1.76 1.6256-0.5376 0.5376-1.0816 0.9408-1.76 1.4848-0.672 0.544-1.3504 1.088-2.0288 1.4912-0.6784 0.4032-1.216 0.9472-1.8944 1.3504-0.6784 0.544-1.3568 0.9472-2.1632 1.4912-0.6784 0.4032-1.3568 0.9472-2.0352 1.3504-0.6784 0.544-1.4848 0.9472-2.304 1.4912-0.9408 0.544-1.888 1.216-2.976 1.76-1.3504 0.8128-2.7072 1.4912-4.192 2.304-0.4096 0.128-0.6784 0.4032-1.088 0.5376-1.216 0.6784-2.5664 1.3568-3.7888 1.8944-0.128 0.1344-0.2688 0.1344-0.5376 0.2752l-4.4672 2.0288c-0.4096 0.1344-0.8128 0.2688-1.216 0.5376-1.216 0.544-2.5728 1.088-3.7952 1.6256a1.92 1.92 0 0 1-0.8128 0.2752c-1.4848 0.5376-3.1104 1.0816-4.6016 1.6192-0.4032 0.1408-0.8128 0.2752-1.0816 0.4096-1.088 0.4032-2.1632 0.6784-3.2512 1.0816-0.9472 0.2688-2.0288 0.6784-3.1104 0.9472-0.8128 0.2688-1.76 0.544-2.5728 0.8128-1.0816 0.2688-2.0288 0.544-3.1104 0.8128-0.8128 0.2688-1.76 0.4032-2.7072 0.6784-1.088 0.2688-2.1696 0.5376-3.2512 0.672-0.9472 0.1344-1.76 0.4096-2.7072 0.544-1.088 0.2688-2.1632 0.4032-3.2448 0.6784-0.9536 0.128-1.9008 0.4032-2.9824 0.5376-0.4032 0.1344-0.9472 0.1344-1.3504 0.2752a46.8608 46.8608 0 0 1-4.608 0.672c-0.2688 0-0.5376 0.1344-0.672 0.1344-1.76 0.2752-3.52 0.4096-5.28 0.6784-0.4032 0-0.8128 0.1344-1.3504 0.1344-1.088 0.1408-2.1696 0.2752-3.2512 0.2752-1.3568 0.128-2.7072 0.2688-4.064 0.2688-0.8064 0-1.76 0.1344-2.5664 0.1344-1.3568 0.1344-2.848 0.1344-4.1984 0.2688-0.8128 0-1.6256 0.1408-2.432 0.1408-1.2224 0-2.4384 0-3.6608 0.128h-8.8c-1.216 0-2.432-0.128-3.648-0.128-0.8192 0-1.632 0-2.5792-0.1408-1.3504-0.128-2.5664-0.128-3.7888-0.2688-0.8128 0-1.4848-0.1344-2.304-0.1344a595.8976 595.8976 0 0 0-4.5952-0.4032c-0.544 0-0.9472-0.1408-1.4912-0.1408-2.0288-0.2688-4.064-0.5376-5.952-0.8128-0.2752 0-0.544-0.128-0.9536-0.128-1.76-0.2752-3.52-0.544-5.1392-0.8192-0.6784-0.128-1.3568-0.2688-2.1696-0.4032-1.3504-0.2688-2.5728-0.544-3.9232-0.6784-0.6784-0.128-1.3568-0.2688-2.0288-0.4032-1.3568-0.2752-2.8416-0.6784-4.1984-0.9472-0.8128-0.1344-1.4912-0.4096-2.304-0.544-1.216-0.2688-2.5664-0.6784-3.7888-0.9472a29.3312 29.3312 0 0 1-3.2448-0.9472l-1.216-0.4032c-1.632-0.544-3.2512-0.9472-4.8768-1.4912-0.2688-0.1344-0.544-0.2688-0.9472-0.2688-1.3568-0.4096-2.5728-0.9472-3.9232-1.3568a9.28 9.28 0 0 1-1.3568-0.544c-1.088-0.4032-2.0288-0.8064-3.1104-1.216l-2.0352-0.8128c-0.9472-0.4032-1.8944-0.8128-2.976-1.3504-0.6784-0.2752-1.216-0.544-1.8944-0.8128-1.088-0.544-2.0288-1.088-3.1168-1.4912l-1.6192-0.8128c-1.4912-0.8128-3.1168-1.6192-4.608-2.432-24.768-14.3488-37.2224-33.1648-37.2224-51.9808l-0.128 44.128c0 18.816 12.3136 37.632 37.216 51.9744 1.4912 0.8128 2.9824 1.6256 4.608 2.4384 0.5376 0.2752 1.0816 0.544 1.4848 0.8128 1.088 0.544 2.0288 1.0816 3.1168 1.4912 0.672 0.2688 1.216 0.5376 1.8944 0.8128 0.9472 0.4032 1.8944 0.9472 2.976 1.3504l2.0288 0.8128 2.0352 0.8128c0.4032 0.1344 0.672 0.2688 1.0816 0.4032 0.4032 0.1408 0.8128 0.2752 1.3504 0.544 1.3568 0.544 2.5728 0.9472 3.9296 1.3568a1.9648 1.9648 0 0 0 0.9472 0.2688c1.6192 0.5376 3.2448 1.0816 4.8704 1.4848l1.216 0.4096c0.6784 0.2688 1.3568 0.4032 2.0352 0.6784 0.4032 0.1344 0.8128 0.1344 1.216 0.2688 1.216 0.4032 2.5728 0.6784 3.7888 0.9472 0.8128 0.1344 1.4912 0.4096 2.304 0.544 1.3504 0.2688 2.8416 0.672 4.192 0.9472l1.6256 0.4032c0.1344 0 0.2688 0 0.4096 0.1344 1.3504 0.2752 2.5664 0.544 3.9232 0.6784 0.6784 0.1344 1.3504 0.2688 2.1632 0.4096 1.76 0.2688 3.392 0.5376 5.1456 0.8064 0.2688 0 0.544 0.1408 0.8128 0.1408 2.0288 0.2688 4.0576 0.5376 5.952 0.8064 0.544 0 0.9536 0.1408 1.4912 0.1408 1.4912 0.1344 2.976 0.2688 4.608 0.4032h0.128c0.6784 0 1.3568 0.1344 2.1696 0.1344 1.3504 0.1344 2.5728 0.1344 3.9232 0.2752 0.8128 0 1.6256 0.1344 2.5728 0.1344 1.216 0 2.432 0.1344 3.6544 0.1344h8.8c1.216 0 2.432 0 3.648-0.1344h0.6848c0.5376 0 1.0816 0 1.76-0.1344 1.3504 0 2.8416-0.1408 4.192-0.2752 0.8128 0 1.76-0.1344 2.5728-0.1344 1.3568-0.1344 2.7072-0.2688 4.064-0.2688 0.4032 0 0.9472-0.1344 1.4848-0.1344 0.6784 0 1.216-0.1408 1.8944-0.1408 0.4096 0 0.8128-0.1344 1.3568-0.1344 1.76-0.1344 3.52-0.4032 5.28-0.672 0.2688 0 0.5376-0.1408 0.8128-0.1408 1.4848-0.2688 2.976-0.4032 4.6016-0.672 0.4032-0.1344 0.9472-0.1344 1.3504-0.2752 0.4096 0 0.6784-0.1344 1.088-0.1344 0.672-0.1344 1.216-0.2688 1.8944-0.4032 1.0816-0.2752 2.1632-0.4096 3.2448-0.6784 0.9472-0.1344 1.76-0.4032 2.7072-0.544 1.088-0.2688 2.1632-0.5376 3.2512-0.672 0.9472-0.2752 1.76-0.4096 2.7072-0.6784 1.0816-0.2688 2.0288-0.544 3.1104-0.8128 0.8128-0.2688 1.76-0.544 2.5728-0.8128 1.088-0.2688 2.0288-0.6784 3.1104-0.9472 0.4096-0.1344 0.9472-0.2688 1.3568-0.4032 0.6784-0.1408 1.216-0.4096 1.8944-0.6784 0.4096-0.1344 0.8128-0.2688 1.088-0.4096 1.6192-0.5376 3.1104-1.0816 4.5952-1.6192a1.856 1.856 0 0 1 0.8128-0.2752c1.3568-0.5376 2.5728-1.0816 3.7952-1.4848 0.4032-0.1408 0.8064-0.2752 1.216-0.544l4.4672-2.0288c0.128-0.1344 0.2688-0.1344 0.5376-0.2752 1.3568-0.672 2.5728-1.216 3.7952-1.8944 0.4032-0.1344 0.8064-0.4032 1.0816-0.5376 1.3504-0.8128 2.8416-1.4912 4.192-2.304 0.544-0.2688 1.088-0.5376 1.4912-0.9472 0.544-0.2688 0.9472-0.5376 1.3568-0.8128 0.8128-0.5376 1.4848-0.9472 2.304-1.4848 0.672-0.4096 1.344-0.9472 2.0224-1.3568 0.6784-0.5376 1.4912-0.9472 2.1696-1.4912 0.6784-0.4032 1.216-0.9472 1.8944-1.3504 0.6784-0.544 1.3504-1.088 2.0288-1.4912 0.544-0.5376 1.216-0.9472 1.76-1.4848 0.6784-0.544 1.216-1.088 1.76-1.6256 0.2688-0.2688 0.544-0.4096 0.8128-0.6784 0.544-0.4032 0.9472-0.9472 1.3504-1.3504 0.1408-0.1408 0.4096-0.2752 0.544-0.544 0.9472-0.9472 1.76-1.76 2.5728-2.7072 0.1344-0.2688 0.4032-0.4032 0.544-0.6784l2.0288-2.432c0.128-0.1408 0.2688-0.4096 0.4032-0.544 0-0.1344 0.1344-0.1344 0.1344-0.2688 0.6784-0.8128 1.3568-1.76 1.8944-2.5728 0.1408-0.1344 0.2752-0.4096 0.4096-0.544 0.6784-0.9472 1.216-1.8944 1.8944-2.8416 0.1344-0.1344 0.1344-0.2688 0.2688-0.4032 0.2752-0.4096 0.4096-0.6784 0.6784-1.088 0.4096-0.672 0.6784-1.216 1.088-1.8944 0-0.128 0-0.128 0.128-0.2688 0.544-1.088 1.088-2.1632 1.4912-3.2512 0.2688-0.5376 0.544-1.216 0.6784-1.76 0.128-0.2688 0.128-0.5376 0.2688-0.8064 0.2688-0.544 0.4096-1.216 0.544-1.76a7.616 7.616 0 0 1 0.5376-1.6256c0.1344-0.6784 0.2752-1.216 0.4096-1.8944 0.128-0.2752 0.128-0.6784 0.2688-0.9472 0.1344-0.4096 0.1344-0.8128 0.2688-1.216v-0.4096c0.1344-1.088 0.2752-2.0288 0.4096-3.1168v-0.4032c0-0.6784 0.128-1.4912 0.128-2.1632v-1.088l0.1408-44.1216c-0.1344 0.672-0.1344 1.8944-0.2688 2.976z" fill="#13A08C" p-id="24454"></path><path d="M486.656 491.36c49.28 28.4224 49.5424 74.5792 0.544 103.1424-48.9984 28.4224-128.7296 28.4224-177.9968 0-49.2736-28.4288-49.5424-74.5856-0.544-103.1424 49.0048-28.5632 128.7296-28.5632 177.9968 0z" fill="#37BCBD" p-id="24455"></path><path d="M881.504 214.4128l64.8384-37.632-1.216 405.4016-64.8384 37.7664 1.216-405.536zM575.3216 37.76L640.16 0l306.1824 176.7808-64.8384 37.632L575.3216 37.76z" fill="#13A08C" p-id="24456"></path><path d="M881.504 214.4128l-1.216 405.536-306.1824-176.7808 1.216-405.4016 306.1824 176.64z" fill="#37BCBD" p-id="24457"></path><path d="M628.384 277.0816l19.0848-11.0976c-1.8944 1.0816-3.1168 3.2448-3.1168 6.8992 0 5.6896 3.9296 15.0272 10.9632 18.9568l-19.0848 11.0976c-7.04-4.064-10.9632-13.2672-10.9632-18.9504 0-3.6544 1.3568-5.824 3.1168-6.9056z" fill="#DB960E" p-id="24458"></path><path d="M628.3776 277.0816l19.0912-11.0976a5.728 5.728 0 0 0-1.8944 1.76l-19.0912 11.0976c0.6784-0.8128 1.216-1.3504 1.8944-1.76zM626.624 278.848l19.0848-11.104c-0.1344 0.2688-0.2752 0.4032-0.4096 0.672l-19.0848 11.104a2.944 2.944 0 0 1 0.4096-0.6784z" fill="#DB960E" p-id="24459"></path><path d="M626.2144 279.52l19.0848-11.0976c-0.1344 0.128-0.1344 0.4032-0.2688 0.672l-19.0848 11.104c0.1344-0.2752 0.1344-0.4096 0.2688-0.6784z" fill="#DB960E" p-id="24460"></path><path d="M625.9456 280.192l19.0848-11.0976c0 0.1408-0.1344 0.4096-0.1344 0.544l-19.0848 11.0976c0-0.2688 0-0.4032 0.128-0.5376z" fill="#DB960E" p-id="24461"></path><path d="M625.8112 280.736l19.0848-11.0976c0 0.1344-0.1344 0.4032-0.1344 0.5376l-19.0848 11.104c0-0.2752 0-0.4096 0.128-0.544z" fill="#DB960E" p-id="24462"></path><path d="M625.6768 281.28l19.0848-11.104c0 0.1408-0.1344 0.4096-0.1344 0.544l-19.0912 11.0976c0-0.2688 0-0.4032 0.1408-0.5376z" fill="#DB960E" p-id="24463"></path><path d="M625.536 281.8176l19.0912-11.0976c0 0.1344 0 0.4096-0.1408 0.544l-19.0848 11.0976c0-0.2688 0.1344-0.4032 0.1344-0.544z" fill="#DB960E" p-id="24464"></path><path d="M625.408 282.3616l19.0784-11.0976v0.5376l-19.0848 11.104v-0.544z" fill="#DB960E" p-id="24465"></path><path d="M625.408 282.9056l19.0784-11.104v0.544l-19.0848 11.0976v-0.5376z" fill="#DB960E" p-id="24466"></path><path d="M625.408 283.4432l19.0848-11.0976v0.5376l-19.0912 11.104c-0.128-0.1344-0.128-0.4096 0-0.544z" fill="#DB960E" p-id="24467"></path><path d="M625.2672 283.9872l19.0848-11.0976v0.4032l-19.0848 11.0976v-0.4032z" fill="#DB960E" p-id="24468"></path><path d="M625.2672 284.3904l19.0848-11.0976v0.4032L625.2672 284.8c0.1344 0 0-0.1408 0-0.4096zM625.408 284.928l19.0784-11.0976v0.544l-19.0848 11.0976v-0.5376z" fill="#DB960E" p-id="24469"></path><path d="M625.408 285.472l19.0784-11.0976v0.544l-19.0848 11.0976v-0.544z" fill="#DB960E" p-id="24470"></path><path d="M625.408 285.8816l19.0784-11.0976c0 0.128 0 0.4032 0.1408 0.5376l-19.0912 11.104c0-0.1408 0-0.2752-0.128-0.544z" fill="#DB960E" p-id="24471"></path><path d="M625.536 286.4256l19.0912-11.104c0 0.1344 0 0.4096 0.1344 0.544l-19.0848 11.0976c-0.1408-0.1344-0.1408-0.2688-0.1408-0.5376zM625.6768 287.104l19.0848-11.104c0 0.1344 0.1344 0.4032 0.1344 0.5376l-19.0848 11.104c-0.1344-0.2752-0.1344-0.4096-0.1344-0.544z" fill="#DB960E" p-id="24472"></path><path d="M625.8112 287.6416l19.0848-11.104c0 0.1408 0.1344 0.4096 0.1344 0.6784l-19.0848 11.104c-0.1344-0.2752-0.1344-0.544-0.1344-0.6784z" fill="#DB960E" p-id="24473"></path><path d="M625.9456 288.1792l19.0848-11.0976c0 0.2688 0.1344 0.4096 0.1344 0.6784l-19.0848 11.0976c-0.1344-0.2688-0.1344-0.4032-0.1344-0.6784z" fill="#DB960E" p-id="24474"></path><path d="M626.08 288.8576l19.0848-11.0976c0 0.2688 0.1344 0.4032 0.1344 0.6784l-19.0848 11.0976c0-0.2688-0.1344-0.4096-0.1344-0.6784zM626.2144 289.536l19.0848-11.0976c0 0.2688 0.1344 0.4032 0.1344 0.672l-19.0848 11.104c0-0.2752 0-0.544-0.128-0.6784z" fill="#DB960E" p-id="24475"></path><path d="M626.4832 290.08l19.0912-11.104a1.024 1.024 0 0 0 0.2688 0.544l-19.0848 11.0976c-0.1344-0.1344-0.2752-0.2688-0.2752-0.5376zM626.624 290.752l19.0848-11.0976c0.1344 0.1344 0.1344 0.4032 0.2688 0.544l-19.0848 11.0976c-0.1344-0.2688-0.1344-0.4096-0.2752-0.544z" fill="#DB960E" p-id="24476"></path><path d="M626.8928 291.296l19.0848-11.0976c0.1344 0.128 0.1344 0.4032 0.2688 0.5376L627.1616 291.84a1.0304 1.0304 0 0 1-0.2688-0.5376z" fill="#DB960E" p-id="24477"></path><path d="M627.0272 291.84l19.0848-11.104c0.1344 0.1344 0.1344 0.4096 0.2688 0.544l-19.0848 11.0976a1.024 1.024 0 0 0-0.2688-0.544z" fill="#DB960E" p-id="24478"></path><path d="M627.296 292.3776l19.0912-11.0976c0.1344 0.128 0.1344 0.4032 0.2688 0.5376l-19.0848 11.104c-0.1408-0.1344-0.1408-0.2752-0.2752-0.544z" fill="#DB960E" p-id="24479"></path><path d="M627.5712 292.9216l19.0848-11.104c0.1344 0.1408 0.1344 0.4096 0.2688 0.544L627.84 293.4592c-0.1344-0.128-0.1344-0.2688-0.2688-0.5376zM627.84 293.5936l19.0848-11.0976c0.1344 0.2688 0.2752 0.4096 0.2752 0.6784l-19.0912 11.0976a1.0368 1.0368 0 0 0-0.2688-0.6784z" fill="#DB960E" p-id="24480"></path><path d="M628.2432 294.1376l19.0912-11.0976c0.1344 0.2688 0.4032 0.672 0.5376 0.9472l-19.0848 11.0976a2.176 2.176 0 0 1-0.544-0.9472z" fill="#DB960E" p-id="24481"></path><path d="M628.7872 295.0848l19.0848-11.0976c0.2688 0.4032 0.544 0.9472 0.8128 1.3504l-19.0848 11.104c-0.2752-0.4096-0.544-0.8128-0.8128-1.3568zM629.6 296.576l19.0848-11.104c0.2688 0.2752 0.4096 0.6784 0.6784 0.9536l-19.0848 11.0976c-0.2688-0.4096-0.544-0.6784-0.6784-0.9472z" fill="#DB960E" p-id="24482"></path><path d="M630.272 297.5232l19.0912-11.0976c0.1344 0.128 0.2688 0.4032 0.4032 0.5376l-19.0848 11.0976a1.8624 1.8624 0 0 0-0.4032-0.5376z" fill="#DB960E" p-id="24483"></path><path d="M630.6816 298.0608l19.0848-11.0976c0.1344 0.1344 0.2752 0.4032 0.4096 0.544l-19.0912 11.0976a1.8624 1.8624 0 0 0-0.4032-0.544zM631.0912 298.6048l19.0848-11.0976 0.4032 0.4032-19.0848 11.0976-0.4032-0.4032z" fill="#DB960E" p-id="24484"></path><path d="M631.4944 299.008l19.0848-11.0976 0.4096 0.4096-19.0912 11.0976-0.4032-0.4096z" fill="#DB960E" p-id="24485"></path><path d="M631.8976 299.4176l19.0912-11.0976 0.4032 0.4032-19.0848 11.0976c-0.1344 0-0.2688-0.128-0.4096-0.4032zM632.3072 299.9552l19.0848-11.0976 0.4096 0.4096-19.0912 11.0976-0.4032-0.4096zM632.8448 300.3648l19.0912-11.0976 0.4032 0.4032-19.0848 11.0976-0.4096-0.4032z" fill="#DB960E" p-id="24486"></path><path d="M633.2544 300.768l19.0848-11.0976a1.8112 1.8112 0 0 0 0.544 0.4096l-19.0848 11.0976c-0.2752-0.1344-0.4096-0.2688-0.544-0.4096z" fill="#DB960E" p-id="24487"></path><path d="M633.664 301.1776l19.0848-11.0976a1.856 1.856 0 0 0 0.5376 0.4032l-19.0848 11.0976a1.8624 1.8624 0 0 0-0.5376-0.4032z" fill="#DB960E" p-id="24488"></path><path d="M634.2016 301.5808l19.0848-11.0976a1.7984 1.7984 0 0 0 0.544 0.4032l-19.0848 11.104a1.8624 1.8624 0 0 1-0.544-0.4096zM634.7456 301.9904l19.0848-11.104a1.856 1.856 0 0 0 0.5376 0.4096l-19.0848 11.0976a1.8624 1.8624 0 0 1-0.5376-0.4032z" fill="#DB960E" p-id="24489"></path><path d="M635.1488 302.4l19.0848-11.104c0.1344 0.1344 0.2752 0.2688 0.544 0.2688l-19.0848 11.0976a1.0304 1.0304 0 0 0-0.544-0.2688z" fill="#DB960E" p-id="24490"></path><path d="M635.6928 302.6624l19.0848-11.0976c0.1344 0.1344 0.2688 0.2688 0.5376 0.2688l-19.0848 11.104c-0.2688-0.1344-0.4032-0.1344-0.5376-0.2752zM636.2304 302.9376l19.0848-11.104s0.1408 0 0.1408 0.1408l-19.2256 10.9632z" fill="#DB960E" p-id="24491"></path><path d="M664.2496 292.9216l-19.0848 11.0976c-2.1632 1.216-5.4144 1.088-8.9344-0.9472l19.0912-11.0976c3.5136 2.0288 6.8992 2.1632 8.928 0.9472z" fill="#DB960E" p-id="24492"></path><path d="M636.2304 303.072l19.0912-11.0976c0.1344 0.128 0.2688 0.128 0.4032 0.2688l-19.0848 11.0976c-0.1344-0.128-0.2688-0.2688-0.4096-0.2688z" fill="#DB960E" p-id="24493"></path><path d="M636.64 303.2064l19.0848-11.0976c0.1344 0.128 0.2688 0.128 0.5376 0.2688l-19.0848 11.0976c-0.128 0-0.2688-0.128-0.5376-0.2688zM637.184 303.4752l19.0848-11.0976c0.1344 0.1344 0.2688 0.1344 0.5376 0.2688l-19.0848 11.104c-0.2688-0.1344-0.4032-0.1344-0.544-0.2752z" fill="#DB960E" p-id="24494"></path><path d="M637.7216 303.744l19.0848-11.0976c0.1344 0.1408 0.2688 0.1408 0.544 0.2752l-19.0912 11.0976c-0.2688-0.1344-0.4032-0.2688-0.5376-0.2688z" fill="#DB960E" p-id="24495"></path><path d="M638.1248 303.8848l19.0912-11.0976c0.1344 0.128 0.4032 0.128 0.5376 0.128l-19.0848 11.104c-0.1344 0-0.2688 0-0.544-0.1344zM638.6688 304.1536l19.0848-11.0976c0.1344 0 0.4096 0.128 0.544 0.128l-19.0848 11.104c-0.1408 0-0.4096-0.128-0.544-0.128zM639.2128 304.288l19.0848-11.0976c0.1344 0 0.4032 0.1344 0.5376 0.1344l-19.0848 11.0976c-0.128 0-0.4032 0-0.5376-0.128z" fill="#DB960E" p-id="24496"></path><path d="M639.7504 304.4224l19.0848-11.0976c0.1344 0 0.4096 0.1344 0.544 0.1344l-19.0848 11.104c-0.1344 0-0.4096 0-0.544-0.1408zM640.2944 304.5632l19.0848-11.104c0.1344 0 0.4096 0.1344 0.544 0.1344l-19.0912 11.104c-0.1344 0-0.4032-0.1344-0.5376-0.1344z" fill="#DB960E" p-id="24497"></path><path d="M640.832 304.6976l19.0912-11.104h0.5376l-19.0848 11.104h-0.544z" fill="#DB960E" p-id="24498"></path><path d="M641.376 304.6976l19.0848-11.104h0.6784l-19.0848 11.104h-0.6784z" fill="#DB960E" p-id="24499"></path><path d="M642.0544 304.6976l19.0848-11.104h0.6784l-19.0848 11.104h-0.6784z" fill="#DB960E" p-id="24500"></path><path d="M642.7328 304.6976l19.0848-11.104c0.2688 0 0.5376 0 0.672-0.128l-19.0848 11.0976c-0.1344 0.128-0.4032 0.128-0.672 0.128z" fill="#DB960E" p-id="24501"></path><path d="M643.4048 304.5632l19.0848-11.104c0.2752 0 0.544-0.128 0.8128-0.2688l-19.0848 11.0976a1.44 1.44 0 0 1-0.8128 0.2752zM644.352 304.4224l19.0912-11.0976c0.2688-0.1344 0.672-0.2688 0.9472-0.4032l-19.0912 11.0976c-0.4032 0.1344-0.672 0.2688-0.9472 0.4032z" fill="#DB960E" p-id="24502"></path><path d="M636.3712 261.6512c13.9392 8.1216 23.9552 26.528 23.9552 41.4208 0 16.1088-10.1504 21.792-24.096 13.6704-13.9392-8.1216-23.9552-26.528-23.9552-41.4208 0.1344-16.1088 11.0976-21.248 24.096-13.6704z m-0.1408 41.4208c7.04 4.0576 12.9984 0.544 11.104-6.3616 0-5.6832-5.0112-15.5648-10.9632-18.9504-5.0112-2.8416-10.9696-1.76-11.104 6.2272 0 5.824 4.064 15.0208 10.9632 19.0848zM637.7216 163.3792c12.0448 6.9056 23.008 24.768 22.8736 39.6608-1.0816 14.3488-11.0976 20.032-23.1424 13.1328-12.0512-6.912-23.0144-24.768-22.88-39.6608 0.1344-13.8112 10.1568-20.576 23.1488-13.1328z" fill="#FFCB57" p-id="24503"></path><path d="M679.4112 289.6704v-0.4032-0.2752-0.5376c0-0.4096-0.1344-0.8128-0.1344-1.216 0-0.2752-0.1344-0.544-0.1344-0.9536V286.016a3.9744 3.9744 0 0 0-0.2688-1.216c-0.1408-0.4096-0.1408-0.8128-0.2752-1.216v-0.2752c-0.1344-0.2688-0.1344-0.6784-0.2688-0.9472-0.1344-0.4032-0.2688-0.8128-0.4032-1.3568 0-0.128-0.1408-0.2688-0.1408-0.4032 0-0.1344 0-0.1344-0.1344-0.2688 0-0.1344-0.1344-0.4096-0.1344-0.544l-0.4032-1.216c-0.1344-0.2752-0.2752-0.544-0.2752-0.9472v-0.2752l-0.4032-1.216a8.2304 8.2304 0 0 0-0.4096-1.088c0-0.128-0.1344-0.128-0.1344-0.2624 0 0 0-0.1408-0.1344-0.1408-0.1344-0.2688-0.1344-0.4032-0.2688-0.672-0.1344-0.4096-0.4096-0.8128-0.544-1.216a6.6368 6.6368 0 0 1-0.4032-0.9536s0-0.128-0.1344-0.128v-0.1408c-0.2752-0.544-0.544-0.9472-0.8128-1.4912a2.944 2.944 0 0 0-0.4096-0.672c-0.1344-0.2752-0.2688-0.544-0.5376-0.8128a1.0432 1.0432 0 0 1-0.2752-0.544 4.1152 4.1152 0 0 0-0.672-0.9472 5.28 5.28 0 0 1-0.6784-1.216c-0.1344-0.1408-0.1344-0.2752-0.2688-0.4096-0.2752-0.5376-0.6784-0.9472-1.088-1.4848-0.1344-0.1408-0.2688-0.4096-0.4032-0.544 0 0 0-0.1344-0.1344-0.1344a9.5744 9.5744 0 0 0-1.0816-1.3568 2.3808 2.3808 0 0 1-0.6784-0.9472s0-0.128-0.1344-0.128l-0.1344-0.1408a7.136 7.136 0 0 0-0.9472-1.088 3.1936 3.1936 0 0 0-0.9536-0.9408l-0.1344-0.1344-0.1344-0.1408c-0.2688-0.2688-0.4032-0.5376-0.6784-0.672l-0.9472-0.9472c-0.1344-0.1408-0.2688-0.2752-0.4032-0.2752l-0.2688-0.2688c-0.1408-0.1344-0.2752-0.2688-0.544-0.4032-0.4032-0.2752-0.6784-0.6784-1.0816-0.9472-0.1344-0.1408-0.4096-0.2752-0.544-0.4096-0.1344 0-0.1344-0.1344-0.2688-0.1344-0.1344-0.1344-0.2688-0.1344-0.2688-0.2688-0.4096-0.2752-0.6784-0.544-1.088-0.8128-0.2688-0.2752-0.5376-0.4096-0.8064-0.6784 0 0-0.1408 0-0.1408-0.1344l-0.1344-0.1344c-0.4032-0.2752-0.6784-0.544-1.0816-0.6784-0.4032-0.2688-0.6784-0.4032-1.0816-0.6784-0.1344 0-0.1344-0.1344-0.2688-0.1344l-0.8128-0.4032c-0.1408 0-0.1408-0.1408-0.2752-0.1408-0.1344-0.128-0.2688-0.128-0.4032-0.2688-0.1344 0-0.2688-0.1344-0.2688-0.1344-0.1408-0.1344-0.2752-0.1344-0.4096-0.1344-0.1344 0-0.2688-0.1344-0.4032-0.1344 0 0-0.1344 0-0.1344-0.1344-0.2752-0.1408-0.4096-0.1408-0.6784-0.2752-0.1344 0-0.1344-0.128-0.2752-0.128-0.2688-0.1408-0.672-0.2752-0.9472-0.4096-0.1344 0-0.1344 0-0.2688-0.1408-0.2688-0.128-0.4032-0.128-0.6784-0.2688h-0.1344c-0.1344 0-0.2688-0.1344-0.4032-0.1344-0.1344 0-0.2752-0.1344-0.4096-0.1344h-0.2688c-0.1344 0-0.2688-0.1344-0.4032-0.1344-0.1408 0-0.2752 0-0.4096-0.1344h-0.2688c-0.1344 0-0.2688 0-0.544-0.1408H643.136c-0.4032 0-0.8128 0.1408-1.216 0.1408h-0.1344a16.4928 16.4928 0 0 0-1.3568 0.4032h-0.1344-0.1344c-0.2752 0.1344-0.4096 0.1344-0.6784 0.2688-0.1344 0-0.2688 0.1344-0.2688 0.1344-0.2752 0.1408-0.544 0.2752-0.9472 0.4096l-19.0912 11.0976c0.2752-0.128 0.544-0.2688 0.9472-0.4032 0.1408 0 0.2752-0.1344 0.2752-0.1344 0.2688-0.1408 0.4032-0.1408 0.6784-0.2752 0.128 0 0.128 0 0.2688-0.128 0.4032-0.1408 0.9472-0.2752 1.3504-0.4096h0.1344c0.4096-0.1344 0.8128-0.1344 1.216-0.1344h3.2576c0.128 0 0.4032 0 0.5376 0.128a1.024 1.024 0 0 1 0.544 0.1408c0.2688 0 0.4032 0.1344 0.672 0.1344 0.1408 0 0.2752 0 0.4096 0.1344 0.2688 0 0.4032 0.1344 0.6784 0.1344 0.128 0 0.2688 0.1344 0.4032 0.1344 0.2688 0.1408 0.544 0.1408 0.8128 0.2752 0.1344 0 0.1344 0 0.2688 0.128 0.4096 0.1408 0.6784 0.2752 1.088 0.4096 0.128 0 0.128 0.1408 0.2688 0.1408l0.8128 0.4032c0.128 0 0.2688 0.1344 0.4032 0.1344l0.8128 0.4096c0.1344 0.128 0.2688 0.128 0.4032 0.2688 0.4096 0.1344 0.6784 0.4032 1.088 0.5376 0.8128 0.544 1.76 1.088 2.5728 1.6256 0 0 0.128 0 0.128 0.1344 0.8192 0.544 1.4912 1.088 2.304 1.76 0.1344 0 0.1344 0.1344 0.2752 0.1344 0.672 0.544 1.3504 1.216 2.1632 1.9008l0.2688 0.2688 2.0288 2.0288 0.1408 0.1344c0.672 0.8128 1.3504 1.4912 2.0288 2.304 0 0 0 0.1344 0.1344 0.1344 0.6784 0.8128 1.216 1.6256 1.8944 2.304a1.984 1.984 0 0 1 0.4096 0.5376c0.4032 0.6784 0.8064 1.216 1.3504 1.8944 0.2688 0.4096 0.544 0.8128 0.6784 1.216 0.2688 0.544 0.6784 1.088 0.9472 1.6256 0.1344 0.2752 0.2688 0.544 0.5376 0.8128 0.4096 0.8128 0.8128 1.4912 1.2224 2.304v0.1344c0.4032 0.9472 0.8128 1.76 1.216 2.7072 0 0 0 0.1344 0.1344 0.1344 0.4096 0.9472 0.8128 1.8944 1.088 2.8416v0.1344c0.2688 0.9472 0.672 1.76 0.9472 2.7072 0 0.1408 0 0.1408 0.1344 0.2752 0.2688 0.9472 0.5376 1.8944 0.672 2.7072v0.128c0.2752 0.9536 0.4096 1.9008 0.544 2.848v0.1344c0.1344 0.9472 0.2688 1.76 0.2688 2.7072v0.2752c0.1408 0.9472 0.1408 1.8944 0.1408 2.7008 0 0.9536 0 1.9008-0.1408 2.848v0.128c-0.1344 0.8192-0.1344 1.7664-0.2688 2.4384v0.1408a13.6192 13.6192 0 0 1-0.544 2.304c-0.1344 0.672-0.4032 1.216-0.672 1.7536 0 0.1344-0.1344 0.2688-0.1344 0.4096-0.1408 0.4032-0.4096 0.8128-0.6784 1.216a1.024 1.024 0 0 0-0.2688 0.544c-0.2752 0.5376-0.6784 0.9472-0.9536 1.3504l-0.2688 0.2688c-0.2688 0.4096-0.6784 0.6784-0.9472 0.9472-0.1344 0.1408-0.2688 0.2752-0.4032 0.2752a4.8832 4.8832 0 0 1-1.3568 0.9472l19.0848-11.0976c0.4096-0.2752 0.9472-0.544 1.3568-0.9536 0.1344-0.128 0.2688-0.128 0.4032-0.2688l0.9472-0.9472 0.2752-0.2688c0.2688-0.4096 0.672-0.8128 0.9472-1.216 0 0 0-0.1408 0.1344-0.1408a1.0304 1.0304 0 0 0 0.2688-0.5376l0.4096-0.8128c0-0.1344 0.1344-0.2752 0.1344-0.4096 0.1344-0.128 0.1344-0.2688 0.1344-0.4032 0.1344-0.1344 0.1344-0.4096 0.2688-0.544l0.4096-1.216a4.032 4.032 0 0 0 0.2688-1.3568c0.1344-0.2688 0.1344-0.672 0.1344-0.9472V297.792c0.1344-0.4032 0.1344-0.8128 0.1344-1.216 0-0.4096 0.1344-0.6784 0.1344-1.088v-0.128-0.1408c0-0.4032 0-0.8128 0.1408-1.3504v-1.3568-0.128-1.088c-0.2752-0.8128-0.2752-1.216-0.2752-1.6256zM679.68 190.9952v-1.088-0.8064-0.2752c0-0.4032-0.1344-0.6784-0.1344-1.0816 0-0.4032-0.1344-0.8128-0.1344-1.088v-0.4032c0-0.2688-0.1344-0.5376-0.1344-0.8128-0.1344-0.4032-0.1344-0.8064-0.2688-1.216 0-0.2688-0.1344-0.5376-0.1344-0.8128v-0.128-0.2752a3.808 3.808 0 0 1-0.2752-1.216l-0.4032-1.216v-0.2752c-0.1344-0.2752-0.1344-0.544-0.2688-0.8128l-0.4096-1.216c-0.1344-0.2752-0.1344-0.4096-0.2688-0.6784 0 0 0-0.1344-0.1344-0.1344 0-0.1408 0-0.1408-0.1408-0.2752-0.1344-0.4032-0.2688-0.672-0.4032-1.0816a2.656 2.656 0 0 0-0.544-1.0816c0-0.1344 0-0.1344-0.1344-0.2688 0 0 0-0.1344-0.1344-0.1344-0.1344-0.2752-0.2688-0.544-0.2688-0.6784-0.1344-0.4096-0.4096-0.8128-0.544-1.216-0.1344-0.1408-0.1344-0.4096-0.2688-0.544 0-0.1344-0.1344-0.1344-0.1344-0.2752-0.1344-0.128-0.1344-0.2688-0.2752-0.4032-0.4032-0.6784-0.672-1.3504-1.0816-2.0288v-0.1344c-0.5376-0.9472-1.216-1.8944-1.76-2.8416v-0.1408c-0.5376-0.672-0.9472-1.3504-1.4848-2.0288l-0.1344-0.1344c0-0.1344-0.1408-0.1344-0.1408-0.2688-0.2688-0.2752-0.5376-0.6784-0.8128-0.9472-0.2688-0.4096-0.5376-0.8128-0.9472-1.088l-0.1344-0.128-0.1344-0.1408c-0.2688-0.2688-0.5376-0.5376-0.6784-0.8128a3.104 3.104 0 0 0-0.9472-0.9472c0-0.1344-0.1344-0.1344-0.1344-0.2688s-0.1344-0.1344-0.1344-0.1344l-0.544-0.544a132.1664 132.1664 0 0 0-0.9472-0.9472c-0.1344-0.1344-0.2688-0.1344-0.2688-0.2688l-0.2688-0.2752-0.4096-0.4032c-0.2688-0.2688-0.672-0.544-0.9472-0.9472l-0.4032-0.4032c-0.1344 0-0.1344-0.1408-0.2688-0.1408-0.1408-0.128-0.2752-0.128-0.4096-0.2688a4.1216 4.1216 0 0 0-0.9472-0.6784c-0.2688-0.128-0.4032-0.2688-0.6784-0.4032l-0.1344-0.1344-0.1344-0.1344c-0.2688-0.2752-0.6784-0.4096-0.9472-0.544-0.2688-0.1344-0.544-0.4096-0.9472-0.544-0.1344 0-0.1344-0.128-0.2688-0.128a2.8608 2.8608 0 0 1-0.6784-0.4096c-0.1344 0-0.1344-0.1344-0.2688-0.1344-0.1408 0-0.2752-0.1344-0.4096-0.1344-0.1344 0-0.1344-0.1408-0.2688-0.1408-0.1344-0.128-0.4096-0.128-0.544-0.2688-0.1344 0-0.1344-0.1344-0.2688-0.1344h-0.1344c-0.2752-0.1344-0.544-0.2688-0.9472-0.4096 0 0-0.1344 0-0.1344-0.128-0.2752-0.1408-0.4096-0.1408-0.6784-0.2752h-0.1344c-0.1408 0-0.2752-0.1344-0.4096-0.1344-0.1344 0-0.2688-0.1344-0.4032-0.1344-0.1344 0-0.1344 0-0.2752-0.1344-0.1344 0-0.2688-0.1408-0.4032-0.1408h-0.2688c-0.1344 0-0.2752 0-0.4096-0.128-0.1344 0-0.2688 0-0.4032-0.1408h-0.1344c-0.1408 0-0.2752 0-0.544-0.1344-0.1344 0-0.2688 0-0.4032-0.1344h-2.0352H645.5744c-0.2752 0-0.6784 0.128-0.9472 0.128h-0.1408c-0.5376 0.1408-0.9472 0.2752-1.4848 0.4096h-0.2688c-0.2752 0.1408-0.4096 0.1408-0.6784 0.2752-0.1344 0-0.1344 0.128-0.2752 0.128l-0.8064 0.4096-19.0912 11.104 0.8128-0.4096c0.1344 0 0.1344-0.1344 0.2752-0.1344 0.2688-0.1344 0.4032-0.1344 0.672-0.2688 0.1408 0 0.1408 0 0.2752-0.1344 0.4032-0.1408 0.9472-0.2752 1.4848-0.4096h0.2752c0.2688 0 0.672-0.1344 0.9472-0.1344h3.6544c0.128 0 0.2688 0 0.4032 0.1344a1.216 1.216 0 0 1 0.6784 0.1344c0.1344 0 0.2688 0 0.4032 0.1344 0.2752 0 0.4096 0.1408 0.6784 0.1408 0.1344 0 0.2688 0.128 0.4096 0.128 0.2688 0 0.4032 0.1408 0.672 0.2752 0.1408 0 0.2752 0.1344 0.4096 0.1344 0.2688 0.1344 0.5376 0.1344 0.8128 0.2688 0 0 0.128 0 0.128 0.1408 0.4096 0.128 0.6848 0.2688 1.088 0.4032 0.1344 0 0.1344 0.1344 0.2688 0.1344l0.8128 0.4096c0.1344 0 0.2752 0.128 0.4096 0.128 0.2688 0.1408 0.672 0.4096 0.9472 0.544 0.6784 0.4096 1.4848 0.9472 2.1632 1.3568l0.1344 0.1344c0.6784 0.4032 1.3568 0.9472 2.0352 1.4912 0.1344 0 0.1344 0.128 0.2688 0.128 0.6784 0.544 1.216 1.088 1.8944 1.632l0.2688 0.2688c0.6784 0.5376 1.2224 1.216 1.8944 1.8944l0.1344 0.1344c0.6784 0.6784 1.2224 1.3568 1.9008 2.0288l0.1344 0.1408c0.5376 0.672 1.216 1.4848 1.76 2.1632 0 0.1344 0.1344 0.1344 0.1344 0.2688 0.5376 0.8128 1.0816 1.4912 1.6256 2.304 0.672 0.9472 1.216 1.8944 1.76 2.8416 0.5376 0.8128 0.9472 1.6256 1.3504 2.5728 0 0.1344 0.1344 0.1344 0.1344 0.2688 0.4096 0.8128 0.8128 1.76 1.2224 2.5728 0 0 0 0.1344 0.1344 0.1344 0.4032 0.9472 0.8128 1.76 1.0816 2.7072 0 0 0 0.1344 0.1344 0.1344 0.4096 0.9472 0.6784 1.76 0.9472 2.7072v0.1344l0.8128 2.848v0.128c0.2688 0.9536 0.4032 1.7664 0.544 2.7136v0.128c0.1344 0.9536 0.2688 1.7664 0.4032 2.7136v0.1344c0.1344 0.9472 0.1344 1.8944 0.1344 2.7072s-0.1344 1.6256-0.2688 2.432v0.2752l-0.4096 2.0288c0 0.1344-0.1344 0.2752-0.1344 0.4096a7.872 7.872 0 0 1-0.672 1.8944c0 0.1344 0 0.1344-0.1408 0.2688-0.2688 0.544-0.4032 1.088-0.672 1.4912l-0.4096 0.8128c-0.1344 0.2688-0.4032 0.6784-0.5376 0.9472-0.1408 0.128-0.2752 0.4032-0.4096 0.5376-0.2688 0.2752-0.4032 0.6784-0.6784 0.9472l-0.4032 0.4096-0.8128 0.8128-0.4032 0.4032c-0.4096 0.4096-0.9472 0.6784-1.3568 0.9472l19.0848-11.0976c0.4096-0.2688 0.9472-0.544 1.3568-0.9472l0.4032-0.4096 0.8128-0.8064 0.4096-0.4096c0.2688-0.2688 0.5376-0.544 0.672-0.9472 0.1344-0.1344 0.2752-0.2688 0.4096-0.544 0-0.128 0.1344-0.128 0.1344-0.2688 0.1344-0.2688 0.2688-0.4032 0.4032-0.6784l0.4096-0.8128c0-0.128 0.1344-0.128 0.1344-0.2688 0.1344-0.4032 0.4032-0.8128 0.544-1.216 0-0.1344 0-0.1344 0.1344-0.2688 0.1344-0.4096 0.2688-0.9536 0.4032-1.4912 0-0.1344 0.1344-0.2688 0.1344-0.4096 0-0.128 0.1344-0.2688 0.1344-0.4032 0-0.1344 0.1408-0.2688 0.1408-0.544 0.1344-0.4032 0.1344-0.8128 0.2688-1.3504v-0.2688-0.2752c0-0.2688 0.1344-0.5376 0.1344-0.8128 0-0.4032 0.1344-0.8128 0.1344-1.3504v-0.2688c-0.6784-0.1408-0.6784-0.4096-0.6784-0.8128zM679.1424 387.5392v-0.8128-0.2752c0-0.4032-0.1344-0.672-0.1344-1.0816 0-0.4032-0.1344-0.8128-0.1344-1.088v-0.4032c0-0.2688-0.1344-0.5376-0.1344-0.8064-0.1408-0.4096-0.1408-0.8128-0.2752-1.216 0-0.2752-0.1344-0.544-0.1344-0.8192v-0.128-0.2752c-0.1344-0.4096-0.2688-0.8128-0.2688-1.216l-0.4096-1.216v-0.2752c-0.1344-0.2688-0.1344-0.544-0.2688-0.8128l-0.4032-1.216c-0.1408-0.2752-0.1408-0.4096-0.2752-0.6784 0 0 0-0.1344-0.1344-0.1344 0-0.1344 0-0.1344-0.1344-0.2752-0.1344-0.4032-0.2688-0.672-0.4032-1.0816-0.1408-0.4032-0.2752-0.8128-0.544-1.0816 0-0.1344 0-0.1344-0.1344-0.2688 0 0 0-0.1344-0.1344-0.1344-0.1344-0.2752-0.2752-0.544-0.2752-0.6784-0.1344-0.4096-0.4032-0.8128-0.5376-1.216-0.1344-0.1408-0.1344-0.4096-0.2752-0.544 0-0.1344-0.1344-0.1344-0.1344-0.2688-0.1344-0.1408-0.1344-0.2752-0.2688-0.4096-0.4032-0.6784-0.6784-1.3504-1.0816-2.0288v-0.1344c-0.544-0.9472-1.2224-1.8944-1.76-2.8416v-0.1408c-0.544-0.672-0.9472-1.3504-1.4912-2.0288l-0.1344-0.1344c0-0.1344-0.1344-0.1344-0.1344-0.2688-0.2688-0.2752-0.544-0.6784-0.8128-0.9472a3.6544 3.6544 0 0 0-0.9472-1.088l-0.1344-0.128-0.1344-0.1408a3.456 3.456 0 0 1-0.6784-0.8128c-0.2688-0.4032-0.544-0.672-0.9472-1.0816 0-0.1344-0.1344-0.1344-0.1344-0.2688l-0.1344-0.1344a39.52 39.52 0 0 1-0.544-0.544l-0.9472-0.9472-0.2688-0.2688-0.2752-0.2752-0.4032-0.4032c-0.2688-0.2688-0.6784-0.544-0.9472-0.9472-0.1344-0.1344-0.2688-0.2688-0.4096-0.2688-0.1344 0-0.1344-0.1408-0.2688-0.1408-0.1344-0.128-0.2688-0.128-0.4032-0.2688a4.2432 4.2432 0 0 0-0.9472-0.6784c-0.2752-0.128-0.4096-0.2688-0.6784-0.4032l-0.1344-0.1344-0.1344-0.1344c-0.2752-0.2752-0.6784-0.4096-0.9536-0.544-0.2688-0.1344-0.5376-0.4032-0.9472-0.544-0.1344 0-0.1344-0.128-0.2688-0.128-0.2688-0.1408-0.5376-0.2752-0.6784-0.4096-0.1344 0-0.1344-0.1344-0.2688-0.1344s-0.2688-0.1408-0.4032-0.1408c-0.1408 0-0.1408-0.128-0.2752-0.128-0.1344-0.1408-0.4032-0.1408-0.5376-0.2752-0.1344 0-0.1344-0.1344-0.2752-0.1344h-0.1344c-0.2688-0.1344-0.5376-0.2688-0.9472-0.4032-0.1344 0-0.1344 0-0.1344-0.1408-0.2688-0.128-0.4032-0.128-0.6784-0.2688h-0.1344c-0.1344 0-0.2688-0.1344-0.4032-0.1344-0.1344 0-0.2752-0.1344-0.4096-0.1344-0.1344 0-0.1344 0-0.2688-0.1344-0.1344 0-0.2688-0.1408-0.4032-0.1408h-0.2752c-0.1344 0-0.2688 0-0.4032-0.128-0.1344 0-0.2752 0-0.4096-0.1408h-0.1344c-0.1344 0-0.2688 0-0.5376-0.1344-0.1408 0-0.2752 0-0.4096-0.1344h-2.0288H645.0304c-0.2688 0-0.6784 0.1344-0.9472 0.1344h-0.1344c-0.544 0.1344-0.9472 0.2688-1.4912 0.4032h-0.2688c-0.2688 0.1408-0.4032 0.1408-0.6784 0.2752-0.1344 0-0.1344 0.128-0.2688 0.128l-0.8128 0.4096-19.0848 11.104 0.8128-0.4096c0.1344 0 0.1344-0.1344 0.2688-0.1344 0.2688-0.1344 0.4096-0.1344 0.6784-0.2688 0.1344 0 0.1344 0 0.2688-0.1344 0.4096-0.1408 0.9472-0.2752 1.4912-0.4096h0.2688c0.2688 0 0.6784-0.1344 0.9472-0.1344h3.6544c0.1344 0 0.2752 0 0.4096 0.1344a1.216 1.216 0 0 1 0.6784 0.1344c0.128 0 0.2688 0 0.4032 0.1344 0.2688 0 0.4032 0.1408 0.6784 0.1408 0.128 0 0.2688 0.128 0.4032 0.128 0.2688 0 0.4096 0.1408 0.6784 0.2752 0.1344 0 0.2688 0.1344 0.4032 0.1344 0.2752 0.1344 0.544 0.1344 0.8128 0.2752 0 0 0.1344 0 0.1344 0.128 0.4096 0.1408 0.6784 0.2752 1.088 0.4096 0.128 0 0.128 0.1344 0.2688 0.1344l0.8128 0.4096c0.128 0 0.2688 0.128 0.4032 0.128 0.2752 0.1408 0.6784 0.4096 0.9472 0.544 0.6784 0.4096 1.4912 0.9472 2.1696 1.3568l0.1344 0.1344c0.6784 0.4032 1.3504 0.9472 2.0288 1.4912 0.1344 0 0.1344 0.128 0.2688 0.128 0.6784 0.544 1.2224 1.088 1.8944 1.632 0.1408 0.128 0.1408 0.128 0.2752 0.2688 0.6784 0.544 1.216 1.216 1.8944 1.8944l0.1344 0.1344c0.6784 0.6784 1.216 1.3568 1.8944 2.0352 0 0 0 0.128 0.1344 0.128 0.544 0.6784 1.2224 1.4912 1.76 2.1696 0 0.1344 0.1344 0.1344 0.1344 0.2688 0.544 0.8128 1.088 1.4912 1.6256 2.304 0.6784 0.9472 1.2224 1.8944 1.76 2.8416 0.544 0.8128 0.9472 1.6256 1.3568 2.5728 0 0.1344 0.1344 0.1344 0.1344 0.2688 0.4032 0.8128 0.8128 1.76 1.216 2.5728 0 0 0 0.1344 0.1344 0.1344 0.4096 0.9472 0.8128 1.76 1.0816 2.7072 0 0 0 0.1344 0.1408 0.1344 0.2688 0.9472 0.672 1.76 0.9472 2.7072v0.1408l0.8128 2.8416v0.128c0.2688 0.9536 0.4032 1.7664 0.5376 2.7136v0.128c0.1344 0.9536 0.2688 1.7664 0.4096 2.7136v0.1344c0.1344 0.9472 0.1344 1.76 0.1344 2.7072 0 0.8128-0.1344 1.6256-0.2752 2.432v0.2752l-0.4032 2.0288c0 0.1344-0.1344 0.2752-0.1344 0.4096a7.872 7.872 0 0 1-0.6784 1.8944c0 0.1344 0 0.1344-0.1344 0.2688-0.2688 0.544-0.4032 1.088-0.6784 1.4912l-0.4032 0.8128c-0.1344 0.2688-0.4096 0.6784-0.544 0.9472-0.1344 0.128-0.2688 0.4032-0.4032 0.5376-0.2752 0.2752-0.4096 0.6784-0.6784 0.9472l-0.4032 0.4096-0.8128 0.8128c-0.1408 0.128-0.2752 0.2688-0.4096 0.4032-0.4032 0.4096-0.9472 0.6784-1.3504 0.9472l19.0848-11.0976c0.4032-0.2688 0.9472-0.544 1.3504-0.9472l0.4096-0.4032 0.8128-0.8128 0.4032-0.4096c0.2688-0.2688 0.544-0.544 0.6784-0.9472 0.1344-0.1344 0.2688-0.2688 0.4032-0.5376 0-0.1408 0.1344-0.1408 0.1344-0.2752 0.1408-0.2688 0.2752-0.4032 0.4096-0.6784l0.4032-0.8128c0-0.128 0.1408-0.128 0.1408-0.2688 0.1344-0.4032 0.4032-0.8128 0.5376-1.216 0-0.1344 0-0.1344 0.1344-0.2688 0.1344-0.4096 0.2752-0.9472 0.4096-1.4912 0-0.1344 0.1344-0.2688 0.1344-0.4096 0-0.128 0.1344-0.2688 0.1344-0.4032 0-0.1344 0.1344-0.2688 0.1344-0.544 0.1344-0.4032 0.1344-0.8128 0.2688-1.3504v-0.2688-0.2752c0-0.2688 0.1408-0.5376 0.1408-0.8128 0-0.4032 0.1344-0.8128 0.1344-1.3504v-0.2688-1.088c-0.6784 0-0.6784-0.4032-0.6784-0.8128z" fill="#DB960E" p-id="24504"></path><path d="M637.184 361.0048c12.0448 6.9056 23.008 24.768 22.8736 39.6608-1.0816 14.3488-11.0976 20.032-23.1488 13.1328-12.0448-6.9056-23.008-24.768-22.8736-39.6608 0-13.6768 10.1504-20.576 23.1488-13.1328z" fill="#FFCB57" p-id="24505"></path><path d="M723.136 416.5056l19.0848-11.104 27.8848 44.9408-19.0848 10.9632-27.8848-44.8z" fill="#CEEAE5" p-id="24506"></path><path d="M816.2624 434.5088l19.0848-11.104 13.9456 25.312-19.0912 11.104-13.9392-25.312z" fill="#FCFCFC" p-id="24507"></path><path d="M751.0208 461.312l19.0848-10.9696 65.2416-26.9376-19.0848 11.104-65.2416 26.7968z" fill="#CEEAE5" p-id="24508"></path><path d="M751.0208 461.312l65.2416-26.8032 13.9392 25.312-80.2688 33.1584-40.8768-67.4048 14.08-9.0688 27.8848 44.8z" fill="#FFFFFF" p-id="24509"></path><path d="M724.352 317.0112l19.0848-11.0976 28.0192 46.1568-19.0848 11.0976-28.0192-46.1568z" fill="#CEEAE5" p-id="24510"></path><path d="M817.4784 336.2368l19.0848-11.104 13.9456 25.4528-18.9504 10.9632-14.08-25.312z" fill="#FCFCFC" p-id="24511"></path><path d="M752.3712 363.168l19.0848-11.0976 65.1072-26.9376-19.0848 11.104-65.1072 26.9376z" fill="#CEEAE5" p-id="24512"></path><path d="M752.3712 363.1744l65.1072-26.944 14.08 25.3184-79.3216 33.7024-41.824-67.9488 13.9392-10.2912 28.0192 46.1632z" fill="#FFFFFF" p-id="24513"></path><path d="M723.6736 217.664l19.0848-11.104 27.8848 46.0224-19.0848 11.0976-27.8848-46.016z" fill="#CEEAE5" p-id="24514"></path><path d="M751.5584 263.68l19.0848-11.0976 65.248-26.8032-19.0912 11.104-65.2416 26.7968z" fill="#CEEAE5" p-id="24515"></path><path d="M816.8 236.8832l19.0912-11.104 13.9392 25.312-19.0848 11.104-13.9456-25.312z" fill="#FCFCFC" p-id="24516"></path><path d="M830.7456 262.1952l-80.2688 33.1584-40.8768-67.4048 14.0736-10.2912 27.8848 46.0224 65.2416-26.7968 13.9456 25.312z" fill="#FFFFFF" p-id="24517"></path><path d="M757.6512 755.3088c0.4032-0.1344 0.8128-0.4032 1.216-0.5376l0.8128-0.4096c0.4096-0.2688 0.8128-0.4032 1.3568-0.6784 0.2688-0.1344 0.4032-0.2688 0.672-0.2688 0.6784-0.2688 1.2224-0.6784 1.9008-1.0816l47.6416-27.7504c-0.672 0.4096-1.216 0.6784-1.8944 1.0816-0.2688 0.1408-0.4032 0.2752-0.672 0.2752-0.4096 0.2688-0.8128 0.4032-1.3568 0.672l-0.8128 0.4096c-0.4032 0.1344-0.8128 0.4032-1.216 0.5376a1.8624 1.8624 0 0 1-0.8128 0.2752l-1.216 0.4032c-0.2752 0.1344-0.4096 0.1344-0.6784 0.2752-0.9472 0.4032-2.0288 0.672-3.1168 0.9472-0.1344 0-0.2688 0.1344-0.5376 0.1344l-3.2512 0.8128c-0.1344 0-0.2688 0-0.4032 0.1344-0.6784 0.1344-1.4912 0.2688-2.1696 0.4032-0.2688 0-0.5376 0.1344-0.8128 0.1344-0.8128 0.1408-1.4848 0.1408-2.2976 0.2752h-0.4096c-0.8128 0.1344-1.6192 0.1344-2.432 0.1344h-7.1744c-0.4096 0-0.8128 0-1.0816-0.1344-0.4096 0-0.6784 0-1.088-0.1344-0.4032 0-0.8128-0.1408-1.216-0.1408s-0.8128-0.1344-1.0816-0.1344c-0.2688 0-0.544-0.1344-0.8128-0.1344-1.3568-0.1344-2.5728-0.4032-3.9232-0.6784-0.1408 0-0.4096-0.1344-0.544-0.1344-1.216-0.2688-2.5728-0.5376-3.7888-0.8128h-0.1344c-1.2224-0.2688-2.4384-0.672-3.7952-1.0816-0.2688 0-0.4032-0.1344-0.672-0.1344-1.2224-0.4096-2.304-0.8128-3.52-1.216-0.2752-0.1408-0.544-0.1408-0.6784-0.2752-1.216-0.4032-2.4384-0.9472-3.6544-1.3504-1.216-0.544-2.4384-0.9472-3.6544-1.4912l-0.8128-0.4032c-1.216-0.544-2.4384-1.088-3.6544-1.76-0.1344-0.1344-0.4096-0.1344-0.544-0.2752a76.9728 76.9728 0 0 1-3.3792-1.76c-0.2752-0.1344-0.4096-0.2688-0.6784-0.4032-0.9472-0.544-2.0288-1.0816-2.976-1.6256-1.6256-0.9472-3.3856-2.0288-5.0112-2.976-0.1344-0.1344-0.2688-0.1344-0.2688-0.1344-1.6256-1.0816-3.2512-2.0288-4.7424-3.2512l-1.6192-1.216c-1.088-0.8128-2.1696-1.4912-3.1168-2.304-0.6784-0.5376-1.3504-0.9472-1.8944-1.4848-0.9472-0.6784-1.8944-1.4912-2.8416-2.1696a21.76 21.76 0 0 1-2.0288-1.76c-0.9472-0.672-1.76-1.4848-2.7072-2.2976-0.6784-0.544-1.3568-1.2224-2.1696-1.8944a39.712 39.712 0 0 0-2.5728-2.304 25.0368 25.0368 0 0 0-2.0288-1.8944c-0.8128-0.8128-1.76-1.6256-2.5728-2.5728-0.672-0.6784-1.3504-1.216-1.8944-1.8944-0.9472-0.9472-1.76-1.8944-2.7072-2.7072-0.5376-0.6784-1.216-1.216-1.76-1.8944a34.9632 34.9632 0 0 1-2.976-3.3856c-0.4032-0.4032-0.8128-0.9472-1.216-1.3504-1.3568-1.6256-2.848-3.2512-4.1984-4.8768-0.2688-0.2688-0.4032-0.5376-0.6784-0.8128-1.216-1.3504-2.2976-2.8416-3.3856-4.3264-1.4848-1.9008-2.8416-3.7952-4.3264-5.6896l-0.1344-0.1344c-1.2224-1.6256-2.4384-3.3856-3.6608-5.1456a11.8848 11.8848 0 0 1-1.0816-1.6192c-0.8128-1.088-1.4848-2.304-2.2976-3.3856-0.6784-1.0816-1.3568-2.0288-2.0352-3.1168-0.5376-0.9472-1.216-1.8944-1.7536-2.8416a99.1808 99.1808 0 0 1-1.9008-3.1104 37.28 37.28 0 0 1-1.76-3.1168c-0.2688-0.5376-0.672-1.0816-0.9472-1.6192-0.8064-1.3568-1.4848-2.7072-2.2976-4.064-0.2688-0.544-0.544-0.9472-0.8128-1.4912-0.544-1.0816-1.0816-2.1632-1.6256-3.1104-0.5376-1.088-1.0816-2.0288-1.6256-3.1168-0.672-1.4848-1.4848-2.8416-2.1632-4.3264-0.2688-0.4096-0.4032-0.9472-0.6784-1.3568-0.9472-1.8944-1.76-3.7888-2.5728-5.6832-0.2688-0.544-0.4032-0.9472-0.672-1.4912-0.544-1.3504-1.2224-2.8416-1.76-4.192-0.2752-0.6784-0.544-1.3568-0.8128-1.8944l-1.6256-4.064c-0.2688-0.544-0.4032-1.216-0.6784-1.76a86.336 86.336 0 0 1-1.8944-5.4144c0-0.1344-0.1344-0.2688-0.1344-0.544-0.6784-1.8944-1.216-3.9232-1.8944-5.952-0.1344-0.6784-0.4096-1.216-0.544-1.8944l-1.216-4.064a14.272 14.272 0 0 1-0.544-2.304c-0.2688-1.216-0.672-2.5664-0.9472-3.7888-0.1344-0.8064-0.4032-1.4848-0.5376-2.304-0.2752-1.344-0.544-2.56-0.8128-3.9168l-0.4096-2.0352c-0.2688-1.76-0.672-3.3792-0.9472-5.1392 0-0.2752-0.128-0.544-0.128-0.6784-0.2752-1.8944-0.5504-3.9296-0.8192-5.824 0-0.5376-0.1344-1.0816-0.1344-1.6192-0.1344-1.3568-0.2688-2.7072-0.4032-4.1984 0-0.6784-0.1408-1.3568-0.1408-2.0288-0.128-1.3568-0.128-2.5728-0.2688-3.9296 0-0.672 0-1.216-0.1344-1.8944 0-1.8944-0.1344-3.648-0.1344-5.5488 0-1.8944 0-3.7888 0.1344-5.6832 0-0.544 0-1.088 0.1344-1.4912 0.1344-1.216 0.1344-2.5728 0.2688-3.7888 0-0.6784 0.1408-1.3568 0.2752-2.1632 0.128-1.088 0.2688-2.0352 0.4032-3.1168 0.1344-0.8128 0.2688-1.4912 0.2688-2.1632 0.1408-0.9472 0.2752-1.8944 0.544-2.8416 0.1344-0.8128 0.2688-1.6256 0.544-2.4384 0.128-0.8128 0.4032-1.6256 0.5376-2.432 0.2752-0.9536 0.544-1.9008 0.6784-2.848l0.8128-2.8416c0.1344-0.2688 0.1344-0.4096 0.2688-0.6784 0.4096-1.3504 0.9472-2.5728 1.3568-3.7888 0.1344-0.2688 0.2688-0.6784 0.4032-0.9472 0.4096-1.088 0.9472-2.1632 1.3568-3.2512 0.1344-0.2688 0.1344-0.4032 0.2688-0.6784 0.6784-1.3504 1.216-2.5664 1.8944-3.7888 0.6784-1.216 1.3568-2.432 2.1632-3.52 0.1408-0.2688 0.2752-0.4032 0.4096-0.672 0.544-0.8128 1.216-1.76 1.76-2.5728a4.1536 4.1536 0 0 0 0.6784-0.9472c0.5376-0.6784 1.216-1.4912 1.76-2.1696 0.2688-0.2688 0.4032-0.5376 0.672-0.8064 0.8128-0.9536 1.6256-1.7664 2.5728-2.7136l0.4096-0.4032c0.8128-0.6784 1.4848-1.4912 2.2976-2.1632 0.2752-0.2752 0.544-0.544 0.9472-0.6784l2.0352-1.6256c0.2688-0.2688 0.5376-0.4032 0.9472-0.6784 0.9472-0.672 2.0288-1.3504 2.976-1.8944l-47.648 27.7504c-1.088 0.544-2.0288 1.216-2.976 1.8944-0.2752 0.2688-0.544 0.4032-0.9472 0.6784l-2.0352 1.6256c-0.2688 0.2688-0.5376 0.4032-0.9472 0.672a17.4336 17.4336 0 0 0-2.304 2.1696l-0.4032 0.4032a49.9712 49.9712 0 0 0-2.5664 2.7072c-0.2752 0.2752-0.4096 0.544-0.6784 0.8128-0.544 0.6784-1.216 1.3568-1.76 2.1696a4.1024 4.1024 0 0 0-0.6784 0.9472c-0.544 0.8064-1.216 1.6192-1.76 2.5664-0.1344 0.2752-0.2688 0.4096-0.4032 0.6784 0 0.1344-0.1408 0.1344-0.1408 0.2752-0.672 1.0816-1.3504 2.1632-2.0288 3.3792-0.6784 1.216-1.216 2.304-1.8944 3.6544 0 0.1344-0.1344 0.1344-0.1344 0.2752-0.1344 0.2688-0.1344 0.4032-0.2688 0.672-0.544 1.088-0.9472 2.1696-1.3568 3.2512-0.128 0.2688-0.2688 0.6784-0.4032 0.9472-0.1344 0.2688-0.1344 0.544-0.2752 0.6784-0.4032 1.0816-0.672 2.0288-1.0816 3.1104-0.128 0.2688-0.128 0.4096-0.2688 0.6784-0.1344 0.544-0.2688 1.088-0.544 1.6256a3.9424 3.9424 0 0 0-0.2688 1.216 21.6832 21.6832 0 0 0-0.6784 2.8416c-0.128 0.4096-0.2688 0.8128-0.2688 1.088-0.1344 0.4032-0.1344 0.8064-0.2688 1.344a15.6992 15.6992 0 0 1-0.544 2.4448c-0.1344 0.4032-0.1344 0.8064-0.2688 1.216-0.1344 0.544-0.1344 1.088-0.2752 1.4912a11.8848 11.8848 0 0 0-0.2688 2.1632c0 0.4096-0.128 0.8128-0.128 1.088-0.1408 0.672-0.1408 1.344-0.1408 1.888-0.1344 0.6784-0.1344 1.3568-0.2688 2.1696 0 0.2688 0 0.5376-0.1344 0.8128-0.1408 0.9472-0.1408 1.8944-0.1408 2.8416 0 0.5376-0.128 1.0816-0.128 1.4848v0.4096c-0.1408 1.6256-0.1408 3.2512-0.1408 5.0048v5.6896c0 0.6784 0 1.216 0.1344 1.8944 0 0.6784 0 1.4848 0.1344 2.1632 0 0.544 0.1408 1.088 0.1408 1.76 0 0.6784 0.128 1.3568 0.128 2.0288 0 0.4096 0 0.8128 0.1408 1.3568 0.128 0.9472 0.2688 1.8944 0.2688 2.8416 0 0.544 0.1344 1.088 0.1344 1.6256v0.544c0.2752 1.7536 0.4096 3.3792 0.6784 5.1392v0.1344c0 0.2752 0.1344 0.544 0.1344 0.6784 0.2688 1.4912 0.544 2.8416 0.8128 4.3328 0 0.2688 0.1344 0.5376 0.1344 0.8128l0.4096 2.0288c0.128 0.8128 0.2688 1.6256 0.5376 2.5728a4.7936 4.7936 0 0 1 0.2752 1.3504c0.128 0.8128 0.4032 1.4912 0.5376 2.304 0.1344 0.5376 0.2688 1.088 0.4096 1.76 0.128 0.6784 0.4032 1.3504 0.5376 2.0288 0.1344 0.8128 0.4096 1.4912 0.544 2.304 0.128 0.4032 0.128 0.672 0.2688 1.0816 0.2688 0.9472 0.544 2.0288 0.8128 2.976 0.1344 0.6784 0.4032 1.216 0.544 1.8944 0 0.1344 0.128 0.4096 0.128 0.544 0.544 1.76 1.088 3.52 1.7664 5.28 0 0.128 0.128 0.2688 0.128 0.5376 0.544 1.6256 1.088 3.1168 1.632 4.608 0.128 0.2688 0.128 0.5376 0.2688 0.672 0.2688 0.544 0.4032 1.216 0.6784 1.76 0.2688 0.8128 0.672 1.6256 0.9472 2.5728 0.2688 0.544 0.4032 1.088 0.6784 1.6256 0.2688 0.6784 0.5376 1.3504 0.8064 1.8944 0.1408 0.544 0.4096 0.9472 0.544 1.4912l1.216 2.8416c0.2752 0.5376 0.4096 0.9472 0.6784 1.4848 0.1344 0.1408 0.1344 0.4096 0.2688 0.544 0.6784 1.6256 1.4912 3.2512 2.304 4.8704 0 0.1408 0.1344 0.1408 0.1344 0.2752 0.2688 0.4032 0.4096 0.9472 0.6784 1.3504 0.5376 1.2224 1.216 2.5728 1.8944 3.7888a1.056 1.056 0 0 1 0.2688 0.544c0.544 1.0816 1.088 2.0288 1.6256 3.1104l1.216 2.4384c0.1408 0.2688 0.2752 0.4096 0.4096 0.6784 0.2688 0.5376 0.5376 0.9472 0.8128 1.4912 0.8128 1.3504 1.4848 2.7072 2.304 4.0576 0.2688 0.544 0.672 1.0816 0.9408 1.6256 0.2752 0.4032 0.4096 0.6784 0.6784 1.0816l1.216 2.0288c0.6784 1.0816 1.216 2.1696 1.8944 3.1168 0.544 0.9472 1.216 1.8944 1.7664 2.8416 0.672 1.0816 1.3504 2.0288 2.0288 3.1104 0.2688 0.4096 0.4032 0.6784 0.6784 1.088l1.6192 2.432c0.4096 0.544 0.8128 1.0816 1.088 1.6256 1.216 1.76 2.432 3.3856 3.648 5.1456l0.1408 0.1344c1.3504 1.8944 2.8416 3.7888 4.3264 5.6832 0 0.1344 0.1408 0.1344 0.1408 0.2688l3.2448 4.064c0.2752 0.2688 0.4096 0.544 0.6784 0.8128 1.3504 1.6256 2.5728 3.1104 3.9232 4.6016 0 0.1344 0.1344 0.1344 0.1344 0.2688 0.4096 0.4096 0.8128 0.9472 1.2224 1.3568 0.8128 0.9472 1.76 1.8944 2.5728 2.8416 0.1344 0.1344 0.2688 0.4032 0.5376 0.544 0.544 0.672 1.2224 1.216 1.76 1.8944 0.6784 0.672 1.2224 1.3504 1.8944 2.0288l0.6784 0.6784 1.8944 1.8944 1.6256 1.6256c0.2688 0.2688 0.6784 0.5376 0.9472 0.9472 0.6784 0.672 1.3568 1.3504 2.0288 1.8944 0.544 0.4032 0.9472 0.9472 1.4912 1.3504 0.4032 0.4096 0.8128 0.6784 1.216 0.9472 0.6784 0.6784 1.3568 1.2224 2.1696 1.8944 0.4032 0.4096 0.8128 0.8128 1.216 1.088 0.4096 0.4032 0.9472 0.8064 1.3568 1.0816l2.0288 1.6256c0.4032 0.2688 0.6784 0.5376 1.0816 0.8064 0.544 0.4096 1.216 0.9472 1.76 1.3568 0.6784 0.544 1.216 0.9472 1.8944 1.4912 0.2688 0.1344 0.544 0.4032 0.8128 0.5376 0.8128 0.544 1.6256 1.0816 2.4384 1.76l1.6192 1.216c0.1408 0.1408 0.2752 0.2752 0.4096 0.2752 1.4912 0.9472 2.8416 1.8944 4.3328 2.8416 0.1344 0 0.2688 0.1344 0.2688 0.1344 1.3568 0.8128 2.7072 1.6256 3.9232 2.4384 0.2752 0.1344 0.6784 0.4032 0.9472 0.5376 0.9472 0.544 2.0352 1.088 2.9824 1.6256 0.1344 0 0.1344 0.1344 0.2688 0.1344 0.1344 0.1344 0.2688 0.1344 0.4032 0.2752 1.088 0.5376 2.1696 1.216 3.3856 1.76 0.1344 0 0.2752 0.1344 0.4096 0.2688 0 0 0.1344 0 0.1344 0.1344 1.216 0.544 2.4384 1.216 3.6544 1.76 0.1344 0 0.2688 0.1344 0.4032 0.1344 0.1344 0 0.2752 0.1344 0.4096 0.1344 1.216 0.544 2.432 1.0816 3.6544 1.4912 1.216 0.544 2.4384 0.9472 3.6544 1.3504 0.1344 0 0.2688 0.1408 0.4032 0.1408 0.1344 0 0.2752 0 0.2752 0.1344 1.216 0.4032 2.432 0.8128 3.52 1.216 0.1344 0 0.1344 0 0.2688 0.1344 0.1344 0 0.2688 0.1344 0.4032 0.1344 1.2224 0.4096 2.5728 0.6784 3.7888 1.088h0.1408c1.216 0.2688 2.5664 0.5376 3.7888 0.8064 0.1344 0 0.2688 0 0.4032 0.1408h0.2752c1.3504 0.2688 2.5664 0.4032 3.9232 0.672h0.8128c0.4032 0 0.8128 0.1408 1.0816 0.1408 0.4032 0 0.8128 0.1344 1.216 0.1344 0.4096 0 0.6784 0 1.088 0.1344H739.5136c0.8128 0 1.6256-0.1344 2.4384-0.1344h0.4032c0.8128-0.1344 1.4912-0.1344 2.304-0.2752 0.2688 0 0.5376-0.1344 0.8064-0.1344 0.8128-0.1344 1.4912-0.2688 2.1696-0.4032h0.4032l3.2512-0.8128c0.1344 0 0.2688-0.1344 0.544-0.1344 1.0816-0.2752 2.0288-0.6784 3.1104-0.9472 0.1344 0 0.1344 0 0.2688-0.1344 0.1344 0 0.2752-0.1408 0.4096-0.1408l1.216-0.4032c0.2688 0.544 0.544 0.4032 0.8128 0.2688z" fill="#13A08C" p-id="24518"></path><path d="M925.4976 903.936v-0.9472V901.9072v-0.6784c0-0.2688 0-0.544-0.1344-0.8128V899.872v-0.2688c0-0.2688-0.1344-0.5376-0.1344-0.8128 0-0.2688-0.1344-0.4032-0.1344-0.6784v-0.1344-0.1344c0-0.2688-0.1408-0.5376-0.2752-0.9472-0.1344-0.2688-0.1344-0.5376-0.2688-0.9472v-0.2688c0-0.2752-0.1344-0.4096-0.1344-0.6784-0.1344-0.2688-0.1344-0.544-0.2752-0.9472 0-0.1344-0.1344-0.2688-0.1344-0.4032v-0.1408c0-0.1344-0.1344-0.1344-0.1344-0.2688a1.9328 1.9328 0 0 1-0.2688-0.8128c-0.1344-0.2688-0.2688-0.5376-0.2688-0.8128v-0.1344-0.1344c-0.1408-0.2688-0.1408-0.4032-0.2752-0.6784a96.48 96.48 0 0 1-0.4032-0.8128c-0.1344-0.1344-0.1344-0.4032-0.2688-0.5376 0 0 0-0.1344-0.1408-0.1344 0 0 0-0.1408-0.1344-0.1408-0.1344-0.4032-0.4032-0.672-0.5376-1.0816a32.128 32.128 0 0 1-0.4096-0.8128l-74.5792-129.1328c1.216-1.0816 2.2976-2.1632 3.3792-3.2448 0.4096-0.4096 0.6784-0.8128 1.0816-1.2224 0.6784-0.8128 1.4912-1.6256 2.1696-2.432 0.4032-0.544 0.8128-0.9536 1.216-1.4912 0.6784-0.8128 1.2224-1.4912 1.76-2.304 0.4096-0.5376 0.8128-1.0816 1.2224-1.76l1.6192-2.432c0.1344-0.1344 0.2752-0.4096 0.4096-0.544 0.2688-0.4032 0.5376-0.9472 0.8128-1.3504 0.5376-0.8128 0.9472-1.6256 1.4848-2.4384 0.4096-0.6784 0.6784-1.3568 1.088-2.0288 0.4032-0.8128 0.8064-1.6256 1.3504-2.5728l0.4032-0.8128c0.2752-0.6784 0.544-1.216 0.8128-1.8944 0.2752-0.544 0.4096-0.9472 0.6784-1.4912l1.6256-4.0576c0-0.1408 0.1344-0.2752 0.1344-0.4096 0.544-1.4848 1.0816-2.976 1.4912-4.4672l0.4032-1.216c0.1344-0.544 0.2688-0.9472 0.4096-1.4912l0.8128-2.8416c0-0.1344 0.1344-0.2688 0.1344-0.4032 0.2688-1.2224 0.672-2.4384 0.9472-3.6544 0.1344-0.4096 0.1344-0.9472 0.2688-1.3568 0.1344-0.2688 0.1344-0.6784 0.1344-0.9472 0.2688-1.4912 0.544-2.8416 0.8128-4.3328 0-0.1344 0-0.2688 0.1344-0.5376 0.2752-1.3568 0.4096-2.848 0.6784-4.3328 0.1344-0.544 0.1344-1.2224 0.2688-1.76v-0.2688l0.4096-4.1984c0-0.6784 0.1344-1.3568 0.2688-2.0288v-0.1344c0.1344-1.088 0.1344-2.304 0.2688-3.3856 0-0.9472 0.1344-2.0288 0.1344-2.9824v-0.1344-2.5728c0-1.216 0.1408-2.5664 0.1408-3.7888v-0.4032c0-1.76 0-3.6544-0.1408-5.4144v-0.6784-0.6784c0-1.8944-0.1344-3.7888-0.2688-5.8176v-0.1344-0.544l-0.4032-5.4144v-0.6784-0.4032a86.3424 86.3424 0 0 0-0.6784-5.824v-0.4032c0-0.2688-0.1344-0.544-0.1344-0.6784l-0.8128-5.8176v-0.4096c-0.2688-2.0288-0.6784-4.0576-1.0816-6.0864 0-0.2752-0.1344-0.4096-0.1344-0.6784 0-0.1344-0.1408-0.4096-0.1408-0.544-0.4032-2.0288-0.8064-4.0576-1.216-6.2272 0-0.128 0-0.2688-0.1344-0.4032 0-0.2688-0.1344-0.4096-0.1344-0.6784a100.3328 100.3328 0 0 0-1.4912-6.0928c0-0.128 0-0.2688-0.1344-0.4032v-0.1344c-0.544-2.1696-1.0816-4.3328-1.6256-6.3616 0-0.2752-0.1344-0.4096-0.1344-0.6784 0-0.1344-0.1344-0.4096-0.1344-0.544-0.544-2.0288-1.216-4.192-1.76-6.2208 0-0.1408-0.1344-0.2752-0.1344-0.4096-0.1344-0.2688-0.1344-0.544-0.2752-0.6784l-2.0288-6.0864v-0.1408c-0.6784-2.0288-1.3504-4.0576-2.1632-6.2208-0.1344-0.2752-0.1344-0.4096-0.2688-0.6784-0.1408-0.1344-0.1408-0.4096-0.2752-0.544-0.6784-1.8944-1.4848-3.9232-2.1632-5.824 0-0.128 0-0.128-0.1344-0.2688-0.1344-0.2688-0.1344-0.4032-0.2752-0.672-0.672-1.76-1.3504-3.52-2.1632-5.28-0.1344-0.2752-0.1344-0.544-0.2688-0.6784 0-0.1344-0.1344-0.2688-0.1344-0.4032l-2.4384-5.6896c0-0.128-0.1344-0.2688-0.1344-0.4032-0.1344-0.2752-0.2752-0.544-0.2752-0.6784l-2.432-5.28c-0.1408-0.128-0.1408-0.4032-0.2752-0.5376 0 0 0-0.1408-0.1344-0.1408-0.9472-2.1632-2.0288-4.192-3.1104-6.3616-0.1344-0.2688-0.2752-0.4032-0.2752-0.672-0.1344-0.1408-0.1344-0.2752-0.2688-0.4096-1.216-2.432-2.4384-4.8704-3.7888-7.168-0.1344-0.1408-0.1344-0.4096-0.2688-0.544-0.1408-0.1408-0.1408-0.4096-0.2752-0.544l-2.8416-5.28c-0.1344-0.2688-0.2688-0.5376-0.4032-0.6784-0.9472-1.6192-1.76-3.1104-2.7072-4.736a2.944 2.944 0 0 0-0.4096-0.6784c-0.1344-0.128-0.1344-0.2688-0.2688-0.4032-1.4912-2.432-2.8416-4.8704-4.3328-7.168-0.1344-0.2752-0.4032-0.544-0.5376-0.8192-1.4912-2.432-3.1168-4.736-4.6016-7.168-0.1408-0.1408-0.2752-0.2752-0.2752-0.544-0.1344-0.1408-0.1344-0.2752-0.2688-0.4096-1.216-1.76-2.4384-3.648-3.6544-5.4144-0.2688-0.4032-0.544-0.6784-0.8128-1.0816-1.3568-1.8944-2.5728-3.6544-3.9232-5.4144-1.9008-2.5728-3.9296-5.1456-5.9584-7.7184 0 0-0.1344-0.128-0.1344-0.2688l-0.4096-0.4032a217.1904 217.1904 0 0 0-4.8704-5.952l-0.1344-0.1408c-1.6256-1.8944-3.1168-3.7888-4.736-5.5488a24.6208 24.6208 0 0 1-0.4096-0.4096l-0.1344-0.128c-1.4912-1.7664-3.1104-3.52-4.736-5.152-0.1344-0.128-0.2752-0.4032-0.4096-0.5376l-0.4032-0.4096a172.8832 172.8832 0 0 0-4.8768-5.0048l-0.4032-0.4096-0.4032-0.4032-5.0112-5.0112-0.2688-0.2688-0.4096-0.4032c-1.76-1.76-3.6544-3.392-5.4144-5.0112l-0.1344-0.1344-0.2688-0.2688c-1.8944-1.6256-3.7888-3.392-5.6896-4.8768 0 0-0.1344 0-0.1344-0.128a166.6688 166.6688 0 0 0-5.5488-4.608l-0.4032-0.4032c-0.1344 0-0.1344-0.1408-0.2752-0.1408l-5.2736-4.0576c-0.1408-0.1344-0.2752-0.2688-0.544-0.4096-0.1344-0.128-0.2688-0.2688-0.4032-0.2688-1.76-1.216-3.3856-2.432-5.1456-3.648-0.1344-0.1408-0.2688-0.1408-0.4096-0.2752-0.1344-0.1344-0.4032-0.2752-0.5376-0.4096-1.6256-1.216-3.3856-2.304-5.1456-3.3792 0 0-0.1344 0-0.1344-0.1408-1.76-1.0816-3.3856-2.1632-5.1456-3.1104-0.1344-0.1344-0.4032-0.2688-0.5376-0.4032-0.4096-0.2752-0.9472-0.544-1.3568-0.8128-1.3504-0.8128-2.7072-1.4912-3.9232-2.1696-0.1344 0-0.2752-0.128-0.4096-0.128-0.1344-0.1408-0.4032-0.1408-0.5376-0.2752a71.5264 71.5264 0 0 0-4.4672-2.304c-0.1344-0.128-0.4096-0.128-0.544-0.2688-0.1344 0-0.1344-0.1344-0.2688-0.1344-1.6256-0.8128-3.2512-1.4912-4.8768-2.304-0.1344-0.128-0.2688-0.128-0.4032-0.2688-0.1344-0.1344-0.4032-0.1344-0.544-0.2688l-4.8704-2.0352c-1.6256-0.672-3.2512-1.216-4.8704-1.8944-0.1408-0.128-0.4096-0.128-0.544-0.2688-0.1344 0-0.2688-0.1344-0.4032-0.1344-1.6256-0.544-3.1168-1.088-4.7424-1.4912-0.1344 0-0.2688-0.128-0.2688-0.128a7.6608 7.6608 0 0 1-1.6256-0.544c-0.2688-0.1408-0.6784-0.1408-0.9472-0.2752-0.9472-0.2688-2.0288-0.5376-2.976-0.8128-0.1344 0-0.2688 0-0.4096-0.128-0.9472-0.2752-1.76-0.4096-2.7072-0.6848-0.4032-0.128-0.672-0.128-1.0816-0.2688-0.5376-0.1344-0.9472-0.2688-1.4848-0.2688-0.1408 0-0.2752 0-0.544-0.1344-0.4032-0.1408-0.9472-0.1408-1.3568-0.2752-0.5376-0.128-1.0816-0.128-1.7536-0.2688-0.4096-0.1344-0.9536-0.1344-1.3568-0.2688-0.2688 0-0.6784-0.1344-0.9472-0.1344-0.2688 0-0.4032 0-0.6784-0.1408-0.5376 0-0.9472-0.128-1.4848-0.128-0.544 0-1.088-0.1408-1.6256-0.1408-0.544 0-0.9472-0.1344-1.4912-0.1344-0.2688 0-0.5376 0-0.8128-0.1344h-0.6784c-0.5376 0-1.0816 0-1.7536-0.1344h-7.7184c-1.0816 0-2.1632 0.128-3.2512 0.2688h-0.5376l-3.1168 0.4032c-0.2688 0-0.672 0.1408-0.9472 0.1408-0.9472 0.128-2.0288 0.2688-2.976 0.5376-0.1344 0-0.2688 0-0.4096 0.1344h-0.1344c-0.2688 0-0.5376 0.1408-0.8128 0.1408-0.5376 0.128-1.216 0.2688-1.76 0.4032-0.2688 0.1344-0.672 0.1344-0.9472 0.2688-0.5376 0.1344-1.0816 0.2752-1.4848 0.4096-0.4096 0.128-0.6784 0.128-1.0816 0.2688-0.544 0.1344-0.9472 0.2688-1.4912 0.4032-0.4096 0.1408-0.6784 0.2752-1.0816 0.4096-0.2752 0.1344-0.4096 0.1344-0.6784 0.2688-0.1344 0.1344-0.4032 0.1344-0.544 0.2752a8.2176 8.2176 0 0 0-1.6192 0.672c-0.4096 0.1344-0.6784 0.2752-1.088 0.4096-0.5376 0.2688-1.0816 0.4032-1.6192 0.672-0.4096 0.1408-0.6784 0.2752-1.088 0.4096-0.5376 0.2688-1.216 0.544-1.76 0.8128l-0.8064 0.4032c-0.8128 0.4096-1.6256 0.9472-2.5728 1.3568l-48.4608 27.8848c0.8128-0.544 1.6256-0.9472 2.5728-1.3568l0.8128-0.4032c0.5376-0.2752 1.216-0.544 1.76-0.8128 0.2688-0.1344 0.672-0.2752 1.0816-0.4096a8.256 8.256 0 0 1 1.6256-0.672c0.4032-0.1408 0.672-0.2752 1.0816-0.4096 0.5376-0.2688 1.088-0.4032 1.6256-0.6784l1.216-0.4032c0.4096-0.1344 0.6784-0.2688 1.088-0.4096 0.5376-0.128 0.9408-0.2688 1.4848-0.4032 0.4032-0.1344 0.6784-0.2688 1.088-0.2688 0.5376-0.1344 1.0752-0.2752 1.4848-0.4096 0.2688-0.128 0.6784-0.128 0.9472-0.2688 0.5376-0.1344 1.216-0.2688 1.76-0.4096 0.2688 0 0.5376-0.128 0.8128-0.128 0.128 0 0.4032-0.1408 0.5376-0.1408 0.9472-0.128 2.0352-0.4032 2.9824-0.5376 0.2688 0 0.672-0.1344 0.9472-0.1344 0.9472-0.1408 2.0288-0.2752 3.1104-0.4096h0.544c1.0816-0.1344 2.1632-0.1344 3.2448-0.2688h7.7184c0.5376 0 1.0816 0 1.76 0.128a5.568 5.568 0 0 1 1.4848 0.1408c0.544 0 0.9472 0.1344 1.4912 0.1344 0.544 0 1.088 0.1344 1.6256 0.1344 0.5376 0 0.9472 0.1408 1.4848 0.1408 0.544 0.128 1.088 0.128 1.6256 0.2688 0.4096 0 0.9472 0.128 1.3568 0.2688 0.5376 0.1344 1.0816 0.1344 1.76 0.2688 0.4032 0.1408 0.9472 0.1408 1.3504 0.2752 0.6784 0.128 1.3568 0.2688 2.0288 0.4032 0.4096 0.1344 0.6784 0.1344 1.088 0.2688 0.9472 0.1408 1.76 0.4096 2.7072 0.6784 0.1344 0 0.2688 0 0.4032 0.1344 0.9472 0.2752 2.0288 0.544 3.1168 0.8128 0.2688 0.1344 0.672 0.1344 0.9472 0.2752 0.672 0.128 1.3504 0.4032 2.0288 0.5376 1.6256 0.544 3.1104 0.9472 4.736 1.4912 0.2688 0.128 0.6784 0.2688 0.9472 0.4032 1.6256 0.544 3.2512 1.216 4.8768 1.8944l4.8704 2.0352c0.4032 0.128 0.6784 0.2688 1.0816 0.4032 1.6256 0.6784 3.2512 1.4912 4.8768 2.304l0.8128 0.4032c1.4848 0.6784 2.976 1.4912 4.4608 2.304 0.2752 0.128 0.6784 0.2688 0.9536 0.5376 1.3504 0.6784 2.7072 1.4912 3.9232 2.1696 0.6784 0.4032 1.3504 0.8128 1.8944 1.0816 1.76 1.0816 3.3856 2.0288 5.1456 3.1104l0.1344 0.1344c1.76 1.088 3.3856 2.1696 5.1456 3.392 0.2688 0.2624 0.5376 0.4032 0.9472 0.672 1.76 1.216 3.3792 2.432 5.1392 3.648 0.2752 0.2752 0.6784 0.4096 0.9472 0.6848 1.76 1.3504 3.52 2.5664 5.28 4.0576 0.2688 0.1344 0.4096 0.4096 0.6784 0.544 1.8944 1.4848 3.7888 2.976 5.5488 4.6016l0.1344 0.1344 5.6896 4.8704 0.4032 0.4096c1.8944 1.6256 3.6544 3.3856 5.4144 5.0048l0.6784 0.6784c1.76 1.6256 3.3792 3.2512 5.0048 5.0112l0.8128 0.8128c1.6256 1.6192 3.2512 3.3792 4.8768 5.0048a5.888 5.888 0 0 1 0.8064 0.9472c1.6256 1.76 3.1168 3.3856 4.608 5.1456 0.1344 0.2688 0.4032 0.4032 0.5376 0.6784 1.6256 1.8944 3.2512 3.648 4.736 5.5488l0.1408 0.1344c1.6192 2.0288 3.2448 3.9232 4.8704 5.952 0.1344 0.2752 0.4032 0.4096 0.544 0.6784 2.0288 2.5728 3.9232 5.1456 5.952 7.7184 1.3568 1.76 2.5728 3.648 3.9296 5.4144 0.2688 0.4032 0.5376 0.6784 0.8064 1.088 1.2224 1.7536 2.4384 3.5136 3.6544 5.408 0.1408 0.2688 0.4096 0.544 0.544 0.8128 1.6256 2.304 3.1168 4.736 4.6016 7.168 0.1344 0.2752 0.4096 0.5504 0.544 0.8192 1.4848 2.432 2.976 4.736 4.3328 7.168 0.2688 0.4096 0.4032 0.8192 0.672 1.2224 0.9472 1.4912 1.76 3.1168 2.7072 4.608a2.9632 2.9632 0 0 0 0.4096 0.672l2.8416 5.28c0.1344 0.4032 0.4032 0.6784 0.544 1.0816 1.216 2.432 2.5664 4.736 3.6544 7.1744 0.1344 0.4032 0.4032 0.6784 0.5376 1.088 1.0816 2.1632 2.0288 4.192 3.1168 6.3552 0.1344 0.2752 0.2688 0.544 0.4032 0.6784l2.4384 5.28c0.1344 0.4032 0.4032 0.8128 0.5376 1.216l2.4384 5.6832c0.1344 0.4096 0.2688 0.8128 0.4096 1.088 0.672 1.76 1.3504 3.52 2.0288 5.1392 0.1344 0.2752 0.2688 0.6784 0.4032 0.9536 0.8128 1.8944 1.4912 3.9232 2.1696 5.8176 0.1344 0.4032 0.2688 0.8128 0.4032 1.3504 0.6784 2.0352 1.4912 4.064 2.1632 6.2272 0 0.1408 0 0.1344 0.1408 0.2752 0.672 2.0288 1.3504 4.0576 1.8944 6.0864l0.4032 1.216c0.6784 2.0352 1.2224 4.1984 1.76 6.2336a3.968 3.968 0 0 1 0.2688 1.216c0.544 2.1632 1.2224 4.3328 1.6256 6.3616 0 0.1344 0.1344 0.2688 0.1344 0.544 0.544 2.0288 0.9472 4.0576 1.3568 6.0864 0.1344 0.4096 0.1344 0.6784 0.2688 1.088 0.4096 2.0288 0.8128 4.0576 1.2224 6.2208 0.1344 0.4096 0.1344 0.8128 0.2688 1.2224 0.4032 2.0288 0.6784 4.0576 1.0816 6.0928v0.4032l0.8128 5.8176c0 0.4096 0.1344 0.8128 0.1344 1.2224 0.2688 1.8944 0.4096 3.9232 0.6784 5.8176 0 0.4096 0.1344 0.8128 0.1344 1.0816l0.4032 5.4144v0.6784c0.1408 1.8944 0.2752 3.9296 0.2752 5.824v1.3504c0 1.8944 0.1344 3.6544 0.1344 5.4144 0 1.4912 0 2.8416-0.1344 4.3328v2.5728c0 1.0816-0.1344 2.0288-0.1344 3.1104-0.1408 1.0816-0.1408 2.304-0.2752 3.3856 0 0.6784-0.1344 1.4912-0.2688 2.1632l-0.4032 4.1984c-0.1408 0.6784-0.1408 1.3568-0.2752 2.0288-0.1344 1.4912-0.4032 2.8416-0.672 4.3328-0.2752 1.6256-0.544 3.2512-0.9536 4.8768 0 0.2688-0.1344 0.672-0.1344 0.9472-0.4032 1.6192-0.8128 3.3792-1.216 5.0048 0 0.1344-0.1344 0.2688-0.1344 0.4096-0.4096 1.4848-0.8128 2.8416-1.2224 4.3264l-0.4032 1.2224c-0.544 1.4848-0.9472 3.1104-1.4912 4.6016 0 0.1344-0.1344 0.2688-0.1344 0.4032l-1.6256 4.064c-0.2688 0.5376-0.4032 0.9472-0.672 1.4848-0.4096 0.9472-0.8128 1.76-1.2224 2.7072-0.4032 0.8128-0.8128 1.76-1.3504 2.5728-0.4096 0.6784-0.6784 1.3568-1.0816 2.0352a24.3968 24.3968 0 0 1-1.4912 2.432c-0.4096 0.6784-0.8128 1.3568-1.216 1.8944a537.6 537.6 0 0 0-1.6256 2.4384c-0.4096 0.544-0.8128 1.216-1.2224 1.76-0.5376 0.8128-1.216 1.6256-1.76 2.304-0.4032 0.5376-0.8064 1.0816-1.216 1.4848-0.6784 0.8128-1.4912 1.6256-2.1632 2.4384-0.4096 0.4032-0.6784 0.8128-1.0816 1.216-1.088 1.0816-2.304 2.304-3.3856 3.2512l74.5792 129.1328c0.4096 0.6784 0.8128 1.3504 1.088 2.0288 0 0 0 0.1344 0.1344 0.1344 0.2688 0.6784 0.6784 1.3568 0.9472 2.0352v0.1344l0.8128 2.0288v0.1344c0.2688 0.6784 0.4032 1.3568 0.6784 1.8944v0.1344c0.1344 0.6784 0.4032 1.3568 0.5376 2.0352v0.1344c0.1344 0.6784 0.2688 1.216 0.2688 1.8944v0.1344c0.1408 0.6784 0.1408 1.216 0.1408 1.76V932.224c0 0.544 0 1.0816-0.1408 1.6256v0.1344c0 0.544-0.1344 0.9472-0.2688 1.4912v0.2688c-0.1344 0.544-0.2688 0.9472-0.4032 1.3568 0 0.1344 0 0.1344-0.1344 0.2688-0.1408 0.4032-0.2752 0.8128-0.4096 1.0816 0 0.1344-0.1344 0.1344-0.1344 0.2688-0.1344 0.4096-0.4096 0.6784-0.544 0.9536 0 0.1344-0.1344 0.1344-0.1344 0.2688-0.2688 0.4032-0.5376 0.6784-0.8128 1.0816l-0.2688 0.2688a33.9008 33.9008 0 0 1-0.6784 0.6784l-0.2688 0.2688a2.88 2.88 0 0 1-1.0816 0.6784l47.648-27.7504c0.4032-0.2688 0.672-0.4032 1.0816-0.672l0.2688-0.2752 0.6784-0.672 0.2688-0.2752c0.2688-0.2688 0.544-0.672 0.8128-0.9472 0-0.1344 0.1344-0.1344 0.1344-0.2688 0.1344-0.2688 0.4096-0.544 0.544-0.9472v-0.1344c0-0.1344 0.1344-0.1344 0.1344-0.2752 0.1344-0.1344 0.1344-0.4032 0.2688-0.5376 0-0.1344 0.1344-0.4096 0.1344-0.544 0-0.1344 0-0.1344 0.1344-0.2688v-0.1344c0.1408-0.2752 0.1408-0.544 0.2752-0.8128 0-0.1344 0-0.2688 0.1344-0.4096v-0.2688-0.2688c0-0.2688 0.1344-0.544 0.1344-0.8128v-0.544-0.2688-0.8128c0.8128-0.5376 0.8128-0.6784 0.8128-1.0816 0 0.1344 0 0.1344 0 0z" fill="#13A08C" p-id="24519"></path><path d="M873.1136 915.168c6.496 11.3728 6.3616 23.552-0.2688 27.3472-3.3856 1.8944-7.7184 1.3504-12.0512-1.2224-4.3264-2.432-8.5248-6.7648-11.776-12.3136l-74.5792-129.1328c-23.9616 7.5776-53.3312 2.1632-83.52-15.296-75.5328-43.5904-136.448-149.0368-136.1728-235.5328 0.2688-86.4896 61.4528-121.4144 136.8512-77.9648 75.392 43.456 136.0384 148.896 135.8976 235.5264-0.1344 36.1408-10.8288 63.3472-28.9664 79.5904l74.5856 128.9984z m-182.3296-169.8752c56.4416 32.6208 102.464 6.496 102.6048-58.4768 0.1344-64.9728-45.4848-144.0192-101.9264-176.64-56.448-32.6272-102.464-6.368-102.6048 58.4704-0.1344 64.8384 45.344 144.0256 101.9264 176.64" fill="#37BCBD" p-id="24520"></path></svg>