<?xml version="1.0" standalone="no"?><!DOCTYPE svg PUBLIC "-//W3C//DTD SVG 1.1//EN" "http://www.w3.org/Graphics/SVG/1.1/DTD/svg11.dtd"><svg t="1625564623218" class="icon" viewBox="0 0 1203 1024" version="1.1" xmlns="http://www.w3.org/2000/svg" p-id="24123" xmlns:xlink="http://www.w3.org/1999/xlink" width="234.9609375" height="200"><defs><style type="text/css"></style></defs><path d="M1104.641677 609.555393l-0.127986 28.009759-510.901335 296.991758v-28.009759l511.029321-296.991758z" fill="#37BCBD" p-id="24124"></path><path d="M593.612356 906.547151v28.009759l-514.337762-296.991758 0.134385-28.009759 514.203377 296.991758z" fill="#37BCBD" p-id="24125"></path><path d="M1104.641677 609.555393l-511.029321 296.991758-514.203377-296.991758 510.901335-297.119744 514.331363 297.119744z" fill="#D9F2F2" p-id="24126"></path><path d="M245.266173 467.004469l-114.355585 66.584771L15.627103 467.004469l114.489971-66.584772L245.266173 467.004469zM1104.24492 152.305833l-84.509225 49.146665-85.040368-49.146665 84.509226-49.146664 85.040367 49.146664zM1197.342014 506.635366l-44.366384 25.763603-44.635154-25.763603 44.366383-25.757203 44.635155 25.757203z" fill="#37BCBD" opacity=".4" p-id="24127"></path><path d="M170.125531 440.18498l-82.000698 47.559637L5.727378 440.19138l81.866313-47.694022 82.53184 47.694022zM667.159571 881.186704l-114.483571 66.450386-115.149099-66.450386 114.483571-66.591171 115.149099 66.591171z" fill="#37BCBD" opacity=".4" p-id="24128"></path><path d="M592.025328 854.23283L510.02463 901.926853l-82.397454-47.694023 81.866312-47.559636 82.53184 47.559636zM793.929809 986.608859L729.885562 1024l-64.56899-37.391141 64.044247-37.256755 64.56899 37.256755z" fill="#37BCBD" opacity=".4" p-id="24129"></path><path d="M514.644929 564.638669v0.396757c-0.127986 1.055885-0.262372 1.983785-0.396757 3.03967v0.390358c-0.127986 0.665528-0.262372 1.459042-0.396757 2.111771-0.127986 0.665528-0.262372 1.19667-0.396757 1.855798-0.127986 0.524743-0.255972 1.055885-0.524743 1.587028-0.127986 0.524743-0.396757 1.183871-0.531142 1.715014-0.262372 0.793514-0.659128 1.715014-0.9215 2.508527-0.396757 1.055885-0.927899 2.111771-1.452643 3.174056 0 0.127986-0.127986 0.127986-0.127986 0.262371-0.531142 0.927899-1.062285 1.983785-1.587027 2.905285-0.134385 0.127986-0.134385 0.262372-0.268771 0.396757-0.524743 0.927899-1.183871 1.855799-1.849399 2.777298-0.127986 0.127986-0.255972 0.396757-0.390358 0.524743a38.331839 38.331839 0 0 1-2.111771 2.777299c-0.134385 0.127986-0.268771 0.396757-0.403156 0.524743l-1.983785 2.380541c-0.127986 0.262372-0.390358 0.396757-0.524743 0.659129-0.787115 0.927899-1.715014 1.855799-2.508527 2.642913l-0.524743 0.531142c-0.659128 0.659128-1.452642 1.318257-2.111771 1.983785-0.531142 0.524743-1.190271 1.055885-1.721413 1.580628-0.524743 0.531142-1.055885 0.927899-1.715014 1.452643a18.775562 18.775562 0 0 1-1.983785 1.452642c-0.659128 0.396757-1.183871 0.927899-1.843 1.324656-0.659128 0.524743-1.324656 0.9215-2.11177 1.452642-0.665528 0.396757-1.324656 0.9215-1.983785 1.318257-0.659128 0.531142-1.452642 0.927899-2.239757 1.452643-0.927899 0.531142-1.855799 1.190271-2.911684 1.721413-1.318257 0.793514-2.636514 1.452642-4.095555 2.239757-0.390358 0.134385-0.659128 0.403156-1.049486 0.531142a48.116376 48.116376 0 0 1-3.698799 1.855798c-0.127986 0.127986-0.268771 0.127986-0.531142 0.255973l-4.351528 1.983784c-0.403156 0.134385-0.799913 0.268771-1.19027 0.531143-1.190271 0.524743-2.514927 1.055885-3.698799 1.587027a1.874996 1.874996 0 0 1-0.793514 0.255973c-1.452642 0.537542-3.03967 1.062285-4.492312 1.593427-0.396757 0.127986-0.787115 0.262372-1.055885 0.396757-1.055885 0.396757-2.111771 0.659128-3.167656 1.055885-0.9215 0.262372-1.983785 0.659128-3.03967 0.9215-0.787115 0.268771-1.715014 0.531142-2.508528 0.793514-1.055885 0.262372-1.983785 0.531142-3.033271 0.793514-0.793514 0.262372-1.721413 0.396757-2.642913 0.659128-1.055885 0.268771-2.111771 0.531142-3.167656 0.659128-0.927899 0.134385-1.721413 0.396757-2.642913 0.531143-1.055885 0.262372-2.111771 0.396757-3.167656 0.659128-0.927899 0.127986-1.849399 0.396757-2.905285 0.531143-0.396757 0.127986-0.927899 0.127986-1.318257 0.262371a45.838224 45.838224 0 0 1-4.492312 0.659129c-0.262372 0-0.531142 0.134385-0.659128 0.134385-1.721413 0.262372-3.436427 0.396757-5.151441 0.659128-0.396757 0-0.793514 0.127986-1.318257 0.127986-1.055885 0.140785-2.111771 0.268771-3.174055 0.268771-1.318257 0.127986-2.636514 0.262372-3.96117 0.262372-0.787115 0-1.715014 0.134385-2.508528 0.134385-1.318257 0.127986-2.770899 0.127986-4.095555 0.262372-0.787115 0-1.580628 0.134385-2.367743 0.134385-1.19667 0-2.380542 0-3.570813 0.127986h-8.581468c-1.190271 0-2.380542-0.127986-3.564413-0.127986-0.793514 0-1.587028 0-2.508528-0.127986-1.324656-0.134385-2.508528-0.134385-3.698798-0.268771-0.793514 0-1.452642-0.127986-2.246156-0.127986-1.452642-0.134385-2.905285-0.268771-4.492313-0.396757-0.524743 0-0.9215-0.134385-1.452642-0.134385-1.983785-0.262372-3.96117-0.531142-5.80417-0.793514-0.268771 0-0.531142-0.127986-0.927899-0.127986-1.715014-0.268771-3.430028-0.531142-5.017056-0.793514-0.659128-0.134385-1.318257-0.268771-2.11177-0.396757-1.324656-0.268771-2.508528-0.531142-3.833184-0.665528-0.659128-0.127986-1.318257-0.255972-1.983785-0.396757-1.318257-0.255972-2.770899-0.659128-4.089156-0.9215-0.793514-0.127986-1.452642-0.396757-2.239757-0.531142-1.190271-0.262372-2.514927-0.659128-3.698798-0.9215a28.726481 28.726481 0 0 1-3.174056-0.927899l-1.183871-0.396757c-1.587028-0.524743-3.174055-0.9215-4.754684-1.452642a1.900594 1.900594 0 0 0-0.927899-0.262372c-1.318257-0.396757-2.508528-0.927899-3.826785-1.324656a9.02302 9.02302 0 0 1-1.318257-0.524743c-1.062285-0.396757-1.983785-0.793514-3.03967-1.190271l-1.983784-0.793514c-0.9215-0.396757-1.843-0.793514-2.905285-1.318257-0.659128-0.262372-1.183871-0.531142-1.843-0.793513-1.062285-0.531142-1.983785-1.055885-3.03967-1.452643L309.438407 614.444462c-1.452642-0.793514-3.033271-1.587028-4.485913-2.380541-24.170176-14.00168-36.316057-32.367686-36.316058-50.727293l-0.127986 43.067324c0 18.366006 12.011496 36.725613 36.309658 50.733693 1.452642 0.793514 2.905285 1.580628 4.492312 2.374142 0.524743 0.268771 1.055885 0.531142 1.452643 0.793514 1.055885 0.531142 1.983785 1.055885 3.03327 1.452642 0.659128 0.268771 1.190271 0.531142 1.855799 0.793514 0.9215 0.396757 1.843 0.927899 2.898885 1.324656l1.983785 0.787115 1.983785 0.793513c0.390358 0.134385 0.652729 0.268771 1.049486 0.396757 0.396757 0.134385 0.793514 0.268771 1.324656 0.531143 1.318257 0.524743 2.508528 0.9215 3.826784 1.318257 0.262372 0.134385 0.524743 0.268771 0.9215 0.26877 1.587028 0.524743 3.174055 1.055885 4.754684 1.452643l1.190271 0.396757c0.659128 0.262372 1.318257 0.396757 1.983785 0.659128 0.390358 0.127986 0.787115 0.127986 1.183871 0.262372 1.190271 0.396757 2.508528 0.659128 3.698799 0.927899 0.793514 0.127986 1.452642 0.396757 2.239756 0.524743 1.324656 0.268771 2.777298 0.659128 4.095556 0.927899l1.587027 0.396757c0.127986 0 0.262372 0 0.396757 0.127986 1.318257 0.268771 2.508528 0.531142 3.833184 0.665528 0.659128 0.127986 1.318257 0.262372 2.111771 0.390358 1.715014 0.268771 3.295642 0.531142 5.017055 0.793513 0.262372 0 0.524743 0.134385 0.793514 0.134386 1.983785 0.262372 3.96117 0.531142 5.80417 0.793514 0.531142 0 0.927899 0.134385 1.452642 0.134385 1.459042 0.127986 2.911684 0.262372 4.492313 0.390358h0.127986c0.665528 0 1.324656 0.134385 2.11177 0.134385 1.324656 0.134385 2.514927 0.134385 3.839584 0.262372 0.787115 0 1.580628 0.134385 2.502128 0.134385 1.190271 0 2.380542 0.134385 3.564413 0.134386h8.587868c1.190271 0 2.374142 0 3.564413-0.134386h0.659128c0.531142 0 1.055885 0 1.715014-0.134385 1.324656 0 2.777298-0.127986 4.095555-0.262372 0.793514 0 1.715014-0.134385 2.508528-0.134385 1.318257-0.127986 2.642913-0.262372 3.967569-0.262372 0.390358 0 0.9215-0.127986 1.446243-0.127986 0.659128 0 1.190271-0.134385 1.8494-0.134385 0.396757 0 0.793514-0.134385 1.318256-0.134386 1.721413-0.127986 3.436427-0.396757 5.151441-0.659128 0.262372 0 0.531142-0.134385 0.793514-0.134386 1.452642-0.262372 2.905285-0.396757 4.492312-0.659128 0.390358-0.134385 0.9215-0.134385 1.318257-0.262372 0.396757 0 0.659128-0.134385 1.055886-0.134385 0.659128-0.127986 1.190271-0.262372 1.849399-0.396757 1.055885-0.262372 2.111771-0.396757 3.167656-0.659128 0.927899-0.134385 1.715014-0.396757 2.642913-0.531143 1.055885-0.262372 2.111771-0.524743 3.167656-0.659128 0.927899-0.262372 1.715014-0.396757 2.642913-0.659129 1.055885-0.262372 1.983785-0.531142 3.033271-0.793513 0.793514-0.262372 1.721413-0.524743 2.508528-0.793514 1.055885-0.262372 1.983785-0.659128 3.03967-0.9215 0.396757-0.134385 0.927899-0.268771 1.318256-0.396757 0.659128-0.134385 1.190271-0.396757 1.855799-0.659129 0.390358-0.134385 0.787115-0.268771 1.049486-0.396756 1.587028-0.531142 3.03967-1.062285 4.492312-1.587028a1.843 1.843 0 0 1 0.793514-0.262372c1.318257-0.531142 2.508528-1.062285 3.698799-1.452642 0.390358-0.134385 0.787115-0.268771 1.183871-0.531142l4.357927-1.983785c0.127986-0.127986 0.262372-0.127986 0.531142-0.262371 1.318257-0.659128 2.508528-1.190271 3.698799-1.8494 0.390358-0.134385 0.787115-0.396757 1.055885-0.531142 1.318257-0.793514 2.770899-1.452642 4.095556-2.246156 0.524743-0.262372 1.049486-0.524743 1.446243-0.9215 0.531142-0.262372 0.927899-0.531142 1.324656-0.793514 0.787115-0.531142 1.452642-0.927899 2.239757-1.452642 0.665528-0.396757 1.324656-0.927899 1.983784-1.324657 0.659128-0.524743 1.452642-0.9215 2.111771-1.452642 0.659128-0.396757 1.190271-0.9215 1.849399-1.318257 0.659128-0.531142 1.318257-1.055885 1.983785-1.452642 0.524743-0.531142 1.183871-0.927899 1.715014-1.452642a20.349791 20.349791 0 0 0 1.715013-1.587028c0.262372-0.262372 0.524743-0.396757 0.793514-0.659128 0.524743-0.396757 0.9215-0.927899 1.318257-1.324657 0.127986-0.127986 0.396757-0.262372 0.531143-0.524743 0.9215-0.927899 1.715014-1.721413 2.508527-2.642913 0.127986-0.262372 0.396757-0.396757 0.524743-0.659128l1.983785-2.380542c0.127986-0.127986 0.262372-0.396757 0.396757-0.531142 0-0.127986 0.127986-0.127986 0.127986-0.255972 0.659128-0.799913 1.324656-1.727812 1.855798-2.514927 0.127986-0.127986 0.255972-0.396757 0.390358-0.531143 0.659128-0.9215 1.190271-1.849399 1.855799-2.770899 0.127986-0.127986 0.127986-0.268771 0.255972-0.396757 0.268771-0.396757 0.396757-0.659128 0.659128-1.055885 0.396757-0.665528 0.665528-1.190271 1.062285-1.855799 0-0.127986 0-0.127986 0.127986-0.255972 0.531142-1.062285 1.055885-2.11817 1.452642-3.174055 0.262372-0.531142 0.531142-1.190271 0.659129-1.721413 0.134385-0.255972 0.134385-0.524743 0.268771-0.787115 0.255972-0.531142 0.396757-1.190271 0.524743-1.721413 0.127986-0.524743 0.262372-1.055885 0.531142-1.587028 0.127986-0.659128 0.262372-1.183871 0.396757-1.849399 0.127986-0.255972 0.127986-0.659128 0.255972-0.9215 0.140785-0.396757 0.140785-0.793514 0.268771-1.190271v-0.396757c0.127986-1.055885 0.262372-1.983785 0.396757-3.03967v-0.396757c0-0.659128 0.127986-1.452642 0.127986-2.11177v-1.055886l0.134385-43.067324c-0.127986 0.787115-0.127986 1.849399-0.255972 2.905284z" fill="#54CCCC" opacity=".75" p-id="24130"></path><path d="M514.644929 558.028187v0.396757c-0.127986 1.062285-0.262372 1.983785-0.396757 3.03967v0.396757c-0.127986 0.659128-0.262372 1.452642-0.396757 2.111771-0.127986 0.665528-0.262372 1.190271-0.396757 1.855798-0.127986 0.524743-0.255972 1.055885-0.524743 1.580629-0.127986 0.531142-0.396757 1.190271-0.531142 1.721413-0.262372 0.793514-0.659128 1.715014-0.9215 2.508527-0.396757 1.055885-0.927899 2.111771-1.452643 3.167656 0 0.134385-0.127986 0.134385-0.127986 0.268771-0.531142 0.9215-1.062285 1.983785-1.587027 2.905285-0.134385 0.127986-0.134385 0.262372-0.268771 0.396757-0.524743 0.9215-1.183871 1.849399-1.849399 2.770899-0.127986 0.134385-0.255972 0.396757-0.390358 0.531142a38.459825 38.459825 0 0 1-2.111771 2.777299c-0.134385 0.127986-0.268771 0.390358-0.403156 0.524743l-1.983785 2.380541c-0.127986 0.262372-0.390358 0.396757-0.524743 0.659129a48.519533 48.519533 0 0 1-3.03327 3.167656c-0.659128 0.665528-1.452642 1.324656-2.111771 1.983785-0.531142 0.531142-1.190271 1.055885-1.721413 1.587027-0.524743 0.524743-1.055885 0.9215-1.715014 1.452643a18.775562 18.775562 0 0 1-1.983785 1.452642c-0.659128 0.396757-1.183871 0.9215-1.843 1.324656-0.659128 0.524743-1.324656 0.9215-2.11177 1.452642-0.665528 0.396757-1.324656 0.9215-1.983785 1.318257-0.659128 0.531142-1.452642 0.9215-2.239757 1.452643-0.927899 0.531142-1.855799 1.190271-2.911684 1.715013-1.318257 0.793514-2.636514 1.459042-4.095555 2.252556-0.390358 0.127986-0.659128 0.390358-1.049486 0.524743a48.340352 48.340352 0 0 1-3.698799 1.855798c-0.127986 0.127986-0.268771 0.127986-0.531142 0.255973l-4.351528 1.983784a4.671493 4.671493 0 0 0-1.19027 0.531143c-1.190271 0.524743-2.514927 1.055885-3.698799 1.580628-0.262372 0.134385-0.531142 0.268771-0.793514 0.268771-1.452642 0.524743-3.03967 1.055885-4.492312 1.580628-0.396757 0.134385-0.787115 0.268771-1.055885 0.396757-1.055885 0.396757-2.111771 0.665528-3.167656 1.055886-0.9215 0.268771-1.983785 0.665528-3.03967 0.927899-0.787115 0.262372-1.715014 0.531142-2.508528 0.793514-1.055885 0.262372-1.983785 0.524743-3.033271 0.793514-0.793514 0.262372-1.721413 0.396757-2.642913 0.659128-1.055885 0.262372-2.111771 0.531142-3.167656 0.659128-0.927899 0.127986-1.721413 0.396757-2.642913 0.531143-1.055885 0.262372-2.111771 0.396757-3.167656 0.659128-0.927899 0.127986-1.849399 0.396757-2.905285 0.531143-0.396757 0.127986-0.927899 0.127986-1.318257 0.255972a45.646245 45.646245 0 0 1-4.492312 0.665527c-0.262372 0-0.531142 0.127986-0.659128 0.127987-1.721413 0.268771-3.436427 0.403156-5.151441 0.665527-0.396757 0-0.793514 0.127986-1.318257 0.127986-1.055885 0.134385-2.111771 0.268771-3.174055 0.268771-1.318257 0.127986-2.636514 0.262372-3.96117 0.262372-0.787115 0-1.715014 0.127986-2.508528 0.127986-1.318257 0.140785-2.770899 0.140785-4.095555 0.268771-0.787115 0-1.580628 0.127986-2.367743 0.127986-1.19667 0-2.380542 0-3.570813 0.134385h-8.581468c-1.190271 0-2.380542-0.127986-3.564413-0.127986-0.793514 0-1.587028 0-2.508528-0.127986-1.324656-0.140785-2.508528-0.140785-3.698798-0.268771-0.793514 0-1.452642-0.127986-2.246156-0.127986-1.452642-0.134385-2.905285-0.268771-4.492313-0.403156-0.524743 0-0.9215-0.127986-1.452642-0.127986-1.983785-0.268771-3.96117-0.531142-5.80417-0.793514-0.268771 0-0.531142-0.127986-0.927899-0.127986-1.715014-0.268771-3.430028-0.537542-5.017056-0.799913a63.212338 63.212338 0 0 0-2.11177-0.396757c-1.324656-0.262372-2.508528-0.524743-3.833184-0.659129l-1.983785-0.396757c-1.318257-0.262372-2.770899-0.659128-4.089156-0.9215-0.793514-0.134385-1.452642-0.396757-2.239757-0.531142-1.190271-0.262372-2.514927-0.659128-3.698798-0.927899a28.451311 28.451311 0 0 1-3.174056-0.9215l-1.183871-0.396757c-1.587028-0.531142-3.174055-0.9215-4.754684-1.452642a1.900594 1.900594 0 0 0-0.927899-0.262372c-1.318257-0.396757-2.508528-0.927899-3.826785-1.324656-0.396757-0.127986-0.793514-0.262372-1.318257-0.524743-1.062285-0.396757-1.983785-0.793514-3.03967-1.190271l-1.983784-0.793514a51.373623 51.373623 0 0 1-2.905285-1.324656c-0.659128-0.255972-1.183871-0.524743-1.843-0.787115-1.062285-0.531142-1.983785-1.062285-3.03967-1.452642l-1.587027-0.793514c-1.452642-0.793514-3.033271-1.587028-4.485913-2.380541-24.170176-14.00168-36.316057-32.367686-36.316058-50.733692l-0.127986 43.067324c0 18.366006 12.011496 36.732012 36.309658 50.733692 1.452642 0.793514 2.905285 1.587028 4.492312 2.380542 0.524743 0.262372 1.055885 0.531142 1.452643 0.793514 1.055885 0.524743 1.983785 1.055885 3.03327 1.452642 0.659128 0.262372 1.190271 0.531142 1.855799 0.793514 0.9215 0.396757 1.843 0.9215 2.898885 1.318257l1.983785 0.793514 1.983785 0.793513c0.390358 0.134385 0.652729 0.262372 1.049486 0.396757 0.396757 0.134385 0.793514 0.262372 1.324656 0.531143 1.318257 0.524743 2.508528 0.9215 3.826784 1.318257a1.881396 1.881396 0 0 0 0.9215 0.262371c1.587028 0.531142 3.174055 1.055885 4.754684 1.452642l1.190271 0.396757c0.659128 0.268771 1.318257 0.396757 1.983785 0.665528 0.390358 0.127986 0.787115 0.127986 1.183871 0.262372 1.190271 0.396757 2.508528 0.659128 3.698799 0.9215 0.793514 0.134385 1.452642 0.396757 2.239756 0.531142 1.324656 0.262372 2.777298 0.659128 4.095556 0.9215l1.587027 0.396757c0.127986 0 0.262372 0 0.396757 0.134385 1.318257 0.262372 2.508528 0.531142 3.833184 0.659129 0.659128 0.134385 1.318257 0.268771 2.111771 0.396757 1.715014 0.268771 3.295642 0.531142 5.017055 0.793513 0.262372 0 0.524743 0.134385 0.793514 0.134386 1.983785 0.262372 3.96117 0.524743 5.80417 0.793514 0.531142 0 0.927899 0.127986 1.452642 0.127986 1.459042 0.134385 2.911684 0.268771 4.492313 0.396757h0.127986c0.665528 0 1.324656 0.134385 2.11177 0.134385 1.324656 0.127986 2.514927 0.127986 3.839584 0.262372 0.787115 0 1.580628 0.134385 2.502128 0.134385 1.190271 0 2.380542 0.127986 3.564413 0.127986h8.587868c1.190271 0 2.374142 0 3.564413-0.127986h0.659128c0.531142 0 1.055885 0 1.715014-0.134385 1.324656 0 2.777298-0.134385 4.095555-0.262372 0.793514 0 1.715014-0.134385 2.508528-0.134385 1.318257-0.127986 2.642913-0.262372 3.967569-0.262372 0.390358 0 0.9215-0.134385 1.446243-0.134385 0.659128 0 1.190271-0.127986 1.8494-0.127986 0.396757 0 0.793514-0.134385 1.318256-0.134386 1.721413-0.134385 3.436427-0.396757 5.151441-0.659128 0.262372 0 0.531142-0.134385 0.793514-0.134386 1.452642-0.262372 2.905285-0.396757 4.492312-0.659128 0.390358-0.134385 0.9215-0.134385 1.318257-0.262372 0.396757 0 0.659128-0.134385 1.055886-0.134385 0.659128-0.134385 1.190271-0.262372 1.849399-0.396757 1.055885-0.262372 2.111771-0.396757 3.167656-0.659128 0.927899-0.134385 1.715014-0.396757 2.642913-0.531143 1.055885-0.262372 2.111771-0.524743 3.167656-0.659128 0.927899-0.262372 1.715014-0.396757 2.642913-0.659129 1.055885-0.268771 1.983785-0.531142 3.033271-0.793513 0.793514-0.262372 1.721413-0.531142 2.508528-0.793514 1.055885-0.262372 1.983785-0.659128 3.03967-0.9279 0.396757-0.127986 0.927899-0.262372 1.318256-0.390357 0.659128-0.134385 1.190271-0.396757 1.855799-0.665528 0.390358-0.127986 0.787115-0.262372 1.049486-0.396757 1.587028-0.524743 3.03967-1.055885 4.492312-1.580628a1.855799 1.855799 0 0 1 0.793514-0.268771c1.318257-0.524743 2.508528-1.055885 3.698799-1.452642a4.594701 4.594701 0 0 0 1.183871-0.524743l4.357927-1.983785c0.127986-0.134385 0.262372-0.134385 0.531142-0.262372 1.318257-0.665528 2.508528-1.190271 3.698799-1.849399 0.390358-0.134385 0.787115-0.396757 1.055885-0.531142 1.318257-0.793514 2.770899-1.452642 4.095556-2.246156 0.524743-0.262372 1.049486-0.524743 1.446243-0.9215 0.531142-0.268771 0.927899-0.531142 1.324656-0.793514 0.787115-0.531142 1.452642-0.927899 2.239757-1.452642 0.665528-0.396757 1.324656-0.927899 1.983784-1.324657 0.659128-0.524743 1.452642-0.9215 2.111771-1.452642 0.659128-0.396757 1.190271-0.9215 1.849399-1.318257 0.659128-0.531142 1.318257-1.062285 1.983785-1.459041 0.524743-0.524743 1.183871-0.9215 1.715014-1.452643 0.659128-0.524743 1.183871-1.055885 1.715013-1.580628 0.262372-0.268771 0.524743-0.396757 0.793514-0.659128 0.524743-0.403156 0.9215-0.927899 1.318257-1.324657 0.127986-0.127986 0.396757-0.262372 0.531143-0.531142 0.9215-0.9215 1.715014-1.715014 2.508527-2.642913 0.127986-0.255972 0.396757-0.390358 0.524743-0.659129l1.983785-2.374142c0.127986-0.127986 0.262372-0.396757 0.396757-0.531142 0-0.127986 0.127986-0.127986 0.127986-0.262372 0.659128-0.793514 1.324656-1.721413 1.855798-2.508527 0.127986-0.134385 0.255972-0.396757 0.390358-0.531143 0.659128-0.927899 1.190271-1.849399 1.855799-2.777298 0.127986-0.127986 0.127986-0.255972 0.255972-0.396757 0.268771-0.390358 0.396757-0.659128 0.659128-1.055885 0.396757-0.659128 0.665528-1.190271 1.062285-1.8494 0-0.127986 0-0.127986 0.127986-0.262371 0.531142-1.055885 1.055885-2.111771 1.452642-3.174056 0.262372-0.524743 0.531142-1.183871 0.659129-1.715013 0.134385-0.262372 0.134385-0.524743 0.268771-0.793514 0.255972-0.524743 0.396757-1.190271 0.524743-1.715014 0.127986-0.531142 0.262372-1.055885 0.531142-1.587028 0.127986-0.659128 0.262372-1.190271 0.396757-1.849399 0.127986-0.262372 0.127986-0.659128 0.255972-0.9215 0.140785-0.396757 0.140785-0.793514 0.268771-1.190271v-0.396757c0.127986-1.055885 0.262372-1.983785 0.396757-3.03967v-0.396757c0-0.659128 0.127986-1.452642 0.127986-2.11177v-1.055886l0.134385-43.067324c-0.127986 0.787115-0.127986 1.843-0.255972 2.905284z" fill="#13A08C" p-id="24131"></path><path d="M478.463257 504.126839c48.065182 27.747388 48.327553 72.798497 0.531142 100.67387-47.80281 27.740988-125.579967 27.740988-173.645148 0-48.071581-27.747388-48.333953-72.798497-0.531143-100.67387 47.80281-27.740988 125.579967-27.740988 173.645149 0z" fill="#37BCBD" p-id="24132"></path><path d="M707.040042 568.599839l66.028032-38.447026v1.452643l-66.028032 38.447026v-1.452643z" fill="#2A9192" p-id="24133"></path><path d="M679.970981 552.883146l66.028031-38.31904 27.069062 15.588707-66.028032 38.447026-27.069061-15.723093z" fill="#13A08C" p-id="24134"></path><path d="M527.71871 257.600002l66.021632-38.440626 27.734589 16.11345-66.028032 38.447026-27.728189-16.11985z" fill="#2A9192" p-id="24135"></path><path d="M680.630109 345.993606l66.028032-38.453425-0.665528 207.023925-66.021632 38.31264 0.659128-206.889539z" fill="#13A08C" p-id="24136"></path><path d="M555.446899 273.719852l66.028032-38.447026 125.18321 72.267355-66.028032 38.447026-125.18321-72.267355z" fill="#2A9192" p-id="24137"></path><path d="M680.630109 345.993606l-0.524743 207.017526 27.069061 15.588707v1.452643l-27.069061-15.723093v-1.452643L555.050142 480.609392c-15.313538-8.850239-27.72819-30.249516-27.728189-47.956394l0.531142-175.180982 27.862575 16.11985 124.914439 72.395341z" fill="#37BCBD" p-id="24138"></path><path d="M919.247404 604.928695l-66.028032 38.447027c5.017055-2.905285 8.056725-8.984625 8.056726-17.700479l66.021632-38.447026c0 8.722253-3.167656 14.795194-8.050326 17.700478z" fill="#13A08C" p-id="24139"></path><path d="M861.276098 625.540858l66.021632-38.447026v0.134385l-66.021632 38.312641c0 0.127986 0 0.127986 0 0zM861.276098 625.675243l66.021632-38.447026v1.324656l-66.021632 38.440627v-1.318257z" fill="#13A08C" p-id="24140"></path><path d="M861.276098 626.9935l66.021632-38.440627c0 0.396757 0 0.9215-0.127986 1.318257l-66.028032 38.447026c0-0.396757 0.134385-0.793514 0.134386-1.324656zM861.141712 628.318156l66.028032-38.447026c0 0.396757-0.134385 0.927899-0.134385 1.324656l-66.021633 38.440627c0-0.396757 0.127986-0.9215 0.127986-1.318257z" fill="#13A08C" p-id="24141"></path><path d="M861.013726 629.636413l66.021633-38.440627c0 0.390358-0.127986 0.9215-0.127986 1.318257l-66.028032 38.447026c0-0.396757 0.134385-0.793514 0.134385-1.324656z" fill="#13A08C" p-id="24142"></path><path d="M860.879341 630.95467l66.021632-38.440627c-0.127986 0.396757-0.127986 0.9215-0.262371 1.318257l-66.021633 38.447026c0-0.396757 0.127986-0.793514 0.262372-1.318257zM860.616969 632.279326l66.021633-38.447026c-0.127986 0.531142-0.262372 0.927899-0.396757 1.459042l-66.021633 38.440626a26.237152 26.237152 0 0 0 0.396757-1.452642zM860.220212 633.731968l66.021633-38.440626a6.316114 6.316114 0 0 1-0.524743 1.452642l-66.028032 38.440627c0.134385-0.396757 0.396757-0.9215 0.531142-1.452643z" fill="#13A08C" p-id="24143"></path><path d="M859.68907 635.184611l66.028032-38.440627c-0.262372 0.524743-0.396757 1.055885-0.659129 1.580628l-66.028031 38.447026c0.262372-0.531142 0.531142-1.055885 0.659128-1.587027zM859.029942 636.771638l66.028031-38.447026a8.594267 8.594267 0 0 1-1.055885 1.855799l-66.028032 38.440627a8.319097 8.319097 0 0 0 1.055886-1.8494z" fill="#13A08C" p-id="24144"></path><path d="M857.974056 638.621038l66.028032-38.447026c-1.324656 1.983785-2.905285 3.570812-4.754684 4.626697L853.219372 643.241336c1.849399-1.062285 3.436427-2.514927 4.754684-4.626698zM861.80724 450.622247l66.021633-38.447026-0.524743 175.052996-66.028032 38.312641 0.531142-174.918611z" fill="#13A08C" p-id="24145"></path><path d="M708.492684 361.972671l65.893647-38.31264 153.442542 88.51519-66.028032 38.447026-153.308157-88.649576z" fill="#2A9192" p-id="24146"></path><path d="M707.040042 568.471853l1.324656-206.364796L861.672855 450.622247l-0.531143 175.052996c0 17.700478-12.542638 24.701318-27.862575 15.851079l-126.239095-73.054469z" fill="#37BCBD" p-id="24147"></path><path d="M507.91286 127.604515l66.021632-38.447026c5.017055-2.905285 12.017895-2.508528 19.80585 1.983784l-66.021632 38.440627c-7.659968-4.492312-14.788794-4.889069-19.80585-1.983784z" fill="#13A08C" p-id="24148"></path><path d="M507.91286 127.604515l66.021632-38.447026c0.659128-0.396757 1.452642-0.793514 2.239757-1.055886L510.152617 126.54223c-0.787115 0.396757-1.580628 0.665528-2.239757 1.062285zM510.152617 126.676616l66.028031-38.447026c0.659128-0.262372 1.318257-0.396757 1.983785-0.524743L512.136401 126.145473c-0.659128 0.134385-1.318257 0.268771-1.983784 0.531143z" fill="#13A08C" p-id="24149"></path><path d="M512.136401 126.145473l66.021633-38.440626c0.531142-0.127986 1.062285-0.127986 1.587027-0.268771l-66.021632 38.447026c-0.531142 0-1.062285 0.127986-1.587028 0.262371z" fill="#13A08C" p-id="24150"></path><path d="M513.723429 125.883102l66.021632-38.447026c0.531142 0 0.927899-0.127986 1.452643-0.127986l-66.021633 38.447026c-0.531142 0-0.927899 0.127986-1.452642 0.127986z" fill="#13A08C" p-id="24151"></path><path d="M515.176071 125.755116l66.021633-38.447026h1.318257l-66.021633 38.447026h-1.318257zM516.487929 125.883102l66.028032-38.447026c0.396757 0 0.793514 0.134385 1.19027 0.134385l-66.021632 38.447026c-0.396757-0.127986-0.793514-0.127986-1.190271-0.127986zM517.684599 126.017487l66.021632-38.447026c0.396757 0 0.793514 0.127986 1.190271 0.262372l-66.028032 38.447026a3.839583 3.839583 0 0 0-1.183871-0.262372z" fill="#13A08C" p-id="24152"></path><path d="M518.86847 126.145473L584.896502 87.704847c0.396757 0.127986 0.793514 0.127986 1.183872 0.262371l-66.021633 38.447026c-0.396757-0.127986-0.793514-0.127986-1.190271-0.262371z" fill="#13A08C" p-id="24153"></path><path d="M520.058741 126.414244l66.028032-38.447026c0.390358 0.127986 0.787115 0.262372 1.183871 0.262372l-66.021632 38.447026a3.839583 3.839583 0 0 1-1.190271-0.262372z" fill="#13A08C" p-id="24154"></path><path d="M521.249012 126.676616L587.264245 88.22959c0.396757 0.134385 0.793514 0.268771 1.055885 0.396757L522.311297 127.073373c-0.396757-0.127986-0.659128-0.262372-1.055886-0.396757z" fill="#13A08C" p-id="24155"></path><path d="M522.304897 127.073373l66.021633-38.447026 1.190271 0.396756-66.021633 38.447027-1.190271-0.396757z" fill="#13A08C" p-id="24156"></path><path d="M523.495168 127.47013l66.021633-38.447027c0.396757 0.127986 0.793514 0.262372 1.055885 0.531143L524.551053 128.001272a3.941972 3.941972 0 0 1-1.055885-0.531142z" fill="#13A08C" p-id="24157"></path><path d="M524.551053 128.001272l66.021633-38.447026c0.396757 0.127986 0.793514 0.396757 1.190271 0.524743l-66.028032 38.447026c-0.396757-0.127986-0.793514-0.396757-1.183872-0.524743z" fill="#13A08C" p-id="24158"></path><path d="M525.734925 128.526015l66.028032-38.447026c0.396757 0.134385 0.793514 0.396757 1.190271 0.531142L526.918796 129.057157c-0.396757-0.134385-0.793514-0.268771-1.19027-0.531142zM526.925196 129.185143l66.028032-38.447026c0.255972 0.134385 0.524743 0.268771 0.921499 0.531143l-66.021632 38.447026a7.563979 7.563979 0 0 0-0.927899-0.531143z" fill="#13A08C" p-id="24159"></path><path d="M527.71871 129.5819l66.021632-38.31264 20.336992 11.761923-66.021632 38.31264-20.336992-11.761923z" fill="#13A08C" p-id="24160"></path><path d="M560.860712 75.283795L626.888743 36.843168c-3.564413 2.111771-5.285826 7.135225-5.285826 15.326336-0.127986 35.407356 35.656929 75.703781 68.139803 94.460146l-66.021633 38.447026c-32.489273-18.756364-68.274188-59.052789-68.139802-94.460146 0.127986-8.191111 1.715014-13.214565 5.279427-15.326336z" fill="#2A9192" p-id="24161"></path><path d="M560.860712 75.283795L626.888743 36.843168a7.231215 7.231215 0 0 0-2.642913 2.642913L558.224198 77.926708c0.787115-1.055885 1.580628-1.983785 2.636514-2.642913z" fill="#2A9192" p-id="24162"></path><path d="M558.224198 77.926708l66.021632-38.447026c-0.262372 0.396757-0.524743 0.793514-0.659128 1.190271L557.571469 79.116979c0.255972-0.396757 0.390358-0.793514 0.659128-1.190271z" fill="#2A9192" p-id="24163"></path><path d="M557.565069 79.116979l66.021633-38.447026c-0.127986 0.396757-0.396757 0.793514-0.531142 1.190271l-66.021633 38.447026c0.127986-0.396757 0.396757-0.793514 0.524743-1.190271z" fill="#2A9192" p-id="24164"></path><path d="M557.033927 80.30725l66.021633-38.447026-0.390358 1.19027-66.028032 38.440627 0.396757-1.183871zM556.63717 81.491121L622.665202 43.050494a3.86518 3.86518 0 0 0-0.268771 1.183872l-66.021632 38.447026a3.845982 3.845982 0 0 0 0.262371-1.190271z" fill="#2A9192" p-id="24165"></path><path d="M556.374799 82.681392L622.396431 44.234366c-0.127986 0.396757-0.127986 0.793514-0.262371 1.324656L556.112427 84.006048c0.127986-0.531142 0.127986-0.927899 0.255972-1.324656z" fill="#2A9192" p-id="24166"></path><path d="M556.106028 83.871663L622.140459 45.424637c-0.127986 0.396757-0.127986 0.927899-0.262372 1.324656L555.843656 85.18992a3.897177 3.897177 0 0 0 0.262372-1.318257zM555.971642 85.324305l66.028032-38.447026c0 0.531142-0.127986 1.062285-0.127986 1.587028L555.843656 86.911333c0-0.531142 0-1.055885 0.127986-1.587028z" fill="#2A9192" p-id="24167"></path><path d="M555.71567 86.911333l66.021633-38.447026c0 0.531142-0.127986 1.055885-0.127986 1.715013l-66.028032 38.447027c0.127986-0.659128 0.127986-1.190271 0.127986-1.715014zM555.71567 88.626347l66.021633-38.447027v1.983785L555.71567 90.610131c-0.134385-0.793514 0-1.452642 0-1.983784z" fill="#2A9192" p-id="24168"></path><path d="M555.581285 90.475746l66.021632-38.440627V53.884518L555.587684 92.325145v-1.849399c0 0.127986 0 0.127986 0 0zM555.71567 92.325145l66.021633-38.440627c0 0.659128 0 1.183871 0.127986 1.849399L555.843656 94.174544c-0.127986-0.659128-0.127986-1.183871-0.127986-1.849399z" fill="#2A9192" p-id="24169"></path><path d="M555.71567 94.180943l66.021633-38.447026c0 0.659128 0.127986 1.183871 0.127986 1.8494L555.843656 96.023943c0-0.659128-0.127986-1.183871-0.127986-1.849399z" fill="#2A9192" p-id="24170"></path><path d="M555.843656 96.023943l66.028032-38.440626c0 0.659128 0.127986 1.183871 0.262372 1.849399l-66.021633 38.440627c-0.134385-0.659128-0.134385-1.183871-0.268771-1.8494z" fill="#2A9192" p-id="24171"></path><path d="M556.106028 97.873343L622.140459 59.432716c0.127986 0.659128 0.127986 1.183871 0.262371 1.849399l-66.021632 38.440627c-0.127986-0.659128-0.262372-1.183871-0.262372-1.849399z" fill="#2A9192" p-id="24172"></path><path d="M556.374799 99.722742L622.396431 61.288514c0.127986 0.659128 0.262372 1.190271 0.262372 1.8494l-66.021633 38.440626c-0.127986-0.659128-0.127986-1.183871-0.262371-1.849399z" fill="#2A9192" p-id="24173"></path><path d="M556.63717 101.572141l66.028032-38.440627 0.390358 1.983785-66.021633 38.440627-0.396757-1.983785z" fill="#2A9192" p-id="24174"></path><path d="M557.033927 103.42794l66.021633-38.447026 0.396756 1.983784-66.021632 38.440627-0.396757-1.983785zM557.565069 105.405325l66.021633-38.447026c0.127986 0.665528 0.262372 1.324656 0.531142 1.983784L558.083413 107.38911c-0.262372-0.659128-0.396757-1.324656-0.524743-1.983785z" fill="#2A9192" p-id="24175"></path><path d="M557.955427 107.38911l66.028032-38.447027c0.127986 0.659128 0.396757 1.324656 0.524743 1.983785l-66.021633 38.440627a8.690257 8.690257 0 0 0-0.531142-1.983785z" fill="#2A9192" p-id="24176"></path><path d="M558.614555 109.238509l66.028032-38.447026c0.262372 0.659128 0.396757 1.324656 0.659129 1.983784l-66.021633 38.447026a11.633937 11.633937 0 0 1-0.665528-1.983784z" fill="#2A9192" p-id="24177"></path><path d="M559.280083 111.222293l66.021633-38.447026c0.262372 0.659128 0.396757 1.318257 0.659128 1.983785L559.939212 113.199679a11.633937 11.633937 0 0 1-0.659129-1.983785z" fill="#2A9192" p-id="24178"></path><path d="M559.939212 113.199679l66.021632-38.447026c0.268771 0.665528 0.531142 1.324656 0.665528 1.855798L560.59834 115.042679c-0.262372-0.659128-0.524743-1.190271-0.659128-1.8494z" fill="#2A9192" p-id="24179"></path><path d="M560.59834 115.049078l66.028032-38.440627c0.255972 0.659128 0.524743 1.318257 0.787114 1.849399L561.391854 116.898477c-0.262372-0.524743-0.531142-1.190271-0.793514-1.849399zM561.391854 117.026463l66.021632-38.440626 0.793514 1.983784-66.021632 38.447026-0.793514-1.983784z" fill="#2A9192" p-id="24180"></path><path d="M562.178968 119.010248l66.028032-38.440627c0.262372 0.659128 0.659128 1.318257 0.9279 2.111771l-66.028032 38.447026a10.245288 10.245288 0 0 0-0.9215-2.111771z" fill="#2A9192" p-id="24181"></path><path d="M563.106868 120.994033l66.028032-38.440627c0.262372 0.659128 0.659128 1.318257 0.9215 1.983784L564.034767 122.977817c-0.268771-0.531142-0.531142-1.190271-0.927899-1.983784zM564.162753 123.105803l66.028032-38.440626c0.524743 1.055885 1.055885 1.983785 1.580628 3.03967l-66.021632 38.440626a63.903462 63.903462 0 0 0-1.587028-3.03327zM565.749781 126.145473l66.021632-38.440626c0.793514 1.580628 1.721413 3.033271 2.642913 4.620298l-66.021632 38.447026c-0.927899-1.587028-1.855799-3.167656-2.642913-4.626698z" fill="#2A9192" p-id="24182"></path><path d="M568.386295 130.772171l66.028031-38.447026c1.055885 1.855799 2.239757 3.698798 3.436427 5.420212l-66.028032 38.447026c-1.190271-1.855799-2.374142-3.570812-3.430027-5.420212z" fill="#2A9192" p-id="24183"></path><path d="M571.822721 136.192383l66.021633-38.447026c1.190271 1.849399 2.514927 3.698798 3.833184 5.413812l-66.028032 38.447026a79.869729 79.869729 0 0 1-3.826785-5.413812z" fill="#2A9192" p-id="24184"></path><path d="M575.655905 141.599796l66.021633-38.440627c0.9215 1.190271 1.849399 2.508528 2.770899 3.698798L578.426805 145.311393c-0.9215-1.190271-1.849399-2.508528-2.7709-3.698799z" fill="#2A9192" p-id="24185"></path><path d="M578.426805 145.304993l66.021632-38.447026c0.927899 1.055885 1.721413 2.246156 2.642913 3.302042l-66.021632 38.447026a57.401768 57.401768 0 0 1-2.642913-3.302042z" fill="#2A9192" p-id="24186"></path><path d="M581.069718 148.607035l66.021632-38.447026c0.9215 1.062285 1.849399 2.246156 2.770899 3.308441L583.840617 151.902677c-0.927899-1.055885-1.855799-2.239757-2.770899-3.302041z" fill="#2A9192" p-id="24187"></path><path d="M583.840617 151.909076l66.021632-38.447026c1.055885 1.190271 1.983785 2.246156 3.03967 3.308441l-66.028031 38.440627c-1.055885-1.055885-1.983785-2.239757-3.033271-3.302042z" fill="#2A9192" p-id="24188"></path><path d="M586.880287 155.211118l66.021632-38.440627c1.055885 1.190271 2.246156 2.374142 3.302042 3.430028l-66.028032 38.447026c-1.055885-1.055885-2.239757-2.239757-3.295642-3.436427zM590.175929 158.647545l66.028032-38.447026 3.698798 3.705197-66.028032 38.440627c-1.190271-1.190271-2.508528-2.374142-3.698798-3.698798z" fill="#2A9192" p-id="24189"></path><path d="M593.874727 162.346343l66.028032-38.447026c1.318257 1.324656 2.636514 2.514927 3.96117 3.698799L597.835897 166.045142c-1.318257-1.190271-2.636514-2.508528-3.96117-3.698799z" fill="#2A9192" p-id="24190"></path><path d="M597.835897 166.045142l66.028032-38.447026c1.318257 1.190271 2.770899 2.514927 4.223542 3.705197l-66.028032 38.440627c-1.446243-1.183871-2.770899-2.508528-4.223542-3.698798z" fill="#2A9192" p-id="24191"></path><path d="M602.059439 169.74394l66.028032-38.440627c1.452642 1.183871 2.905285 2.374142 4.223541 3.430028l-66.021632 38.447026c-1.318257-1.190271-2.770899-2.239757-4.223542-3.436427z" fill="#2A9192" p-id="24192"></path><path d="M606.28938 173.180367l66.021632-38.447026c1.452642 1.190271 2.905285 2.246156 4.229941 3.308441L610.512921 176.476009c-1.318257-1.055885-2.770899-2.111771-4.223541-3.302041zM610.647307 176.482409l66.021632-38.447026c1.452642 1.062285 2.777298 1.983785 4.229941 3.03967l-66.028032 38.447026c-1.452642-1.055885-2.770899-1.983785-4.223541-3.03967z" fill="#2A9192" p-id="24193"></path><path d="M614.870848 179.387693l66.028032-38.440627c1.318257 0.9215 2.770899 1.849399 4.089156 2.7709L618.966403 182.171391c-1.324656-0.927899-2.777298-1.715014-4.095555-2.777298z" fill="#2A9192" p-id="24194"></path><path d="M618.966403 182.164992l66.021633-38.447026 3.96117 2.380541-66.021633 38.447026-3.967569-2.380541z" fill="#2A9192" p-id="24195"></path><path d="M622.927573 184.539134l66.021633-38.440627c0.268771 0.127986 0.665528 0.396757 0.927899 0.524743l-66.156018 38.447026c-0.268771-0.127986-0.531142-0.396757-0.793514-0.524743z" fill="#2A9192" p-id="24196"></path><path d="M623.721087 185.070276l66.021633-38.31264 47.271668 27.216245-66.021633 38.447026-47.271668-27.350631z" fill="#2A9192" p-id="24197"></path><path d="M681.026866 220.612018l66.028032-38.312641-0.396757 93.269875-66.028032 38.447026 0.396757-93.40426zM541.451619 41.329081L607.473251 2.888454c8.453482-4.889069 21.130506-4.095555 39.221342 6.335313 51.104852 29.596787 95.074478 117.324863 115.014714 163.9566l-66.021633 38.447026c-20.074621-46.638137-63.916261-134.359814-115.014713-163.950201-18.225221-10.309281-30.902245-11.23718-39.221342-6.348111z" fill="#13A08C" p-id="24198"></path><path d="M541.451619 41.329081L607.473251 2.888454c1.062285-0.665528 2.246156-1.190271 3.436427-1.587027L544.881646 39.748453c-1.318257 0.524743-2.367743 1.055885-3.430027 1.580628z" fill="#13A08C" p-id="24199"></path><path d="M544.881646 39.748453L610.909678 1.301427c0.9215-0.396757 1.983785-0.659128 2.905285-0.793514L547.79333 38.954939c-1.062285 0.262372-1.983785 0.524743-2.911684 0.793514z" fill="#13A08C" p-id="24200"></path><path d="M547.786931 38.954939L613.821362 0.507913c0.793514-0.127986 1.587028-0.262372 2.508528-0.396757L550.295459 38.558182c-0.787115 0.127986-1.715014 0.262372-2.508528 0.396757z" fill="#13A08C" p-id="24201"></path><path d="M550.295459 38.558182L616.32349 0.111156h2.374143L552.676 38.558182h-2.374142zM552.676 38.558182L618.704032 0.111156c0.787115 0 1.446243 0 2.239757 0.127986L554.922156 38.692567a6.252121 6.252121 0 0 0-2.246156-0.127986z" fill="#13A08C" p-id="24202"></path><path d="M554.922156 38.558182L620.943789 0.111156c0.793514 0 1.452642 0.127986 2.246156 0.262371L557.168312 38.826953c-0.793514-0.127986-1.452642-0.262372-2.246156-0.262372z" fill="#13A08C" p-id="24203"></path><path d="M557.168312 38.820554L623.189945 0.373527c0.793514 0.127986 1.452642 0.268771 2.239757 0.396757L559.414469 39.21731c-0.659128-0.127986-1.452642-0.262372-2.239757-0.396756z" fill="#13A08C" p-id="24204"></path><path d="M559.408069 39.210911L625.436101 0.776684c0.793514 0.127986 1.452642 0.268771 2.239757 0.531142L561.660625 39.748453c-0.659128-0.268771-1.452642-0.396757-2.239757-0.531143z" fill="#13A08C" p-id="24205"></path><path d="M561.788611 39.614067L627.810243 1.167041c0.793514 0.127986 1.587028 0.396757 2.380542 0.659129L564.162753 40.273196a10.238888 10.238888 0 0 1-2.374142-0.659129z" fill="#13A08C" p-id="24206"></path><path d="M564.034767 40.273196L630.0564 1.82617c0.793514 0.268771 1.587028 0.531142 2.508527 0.793514L566.543295 41.06671c-0.793514-0.262372-1.587028-0.531142-2.508528-0.793514zM566.543295 41.194696L632.564927 2.760468c0.793514 0.262372 1.715014 0.659128 2.508528 0.9215L569.051822 42.122595c-0.793514-0.396757-1.721413-0.659128-2.508527-0.9215zM569.179808 42.122595L635.20784 3.675569l2.770899 1.190271-66.021632 38.447026a29.027249 29.027249 0 0 1-2.777299-1.190271z" fill="#13A08C" p-id="24207"></path><path d="M571.957107 43.312866L637.978739 4.86584c0.927899 0.396757 1.855799 0.927899 2.905285 1.324656L574.862392 44.631123a51.5848 51.5848 0 0 0-2.905285-1.318257z" fill="#13A08C" p-id="24208"></path><path d="M574.728006 44.631123L640.762437 6.190496c1.055885 0.524743 2.111771 1.055885 3.167656 1.715014L577.895662 46.352536c-0.9215-0.659128-2.111771-1.190271-3.167656-1.721413zM578.030048 46.352536l66.021632-38.447026c0.793514 0.396757 1.721413 0.927899 2.642913 1.452642 0.262372 0.127986 0.531142 0.262372 0.659129 0.396757L581.332089 48.201935a2.879687 2.879687 0 0 1-0.659128-0.396757 57.958508 57.958508 0 0 0-2.642913-1.452642z" fill="#13A08C" p-id="24209"></path><path d="M581.332089 48.201935l66.021633-38.447026c1.055885 0.659128 2.111771 1.190271 3.03967 1.855799L584.36536 50.044935c-0.9215-0.659128-1.983785-1.190271-3.033271-1.855799z" fill="#13A08C" p-id="24210"></path><path d="M584.36536 50.051334l66.028032-38.447026c1.055885 0.659128 2.111771 1.324656 3.03967 1.983785L587.40503 52.035119c-0.9215-0.665528-1.983785-1.324656-3.03967-1.983785zM587.539415 52.163105l66.021633-38.447026c1.190271 0.793514 2.246156 1.587028 3.302041 2.380542L590.841457 54.543647c-1.055885-0.793514-2.246156-1.587028-3.302042-2.380542z" fill="#13A08C" p-id="24211"></path><path d="M590.841457 54.543647l66.021632-38.447026c1.190271 0.793514 2.246156 1.715014 3.436427 2.642913L594.271484 57.18656a33.839526 33.839526 0 0 0-3.430027-2.642913zM594.271484 57.18656l66.028032-38.447026c1.183871 0.9215 2.508528 1.983785 3.692399 3.03967L597.970283 60.22623c-1.190271-1.062285-2.380542-2.111771-3.698799-3.03967z" fill="#13A08C" p-id="24212"></path><path d="M597.970283 60.091844l66.021632-38.447026c1.324656 1.055885 2.508528 2.246156 3.833184 3.302042L601.797067 63.400285c-1.318257-1.055885-2.508528-2.111771-3.826784-3.302041zM601.797067 63.528271l66.028032-38.447026c1.318257 1.190271 2.636514 2.380542 3.96117 3.698799L605.758237 67.22707c-1.318257-1.324656-2.636514-2.514927-3.96117-3.698799z" fill="#13A08C" p-id="24213"></path><path d="M605.758237 67.22707l66.028032-38.447026 3.96117 3.967569-66.028032 38.440627c-1.318257-1.318257-2.636514-2.770899-3.96117-3.96757z" fill="#13A08C" p-id="24214"></path><path d="M609.725807 71.18824l66.021632-38.447026c1.452642 1.452642 2.770899 2.905285 4.223542 4.364326L613.949348 75.546167c-1.324656-1.452642-2.777298-2.905285-4.223541-4.357927z" fill="#13A08C" p-id="24215"></path><path d="M613.949348 75.546167l66.021633-38.440627 4.22994 4.620298L618.17289 80.172864l-4.223542-4.626697z" fill="#13A08C" p-id="24216"></path><path d="M618.17289 80.172864l66.021632-38.447026c1.452642 1.721413 2.905285 3.436427 4.492312 5.151441l-66.021632 38.447026a155.983066 155.983066 0 0 1-4.492312-5.151441zM622.665202 85.45869l66.021632-38.447026c1.715014 1.983785 3.302042 4.095555 4.88907 6.07934l-66.028032 38.447026c-1.587028-2.111771-3.302042-4.095555-4.88267-6.07934z" fill="#13A08C" p-id="24217"></path><path d="M627.547872 91.531631l66.028032-38.440627c1.977385 2.508528 3.96117 5.017055 5.810569 7.659969l-66.028032 38.447026c-1.983785-2.642913-3.826785-5.151441-5.810569-7.666368z" fill="#13A08C" p-id="24218"></path><path d="M633.358441 99.197999l66.028032-38.447026c3.033271 4.223541 6.072941 8.453482 8.978225 12.817808l-66.028032 38.440627a313.137205 313.137205 0 0 0-8.978225-12.811409zM642.336666 112.009408l66.028032-38.440627a471.43682 471.43682 0 0 1 16.638194 26.685103l-66.028032 38.447026a346.106426 346.106426 0 0 0-16.638194-26.685103z" fill="#13A08C" p-id="24219"></path><path d="M659.109245 138.566525l66.021633-38.447026a474.783656 474.783656 0 0 1 11.493152 20.746547l-66.028032 38.440627c-3.564413-6.866455-7.525583-13.739308-11.486753-20.733749z" fill="#13A08C" p-id="24220"></path><path d="M670.595998 159.306673l66.021633-38.440627c2.905285 5.548198 5.682583 10.96201 8.319097 16.247837l-66.021633 38.447026a981.973395 981.973395 0 0 0-8.319097-16.254236z" fill="#13A08C" p-id="24221"></path><path d="M678.915095 175.560909l66.028032-38.447026c2.636514 5.285826 5.145041 10.437267 7.391198 15.326336l-66.021633 38.447026a521.997731 521.997731 0 0 0-7.397597-15.326336zM686.312692 190.887245l66.021633-38.447026c2.380542 5.151441 4.620298 10.174895 6.738468 14.795194L693.044761 205.682439a332.667885 332.667885 0 0 0-6.732069-14.795194z" fill="#13A08C" p-id="24222"></path><path d="M693.044761 205.682439l66.021633-38.447026c0.927899 2.111771 1.849399 4.095555 2.642913 6.07934l-66.021633 38.447026c-0.793514-1.983785-1.721413-3.967569-2.642913-6.07934z" fill="#13A08C" p-id="24223"></path><path d="M720.51058 241.089795l66.028031-38.447026 47.137283 27.216245-66.021632 38.447026-47.143682-27.216245z" fill="#2A9192" p-id="24224"></path><path d="M751.412825 215.06382l66.021632-38.447026c-12.145881 7.00084-22.711134 16.906965-30.895846 26.025975l-66.028031 38.447026c8.056725-9.246996 18.749964-19.025135 30.902245-26.025975z" fill="#2A9192" p-id="24225"></path><path d="M751.412825 215.06382l66.021632-38.447026c-12.145881 7.00084-22.711134 16.906965-30.895846 26.025975l-66.028031 38.447026c8.056725-9.246996 18.749964-19.025135 30.902245-26.025975zM889.004287 239.10601l-66.021632 38.447026c-12.939395 7.531982-34.601044 2.905285-55.328393-9.11901l66.021632-38.447026c20.733749 11.896309 42.388998 16.650992 55.328393 9.11901z" fill="#2A9192" p-id="24226"></path><path d="M767.654262 268.30604l66.021632-38.447026c1.055885 0.524743 1.983785 1.190271 3.03967 1.715014l-66.028032 38.447026c-1.055885-0.524743-2.111771-1.190271-3.03327-1.715014z" fill="#2A9192" p-id="24227"></path><path d="M770.687532 270.021054l66.028032-38.447026 3.96117 1.983784-66.028032 38.447026a55.366789 55.366789 0 0 1-3.96117-1.983784z" fill="#2A9192" p-id="24228"></path><path d="M774.520716 272.004838l66.021633-38.447026c1.324656 0.659128 2.642913 1.318257 3.96117 1.8494l-66.021633 38.447026a51.930362 51.930362 0 0 1-3.96117-1.855799z" fill="#2A9192" p-id="24229"></path><path d="M778.481886 273.854238l66.021633-38.447026c1.324656 0.531142 2.642913 1.190271 3.833183 1.587027l-66.028031 38.447026c-1.318257-0.403156-2.508528-1.062285-3.826785-1.587027zM782.308671 275.441265l66.028031-38.447026c1.318257 0.524743 2.508528 1.055885 3.826785 1.452643l-66.021633 38.447026c-1.190271-0.396757-2.508528-0.927899-3.833183-1.452643z" fill="#2A9192" p-id="24230"></path><path d="M786.141854 276.893908l66.021633-38.447026c1.318257 0.396757 2.508528 0.9215 3.833184 1.19027l-66.028032 38.440627a21.245694 21.245694 0 0 1-3.826785-1.183871zM789.968639 278.212165l66.028032-38.447027c1.183871 0.396757 2.508528 0.659128 3.692399 1.055886l-66.021633 38.447026c-1.190271-0.396757-2.508528-0.659128-3.698798-1.055885z" fill="#2A9192" p-id="24231"></path><path d="M793.667437 279.26805l66.021633-38.447026c1.190271 0.268771 2.380542 0.531142 3.698798 0.793514l-66.021632 38.447026c-1.324656-0.262372-2.508528-0.531142-3.698799-0.793514z" fill="#2A9192" p-id="24232"></path><path d="M797.231851 280.061564l66.021632-38.447026c1.190271 0.268771 2.380542 0.396757 3.570812 0.531142l-66.028031 38.447026c-1.055885-0.134385-2.246156-0.396757-3.564413-0.531142zM800.796264 280.592706l66.028031-38.447026 3.564413 0.396757-66.028031 38.447026-3.564413-0.396757zM804.360677 280.989463l66.028031-38.447026c1.183871 0.127986 2.374142 0.127986 3.430028 0.127986l-66.021632 38.447026c-1.055885 0-2.246156 0-3.436427-0.127986z" fill="#2A9192" p-id="24233"></path><path d="M807.797104 281.117449l66.021632-38.440627c1.190271 0 2.380542 0 3.436427-0.134385l-66.028032 38.447026c-1.055885 0-2.239757 0.127986-3.430027 0.127986zM811.361517 280.989463l66.021632-38.447026c1.190271-0.127986 2.380542-0.262372 3.570812-0.531142l-66.028031 38.447026c-1.190271 0.127986-2.374142 0.396757-3.564413 0.531142zM814.92593 280.46472l66.028031-38.453425c1.318257-0.262372 2.770899-0.659128 3.96117-1.055886l-66.028031 38.447026a28.720082 28.720082 0 0 1-3.96117 1.055886z" fill="#2A9192" p-id="24234"></path><path d="M818.8871 279.26805l66.028031-38.447026c1.452642-0.524743 2.770899-1.183871 4.089156-1.849399l-66.021632 38.447026a16.350225 16.350225 0 0 1-4.095555 1.855798z" fill="#2A9192" p-id="24235"></path><path d="M889.663416 370.560539l66.028032-38.312641-0.262372 64.076244-65.893646 38.312641 0.127986-64.076244zM842.391748 311.373365l66.028032-38.312641 19.543478 11.230781-66.028032 38.31264-19.543478-11.23078z" fill="#13A08C" p-id="24236"></path><path d="M861.935226 322.604145l66.028032-38.447026c15.313538 8.850239 27.72819 30.255915 27.72819 47.956394l-66.021633 38.447026c0-17.572492-12.414652-38.971769-27.734589-47.956394z" fill="#13A08C" p-id="24237"></path><path d="M861.935226 322.604145l66.028032-38.447026c0.127986 0 0.127986 0.127986 0.262372 0.127986l-66.028032 38.453426c-0.127986 0-0.127986 0-0.262372-0.134386zM862.197598 322.866517l66.028032-38.447026a5.375416 5.375416 0 0 0 1.19027 0.665527l-66.028032 38.440627c-0.396757-0.262372-0.793514-0.524743-1.19027-0.659128z" fill="#13A08C" p-id="24238"></path><path d="M863.387868 323.532045l66.028032-38.447027c0.396757 0.255972 0.793514 0.524743 1.183872 0.793514l-66.021633 38.440627-1.190271-0.793514z" fill="#13A08C" p-id="24239"></path><path d="M864.578139 324.319159l66.021633-38.440627c0.396757 0.255972 0.793514 0.524743 1.190271 0.9215l-66.021633 38.447026c-0.396757-0.396757-0.793514-0.659128-1.190271-0.927899z" fill="#13A08C" p-id="24240"></path><path d="M865.76841 325.247058l66.021633-38.447026c0.396757 0.262372 0.793514 0.659128 1.19027 0.9279l-66.028032 38.440626c-0.396757-0.396757-0.793514-0.659128-1.183871-0.9215zM867.086667 326.168558l66.021632-38.447026c0.396757 0.268771 0.793514 0.665528 1.190271 1.062285l-66.021632 38.440627a8.56867 8.56867 0 0 0-1.190271-1.055886z" fill="#13A08C" p-id="24241"></path><path d="M868.276938 327.096458L934.29857 288.649431c0.396757 0.396757 0.793514 0.659128 1.190271 1.055886l-66.028032 38.447026a8.882236 8.882236 0 0 1-1.183871-1.055885zM869.460809 328.286728l66.028032-38.447026 1.190271 1.190271-66.028032 38.440627a2.572521 2.572521 0 0 0-1.190271-1.183872z" fill="#13A08C" p-id="24242"></path><path d="M870.785465 329.342614l66.021633-38.447026 1.190271 1.19027-66.028032 38.447027-1.183872-1.190271z" fill="#13A08C" p-id="24243"></path><path d="M871.969337 330.526485l66.028032-38.440627 1.19027 1.190271-66.028031 38.440627a5.202635 5.202635 0 0 1-1.190271-1.190271z" fill="#13A08C" p-id="24244"></path><path d="M873.025222 331.723155l66.028032-38.447026c0.396757 0.396757 0.793514 0.787115 1.055885 1.183872l-66.021632 38.447026c-0.268771-0.396757-0.665528-0.793514-1.062285-1.190271z" fill="#13A08C" p-id="24245"></path><path d="M874.087507 332.907027l66.021632-38.447026c0.396757 0.396757 0.659128 0.793514 1.055886 1.324656l-66.021633 38.447026a10.046909 10.046909 0 0 0-1.055885-1.324656zM875.271378 334.231683l66.028032-38.447026c0.396757 0.396757 0.659128 0.9215 1.055886 1.318257l-66.028032 38.447026c-0.396757-0.524743-0.787115-0.927899-1.055886-1.318257z" fill="#13A08C" p-id="24246"></path><path d="M876.327264 335.54994l66.028032-38.447026 1.19027 1.587027-66.028031 38.447027-1.190271-1.587028z" fill="#13A08C" p-id="24247"></path><path d="M877.517535 337.136968l66.028031-38.447027c0.659128 0.793514 1.183871 1.587028 1.715014 2.508528l-66.028032 38.447026a16.657392 16.657392 0 0 0-1.715013-2.508527z" fill="#13A08C" p-id="24248"></path><path d="M879.232548 339.645495l66.028032-38.447026c0.793514 1.062285 1.452642 2.246156 2.111771 3.436427l-66.021633 38.447026c-0.665528-1.190271-1.324656-2.380542-2.11817-3.436427z" fill="#13A08C" p-id="24249"></path><path d="M881.350718 343.081922l66.021633-38.447026c0.396757 0.793514 0.9215 1.587028 1.318257 2.380542l-66.021633 38.440626a10.290083 10.290083 0 0 0-1.318257-2.374142z" fill="#13A08C" p-id="24250"></path><path d="M882.668975 345.328078l66.021633-38.447026 0.793514 1.587028-66.021633 38.447026a8.831041 8.831041 0 0 0-0.793514-1.587028zM883.590475 347.043092l66.028032-38.447026c0.262372 0.531142 0.524743 0.927899 0.659128 1.459042L884.256003 348.489335c-0.268771-0.524743-0.396757-0.9215-0.665528-1.452642z" fill="#13A08C" p-id="24251"></path><path d="M884.249604 348.495734l66.028031-38.447026c0.262372 0.403156 0.396757 0.927899 0.659129 1.324657l-66.021633 38.447026c-0.268771-0.396757-0.396757-0.927899-0.665527-1.324657z" fill="#13A08C" p-id="24252"></path><path d="M884.915131 349.820391L950.936764 311.373365c0.134385 0.396757 0.396757 0.927899 0.531142 1.318256l-66.028032 38.447027c-0.127986-0.396757-0.396757-0.9215-0.524743-1.318257zM885.439874 351.138648l66.028032-38.447027c0.127986 0.396757 0.396757 0.927899 0.524743 1.324657l-66.021632 38.447026c-0.134385-0.396757-0.396757-0.927899-0.531143-1.324656z" fill="#13A08C" p-id="24253"></path><path d="M885.971017 352.456904l66.021632-38.440626c0.134385 0.396757 0.396757 0.9215 0.531143 1.318256l-66.028032 38.447027c-0.127986-0.396757-0.396757-0.793514-0.524743-1.318257z" fill="#13A08C" p-id="24254"></path><path d="M886.49576 353.781561l66.028032-38.447027c0.127986 0.531142 0.396757 0.927899 0.524743 1.452643l-66.021633 38.447026a4.837875 4.837875 0 0 1-0.531142-1.452642zM887.026902 355.234203l66.021633-38.447026c0.134385 0.531142 0.268771 0.927899 0.396757 1.459041l-66.021633 38.440627c-0.134385-0.524743-0.268771-0.9215-0.396757-1.452642zM887.423659 356.686845l66.021633-38.440627c0.134385 0.524743 0.262372 0.9215 0.396757 1.452643l-66.021633 38.440626c-0.134385-0.524743-0.268771-0.9215-0.396757-1.452642z" fill="#13A08C" p-id="24255"></path><path d="M887.820416 358.139487l66.021633-38.440626c0.134385 0.524743 0.262372 0.9215 0.396756 1.452642l-66.028031 38.447026c-0.127986-0.531142-0.262372-0.927899-0.390358-1.459042z" fill="#13A08C" p-id="24256"></path><path d="M888.217173 359.59213l66.021632-38.440627c0.134385 0.524743 0.262372 0.9215 0.396757 1.452642l-66.028031 38.447026c-0.127986-0.531142-0.262372-0.927899-0.390358-1.452642zM888.607531 361.051171l66.028031-38.447026c0.134385 0.524743 0.262372 0.9215 0.262372 1.452643l-66.021633 38.447026c-0.134385-0.531142-0.134385-0.927899-0.26877-1.452643z" fill="#13A08C" p-id="24257"></path><path d="M888.876301 362.503814l66.021633-38.447026c0.134385 0.531142 0.134385 0.9215 0.262371 1.452642l-66.021632 38.447026c-0.134385-0.531142-0.134385-0.927899-0.262372-1.452642zM889.138673 363.956456l66.028032-38.447026c0.127986 0.531142 0.127986 0.927899 0.127986 1.452642l-66.021633 38.447026c0-0.531142-0.134385-1.055885-0.134385-1.452642z" fill="#13A08C" p-id="24258"></path><path d="M889.273058 365.274713l66.021633-38.447026c0 0.396757 0.134385 0.927899 0.134385 1.324656l-66.028032 38.447026c0-0.396757 0-0.793514-0.127986-1.324656zM889.53543 366.599369l66.021632-38.447026c0 0.396757 0.134385 0.927899 0.134386 1.318257l-66.021633 38.447026c-0.134385-0.396757-0.134385-0.793514-0.134385-1.318257zM889.53543 368.052011l66.021632-38.447026v1.324656l-66.021632 38.440627a2.201361 2.201361 0 0 0 0-1.318257zM889.669815 369.370268l66.021633-38.447026v1.190271l-66.021633 38.447026v-1.190271zM731.338204 181.243492l66.028032-38.447026c21.386478-12.414652 48.589925-18.231621 78.564271-0.9215 38.824585 22.461562 52.69188 60.505431 52.557494 88.118433 0 22.064805-7.525583 35.669728-19.543478 42.542582l-66.021633 38.440627c11.88351-6.866455 19.409093-20.605763 19.543478-42.536183 0.127986-27.613002-13.732909-65.663271-52.557494-88.118433-29.84636-17.310121-57.043407-11.627538-78.57067 0.9215z" fill="#13A08C" p-id="24259"></path><path d="M731.338204 181.243492l66.028032-38.447026c5.017055-2.905285 10.430868-5.548198 16.107051-7.531983l-66.021632 38.447026c-5.548198 1.983785-10.96201 4.492312-16.113451 7.531983zM747.579641 173.711509l66.028032-38.447026c3.430028-1.190271 6.866455-2.111771 10.430867-2.905284l-66.028032 38.447026c-3.564413 0.659128-7.128826 1.715014-10.430867 2.905284z" fill="#13A08C" p-id="24260"></path><path d="M758.010508 170.806225l66.028032-38.447026a49.146665 49.146665 0 0 1 7.525583-1.055886l-66.021632 38.440627c-2.508528 0.268771-5.023455 0.531142-7.531983 1.062285z" fill="#13A08C" p-id="24261"></path><path d="M765.542491 169.74394l66.021632-38.440627c1.983785-0.134385 3.96117-0.268771 5.944955-0.26877l-66.028032 38.447026c-1.977385 0-3.96117 0-5.938555 0.262371zM771.481046 169.481569l66.028032-38.447026c1.715014 0 3.302042 0 5.017055 0.134385l-66.028032 38.447026c-1.715014-0.127986-3.302042-0.127986-5.017055-0.127986z" fill="#13A08C" p-id="24262"></path><path d="M776.498101 169.615954l66.028032-38.447026 4.620299 0.396757-66.028032 38.447026c-1.580628-0.127986-3.167656-0.268771-4.620299-0.396757z" fill="#13A08C" p-id="24263"></path><path d="M781.1184 170.012711l66.028032-38.447026c1.318257 0.127986 2.642913 0.396757 3.96117 0.659128l-66.021633 38.447026c-1.452642-0.262372-2.777298-0.396757-3.967569-0.659128z" fill="#13A08C" p-id="24264"></path><path d="M784.951584 170.671839l66.021632-38.447026c1.190271 0.262372 2.508528 0.531142 3.833184 0.793514l-66.028032 38.447026c-1.318257-0.268771-2.508528-0.531142-3.826784-0.793514z" fill="#13A08C" p-id="24265"></path><path d="M788.778368 171.465353l66.028032-38.447026c1.190271 0.262372 2.246156 0.531142 3.430028 0.927899l-66.021633 38.440627c-1.190271-0.262372-2.380542-0.524743-3.436427-0.9215zM792.214795 172.521239l66.021633-38.447026c1.055885 0.396757 2.246156 0.659128 3.436427 1.055885l-66.028032 38.447026a48.602724 48.602724 0 0 0-3.430028-1.055885z" fill="#13A08C" p-id="24266"></path><path d="M795.516837 173.577124L861.538469 135.136497c1.055885 0.396757 2.111771 0.793514 3.03967 1.190271l-66.028032 38.447026a72.094573 72.094573 0 0 0-3.03327-1.190271zM798.684493 174.767395l66.021632-38.447026c1.062285 0.396757 2.11817 0.793514 3.174056 1.324656l-66.028032 38.440627c-1.183871-0.524743-2.246156-0.9215-3.167656-1.318257z" fill="#13A08C" p-id="24267"></path><path d="M801.724163 176.092051l66.021632-38.447026c1.055885 0.396757 1.983785 0.9215 3.03967 1.452642l-66.028031 38.447026c-1.055885-0.531142-1.977385-1.062285-3.033271-1.459041z" fill="#13A08C" p-id="24268"></path><path d="M804.757434 177.410308l66.028031-38.447026c0.9215 0.531142 1.977385 1.055885 3.033271 1.587028l-66.021632 38.440626c-1.055885-0.524743-2.111771-1.055885-3.03967-1.580628z" fill="#13A08C" p-id="24269"></path><path d="M807.662718 178.997336l66.028032-38.447026c0.787115 0.396757 1.580628 0.793514 2.239757 1.318256a2.687708 2.687708 0 0 1 0.793514 0.531143l-66.021633 38.447026a2.687708 2.687708 0 0 1-0.793514-0.531143 12.446649 12.446649 0 0 0-2.246156-1.318256z" fill="#13A08C" p-id="24270"></path><path d="M810.830374 180.712349l66.028032-38.447026c1.190271 0.659128 2.246156 1.324656 3.430028 2.111771l-66.021633 38.447026c-1.190271-0.659128-2.246156-1.452642-3.436427-2.111771z" fill="#13A08C" p-id="24271"></path><path d="M814.132416 182.82412l66.028032-38.440627c1.055885 0.659128 2.111771 1.452642 3.167656 2.111771l-66.028032 38.447026a18.666773 18.666773 0 0 0-3.167656-2.111771zM817.434457 184.94229l66.028032-38.447026c1.055885 0.659128 1.977385 1.452642 3.033271 2.111771l-66.021633 38.447026c-1.055885-0.659128-2.111771-1.452642-3.03967-2.111771zM820.474127 187.054061l66.021633-38.447026c0.927899 0.659128 1.983785 1.452642 2.905284 2.246156l-66.021632 38.447026c-1.055885-0.793514-1.983785-1.452642-2.905285-2.246156z" fill="#13A08C" p-id="24272"></path><path d="M823.245026 189.300217l66.028032-38.447026c0.9215 0.793514 1.843 1.452642 2.770899 2.246156l-66.028031 38.447026c-0.9215-0.793514-1.715014-1.587028-2.7709-2.246156zM826.015926 191.546373l66.028031-38.447026c0.9215 0.793514 1.715014 1.452642 2.508528 2.246156l-66.028032 38.447026a19.658666 19.658666 0 0 0-2.508527-2.246156zM828.658839 193.792529l66.028032-38.447026c0.787115 0.793514 1.580628 1.452642 2.374142 2.246156l-66.021633 38.447027a37.064776 37.064776 0 0 0-2.380541-2.246157zM831.03938 196.038686l66.021633-38.447027c0.793514 0.659128 1.452642 1.452642 2.246156 2.111771l-66.028032 38.447026c-0.787115-0.659128-1.452642-1.452642-2.239757-2.11177z" fill="#13A08C" p-id="24273"></path><path d="M833.279137 198.150456l66.028032-38.447026c0.659128 0.665528 1.318257 1.452642 2.111771 2.111771l-66.021633 38.447026a16.279833 16.279833 0 0 1-2.11817-2.111771z" fill="#13A08C" p-id="24274"></path><path d="M835.262922 200.262227l66.021632-38.440627c0.665528 0.659128 1.324656 1.318257 1.8494 2.111771l-66.021633 38.447026c-0.531142-0.665528-1.190271-1.324656-1.849399-2.111771z" fill="#13A08C" p-id="24275"></path><path d="M837.112321 202.380397L903.133954 163.933371c0.659128 0.659128 1.190271 1.452642 1.849399 2.111771l-66.021633 38.447026a27.299436 27.299436 0 0 0-1.849399-2.111771zM838.96172 204.492168l66.021633-38.447026 1.849399 2.246156-66.021633 38.447026c-0.665528-0.793514-1.190271-1.452642-1.849399-2.246156z" fill="#13A08C" p-id="24276"></path><path d="M840.811119 206.744723l66.021633-38.453425c0.659128 0.793514 1.318257 1.721413 1.849399 2.514927l-66.028032 38.440627c-0.659128-0.793514-1.183871-1.715014-1.843-2.508528zM842.654119 209.246852l66.028032-38.440627c0.793514 1.183871 1.715014 2.239757 2.508528 3.430027l-66.028032 38.447027c-0.787115-1.190271-1.715014-2.239757-2.508528-3.436427zM845.169046 212.683279l66.021633-38.447027c1.190271 1.855799 2.374142 3.698798 3.436427 5.548198l-66.028032 38.447026c-1.055885-1.849399-2.246156-3.698798-3.430028-5.548197z" fill="#13A08C" p-id="24277"></path><path d="M848.599074 218.231476l66.028032-38.447026c0.659128 1.190271 1.452642 2.380542 1.977385 3.698799l-66.021632 38.447026a103.080009 103.080009 0 0 0-1.983785-3.698799z" fill="#13A08C" p-id="24278"></path><path d="M850.582859 221.930275l66.021632-38.440627c0.396757 0.787115 0.9215 1.580628 1.318257 2.508528l-66.021633 38.447026a15.345534 15.345534 0 0 0-1.318256-2.514927z" fill="#13A08C" p-id="24279"></path><path d="M851.901115 224.310816l66.021633-38.447026c0.396757 0.793514 0.793514 1.452642 1.055885 2.246156l-66.021632 38.447026a31.382193 31.382193 0 0 0-1.055886-2.246156zM852.957001 226.691358l66.021632-38.447026c0.396757 0.659128 0.665528 1.452642 0.9279 2.11177l-66.028032 38.447027a10.091704 10.091704 0 0 0-0.9215-2.111771zM854.012886 228.803129l66.028032-38.447027c0.262372 0.659128 0.659128 1.452642 0.9215 2.111771l-66.028032 38.447026a27.344231 27.344231 0 0 1-0.9215-2.11177z" fill="#13A08C" p-id="24280"></path><path d="M854.934386 230.914899l66.028032-38.447026c0.262372 0.793514 0.659128 1.452642 0.9215 2.246156l-66.021633 38.447026c-0.396757-0.793514-0.659128-1.587028-0.927899-2.239756z" fill="#13A08C" p-id="24281"></path><path d="M855.7279 233.02667l66.028032-38.440627c0.262372 0.793514 0.524743 1.580628 0.793514 2.239757l-66.028032 38.447026a9.30459 9.30459 0 0 0-0.793514-2.239757zM856.655799 235.407212l66.021633-38.447026 0.793514 2.380541-66.021633 38.447026a333.954145 333.954145 0 0 1-0.793514-2.380541z" fill="#13A08C" p-id="24282"></path><path d="M857.449313 237.781354l66.021633-38.440627c0.262372 0.793514 0.531142 1.715014 0.793514 2.508528l-66.028032 38.447026a58.432056 58.432056 0 0 0-0.787115-2.508528z" fill="#13A08C" p-id="24283"></path><path d="M858.236428 240.296281l66.028032-38.447026c0.262372 0.927899 0.524743 1.721413 0.793513 2.642913l-66.028031 38.447026a57.542553 57.542553 0 0 0-0.793514-2.642913z" fill="#13A08C" p-id="24284"></path><path d="M859.029942 242.939194l66.028031-38.447026c0.262372 0.927899 0.524743 1.855799 0.659129 2.777298l-66.028032 38.440627c-0.127986-1.055885-0.396757-1.849399-0.659128-2.770899z" fill="#13A08C" p-id="24285"></path><path d="M859.68907 245.582107l66.028032-38.447026c0.262372 0.927899 0.396757 1.849399 0.659128 2.777298l-66.021632 38.440627a20.784944 20.784944 0 0 0-0.665528-2.770899z" fill="#13A08C" p-id="24286"></path><path d="M860.348198 248.353006l66.028032-38.447026c0.262372 0.927899 0.396757 1.855799 0.531143 2.777299l-66.028032 38.447026c-0.134385-0.793514-0.262372-1.855799-0.531143-2.777299zM861.013726 251.258291l66.021633-38.440627c0.134385 0.9215 0.396757 1.849399 0.531142 2.905285L861.538469 254.163575a26.685103 26.685103 0 0 1-0.524743-2.911684z" fill="#13A08C" p-id="24287"></path><path d="M861.410483 254.035589l66.021633-38.447026c0.134385 0.927899 0.262372 1.983785 0.396757 2.905285l-66.021633 38.447026c0-0.9215-0.268771-1.983785-0.396757-2.905285z" fill="#13A08C" p-id="24288"></path><path d="M861.80724 256.940874l66.021633-38.447026c0.134385 0.927899 0.262372 1.983785 0.262371 2.911684l-66.021632 38.440626c0-1.055885-0.134385-1.983785-0.262372-2.905284zM862.197598 259.846158l66.028032-38.440626c0.127986 0.9215 0.127986 1.983785 0.262371 2.905284l-66.021633 38.447026c-0.134385-1.062285-0.134385-1.983785-0.26877-2.911684z" fill="#13A08C" p-id="24289"></path><path d="M862.466368 262.757842l66.021633-38.447026c0 0.9215 0.134385 1.983785 0.134385 2.905285l-66.028031 38.447026c-0.127986-0.927899-0.127986-1.983785-0.127987-2.905285z" fill="#13A08C" p-id="24290"></path><path d="M862.594355 265.663127l66.028031-38.447026v3.033271l-66.028031 38.453425v-0.268771-2.770899z" fill="#13A08C" p-id="24291"></path><path d="M862.594355 268.568412l66.028031-38.447027c0 1.190271 0 2.246156-0.134385 3.436427l-66.021633 38.447026c0.127986-1.055885 0.127986-2.246156 0.127987-3.436426z" fill="#13A08C" p-id="24292"></path><path d="M862.466368 272.004838l66.021633-38.447026c0 1.055885-0.134385 2.239757-0.262371 3.302042l-66.028032 38.447026c0.134385-1.055885 0.268771-2.246156 0.26877-3.302042zM862.331983 275.30688l66.028032-38.447026-0.396757 3.174055-66.028032 38.440627 0.396757-3.167656zM861.935226 278.480935l66.028032-38.447026c-0.134385 1.055885-0.268771 2.111771-0.531142 3.167656l-66.021633 38.447027c0.262372-0.927899 0.396757-1.983785 0.524743-3.174056zM861.538469 281.648592l66.028032-38.447027c-0.134385 1.055885-0.396757 2.111771-0.659128 3.167657l-66.028032 38.447026c0.262372-0.9215 0.396757-1.983785 0.659128-3.167656zM860.879341 284.950633l66.028032-38.447026c-0.268771 1.055885-0.531142 2.246156-0.793514 3.302041l-66.028032 38.447027c0.268771-1.190271 0.531142-2.239757 0.793514-3.302042z" fill="#13A08C" p-id="24293"></path><path d="M859.957841 288.124688l66.021632-38.447026c-0.396757 1.183871-0.659128 2.239757-1.055885 3.302042l-66.021633 38.447026c0.390358-1.062285 0.787115-2.111771 1.055886-3.308441zM858.901955 291.554716l66.021633-38.447026c-0.524743 1.324656-0.9215 2.514927-1.587028 3.705198L857.314928 295.247115c0.659128-1.190271 1.055885-2.508528 1.587027-3.698798z" fill="#13A08C" p-id="24294"></path><path d="M857.314928 295.119129l66.021632-38.440627a26.742697 26.742697 0 0 1-2.374142 4.223542l-66.028032 38.447026c0.927899-1.190271 1.721413-2.642913 2.380542-4.223542zM855.068772 299.483455l66.028031-38.447026a34.095499 34.095499 0 0 1-11.889909 11.493153l-66.021632 38.447026a36.47604 36.47604 0 0 0 11.88351-11.493153z" fill="#13A08C" p-id="24295"></path><path d="M861.935226 322.604145c15.319937 8.850239 27.734589 30.255915 27.734589 47.956394l-0.134385 64.076244-181.042746-104.635041 0.396757-93.40426-27.862575-16.11985-0.396757 93.40426-181.036346-104.500655 0.262371-63.941858c0-17.706878 12.542638-24.707718 27.862576-15.857479l20.336992 11.761923c-12.542638-21.143305-20.471378-44.129609-20.336992-66.456785 0.127986-27.740988 13.995281-49.671408 52.954251-27.216245 51.098453 29.596787 95.074478 117.318464 115.014713 163.950201 20.202607-23.376662 63.250733-60.902188 114.355586-31.439787 38.818186 22.461562 52.68548 60.511831 52.551095 88.118434 0 22.461562-7.92234 36.20087-20.202607 42.939338l19.543478 11.365166zM623.721087 185.070276l47.271668 27.350631c-19.677864-45.179095-55.72515-112.56378-90.45418-132.510414-17.297322-9.912524-24.957291-6.610482-24.95729 10.834024 0 35.272971 35.65053 75.569396 68.139802 94.325759z m143.933175 83.235764c32.482874 18.756364 67.077518 19.549878 67.211903-15.857478 0-17.572492-7.659968-30.249516-24.822905-40.16204-34.601044-19.946635-69.592445 6.341712-89.398295 28.796873l47.009297 27.222645z" fill="#37BCBD" p-id="24296"></path><path d="M446.773897 507.697651l-0.134385 19.946635-10.430868 6.07934 0.127986-19.953034 10.430868-6.07934zM407.552555 521.308973v19.946635c-3.564413-0.659128-6.604083-0.396757-8.978225 0.659128V521.974501c2.374142-1.190271 5.413812-1.324656 8.978225-0.659128z" fill="#CEEAE5" p-id="24297"></path><path d="M407.552555 521.302574v19.953034c-0.262372 0-0.524743-0.134385-0.793514-0.134385v-19.953034a1.663819 1.663819 0 0 1 0.793514 0.134385z" fill="#CEEAE5" p-id="24298"></path><path d="M406.759041 521.168189v19.953034c-0.396757 0-0.9215-0.127986-1.318257-0.127987v-19.953033c0.396757 0 0.9215 0 1.318257 0.127986zM405.440784 520.905817v19.953034h-1.19027v-19.953034h1.19027zM404.250514 520.905817v19.953034h-1.055886v-19.953034h1.055886z" fill="#CEEAE5" p-id="24299"></path><path d="M403.329014 520.905817v19.953034h-1.055886v-19.953034h1.055886zM402.273128 520.905817v19.953034c-0.396757 0-0.665528 0.127986-1.055885 0.127986v-19.946634c0.390358 0 0.659128 0 1.055885-0.127987zM401.217243 521.168189v19.953034c-0.531142 0.127986-1.062285 0.262372-1.459042 0.396756v-19.953033a2.662111 2.662111 0 0 1 1.452643-0.396757z" fill="#CEEAE5" p-id="24300"></path><path d="M399.764601 521.43696v19.946634l-1.190271 0.396757v-19.946635l1.190271-0.396756zM459.982063 515.357619v19.946635l-11.889909 6.872854 0.127986-20.08102 11.755524-6.738469zM418.911322 525.398129v19.953034c-0.531142-0.268771-0.927899-0.531142-1.452642-0.665527v-19.946635c0.524743 0.127986 1.055885 0.396757 1.452642 0.659128z" fill="#CEEAE5" p-id="24301"></path><path d="M418.911322 525.398129v19.953034c-0.531142-0.268771-0.927899-0.531142-1.452642-0.665527v-19.946635c0.524743 0.127986 1.055885 0.396757 1.452642 0.659128zM395.931417 545.351163v-19.953034c0-1.452642 0.927899-2.642913 2.642913-3.436426v19.953033c-1.849399 0.793514-2.642913 1.849399-2.642913 3.436427z" fill="#CEEAE5" p-id="24302"></path><path d="M398.57433 521.961703v19.953033l-0.793514 0.396757V522.358459l0.793514-0.396756zM397.780816 522.358459v19.953034c-0.262372 0.127986-0.524743 0.396757-0.793514 0.524743v-19.946634c0.262372-0.127986 0.531142-0.396757 0.793514-0.531143z" fill="#CEEAE5" p-id="24303"></path><path d="M396.987302 522.889602v19.946634l-0.396757 0.396757v-19.946634l0.396757-0.396757zM396.590545 523.286359v19.946634c-0.127986 0.127986-0.127986 0.262372-0.262371 0.396757v-19.946634c0.127986-0.127986 0.127986-0.262372 0.262371-0.396757zM396.328174 523.811102v19.953034c-0.127986 0.127986-0.127986 0.262372-0.262372 0.396757v-19.953034c0.127986-0.127986 0.262372-0.262372 0.262372-0.396757z" fill="#CEEAE5" p-id="24304"></path><path d="M396.193788 524.214258v19.946635c0 0.127986-0.127986 0.262372-0.127986 0.524743v-19.946635c0-0.262372 0-0.396757 0.127986-0.531142z" fill="#CEEAE5" p-id="24305"></path><path d="M396.065802 524.604616V545.082392v-19.946634c-0.127986-0.127986-0.127986-0.262372 0-0.531142zM422.61012 527.906657v19.953034a44.923123 44.923123 0 0 0-3.698798-2.508528v-19.953034c1.452642 0.793514 2.636514 1.587028 3.698798 2.508528z" fill="#CEEAE5" p-id="24306"></path><path d="M422.61012 527.906657v19.953034a44.923123 44.923123 0 0 0-3.698798-2.508528v-19.953034c1.452642 0.793514 2.636514 1.587028 3.698798 2.508528zM417.45868 524.604616V544.692035l-16.241437 9.381381 0.127986-19.946634 16.113451-9.515767zM428.017533 535.835396v19.953034c0-0.531142-0.127986-1.190271-0.255972-1.855798v-19.946635c0.127986 0.659128 0.255972 1.318257 0.255972 1.855799z" fill="#CEEAE5" p-id="24307"></path><path d="M428.017533 535.835396v19.953034c0-0.531142-0.127986-1.190271-0.255972-1.855798v-19.946635c0.127986 0.659128 0.255972 1.318257 0.255972 1.855799zM366.744185 543.367379v-19.953034c0 1.983785 0.665528 4.229941 1.855799 6.476097 0.787115 1.715014 3.430028 4.754684 7.92234 9.381381v19.946635c-4.357927-4.620298-7.00084-7.794354-7.92234-9.381382-1.190271-2.239757-1.855799-4.351528-1.855799-6.469697z" fill="#CEEAE5" p-id="24308"></path><path d="M376.522324 539.271823v19.946635c-4.357927-4.620298-7.00084-7.794354-7.92234-9.381382-1.190271-2.239757-1.855799-4.351528-1.855799-6.469697v-19.953034c0 1.983785 0.665528 4.229941 1.855799 6.476097 0.9215 1.587028 3.564413 4.754684 7.92234 9.381381zM427.755162 534.120383l-0.127986 19.946634-17.034951 9.912524 0.127986-19.953034 17.034951-9.906124zM356.582089 567.147197v-19.946634c0-2.380542 1.452642-4.626698 4.351527-6.738469v19.946635c-2.898885 2.111771-4.351528 4.357927-4.351527 6.738468z" fill="#CEEAE5" p-id="24309"></path><path d="M360.940015 540.462094v19.946635c-0.524743 0.396757-1.055885 0.793514-1.452642 1.19027v-19.953033c0.396757-0.390358 0.927899-0.787115 1.452642-1.183872zM359.487373 541.645966v19.953033a5.375416 5.375416 0 0 0-1.190271 1.318257v-19.946634a5.375416 5.375416 0 0 1 1.190271-1.324656zM358.169116 542.964222v19.953034c-0.268771 0.396757-0.531142 0.665528-0.659128 1.062285v-19.953034c0.127986-0.396757 0.390358-0.659128 0.659128-1.055885zM357.509988 544.026507v19.953034c-0.134385 0.255972-0.396757 0.659128-0.396757 0.9215v-19.946635c0-0.268771 0.255972-0.531142 0.396757-0.927899zM356.978845 545.082392v19.953034a2.450934 2.450934 0 0 0-0.262371 0.9215v-19.946634c0.127986-0.396757 0.255972-0.659128 0.255972-0.9279zM356.716474 546.010292v19.946634c-0.134385 0.262372-0.134385 0.659128-0.134385 1.055886v-19.946635c0.127986-0.396757 0.127986-0.793514 0.127986-1.055885zM386.159678 549.043562v19.953034c-1.318257-1.318257-2.636514-2.642913-3.96117-3.833184v-19.946634c1.452642 1.190271 2.642913 2.508528 3.967569 3.833184z" fill="#CEEAE5" p-id="24310"></path><path d="M386.159678 549.043562v19.953034c-1.318257-1.318257-2.636514-2.642913-3.96117-3.833184v-19.946634c1.452642 1.190271 2.642913 2.508528 3.967569 3.833184zM455.489751 536.62891v19.946635c0 5.682583-3.833184 10.706038-11.493152 14.929579v-19.946635c7.659968-4.223541 11.493152-9.246996 11.493152-14.929579z" fill="#CEEAE5" p-id="24311"></path><path d="M455.489751 536.891282V556.850715c0 0.659128-0.134385 1.452642-0.268771 2.111771v-19.946635c0.127986-0.665528 0.127986-1.324656 0.268771-2.111771zM455.22098 539.009452v19.946634c-0.127986 0.659128-0.262372 1.324656-0.524743 1.983785V540.980438c0.262372-0.659128 0.396757-1.318257 0.524743-1.983785zM454.696237 540.852452v19.953034c-0.262372 0.659128-0.531142 1.324656-0.927899 1.855798V542.70825c0.396757-0.531142 0.659128-1.190271 0.927899-1.855798z" fill="#CEEAE5" p-id="24312"></path><path d="M453.774737 542.836236v19.953034a17.111742 17.111742 0 0 1-1.324656 1.983785V544.820021c0.524743-0.659128 0.9215-1.324656 1.318257-1.983785zM452.450081 544.820021v19.946635c-0.659128 0.793514-1.318257 1.587028-2.111771 2.380541v-19.946634a34.236283 34.236283 0 0 0 2.111771-2.380542zM450.203925 547.059778v19.953034c-1.318257 1.324656-3.03967 2.514927-5.017056 3.698798V550.771375c1.983785-1.190271 3.698798-2.380542 5.017056-3.698799z" fill="#CEEAE5" p-id="24313"></path><path d="M445.321255 550.764976v19.946634c-0.396757 0.268771-0.927899 0.531142-1.324656 0.793514v-19.946635c0.396757-0.262372 0.927899-0.531142 1.324656-0.793513zM443.996599 551.558489l-0.127986 19.946635-19.146722-11.096395V540.468493l19.274708 11.096396zM382.332893 545.082392l-0.127986 20.08102-19.287506 11.096396 0.134385-19.946635 19.281107-11.230781zM392.104632 558.296958v19.946634c0-0.9215-0.268771-1.849399-0.927899-3.03967v-19.946634c0.659128 1.055885 0.927899 2.111771 0.927899 3.03967z" fill="#CEEAE5" p-id="24314"></path><path d="M392.104632 558.296958v19.946634c0-0.9215" fill="#CEEAE5" p-id="24315"></path></svg>