<?xml version="1.0" standalone="no"?><!DOCTYPE svg PUBLIC "-//W3C//DTD SVG 1.1//EN" "http://www.w3.org/Graphics/SVG/1.1/DTD/svg11.dtd"><svg t="1625564628877" class="icon" viewBox="0 0 1209 1024" version="1.1" xmlns="http://www.w3.org/2000/svg" p-id="24651" xmlns:xlink="http://www.w3.org/1999/xlink" width="236.1328125" height="200"><defs><style type="text/css"></style></defs><path d="M1114.6304 604.3648l-0.1344 28.3584-517.3056 300.8512v-28.3584l517.44-300.8512z" fill="#37BCBD" p-id="24652"></path><path d="M597.1904 905.216v28.3584L76.416 632.7232l0.1344-28.352 520.6464 300.8448z" fill="#37BCBD" p-id="24653"></path><path d="M1114.6304 604.3648l-517.44 300.8512-520.64-300.8512 517.2992-300.7104 520.7808 300.7104z" fill="#D9F2F2" p-id="24654"></path><path d="M244.48 460.032L128.6848 527.4496 11.968 460.032l115.9232-67.4176L244.48 460.032zM1114.2272 141.3952l-85.5744 49.76-86.1056-49.76 85.5744-49.632 86.1056 49.632zM1208.4928 500.16l-44.928 26.0864-45.1904-26.0864 44.9216-26.0864 45.1968 26.0864z" fill="#37BCBD" opacity=".4" p-id="24655"></path><path d="M168.4032 432.8768L85.3632 481.024 1.9392 432.8768l82.8928-48.2944 83.5648 48.2944zM671.6608 879.3984L555.744 946.816l-116.5952-67.4176 115.9232-67.424 116.5888 67.424z" fill="#37BCBD" opacity=".4" p-id="24656"></path><path d="M595.584 852.2432l-83.0272 48.1536-83.4304-48.1536 82.8928-48.2944 83.5648 48.2944zM800.0192 986.2784L735.1744 1024l-65.3824-37.7216 64.8512-37.856 65.376 37.856z" fill="#37BCBD" opacity=".4" p-id="24657"></path><path d="M576.8704 470.8672l86.7712-50.432 24.8704-14.176-86.6432 50.432-24.9984 14.176z" fill="#2F3081" p-id="24658"></path><path d="M878.6432 553.2672v-0.9344-0.4032-0.9344-0.2688c0-0.2688 0-0.4032-0.1344-0.672v-0.3968-0.2688c0-0.2688-0.1344-0.4032-0.1344-0.672v-0.3968-0.2688c0-0.2688-0.1344-0.5376-0.1344-0.672 0-0.128 0-0.2624-0.1344-0.3968v-0.1344-0.2688c-0.1344-0.2688-0.1344-0.5376-0.2688-0.8 0-0.1344-0.128-0.2688-0.128-0.4032V545.1072c-0.1344-0.2688-0.1344-0.5312-0.2688-0.6656-0.1344-0.2688-0.1344-0.4032-0.2688-0.672l-24.736-42.944c-0.4032-0.6656-0.6656-1.1968-1.0688-1.8688-0.2688-0.6656-0.5376-1.2032-0.8-1.7408v-0.128a9.2608 9.2608 0 0 1-0.672-1.7408v-0.1344c-0.1344-0.5376-0.4032-1.0688-0.5312-1.7408l-0.4032-1.6v-0.1408c-0.1344-0.5312-0.1344-1.0688-0.2688-1.6v-0.1344c-0.1344-0.5376-0.1344-1.0688-0.1344-1.6064v-0.128-1.6128c0-0.3968 0-0.9344 0.1344-1.3376v-0.128c0-0.4032 0.1344-0.8064 0.2688-1.2096v-0.128c0.1344-0.4032 0.1344-0.672 0.2688-1.0752 0-0.128 0-0.128 0.1344-0.2688 0.128-0.3968 0.2624-0.6656 0.3968-1.0688v-0.128c0.1344-0.2752 0.2688-0.672 0.5376-0.9408l0.1344-0.1344c0.1344-0.2688 0.2688-0.4032 0.5312-0.672l0.2688-0.2624 0.5376-0.5376c0.1344 0 0.1344-0.128 0.2624-0.128a2.816 2.816 0 0 1 0.8064-0.5376l-87.4432 50.432c-0.2688 0.128-0.5376 0.3968-0.8064 0.5312-0.128 0-0.128 0.128-0.2624 0.128-0.1344 0.1408-0.4032 0.2752-0.5376 0.5376l-0.2688 0.2688c-0.1344 0.2688-0.3968 0.4032-0.5312 0.672l-0.1344 0.128-0.4032 0.8064v0.1344a46.5728 46.5728 0 0 0-0.3968 0.8064c0 0.128 0 0.128-0.1344 0.2624 0 0.1344 0 0.1344-0.1344 0.2688 0 0.1344-0.1344 0.2688-0.1344 0.2688 0 0.2688-0.1344 0.4032-0.1344 0.6656v0.2688c0 0.1344-0.1344 0.4032-0.1344 0.5376 0 0.2688-0.1344 0.4032-0.1344 0.6656v4.0128c0 0.2688 0 0.4032 0.1344 0.672V540.4288c0 0.128 0 0.3968 0.1344 0.5312 0 0.2688 0.1344 0.4032 0.1344 0.672 0 0.128 0 0.2688 0.1344 0.4032v0.3968c0 0.2688 0.1344 0.4032 0.1344 0.672 0 0.2624 0.1344 0.5312 0.1344 0.6656 0 0.2688 0.128 0.4032 0.128 0.672 0.1344 0.2624 0.1344 0.3968 0.2688 0.6656 0 0.1344 0.1344 0.2688 0.1344 0.4032V545.7792c0.1344 0.2624 0.1344 0.3968 0.2688 0.6656 0.1344 0.2688 0.1344 0.4032 0.2688 0.672 0 0.128 0 0.128 0.1344 0.2624v0.1344c0 0.1344 0.128 0.2688 0.128 0.4032 0.1344 0.2688 0.2688 0.4032 0.2688 0.672l0.4032 0.8c0.1344 0.2688 0.2688 0.672 0.5312 0.9344 0.1344 0.2688 0.4032 0.672 0.5376 0.9408l24.736 42.9376c0.1344 0.5376 0.4032 1.0688 0.5376 1.472v0.128c0.128 0.4096 0.2624 0.9408 0.3968 1.344v0.128a4.736 4.736 0 0 1 0.2688 1.344v0.128c0.1344 0.4032 0.1344 0.8064 0.2688 1.344v0.128c0 0.4032 0.1344 0.8064 0.1344 1.2096V604.096c0 0.4032 0 0.672-0.1344 1.0752v0.128c0 0.4032-0.1344 0.672-0.1344 0.9408v0.1344a1.8944 1.8944 0 0 1-0.2688 0.8c0 0.1344 0 0.1344-0.1344 0.2688-0.1344 0.2688-0.1344 0.4032-0.2688 0.672 0 0.128-0.128 0.2624-0.128 0.2624 0 0.1344-0.1344 0.2688-0.1344 0.4032-0.1344 0.2688-0.2688 0.4032-0.2688 0.5376-0.1344 0.128-0.1344 0.2688-0.2688 0.4032-0.1344 0.128-0.1344 0.2624-0.2688 0.2624l-0.3968 0.4032-0.2688 0.2688-0.4032 0.4032c-0.1344 0-0.1344 0.128-0.2688 0.128-0.2624 0.1344-0.3968 0.4032-0.6656 0.5376l86.6368-50.432c0.2688-0.128 0.5376-0.2624 0.672-0.5312 0.1344 0 0.1344-0.1344 0.2688-0.1344l0.3968-0.4032 0.2688-0.2688 0.4032-0.4032c0.1344-0.128 0.1344-0.2624 0.2688-0.2624l0.2624-0.2688s0-0.1344 0.1344-0.1344a1.0112 1.0112 0 0 0 0.2688-0.5376c0-0.128 0.1344-0.128 0.1344-0.2624v-0.1344c0-0.1344 0.1344-0.2688 0.1344-0.2688 0-0.1344 0.1344-0.2688 0.1344-0.4032v-0.128c0-0.1408 0-0.1408 0.1344-0.2752 0-0.128 0-0.128 0.1344-0.2624 0-0.1344 0.128-0.4032 0.128-0.5376v-0.128c0-0.2752 0.1344-0.4096 0.1344-0.672v-0.4032-0.2688-0.9344c0.672-0.2688 0.672-0.2688 0.672-0.4032z" fill="#13A08C" p-id="24659"></path><path d="M848.96 245.8688c15.2384 8.832 27.5392 30.2336 27.5392 47.8912l-0.8 262.1824c-0.1344 17.5232-12.5696 24.6144-27.8144 15.7824l-72.864-42.0032c-12.3008-7.0848-18.5856 6.4256-9.8944 21.5424l24.736 42.9376c5.2096 13.6448-1.472 23.008-12.0384 16.8576L588.768 501.632c-10.56-6.1504-17.248-23.1424-11.904-30.7648l25.0048-14.1824c8.832-4.9472 2.6752-25.6832-9.6256-32.768L516.3008 380.032c-15.2448-8.832-27.5456-30.2336-27.5456-47.8912l0.8064-262.1888c0.128-17.5232 12.5632-24.608 27.808-15.7824l331.5904 191.6928z" fill="#37BCBD" p-id="24660"></path><path d="M963.1424 242.1184v-1.3376-0.6656-0.2688-0.4032c0-0.3968-0.1344-0.9344-0.1344-1.3312 0-0.4032-0.1344-0.9408-0.1344-1.344v-0.2624c0-0.4032-0.1344-0.8064-0.2688-1.2032-0.1344-0.5376-0.1344-0.9408-0.2688-1.472 0-0.1344-0.1344-0.4032-0.1344-0.5376 0-0.128 0-0.2688-0.1344-0.2688 0-0.128-0.128-0.4032-0.128-0.5312-0.1344-0.5376-0.2688-0.9408-0.4032-1.472a4.1216 4.1216 0 0 1-0.2688-1.0752v-0.2624c-0.1344-0.5376-0.2688-0.9408-0.4032-1.472a6.1824 6.1824 0 0 0-0.5312-1.472c0-0.1344-0.1344-0.1344-0.1344-0.2688 0-0.128 0-0.128-0.1344-0.2688-0.1344-0.2688-0.2688-0.5312-0.2688-0.8-0.1344-0.4032-0.3968-0.9408-0.5312-1.344-0.1344-0.2624-0.2688-0.6656-0.4032-0.928 0 0 0-0.1344-0.1344-0.1344 0 0 0-0.1344-0.1344-0.1344a6.2016 6.2016 0 0 0-0.6656-1.344c-0.2688-0.5312-0.4032-0.9344-0.672-1.472 0-0.128-0.1344-0.128-0.1344-0.2624 0-0.128-0.128-0.128-0.128-0.2688-0.1344-0.4032-0.4032-0.8-0.5376-1.2032-0.2688-0.5376-0.5376-0.9344-0.8-1.472a2.9184 2.9184 0 0 0-0.4032-0.6656c0-0.1344-0.1344-0.1344-0.1344-0.2688l-0.8-1.2032c-0.4032-0.672-0.8064-1.2032-1.2032-1.8752 0-0.128-0.1344-0.128-0.1344-0.2688l-1.6064-2.4064s0-0.128-0.1344-0.128l-1.2032-1.6128c-0.2688-0.3968-0.6656-0.8-0.9344-1.2032-0.4032-0.4032-0.6656-0.8-1.0688-1.2032-0.4032-0.4032-0.672-0.8-1.0688-1.2032l-0.1344-0.128-0.1344-0.1408-0.8-0.8-1.2032-1.2032c-0.1344-0.1344-0.2688-0.2688-0.4032-0.2688l-0.2688-0.2688c-0.2688-0.128-0.4032-0.4032-0.6656-0.5376-0.4032-0.3968-0.8064-0.6656-1.2032-1.0688-0.1344-0.128-0.4032-0.2624-0.5376-0.3968l-0.2688-0.2688-0.3968-0.4032c-0.4032-0.2688-0.8064-0.6656-1.2032-0.9344-0.2688-0.1344-0.5376-0.4032-0.8064-0.5376l-0.1344-0.128-0.1344-0.1408-1.2032-0.8a5.28 5.28 0 0 0-1.2032-0.672c-0.128 0-0.128-0.128-0.2624-0.128L603.8784 3.7376 603.072 3.3472c-0.128-0.1344-0.2688-0.1344-0.4032-0.1344-0.128-0.1344-0.2624-0.1344-0.3968-0.2688-0.1344 0-0.2688-0.1344-0.2688-0.1344-0.2688-0.1344-0.4032-0.1344-0.672-0.2688-0.128 0-0.2624-0.128-0.3968-0.128h-0.1344a2.688 2.688 0 0 1-1.0688-0.5376h-0.1344C599.328 1.7408 598.9248 1.6 598.656 1.472h-0.1344c-0.1344 0-0.2688-0.1344-0.4032-0.1344-0.128 0-0.4032-0.128-0.5312-0.128-0.1344 0-0.2688 0-0.2688-0.1408-0.1344 0-0.2688-0.128-0.5376-0.128-0.128 0-0.2688-0.1408-0.4032-0.1408-0.128 0-0.2624 0-0.3968-0.128-0.1344 0-0.2688-0.1344-0.5376-0.1344h-0.2624c-0.1344 0-0.2688 0-0.5376-0.1344-0.128 0-0.4032 0-0.5376-0.1344h-4.1408c-0.4032 0-0.8064 0.128-1.344 0.128h-0.128c-0.672 0.1408-1.2032 0.2752-1.7408 0.5376h-0.2624c-0.2688 0.1344-0.5376 0.1344-0.672 0.2688-0.128 0-0.2688 0.1344-0.4032 0.1344-0.3968 0.128-0.6656 0.4032-1.0688 0.5376l-86.6368 50.432c0.3968-0.1344 0.6656-0.4032 1.0688-0.5376 0.128 0 0.2688-0.1344 0.4032-0.1344 0.2624-0.1344 0.5312-0.2688 0.6656-0.2688 0.128 0 0.128 0 0.2688-0.128 0.5312-0.1408 1.2032-0.4032 1.7344-0.5376h0.1344c0.4032-0.1344 0.8064-0.1344 1.344-0.1344h3.6032c0.2688 0 0.4032 0 0.672 0.128 0.128 0 0.3968 0 0.5312 0.1408 0.2688 0 0.5376 0.128 0.672 0.128 0.128 0 0.2624 0.1344 0.5312 0.1344s0.5376 0.1344 0.8064 0.1344c0.128 0 0.2624 0.1344 0.5312 0.1344 0.2688 0.1344 0.5376 0.1344 0.8064 0.2688 0.128 0 0.2624 0.128 0.3968 0.128 0.4032 0.1408 0.672 0.2752 1.0688 0.4096h0.1344c0.4032 0.128 0.8064 0.3968 1.2032 0.5312 0.1344 0 0.2688 0.1344 0.4032 0.1344 0.2688 0.128 0.6656 0.2688 0.9344 0.4032 0.1344 0.128 0.2688 0.128 0.4032 0.2688 0.4032 0.2624 0.8 0.3968 1.2032 0.6656l331.7184 191.6928c0.9408 0.5312 1.8752 1.0688 2.8096 1.7344l0.1344 0.1344c0.8 0.5376 1.7408 1.2032 2.5408 1.8752l0.2688 0.2688 2.4064 2.0032 0.2624 0.2688c0.8064 0.8064 1.6064 1.472 2.2784 2.272l0.1344 0.1344c0.8 0.8064 1.6 1.7408 2.272 2.6752 0.8 0.9408 1.472 1.8752 2.272 2.816 0 0 0 0.128 0.1344 0.128 0.6656 0.8064 1.2032 1.7408 1.8688 2.6752 0.4032 0.5376 0.8064 1.2032 1.2032 1.8752 0.2688 0.5312 0.672 0.9344 0.9344 1.472a2.944 2.944 0 0 0 0.4032 0.6656c0.5376 0.8064 0.9344 1.7408 1.3376 2.5408 0 0.1344 0.1344 0.1344 0.1344 0.2688 0.5376 1.0688 1.0688 2.144 1.472 3.2128 0 0 0 0.128 0.1344 0.128 0.3968 1.0752 0.9344 2.144 1.3376 3.2128 0 0.1344 0 0.1344 0.128 0.2688 0.4032 1.0688 0.8064 2.144 1.0752 3.3472v0.128c0.2624 1.0752 0.6656 2.144 0.8 3.2128 0 0.1344 0 0.2688 0.1344 0.2688 0.2688 1.0688 0.4032 2.1376 0.6656 3.2128v0.128l0.4032 3.2128v0.2688c0.1344 1.0688 0.1344 2.1376 0.1344 3.2128l-0.8 262.1824v2.0096c0 0.2688 0 0.6656-0.1344 0.9344v0.5376c0 0.2688 0 0.5312-0.1344 0.8 0 0.2688 0 0.4032-0.1344 0.672 0 0.2624-0.1344 0.5312-0.1344 0.8 0 0.2688-0.1344 0.4032-0.1344 0.672 0 0.2624-0.1344 0.3968-0.1344 0.6656 0 0.2688-0.1344 0.5376-0.1344 0.8064 0 0.128-0.1344 0.3968-0.1344 0.5312-0.1344 0.2688-0.1344 0.5376-0.2624 0.9344 0 0.1344-0.1344 0.2688-0.1344 0.5376-0.1344 0.5376-0.4032 0.9344-0.5376 1.472v0.128c-0.2688 0.672-0.6656 1.2096-0.9344 1.7472 0 0 0 0.128-0.1344 0.128-0.2688 0.4032-0.5376 0.8064-0.9344 1.2096l-0.2688 0.2624c-0.2688 0.4032-0.6656 0.672-0.9344 1.0752l-0.1344 0.128a6.9824 6.9824 0 0 1-1.0688 0.9408l-0.2688 0.2688-1.2032 0.8 86.6432-50.432 1.2032-0.8 0.2624-0.2688c0.4032-0.2688 0.8064-0.672 1.0688-0.9344l0.1344-0.1344c0.2688-0.2688 0.672-0.672 0.9408-1.0752l0.2624-0.2624c0.2688-0.4032 0.672-0.8064 0.9408-1.2032v-0.1344c0.3968-0.5376 0.6656-1.0688 0.9344-1.7408v-0.128a4.608 4.608 0 0 0 0.5312-1.472v-0.1408c0-0.128 0.1344-0.2624 0.1344-0.3968 0.1344-0.2688 0.1344-0.5376 0.2688-0.9408 0-0.128 0-0.128 0.1344-0.2624 0-0.1344 0-0.2688 0.1344-0.2688 0.1344-0.2688 0.1344-0.5376 0.1344-0.8064 0-0.128 0-0.2688 0.1344-0.2688v-0.2624c0-0.2688 0.1344-0.4032 0.1344-0.672 0-0.128 0-0.2688 0.128-0.4032v-0.3968c0-0.2688 0-0.4032 0.1344-0.672v-0.4032-0.5312-0.5376-0.2624-0.672V506.5856v-1.344l0.8064-262.1824c0.1344-0.2688 0.1344-0.5376 0.1344-0.9408z" fill="#13A08C" p-id="24661"></path><path d="M876.9024 332.416c8.6912 4.9472 15.6416 17.12 15.6416 27.0208l-0.1344 46.2848c0 9.9008-7.0848 13.9136-15.6416 8.96l-199.7568-115.3088c-8.6912-4.9472-15.6416-17.12-15.6416-27.0208l0.1344-46.2848c0-9.8944 7.0848-13.9072 15.6416-8.96l199.7568 115.3088z" fill="#FFFFFF" p-id="24662"></path><path d="M901.9072 353.28v-0.8-0.5312-0.2688c0-0.2688 0-0.5376-0.1344-0.8064 0-0.2624-0.1344-0.5312-0.1344-0.8 0-0.2688-0.1344-0.5376-0.1344-0.8 0-0.2688-0.1344-0.5376-0.1344-0.8064 0-0.128 0-0.128-0.1344-0.2688v-0.128c0-0.1408 0-0.2688-0.1344-0.4032-0.128-0.2688-0.128-0.5376-0.2624-0.8064 0-0.2624-0.1344-0.3968-0.1344-0.6656v-0.2688c-0.1344-0.2688-0.1344-0.5376-0.2688-0.8-0.1344-0.2688-0.1344-0.5376-0.2688-0.8064V344.0512c0-0.128-0.1344-0.2624-0.1344-0.5312-0.1344-0.2688-0.2688-0.5376-0.2688-0.8064-0.128-0.128-0.128-0.3968-0.2624-0.5312v-0.2688l-0.4032-0.8-0.4032-0.8064v-0.128s0-0.1408-0.1344-0.1408c-0.128-0.2624-0.2624-0.3968-0.3968-0.6656l-0.4032-0.8064c-0.1344-0.128-0.1344-0.2624-0.2688-0.3968 0 0 0-0.1344-0.1344-0.1344-0.128-0.2688-0.2624-0.4032-0.3968-0.672-0.2688-0.3968-0.4032-0.6656-0.672-1.0688 0 0 0-0.128-0.1344-0.128-0.2624-0.5376-0.6656-0.9408-0.9344-1.472-0.2688-0.2688-0.4032-0.672-0.6656-0.9408a2.9184 2.9184 0 0 0-0.5376-0.672 1.6384 1.6384 0 0 0-0.6656-0.6656l-0.672-0.6656-0.1344-0.1344-0.1344-0.1344-0.3968-0.4032-0.672-0.672c-0.1344 0-0.1344-0.128-0.2624-0.128l-0.1344-0.1344-0.2688-0.2688-0.672-0.672c-0.128-0.128-0.2624-0.128-0.2624-0.2624l-0.1344-0.1344c-0.1344 0-0.1344-0.1344-0.2688-0.1344-0.2688-0.1344-0.4032-0.4032-0.672-0.5376-0.128-0.128-0.3968-0.2688-0.5312-0.4032h-0.1344-0.1344c-0.2688-0.128-0.4032-0.2624-0.6656-0.3968-0.2688-0.1344-0.4032-0.2688-0.672-0.4032 0 0-0.1344 0-0.1344-0.128l-199.7504-115.3152c-0.1344-0.128-0.2688-0.128-0.5376-0.2688-0.2688-0.128-0.4032-0.2624-0.6656-0.2624-0.1344-0.1344-0.2688-0.1344-0.4032-0.1344h-0.2688c-0.2688-0.1344-0.4032-0.1344-0.6656-0.2688-0.2688-0.1344-0.4032-0.1344-0.672-0.2688h-0.1344-0.1344c-0.128 0-0.2624-0.128-0.3968-0.128-0.2688 0-0.4032-0.1408-0.672-0.1408-0.1344 0-0.2688 0-0.2688-0.128h-0.3968c-0.2688 0-0.4032-0.1408-0.672-0.1408H678.6176c-0.2688 0-0.6656 0.1344-0.9344 0.1344h-0.1344c-0.2688 0.1344-0.6656 0.1344-0.9344 0.2688-0.4032 0.1344-0.8064 0.2688-1.2032 0.5376l-9.3632 5.4848c0.4032-0.2688 0.8064-0.4032 1.2032-0.5376a2.496 2.496 0 0 1 0.9408-0.2688h0.128c0.4032-0.128 0.8064-0.128 1.2032-0.128h1.6064c0.4032 0 0.8064 0.128 1.3376 0.128h0.1344c0.4032 0.1344 0.9344 0.2688 1.3376 0.4032h0.1344c0.5312 0.128 0.9344 0.4032 1.472 0.5376h0.128l1.6064 0.8 199.7568 115.3088c0.5376 0.2688 1.0688 0.672 1.6064 0.9344h0.1344c0.5312 0.4032 0.9344 0.672 1.4656 1.0752l0.1344 0.128c0.4032 0.4032 0.9344 0.8064 1.3376 1.2032l0.1344 0.1344c0.4032 0.4032 0.9344 0.8064 1.3376 1.344l0.1344 0.128c0.4032 0.5376 0.9344 0.9408 1.3376 1.472 0.3968 0.5376 0.8 1.0752 1.3376 1.6064 0.3968 0.5376 0.8 1.0688 1.0688 1.6 0.2688 0.2752 0.3968 0.672 0.6656 1.0752 0.1344 0.2688 0.4032 0.5376 0.5376 0.8 0.1344 0.1344 0.1344 0.2688 0.2688 0.4032 0.2624 0.5376 0.5312 0.9408 0.8 1.472 0 0 0 0.1344 0.1344 0.1344 0.2688 0.5376 0.5312 1.2032 0.8 1.8752v0.128c0.2688 0.5376 0.5376 1.2096 0.672 1.7408v0.1344c0.2624 0.672 0.3968 1.2032 0.6656 1.8752v0.128c0.1344 0.5376 0.4032 1.2096 0.5376 1.7408v0.1344c0.1344 0.672 0.2624 1.2032 0.3968 1.8752 0.1344 0.6656 0.1344 1.2032 0.2688 1.8752v0.128c0 0.672 0.1344 1.2096 0.1344 1.8752l-0.1344 46.2848c0 0.5376 0 1.2032-0.1344 1.7408v0.128c0 0.5376-0.1344 0.9408-0.2688 1.472v0.1344c-0.128 0.4032-0.2624 0.9408-0.3968 1.344 0 0.128 0 0.128-0.1344 0.2624a9.1904 9.1904 0 0 1-0.4032 1.0688v0.1344a5.376 5.376 0 0 1-0.6656 1.2032s0 0.1344-0.1344 0.1344c-0.1344 0.2688-0.4032 0.5376-0.672 0.8064l-0.2624 0.2624c-0.1344 0.2688-0.4032 0.4032-0.5376 0.5376l-0.2688 0.2688c-0.2688 0.2688-0.5312 0.4032-0.9344 0.6656l9.3568-5.4784a4.0832 4.0832 0 0 0 0.9408-0.672c0.1344-0.128 0.1344-0.128 0.2624-0.2688 0.2688-0.128 0.4032-0.4032 0.5376-0.5312l0.2688-0.2688c0.2688-0.2688 0.3968-0.5376 0.6656-0.8064l0.1344-0.128a4.0128 4.0128 0 0 0 0.5376-1.0752v-0.128c0.1344-0.2752 0.2688-0.5376 0.2688-0.672 0-0.1344 0.128-0.2688 0.128-0.4032 0-0.128 0-0.128 0.1344-0.2688 0-0.128 0-0.128 0.1344-0.2624 0.1344-0.2688 0.1344-0.5376 0.2688-0.8064v-0.3968-0.2688c0-0.2688 0.1344-0.5376 0.1344-0.8064V401.984v-0.8064-0.8l0.1344-46.2848v-0.8z" fill="#D7E5FF" p-id="24663"></path><path d="M876.9024 332.416c8.6912 4.9472 15.6416 17.12 15.6416 27.0208l-0.1344 46.2848c0 9.9008-7.0848 13.9136-15.6416 8.96l-199.7568-115.3088c-8.6912-4.9472-15.6416-17.12-15.6416-27.0208l0.1344-46.2848c0-9.8944 7.0848-13.9072 15.6416-8.96l199.7568 115.3088z" fill="#FFFFFF" p-id="24664"></path><path d="M876.9024 341.5104c3.8784 2.2784 6.9504 7.6288 6.9504 12.0384v49.2288c0 4.416-3.072 6.1568-6.9504 4.0128l-88.7808-51.232c-3.8784-2.272-6.9504-7.6224-6.9504-12.0384v-49.2288c0-4.416 3.072-6.1504 6.9504-4.0128l88.7808 51.232z" fill="#E5E9FE" p-id="24665"></path><path d="M901.9072 465.6512v-0.8064-0.5312-0.2688c0-0.2688 0-0.5376-0.1344-0.8064 0-0.2624-0.1344-0.5312-0.1344-0.8 0-0.2688-0.1344-0.5376-0.1344-0.8 0-0.2688-0.1344-0.5376-0.1344-0.8064 0-0.128 0-0.128-0.1344-0.2624v-0.1344c0-0.1344 0-0.2688-0.1344-0.4032-0.128-0.2688-0.128-0.5376-0.2624-0.8064 0-0.2624-0.1344-0.3968-0.1344-0.6656v-0.2624c-0.1344-0.2752-0.1344-0.5376-0.2688-0.8064-0.1344-0.2688-0.1344-0.5376-0.2688-0.8064V456.416c0-0.128-0.1344-0.2624-0.1344-0.5312-0.1344-0.2688-0.2688-0.5376-0.2688-0.8064-0.128-0.128-0.128-0.3968-0.2624-0.5312v-0.2624l-0.4032-0.8064-0.4032-0.8064v-0.128s0-0.1344-0.1344-0.1344c-0.128-0.2688-0.2624-0.4032-0.3968-0.672l-0.4032-0.8c-0.1344-0.1344-0.1344-0.2688-0.2688-0.4032 0 0 0-0.1344-0.1344-0.1344-0.128-0.2688-0.2624-0.4032-0.3968-0.672-0.2688-0.3968-0.4032-0.6656-0.672-1.0688 0 0 0-0.128-0.1344-0.128-0.2624-0.5376-0.6656-0.9408-0.9344-1.472-0.2688-0.2688-0.4032-0.672-0.6656-0.9408a2.9184 2.9184 0 0 0-0.5376-0.6656 1.6384 1.6384 0 0 0-0.6656-0.672l-0.672-0.6656-0.1344-0.1344-0.1344-0.1344-0.3968-0.4032-0.672-0.6656c-0.1344 0-0.1344-0.1344-0.2624-0.1344l-0.1344-0.1344-0.2688-0.2688-0.672-0.6656c-0.128-0.1344-0.2624-0.1344-0.2624-0.2688l-0.1344-0.1344c-0.1344 0-0.1344-0.1344-0.2688-0.1344-0.2688-0.1344-0.4032-0.4032-0.672-0.5376-0.128-0.128-0.3968-0.2688-0.5312-0.4032h-0.1344-0.1344c-0.2688-0.128-0.4032-0.2624-0.6656-0.3968-0.2688-0.1344-0.4032-0.2688-0.672-0.4032 0 0-0.1344 0-0.1344-0.128l-199.7504-115.3152c-0.1344-0.128-0.2688-0.128-0.5376-0.2688-0.2688-0.128-0.4032-0.2624-0.6656-0.2624-0.1344-0.1344-0.2688-0.1344-0.4032-0.1344h-0.2688c-0.2688-0.1344-0.4032-0.1344-0.6656-0.2688-0.2688-0.1344-0.4032-0.1344-0.672-0.2688h-0.1344-0.1344c-0.128 0-0.2624-0.128-0.3968-0.128-0.2688 0-0.4032-0.1408-0.672-0.1408-0.1344 0-0.2688 0-0.2688-0.128h-0.3968c-0.2688 0-0.4032-0.1344-0.672-0.1344H678.6176c-0.2688 0-0.6656 0.128-0.9344 0.128h-0.1344c-0.2688 0.1344-0.6656 0.1344-0.9344 0.2688a4.6528 4.6528 0 0 0-1.2032 0.5376l-9.3632 5.4848c0.4032-0.2688 0.8064-0.4032 1.2032-0.5376a2.496 2.496 0 0 1 0.9408-0.2688h0.128c0.4032-0.128 0.8064-0.128 1.2032-0.128h1.6064c0.4032 0 0.8064 0.128 1.3376 0.128h0.1344c0.4032 0.1344 0.9344 0.2688 1.3376 0.4032h0.1344c0.5312 0.1344 0.9344 0.4032 1.472 0.5376h0.128l1.6064 0.8 199.7568 115.3088c0.5376 0.2688 1.0688 0.672 1.6064 0.9344h0.1344c0.5312 0.4032 0.9344 0.672 1.4656 1.0752l0.1344 0.128c0.4032 0.4032 0.9344 0.8064 1.3376 1.2096l0.1344 0.128c0.4032 0.4032 0.9344 0.8064 1.3376 1.344l0.1344 0.128c0.4032 0.5376 0.9344 0.9408 1.3376 1.472 0.3968 0.5376 0.8 1.0752 1.3376 1.6064 0.3968 0.5376 0.8 1.0688 1.0688 1.6064 0.2688 0.2688 0.3968 0.672 0.6656 1.0688 0.1344 0.2688 0.4032 0.5376 0.5376 0.8064 0.1344 0.128 0.1344 0.2624 0.2688 0.3968 0.2624 0.5376 0.5312 0.9408 0.8 1.472 0 0 0 0.1344 0.1344 0.1344 0.2688 0.5376 0.5312 1.2032 0.8 1.8752v0.128c0.2688 0.5376 0.5376 1.2096 0.672 1.7408v0.1344c0.2624 0.672 0.3968 1.2032 0.6656 1.8752v0.128c0.1344 0.5376 0.4032 1.2096 0.5376 1.7408v0.1344c0.1344 0.672 0.2624 1.2096 0.3968 1.8752 0.1344 0.672 0.1344 1.2032 0.2688 1.8752v0.128c0 0.672 0.1344 1.2096 0.1344 1.8752l-0.1344 46.2848c0 0.5376 0 1.2032-0.1344 1.7408v0.128c0 0.5376-0.1344 0.9408-0.2688 1.472v0.1408c-0.128 0.3968-0.2624 0.9344-0.3968 1.3376 0 0.128 0 0.128-0.1344 0.2624a9.1904 9.1904 0 0 1-0.4032 1.0688v0.1344a5.376 5.376 0 0 1-0.6656 1.2032s0 0.1344-0.1344 0.1344a3.552 3.552 0 0 1-0.672 0.8064l-0.2624 0.2688c-0.1344 0.2624-0.4032 0.3968-0.5376 0.5312l-0.2688 0.2688c-0.2688 0.2688-0.5312 0.4032-0.9344 0.672l9.3568-5.4848a4.0832 4.0832 0 0 0 0.9408-0.672c0.1344-0.128 0.1344-0.128 0.2624-0.2688 0.2688-0.128 0.4032-0.3968 0.5376-0.5312l0.2688-0.2688c0.2688-0.2688 0.3968-0.5376 0.6656-0.8064l0.1344-0.128a4 4 0 0 0 0.5376-1.0752v-0.128c0.1344-0.2688 0.2688-0.5376 0.2688-0.672 0-0.128 0.128-0.2688 0.128-0.4032 0-0.128 0-0.128 0.1344-0.2624 0-0.1344 0-0.1344 0.1344-0.2688 0.1344-0.2688 0.1344-0.5376 0.2688-0.8064v-0.3968-0.2688c0-0.2688 0.1344-0.5376 0.1344-0.8064V514.3424v-0.8064-0.8l0.1344-46.2848v-0.8z" fill="#D7E5FF" p-id="24666"></path><path d="M876.9024 444.7808c8.6912 4.9472 15.6416 17.12 15.6416 27.0208l-0.1344 46.2848c0 9.9008-7.0848 13.9136-15.6416 8.96l-199.7568-115.3088c-8.6912-4.9472-15.6416-17.12-15.6416-27.0208l0.1344-46.2848c0-9.8944 7.0848-13.9072 15.6416-8.96l199.7568 115.3088z" fill="#FFFFFF" p-id="24667"></path><path d="M876.9024 453.8752c3.8784 2.2784 6.9504 7.6288 6.9504 12.0384v49.2288c0 4.416-3.072 6.1568-6.9504 4.0128l-88.7808-51.232c-3.8784-2.272-6.9504-7.6224-6.9504-12.0384V406.656c0-4.416 3.072-6.1504 6.9504-4.0128l88.7808 51.232z" fill="#E5E9FE" p-id="24668"></path><path d="M711.1104 261.92l-0.1344 38.2592-7.2192-4.1472-14.0416-32.9088c-0.672-1.7408-1.2032-3.072-1.6064-4.0128h-0.1344c0.1344 1.3376 0.1344 3.4752 0.1344 6.1568v21.7984l-6.6816-3.8784 0.1344-38.2592 7.7504 4.416 13.504 31.84c0.9408 2.1376 1.472 3.4752 1.6064 4.0128h0.1344a44.1152 44.1152 0 0 1-0.2688-5.3504v-21.8048l6.8224 3.8784zM725.952 270.4832l-0.1344 31.5648 12.4352 7.2256v6.5536l-19.52-11.232 0.1344-38.2592 7.0848 4.1472zM754.2976 286.9376c8.288 4.8128 12.4352 11.232 12.4352 19.264 0 3.872-1.2032 6.2848-3.744 7.2192-2.4064 0.9344-5.3504 0.2688-8.96-1.7408-0.1344-0.128-0.2688-0.128-0.4032-0.2688l-3.6096-2.1376v13.376l-7.0848-4.1472 0.1344-38.2528 11.232 6.6816z m-1.3376 17.792c4.1408 2.4064 6.2848 1.472 6.2848-2.6816 0-4.0128-2.0096-7.2192-6.1504-9.632l-3.0784-1.8688v12.3072l2.944 1.8688z" fill="#63DDC3" p-id="24669"></path><path d="M697.3376 392.48c3.072 2.8096 6.9504 5.7472 11.232 8.832v5.8816l-11.232-6.5536v-8.16zM690.2464 370.5408c-1.4656 0.4032-2.4064 1.2032-2.4064 2.6752 0 5.888 14.0416 18.7264 31.424 28.7616 9.3568 5.3504 17.7792 8.832 23.5328 10.0288 0 1.0688 0.2624 2.5408 1.0688 3.8784-6.016-0.9344-14.8416-4.416-24.6016-10.0288-18.1824-10.5664-33.024-24.6144-33.024-31.5712 0.1344-2.272 1.4656-3.3408 4.0064-3.744zM741.3248 417.8944v8.0256l-11.232-6.5536v-5.888a53.6448 53.6448 0 0 0 11.232 4.416z" fill="#FFCB57" p-id="24670"></path><path d="M741.3248 384.5824l-0.1344 24.8832c-3.2064-0.8-6.9504-2.272-11.232-4.2816v-5.0816l-4.8128 2.6752a123.712 123.712 0 0 1-5.7472-3.2128c-2.1376-1.2032-4.0128-2.4064-6.1504-3.744l-4.6784-8.16v4.9472c-4.2816-2.944-8.16-6.016-11.232-8.8256l0.1344-24.8832 7.2192 4.1472 14.7072 25.5488 14.8416-8.4224 7.0848 4.416zM746.6688 411.6096a5.376 5.376 0 0 1 1.7408 1.7344c0.9344 1.6064 0.9344 3.3472 0 3.8784-0.4032 0.2688-1.0688 0.1344-1.7408-0.128-0.6656-0.2688-1.2032-0.9408-1.7344-1.7408-0.9344-1.6064-0.9344-3.3472 0-3.8784 0.5312-0.2688 1.0688-0.2688 1.7344 0.128zM748.4096 404.1152c2.5408 3.2128 4.0128 6.016 4.0128 8.16 0 1.472-0.6656 2.5408-2.0032 3.072-0.1344-0.8-0.5376-1.728-0.9408-2.6688-0.128-0.2688-0.2624-0.5376-0.5312-0.672 1.2032-0.4032 1.8688-1.2032 2.0032-2.5408-0.1344-1.3376-1.0688-3.2128-2.5408-5.3504z" fill="#FFCB57" p-id="24671"></path><path d="M517.2352 558.8864v0.4032c-0.128 1.0688-0.2688 2.0032-0.4032 3.072v0.4032c-0.128 0.672-0.2624 1.472-0.3968 2.144-0.1344 0.6656-0.2688 1.2032-0.4032 1.8688-0.128 0.5376-0.2688 1.0688-0.5312 1.6064-0.1344 0.5376-0.4032 1.2032-0.5376 1.7408-0.2688 0.8-0.6656 1.7344-0.9344 2.5408a34.1312 34.1312 0 0 1-1.472 3.2128c0 0.128-0.128 0.128-0.128 0.2624-0.5376 0.9408-1.0752 2.0096-1.6128 2.944-0.128 0.1344-0.128 0.2688-0.2624 0.4032-0.5376 0.9344-1.2032 1.8688-1.8752 2.8096-0.128 0.128-0.2688 0.4032-0.4032 0.5312-0.6656 0.9408-1.3312 1.8752-2.1376 2.816-0.128 0.128-0.2688 0.3968-0.3968 0.5312l-2.0096 2.4064c-0.128 0.2688-0.4032 0.4032-0.5312 0.672-0.8064 0.9344-1.7408 1.8688-2.5408 2.6752l-0.5376 0.5312c-0.6656 0.672-1.472 1.344-2.1376 2.0096-0.5376 0.5312-1.2032 1.0688-1.7408 1.6-0.5312 0.5376-1.0688 0.9408-1.7344 1.472-0.672 0.5376-1.344 1.0752-2.0096 1.472-0.6656 0.4032-1.2032 0.9408-1.8688 1.344-0.672 0.5312-1.344 0.9344-2.1376 1.472-0.672 0.3968-1.344 0.9344-2.0096 1.3312-0.6656 0.5376-1.472 0.9408-2.272 1.472-0.9344 0.5376-1.8688 1.2032-2.944 1.7408-1.3312 0.8-2.6688 1.472-4.1408 2.272-0.4032 0.1344-0.672 0.4032-1.0688 0.5376a48.8448 48.8448 0 0 1-3.744 1.8752c-0.1344 0.128-0.2688 0.128-0.5376 0.2624l-4.416 2.0096c-0.3968 0.128-0.8 0.2688-1.1968 0.5376-1.2032 0.5312-2.5408 1.0688-3.744 1.6-0.2688 0.1344-0.5376 0.2688-0.8064 0.2688-1.472 0.5376-3.072 1.0688-4.544 1.6-0.4032 0.1408-0.8 0.2752-1.0688 0.4096-1.0688 0.3968-2.1376 0.6656-3.2064 1.0688-0.9408 0.2688-2.0096 0.6656-3.072 0.9344-0.8064 0.2688-1.7472 0.5376-2.5472 0.8064-1.0688 0.2624-2.0032 0.5312-3.072 0.8-0.8064 0.2688-1.7408 0.4032-2.6752 0.672a27.3728 27.3728 0 0 1-3.2128 0.6656c-0.9344 0.128-1.7344 0.4032-2.6688 0.5376-1.0752 0.2624-2.144 0.3968-3.2128 0.6656-0.9344 0.1344-1.8688 0.4032-2.944 0.5376-0.3968 0.128-0.9344 0.128-1.3312 0.2624-1.472 0.2688-2.944 0.5376-4.544 0.672-0.2688 0-0.5376 0.128-0.672 0.128-1.7408 0.2752-3.4752 0.4096-5.216 0.672-0.4032 0-0.8 0.1344-1.3376 0.1344-1.0688 0.1344-2.1376 0.2688-3.2064 0.2688a40.384 40.384 0 0 1-4.0128 0.2688c-0.8 0-1.7408 0.128-2.5408 0.128-1.3376 0.1408-2.8096 0.1408-4.1472 0.2752-0.8 0-1.6 0.128-2.4064 0.128-1.2032 0-2.4064 0-3.6096 0.1344h-8.6848c-1.2096 0-2.4128-0.128-3.616-0.128-0.8 0-1.6 0-2.5344-0.1344-1.344-0.1344-2.5408-0.1344-3.744-0.2688-0.8064 0-1.472-0.1344-2.2784-0.1344-1.472-0.1344-2.944-0.2688-4.544-0.4032-0.5376 0-0.9344-0.128-1.472-0.128-2.0032-0.2752-4.0128-0.5376-5.8816-0.8064-0.2688 0-0.5376-0.1344-0.9344-0.1344a422.4832 422.4832 0 0 1-5.0816-0.8 63.872 63.872 0 0 0-2.1376-0.4032c-1.344-0.2688-2.5408-0.5376-3.8784-0.672l-2.0096-0.3968c-1.3376-0.2688-2.8032-0.672-4.1408-0.9408-0.8064-0.128-1.472-0.3968-2.272-0.5312-1.2032-0.2688-2.5408-0.672-3.744-0.9408-1.0688-0.2624-2.144-0.5312-3.2128-0.9344l-1.2032-0.4032c-1.6-0.5312-3.2064-0.9344-4.8128-1.472-0.2688-0.128-0.5312-0.2624-0.9344-0.2624-1.3376-0.4032-2.5408-0.9408-3.8784-1.344a9.216 9.216 0 0 1-1.3376-0.5312c-1.0688-0.4032-2.0032-0.8-3.072-1.2032l-2.0096-0.8c-0.9344-0.4032-1.8688-0.8064-2.944-1.344-0.6656-0.2624-1.1968-0.5312-1.8688-0.8-1.0688-0.5376-2.0032-1.0688-3.072-1.472l-1.6064-0.8c-1.472-0.8064-3.072-1.6064-4.544-2.4064-24.4672-14.1824-36.768-32.7744-36.768-51.3664l-0.1344 43.6032c0 18.5984 12.16 37.184 36.768 51.3664 1.472 0.8064 2.944 1.6064 4.544 2.4128 0.5376 0.2624 1.0688 0.5312 1.472 0.8 1.0688 0.5376 2.0032 1.0688 3.072 1.472 0.672 0.2688 1.2032 0.5376 1.8752 0.8 0.9344 0.4032 1.8688 0.9408 2.944 1.3376l2.0032 0.8064 2.0032 0.8c0.4032 0.1344 0.672 0.2688 1.0688 0.4032 0.4032 0.1344 0.8064 0.2688 1.344 0.5376 1.3312 0.5312 2.5344 0.9344 3.872 1.3376 0.2688 0.128 0.5376 0.2624 0.9344 0.2624 1.6064 0.5376 3.2128 1.0752 4.8128 1.472l1.2032 0.4032c0.672 0.2688 1.344 0.4032 2.0096 0.6656 0.4032 0.1344 0.8 0.1344 1.2032 0.2688 1.2032 0.4032 2.5408 0.672 3.744 0.9408 0.8 0.128 1.472 0.3968 2.272 0.5312 1.3376 0.2688 2.8096 0.672 4.1472 0.9408l1.6 0.3968c0.1344 0 0.2688 0 0.4032 0.1344 1.3376 0.2688 2.5408 0.5376 3.8784 0.672 0.6656 0.1344 1.3376 0.2624 2.1376 0.3968 1.7408 0.2688 3.3408 0.5376 5.0816 0.8064 0.2688 0 0.5376 0.1344 0.8 0.1344 2.0096 0.2624 4.0128 0.5312 5.888 0.8 0.5312 0 0.9344 0.1344 1.472 0.1344 1.472 0.1344 2.9376 0.2688 4.544 0.4032h0.128c0.672 0 1.344 0.1344 2.144 0.1344 1.3376 0.128 2.5408 0.128 3.8784 0.2624 0.8 0 1.6 0.1344 2.5408 0.1344 1.2032 0 2.4064 0.1344 3.6096 0.1344h8.6912c1.2032 0 2.4064 0 3.6096-0.1344h0.6656c0.5376 0 1.0688 0 1.7408-0.1344 1.3376 0 2.8032-0.1344 4.1408-0.2624 0.8064 0 1.7408-0.1344 2.5408-0.1344a40.192 40.192 0 0 1 4.0128-0.2688c0.4032 0 0.9344-0.1344 1.472-0.1344 0.6656 0 1.2032-0.1344 1.8688-0.1344 0.4032 0 0.8064-0.1344 1.344-0.1344 1.728-0.1344 3.4688-0.4032 5.2096-0.6656 0.2688 0 0.5376-0.1344 0.8-0.1344 1.472-0.2688 2.944-0.4032 4.544-0.672 0.4032-0.1344 0.9408-0.1344 1.344-0.2688 0.3968 0 0.6656-0.128 1.0688-0.128 0.6656-0.1344 1.2032-0.2688 1.8688-0.4032 1.0688-0.2688 2.1376-0.4032 3.2128-0.672 0.9344-0.1344 1.7344-0.3968 2.6688-0.5312a27.264 27.264 0 0 1 3.2128-0.672c0.9344-0.2688 1.7344-0.3968 2.6752-0.6656 1.0688-0.2688 2.0032-0.5376 3.072-0.8064 0.8064-0.2688 1.7408-0.5312 2.5408-0.8 1.0688-0.2688 2.0032-0.672 3.072-0.9344 0.4032-0.1344 0.9408-0.2688 1.344-0.4032 0.6656-0.1344 1.2032-0.4032 1.8688-0.672 0.4032-0.1344 0.8-0.2624 1.0688-0.3968 1.6-0.5376 3.072-1.0752 4.544-1.6064 0.2688-0.1344 0.5376-0.2688 0.8064-0.2688 1.3376-0.5376 2.5408-1.0688 3.744-1.472a4.928 4.928 0 0 0 1.2032-0.5312l4.416-2.0096c0.128-0.1344 0.256-0.1344 0.5312-0.2688 1.3376-0.6656 2.5408-1.2032 3.744-1.8688 0.3968-0.1344 0.8-0.4032 1.0688-0.5376 1.3376-0.8 2.8096-1.472 4.1408-2.272 0.5376-0.2688 1.0752-0.5376 1.472-0.9408 0.5376-0.2624 0.9408-0.5312 1.344-0.8 0.7936-0.5376 1.4656-0.9344 2.2656-1.472 0.672-0.4032 1.344-0.9344 2.0096-1.3376 0.6656-0.5376 1.472-0.9344 2.1376-1.472 0.6656-0.4032 1.2032-0.9344 1.8688-1.3376 0.672-0.5376 1.344-1.0688 2.0096-1.472 0.5312-0.5312 1.2032-0.9344 1.7344-1.472 0.672-0.5312 1.2032-1.0688 1.7408-1.6 0.2688-0.2688 0.5376-0.4032 0.8-0.672 0.5376-0.4032 0.9408-0.9344 1.344-1.344 0.128-0.128 0.3968-0.256 0.5312-0.5312 0.9344-0.9344 1.7344-1.7344 2.5408-2.6752 0.128-0.2624 0.3968-0.3968 0.5312-0.6656l2.0096-2.4128c0.128-0.128 0.2624-0.3968 0.3968-0.5312 0-0.1344 0.1344-0.1344 0.1344-0.2688a30.848 30.848 0 0 0 1.8752-2.5408c0.128-0.128 0.2624-0.4032 0.3968-0.5376 0.672-0.9344 1.2032-1.8688 1.8752-2.8096 0.128-0.128 0.128-0.2624 0.2688-0.3968 0.2624-0.4032 0.3968-0.672 0.6656-1.0688 0.4032-0.672 0.672-1.2096 1.0688-1.8752 0-0.1344 0-0.1344 0.1344-0.2688 0.5376-1.0688 1.0688-2.1376 1.472-3.2064 0.2688-0.5376 0.5312-1.2096 0.6656-1.7408 0.1344-0.2688 0.1344-0.5376 0.2688-0.8064 0.2688-0.5312 0.4032-1.2032 0.5376-1.7344 0.128-0.5376 0.2624-1.0752 0.5312-1.6064 0.1344-0.672 0.2688-1.2032 0.4032-1.8752 0.128-0.2688 0.128-0.6656 0.2688-0.9344 0.128-0.4032 0.128-0.8064 0.2624-1.2032v-0.4032l0.4032-3.072v-0.4032c0-0.672 0.1344-1.472 0.1344-2.144v-1.0688l0.1344-43.6096c-0.128 0.8064-0.128 1.8752-0.2688 2.944z" fill="#54CCCC" opacity=".75" p-id="24672"></path><path d="M517.2352 552.192v0.4096c-0.128 1.0688-0.2688 2.0032-0.4032 3.072v0.4032c-0.128 0.672-0.2624 1.472-0.3968 2.1376-0.1344 0.672-0.2688 1.2032-0.4032 1.8752-0.128 0.5376-0.2688 1.0688-0.5312 1.6-0.1344 0.5376-0.4032 1.2096-0.5376 1.7472-0.2688 0.8-0.6656 1.7344-0.9344 2.5408a34.1952 34.1952 0 0 1-1.472 3.2064c0 0.1344-0.128 0.1344-0.128 0.2688-0.5376 0.9344-1.0752 2.0096-1.6128 2.944-0.128 0.128-0.128 0.2688-0.2624 0.4032-0.5376 0.9344-1.2032 1.8688-1.8752 2.8096-0.128 0.128-0.2688 0.3968-0.4032 0.5312-0.6656 0.9344-1.3312 1.8752-2.1376 2.816-0.128 0.128-0.2688 0.3968-0.3968 0.5312l-2.0096 2.4064c-0.128 0.2688-0.4032 0.4032-0.5312 0.6656-0.8064 0.9408-1.7408 1.8752-2.5408 2.6752l-0.5376 0.5376c-0.6656 0.672-1.472 1.344-2.1376 2.0096-0.5376 0.5312-1.2032 1.0688-1.7408 1.6-0.5312 0.5376-1.0688 0.9408-1.7344 1.472-0.672 0.5376-1.344 1.0752-2.0096 1.472-0.6656 0.4032-1.2032 0.9408-1.8688 1.344-0.672 0.5312-1.344 0.9344-2.1376 1.472-0.672 0.3968-1.344 0.928-2.0096 1.3312-0.6656 0.5376-1.472 0.9408-2.272 1.472-0.9344 0.5376-1.8688 1.2032-2.944 1.7408-1.3312 0.8-2.6688 1.472-4.1408 2.272-0.4032 0.1344-0.672 0.4032-1.0688 0.5376a48.8448 48.8448 0 0 1-3.744 1.8688c-0.1344 0.1344-0.2688 0.1344-0.5376 0.2688l-4.416 2.0096c-0.3968 0.128-0.8 0.2624-1.1968 0.5312-1.2032 0.5376-2.5408 1.0752-3.744 1.6064-0.2688 0.1344-0.5376 0.2688-0.8064 0.2688-1.472 0.5376-3.072 1.0688-4.544 1.6-0.4032 0.1408-0.8 0.2752-1.0688 0.4096-1.0688 0.3968-2.1376 0.6656-3.2064 1.0688-0.9408 0.2624-2.0096 0.6656-3.072 0.9344-0.8064 0.2688-1.7472 0.5376-2.5472 0.8-1.0688 0.2688-2.0032 0.5376-3.072 0.8064-0.8064 0.2688-1.7408 0.4032-2.6752 0.6656a27.3728 27.3728 0 0 1-3.2128 0.672c-0.9344 0.128-1.7344 0.4032-2.6688 0.5312-1.0752 0.2688-2.144 0.4032-3.2128 0.672-0.9344 0.128-1.8688 0.4032-2.944 0.5376-0.3968 0.128-0.9344 0.128-1.3312 0.2624-1.472 0.2688-2.944 0.5376-4.544 0.672-0.2688 0-0.5376 0.128-0.672 0.128-1.7408 0.2752-3.4752 0.4096-5.216 0.672-0.4032 0-0.8 0.1344-1.3376 0.1344-1.0688 0.1344-2.1376 0.2688-3.2064 0.2688a40.384 40.384 0 0 1-4.0128 0.2688c-0.8 0-1.7408 0.128-2.5408 0.128-1.3376 0.1408-2.8096 0.1408-4.1472 0.2752-0.8 0-1.6 0.128-2.4064 0.128-1.2032 0-2.4064 0-3.6096 0.1344h-8.6848c-1.2096 0-2.4128-0.128-3.616-0.128-0.8 0-1.6 0-2.5344-0.1408-1.344-0.128-2.5408-0.128-3.744-0.2624-0.8064 0-1.472-0.1344-2.2784-0.1344-1.472-0.1344-2.944-0.2688-4.544-0.4032-0.5376 0-0.9344-0.128-1.472-0.128-2.0032-0.2752-4.0128-0.5376-5.8816-0.8064-0.2688 0-0.5376-0.1344-0.9344-0.1344-1.7408-0.2688-3.4752-0.5376-5.0816-0.8064a63.872 63.872 0 0 0-2.1376-0.3968c-1.344-0.2688-2.5408-0.5376-3.8784-0.672-0.672-0.128-1.344-0.2688-2.0096-0.4032-1.3376-0.2624-2.8032-0.6656-4.1408-0.9344-0.8064-0.128-1.472-0.4032-2.272-0.5312-1.2032-0.2688-2.5408-0.672-3.744-0.9408-1.0688-0.2624-2.144-0.5312-3.2128-0.9344l-1.2032-0.4032c-1.6-0.5312-3.2064-0.9344-4.8128-1.472-0.2688-0.128-0.5312-0.2624-0.9344-0.2624-1.3376-0.4032-2.5408-0.9408-3.8784-1.344a9.2288 9.2288 0 0 1-1.3376-0.5312c-1.0688-0.4032-2.0032-0.8064-3.072-1.2032l-2.0096-0.8064c-0.9344-0.3968-1.8688-0.8-2.944-1.3376-0.6656-0.2624-1.1968-0.5312-1.8688-0.8-1.0688-0.5376-2.0032-1.0688-3.072-1.472l-1.6064-0.8c-1.472-0.8064-3.072-1.6064-4.544-2.4128-24.4672-14.176-36.768-32.768-36.768-51.3664l-0.1344 43.6096c0 18.5984 12.16 37.184 36.768 51.3664 1.472 0.8064 2.944 1.6064 4.544 2.4128 0.5376 0.2624 1.0688 0.5312 1.472 0.8 1.0688 0.5376 2.0032 1.0688 3.072 1.472 0.672 0.2688 1.2032 0.5312 1.8752 0.8 0.9344 0.4032 1.8688 0.9408 2.944 1.3376l2.0032 0.8064 2.0032 0.8c0.4032 0.1344 0.672 0.2688 1.0688 0.4032 0.4032 0.1344 0.8064 0.2688 1.344 0.5312 1.3312 0.5376 2.5344 0.9408 3.872 1.3376 0.2688 0.1344 0.5376 0.2688 0.9344 0.2688 1.6064 0.5376 3.2128 1.0688 4.8128 1.472l1.2032 0.4032c0.672 0.2688 1.344 0.4032 2.0096 0.6656 0.4032 0.1344 0.8 0.1344 1.2032 0.2688 1.2032 0.4032 2.5408 0.672 3.744 0.9344 0.8 0.1344 1.472 0.4032 2.272 0.5376 1.3376 0.2688 2.8096 0.672 4.1472 0.9344l1.6 0.4032c0.1344 0 0.2688 0 0.4032 0.1344 1.3376 0.2688 2.5408 0.5376 3.8784 0.672 0.6656 0.128 1.3376 0.2624 2.1376 0.3968 1.7408 0.2688 3.3408 0.5376 5.0816 0.8064 0.2688 0 0.5376 0.1344 0.8 0.1344 2.0096 0.2624 4.0128 0.5312 5.888 0.8 0.5312 0 0.9344 0.1344 1.472 0.1344 1.472 0.1344 2.9376 0.2688 4.544 0.4032h0.128c0.672 0 1.344 0.128 2.144 0.128 1.3376 0.1344 2.5408 0.1344 3.8784 0.2688 0.8 0 1.6 0.1344 2.5408 0.1344 1.2032 0 2.4064 0.1344 3.6096 0.1344h8.6912c1.2032 0 2.4064 0 3.6096-0.1344h0.6656c0.5376 0 1.0688 0 1.7408-0.1344 1.3376 0 2.8032-0.1344 4.1408-0.2688 0.8064 0 1.7408-0.128 2.5408-0.128a40.192 40.192 0 0 1 4.0128-0.2688c0.4032 0 0.9344-0.1344 1.472-0.1344 0.6656 0 1.2032-0.1344 1.8688-0.1344 0.4032 0 0.8064-0.1344 1.344-0.1344 1.728-0.1344 3.4688-0.4032 5.2096-0.6656 0.2688 0 0.5376-0.1344 0.8-0.1344 1.472-0.2688 2.944-0.4032 4.544-0.672 0.4032-0.1344 0.9408-0.1344 1.344-0.2688 0.3968 0 0.6656-0.1344 1.0688-0.1344 0.6656-0.128 1.2032-0.2624 1.8688-0.3968 1.0688-0.2688 2.1376-0.4032 3.2128-0.672 0.9344-0.1344 1.7344-0.4032 2.6688-0.5312a27.264 27.264 0 0 1 3.2128-0.672c0.9344-0.2688 1.7344-0.4032 2.6752-0.6656 1.0688-0.2688 2.0032-0.5376 3.072-0.8064 0.8064-0.2688 1.7408-0.5312 2.5408-0.8 1.0688-0.2688 2.0032-0.672 3.072-0.9408 0.4032-0.128 0.9408-0.2624 1.344-0.3968 0.6656-0.1344 1.2032-0.4032 1.8688-0.672 0.4032-0.1344 0.8-0.2688 1.0688-0.3968 1.6-0.5376 3.072-1.0752 4.544-1.6064 0.2688-0.1344 0.5376-0.2688 0.8064-0.2688 1.3376-0.5376 2.5408-1.0688 3.744-1.472a4.7232 4.7232 0 0 0 1.2032-0.5376l4.416-2.0032c0.128-0.1344 0.256-0.1344 0.5312-0.2688 1.3376-0.6656 2.5408-1.2032 3.744-1.8752 0.3968-0.128 0.8-0.3968 1.0688-0.5312 1.3376-0.8064 2.8096-1.472 4.1408-2.272 0.5376-0.2688 1.0752-0.5376 1.472-0.9408a11.776 11.776 0 0 0 1.344-0.8c0.7936-0.5376 1.4656-0.9408 2.2656-1.472 0.672-0.4032 1.344-0.9344 2.0096-1.344 0.6656-0.5312 1.472-0.928 2.1376-1.4656 0.6656-0.4032 1.2032-0.9344 1.8688-1.344 0.672-0.5312 1.344-1.0624 2.0096-1.4656 0.5312-0.5376 1.2032-0.9344 1.7344-1.472 0.672-0.5376 1.2032-1.0688 1.7408-1.6 0.2688-0.2752 0.5376-0.4032 0.8-0.672 0.5376-0.4032 0.9408-0.9408 1.344-1.344 0.128-0.128 0.3968-0.2624 0.5312-0.5312 0.9344-0.9344 1.7344-1.7408 2.5408-2.6752 0.128-0.2688 0.3968-0.4032 0.5312-0.6656l2.0096-2.4128c0.128-0.128 0.2624-0.3968 0.3968-0.5312 0-0.1344 0.1344-0.1344 0.1344-0.2688a30.848 30.848 0 0 0 1.8752-2.5408c0.128-0.1344 0.2624-0.4032 0.3968-0.5376 0.672-0.9344 1.2032-1.8688 1.8752-2.8096 0.128-0.128 0.128-0.2624 0.2688-0.3968 0.2624-0.4032 0.3968-0.672 0.6656-1.0752 0.4032-0.6656 0.672-1.2032 1.0688-1.8688 0-0.1344 0-0.1344 0.1344-0.2688 0.5376-1.0688 1.0688-2.1376 1.472-3.2128 0.2688-0.5312 0.5312-1.2032 0.6656-1.7344 0.1344-0.2688 0.1344-0.5376 0.2688-0.8064 0.2688-0.5312 0.4032-1.2032 0.5376-1.7344 0.128-0.5376 0.2624-1.0752 0.5312-1.6064 0.1344-0.672 0.2688-1.2032 0.4032-1.8752 0.128-0.2688 0.128-0.6656 0.2688-0.9344 0.128-0.4032 0.128-0.8064 0.2624-1.2032v-0.4032l0.4032-3.072v-0.4096c0-0.6656 0.1344-1.472 0.1344-2.1376v-1.0688l0.1344-43.6096c-0.128 0.8-0.128 1.8752-0.2688 2.944z" fill="#13A08C" p-id="24673"></path><path d="M480.6016 497.6192c48.6656 28.096 48.9344 73.7088 0.5312 101.9328-48.3968 28.096-127.1488 28.096-175.8208 0-48.6656-28.096-48.9344-73.7088-0.5312-101.9328 48.3968-28.096 127.1488-28.096 175.8208 0z" fill="#37BCBD" p-id="24674"></path><path d="M336.3328 516.6144v21.536c0-0.2688-0.2688-0.5312-0.8064-0.9344-5.344-3.4816-10.6944-6.8224-15.9104-10.432-1.472-0.9408-2.1376-2.144-2.1376-3.2128v-21.536c0 1.0688 0.6656 2.272 2.1376 3.2064 5.216 3.4816 10.56 6.9568 15.9104 10.432 0.5376 0.4096 0.8064 0.672 0.8064 0.9408z" fill="#EDEDED" p-id="24675"></path><path d="M336.3328 516.6144v21.536c0-0.2688-0.2688-0.5312-0.8064-0.9344-5.344-3.4816-10.6944-6.8224-15.9104-10.432-1.472-0.9408-2.1376-2.144-2.1376-3.2128v-21.536c0 1.0688 0.6656 2.272 2.1376 3.2064 5.216 3.4816 10.56 6.9568 15.9104 10.432 0.5376 0.4096 0.8064 0.672 0.8064 0.9408z" fill="#EDEDED" p-id="24676"></path><path d="M434.336 529.4592v21.536c0-2.5408-1.6-5.0816-4.6784-6.9568-0.1344 0-0.1344-0.1344-0.2688-0.1344-6.688-3.8784-17.3824-4.416-25.1392-0.128-3.2064 1.728-4.8128 4.4096-4.8128 6.9504v-21.536c0-2.5408 1.6-5.216 4.8128-6.9568 7.7568-4.2816 18.3168-3.744 25.1392 0.128 0.128 0 0.128 0.1408 0.2688 0.1408 3.072 1.8688 4.672 4.416 4.672 6.9568z" fill="#37BCBD" p-id="24677"></path><path d="M434.336 529.4592v21.536c0-2.5408-1.6-5.0816-4.6784-6.9568-0.1344 0-0.1344-0.128-0.2688-0.128-0.8064-0.544-1.7408-0.9408-2.6752-1.344v-21.536c0.9344 0.4032 1.8688 0.8 2.6752 1.3376 0.128 0 0.128 0.128 0.2688 0.128 3.072 1.8752 4.672 4.416 4.672 6.9632zM426.5792 521.0304v21.536a43.392 43.392 0 0 0-2.272-0.8v-21.536c0.8 0.2624 1.6 0.5312 2.272 0.8zM424.3008 520.224v21.5424c-0.6656-0.1344-1.2032-0.2688-1.8688-0.4032v-21.536c0.672 0.128 1.3376 0.2688 1.8752 0.4032z" fill="#37BCBD" p-id="24678"></path><path d="M422.4384 519.8272v21.536a7.8144 7.8144 0 0 0-1.7408-0.2688v-21.536c0.672 0 1.2032 0.128 1.7408 0.2688zM420.6976 519.5584v21.536c-0.5376-0.128-1.0688-0.128-1.6-0.128V519.424c0.5312 0 1.0624 0 1.6 0.1344zM419.0912 519.296v21.5296c-0.5312 0-1.0688-0.128-1.6-0.128v-21.5424c0.5312 0.1344 1.0688 0.1344 1.6 0.1344zM417.3504 519.296v21.5296h-1.7344V519.296h1.7344z" fill="#37BCBD" p-id="24679"></path><path d="M415.7504 519.296v21.5296c-0.6656 0-1.2032 0-1.8688 0.1344V519.424c0.5312-0.128 1.2032-0.128 1.8688-0.128zM413.8752 519.424v21.536c-0.6656 0.1344-1.472 0.1344-2.1376 0.2688v-21.536c0.6656-0.128 1.3376-0.2688 2.1376-0.2688zM411.6032 519.6928v21.536c-1.2032 0.2688-2.272 0.5376-3.3408 0.8v-21.536c1.0688-0.2688 2.272-0.6656 3.3408-0.8zM408.2624 520.4928v21.536c-1.472 0.4032-2.8096 1.0752-4.0128 1.7408-0.128 0.1344-0.2624 0.1344-0.3968 0.2688V522.496c0.128-0.1344 0.2688-0.1344 0.3968-0.2688 1.2032-0.672 2.6752-1.2032 4.0128-1.7408zM403.8528 522.496v21.5424a10.112 10.112 0 0 0-1.8752 1.472V523.968a10.112 10.112 0 0 1 1.8752-1.472z" fill="#37BCBD" p-id="24680"></path><path d="M401.984 523.968v21.5424a6.656 6.656 0 0 0-0.9408 1.0688v-21.536a2.3808 2.3808 0 0 1 0.9344-1.0688zM400.9088 525.0432v21.536a2.912 2.912 0 0 0-0.672 1.0688v-21.536c0.2688-0.4032 0.4032-0.8 0.672-1.0688z" fill="#37BCBD" p-id="24681"></path><path d="M400.2432 525.9776v21.536c-0.1344 0.2688-0.4032 0.672-0.5376 0.9408V526.912a2.1568 2.1568 0 0 0 0.5376-0.9408z" fill="#37BCBD" p-id="24682"></path><path d="M399.8336 527.0528v21.536c-0.128 0.3968-0.2624 0.6656-0.2624 1.0688v-21.536c0-0.4032 0.128-0.8064 0.2624-1.0688zM399.5712 527.9872v21.536c-0.128 0.4032-0.128 0.672-0.128 1.0688v-21.536c0-0.2688 0-0.6656 0.128-1.0688z" fill="#37BCBD" p-id="24683"></path><path d="M481.8048 529.4592l-0.1344 21.536 0.128-21.536z" fill="#949494" p-id="24684"></path><path d="M481.7984 529.728V551.3856 529.728c-0.128 0-0.128 0 0 0z" fill="#A3A3A3" p-id="24685"></path><path d="M481.664 529.728v21.536s0 0.128-0.128 0.128V529.856c0.128 0 0.128 0 0.128-0.128z" fill="#A8A8A8" p-id="24686"></path><path d="M481.536 529.9904v21.536c-0.128 0.1344-0.128 0.2688-0.2688 0.2688v-21.536l0.2688-0.2688z" fill="#ADADAD" p-id="24687"></path><path d="M481.2672 530.2592v21.536l-0.6656 0.672v-21.536l0.6656-0.672z" fill="#B3B3B3" p-id="24688"></path><path d="M336.5952 542.0288v21.5424c0-0.4032-0.5376-0.8064-1.6-1.6064-4.5504-3.3472-6.9568-7.0912-6.9568-11.104v-21.536c0 4.0128 2.4064 7.6224 6.9504 11.104 1.0752 0.8 1.6064 1.2032 1.6064 1.6z" fill="#EDEDED" p-id="24689"></path><path d="M336.5952 542.0288v21.5424c0-0.4032-0.5376-0.8064-1.6-1.6064-4.5504-3.3472-6.9568-7.0912-6.9568-11.104v-21.536c0 4.0128 2.4064 7.6224 6.9504 11.104 1.0752 0.8 1.6064 1.2032 1.6064 1.6z" fill="#EDEDED" p-id="24690"></path><path d="M317.7472 578.5472v-21.536c0 1.2096 0.8 2.4128 2.4064 3.3472 1.2032 0.6656 2.6752 1.2032 4.544 1.3376 10.432 1.3376 20.7232 2.5408 31.1552 3.6096 9.76 0.9408 17.92-0.9344 24.1984-5.4848 2.6752-1.8688 5.4848-3.744 8.1536-5.7472a4.6016 4.6016 0 0 1 3.2128-0.8064 181.76 181.76 0 0 0 48.6656-5.4848c12.9728-3.3408 24.736-7.6224 35.0336-13.2416 2.1376-1.0688 3.744-2.4064 5.4784-3.744v21.536c-1.6 1.3376-3.3408 2.5408-5.4784 3.744-10.2976 5.6192-22.0608 9.9008-35.0336 13.248a171.52 171.52 0 0 1-48.6656 5.4784 6.016 6.016 0 0 0-3.2128 0.8064c-2.6688 1.8688-5.4784 3.744-8.1536 5.7536-6.2848 4.416-14.4384 6.4192-24.1984 5.4784-10.432-0.9344-20.864-2.272-31.1552-3.6096-1.8688-0.2688-3.3408-0.6656-4.544-1.3376-1.6-0.9344-2.4064-2.1376-2.4064-3.3472z" fill="#EDEDED" p-id="24691"></path><path d="M480.5952 530.9312v21.536a46.3488 46.3488 0 0 1-4.1408 2.944v-21.536c1.472-0.9408 2.8032-2.0096 4.1408-2.944zM476.4544 533.8752v21.536c-0.4032 0.2688-0.8 0.5312-1.3376 0.6656a132.3648 132.3648 0 0 1-23.936 10.0352V544.576a144.4864 144.4864 0 0 0 23.936-10.0352c0.4032-0.128 0.8-0.4032 1.3376-0.6656zM451.0464 544.704v21.5424c-3.6096 1.2032-7.2192 2.1376-11.0976 3.2064-4.2752 1.0688-8.4224 2.0096-12.832 2.816V550.72a220.3776 220.3776 0 0 0 12.832-2.8096c3.8784-1.0688 7.6224-2.1376 11.0976-3.2064z" fill="#EDEDED" p-id="24692"></path><path d="M427.2512 550.592v21.536c-4.544 0.8064-9.2288 1.472-13.9072 1.8752v-21.536a157.9904 157.9904 0 0 0 13.9072-1.8752zM413.344 552.6016v21.536c-3.744 0.4032-7.488 0.6656-11.3664 0.8V553.408c3.8784-0.2688 7.7568-0.4032 11.3664-0.8z" fill="#EDEDED" p-id="24693"></path><path d="M402.112 553.2672v21.536c-3.4752 0.1344-6.9504 0.1344-10.432 0v-21.536c3.4816 0.1344 6.9568 0.1344 10.432 0z" fill="#EDEDED" p-id="24694"></path><path d="M391.68 553.408v21.5296h-0.2688V553.408h0.2688z" fill="#EDEDED" p-id="24695"></path><path d="M391.4176 553.408v21.5296h-0.5376V553.408h0.5376z" fill="#EDEDED" p-id="24696"></path><path d="M390.88 553.408v21.5296h-0.3968V553.408h0.4032zM390.4768 553.408v21.5296h-0.3968V553.408h0.3968zM390.08 553.408v21.5296c-0.2688 0-0.4032 0.1344-0.5376 0.1344V553.536c0.1344 0 0.2688 0 0.5376-0.128zM389.4144 553.536v21.536c-0.2688 0.1344-0.672 0.2688-0.9344 0.4032v-21.536c0.3968-0.1344 0.6656-0.2688 0.9344-0.4032z" fill="#EDEDED" p-id="24697"></path><path d="M388.608 553.9392v21.536c-0.128 0-0.128 0.128-0.2688 0.128-2.6688 1.8752-5.4784 3.7504-8.1536 5.76-0.5376 0.3968-1.2032 0.8-1.7408 1.2032V561.024c0.672-0.3968 1.2032-0.8 1.7408-1.2032 2.6752-1.8688 5.4784-3.744 8.1536-5.7472 0 0 0.1344 0 0.2688-0.1344zM378.3104 561.024v21.5424a25.6 25.6 0 0 1-6.144 2.8096V563.84c2.272-0.672 4.2752-1.6064 6.144-2.816zM372.16 563.84v21.536a39.9872 39.9872 0 0 1-4.2752 1.0688v-21.536c1.472-0.1344 2.944-0.5376 4.2752-1.0688zM367.8848 565.0368v21.5424c-0.9344 0.128-2.0032 0.2624-2.944 0.3968V565.44c0.9408-0.128 1.8752-0.2688 2.944-0.4032zM364.8064 565.44v21.536c-0.9344 0.1344-1.7344 0.1344-2.6752 0.1344v-21.536c0.9408 0 1.8752-0.128 2.6752-0.128zM362.1312 565.5744v21.536h-2.6752v-21.536h2.6752z" fill="#EDEDED" p-id="24698"></path><path d="M359.4624 565.5744v21.536c-0.9344 0-1.8752-0.128-2.944-0.128V565.44c1.0688 0 2.0096 0.1344 2.944 0.1344z" fill="#EDEDED" p-id="24699"></path><path d="M356.6528 565.44v21.5424h-0.6656c-10.432-0.9408-20.864-2.2784-31.1552-3.616h-0.2688v-21.536h0.2688c10.432 1.344 20.7232 2.5408 31.1552 3.6096h0.6656zM324.4288 561.696v21.536c-0.2624 0-0.6656-0.128-0.9344-0.128v-21.5424c0.2688 0 0.5376 0.1344 0.9344 0.1344zM323.4944 561.5616v21.536c-0.4032-0.128-0.672-0.128-0.9344-0.2624v-21.5424c0.2624 0.1344 0.5312 0.1344 0.9344 0.2688zM322.4192 561.2928v21.536c-0.3968-0.128-0.6656-0.2624-1.0688-0.3968V560.896c0.4032 0.128 0.8064 0.2624 1.0688 0.3968z" fill="#EDEDED" p-id="24700"></path><path d="M321.3568 560.896v21.536c-0.4032-0.1344-0.8064-0.4032-1.2032-0.5376-1.6064-0.9344-2.4064-2.1376-2.4064-3.3472v-21.536c0 1.2096 0.8 2.4128 2.4064 3.3472a4.7488 4.7488 0 0 0 1.2032 0.5376z" fill="#EDEDED" p-id="24701"></path><path d="M480.5952 530.9312c-1.6 1.3376-3.3408 2.5408-5.4784 3.744-10.2976 5.6192-22.0608 9.8944-35.0336 13.2416a171.52 171.52 0 0 1-48.6656 5.4848 6.016 6.016 0 0 0-3.2128 0.8c-2.6688 1.8752-5.4784 3.7504-8.1536 5.76-6.2848 4.4096-14.4384 6.4128-24.1984 5.4784-10.432-0.9344-20.864-2.272-31.1552-3.6096-1.8752-0.2688-3.3408-0.672-4.544-1.344-2.944-1.7344-3.3472-4.4096-0.4032-6.5472 4.8128-3.3472 9.76-6.6944 14.8416-10.0352 2.5408-1.6 2.5408-1.6 0.2688-3.3408-6.016-4.5504-8.2944-9.632-6.016-15.2512 1.0688-2.944 3.6096-5.3504 6.816-7.6288 0.9344-0.6656 0.8-1.0688-0.128-1.7344-5.3568-3.4816-10.7008-6.8224-15.9168-10.432-4.2752-2.944-1.8688-7.0912 4.8128-8.032 4.6784-0.6656 9.3632-1.2032 13.9072-1.7408a572.0512 572.0512 0 0 1 14.976-1.8688c9.2224-1.2032 17.3824 0.128 24.064 3.8784 4.0128 2.272 7.0848 4.8128 10.432 7.2256 0.128 0.128 0.2624 0.128 0.3968 0.2624a3.8848 3.8848 0 0 0 1.8752 0.4032c18.5856-0.5312 36.096 1.8752 52.9472 6.5536 9.4912 2.5408 18.3168 5.76 26.4704 9.632 2.0096 0.9408 4.0128 2.0096 5.888 3.0784 1.8688 1.0688 3.6096 2.272 5.2096 3.4752 1.6064 1.0752 1.6064 1.2096 0 2.5472z m-76.2112 5.4784c6.9568 4.0192 17.92 4.0192 24.8704 0.1344 6.688-3.744 6.8224-10.2976 0.4032-14.0416-0.1344 0-0.1344-0.1344-0.2688-0.1344-6.688-3.8784-17.3824-4.416-25.1392-0.1344-6.5472 3.6096-6.4128 10.432 0.1344 14.176-0.128 0 0 0 0 0z" fill="#FFFFFF" p-id="24702"></path><path d="M543.4432 274.7584l32.4928-18.8608c1.6 4.416 3.872 7.36 7.0848 11.904l-32.4928 18.8672c-3.2064-4.5504-5.4784-7.488-7.0848-11.904z" fill="#97D1CF" p-id="24703"></path><path d="M543.4432 274.7584l32.4928-18.8608c0.128 0.2688 0.128 0.4032 0.2624 0.672l-32.4864 18.8608c-0.1344-0.2688-0.2688-0.4032-0.2688-0.672zM543.712 275.4304l32.4928-18.8608c0.128 0.2688 0.128 0.4032 0.2624 0.6656l-32.4864 18.8672c-0.1344-0.2688-0.2688-0.4032-0.2688-0.672z" fill="#97D1CF" p-id="24704"></path><path d="M543.84 276.096l32.4928-18.8608c0.1344 0.1344 0.1344 0.4032 0.2688 0.5376l-32.4928 18.8608c0-0.2688-0.128-0.4032-0.2624-0.5312z" fill="#97D1CF" p-id="24705"></path><path d="M544.1088 276.6336l32.4928-18.8608c0.128 0.128 0.128 0.4032 0.2688 0.5376l-32.4928 18.8608c0-0.1344-0.128-0.4032-0.2624-0.5376z" fill="#97D1CF" p-id="24706"></path><path d="M544.384 277.1712l32.4864-18.8608c0.128 0.2624 0.128 0.3968 0.2688 0.6656L544.64 277.8368c0-0.2688-0.128-0.4032-0.2688-0.6656zM544.6464 277.8368l32.4928-18.8608c0.128 0.2688 0.2688 0.4032 0.4032 0.672l-32.4928 18.8608a2.9248 2.9248 0 0 0-0.4032-0.672z" fill="#97D1CF" p-id="24707"></path><path d="M545.0496 278.5088l32.4864-18.8608c0.1344 0.3968 0.4032 0.6656 0.5376 1.0688l-32.3584 18.8608c-0.2624-0.4032-0.3968-0.672-0.6656-1.0688z" fill="#97D1CF" p-id="24708"></path><path d="M545.7152 279.5776l32.4928-18.8608c0.5376 0.8 1.0688 1.6 1.6 2.5408L547.328 282.112a19.3984 19.3984 0 0 1-1.6-2.5408z" fill="#97D1CF" p-id="24709"></path><path d="M547.1872 282.1184l32.4864-18.8608c0.9408 1.472 2.0096 2.944 3.3472 4.544l-32.4928 18.8672a81.024 81.024 0 0 0-3.3408-4.544z" fill="#97D1CF" p-id="24710"></path><path d="M550.528 286.6688l32.4864-18.8672-24.1984 30.368-32.4928 18.9952 24.2048-30.496z" fill="#97D1CF" p-id="24711"></path><path d="M496.64 234.8992l32.4928-18.9952 44.3904 25.6832-32.4864 18.8608-44.3904-25.5488z" fill="#D9F2F2" p-id="24712"></path><path d="M541.0368 260.448l32.4928-18.8608c0.128 4.8128 0.8 10.1696 2.4064 14.3104l-32.4928 18.8608c-1.6-4.2752-2.272-9.4912-2.4064-14.3104z" fill="#97D1CF" p-id="24713"></path><path d="M541.0368 260.448l32.4928-18.8608c0 0.672 0 1.3376 0.128 1.8752l-32.4864 18.8608c-0.1344-0.5376-0.1344-1.2032-0.1344-1.8752z" fill="#97D1CF" p-id="24714"></path><path d="M541.0368 262.3232l32.4928-18.8608c0 0.8 0.128 1.472 0.128 2.272l-32.4864 18.8608c0-0.6656 0-1.472-0.1344-2.272zM541.3056 264.5952l32.4928-18.8608c0 0.6656 0.128 1.2032 0.2624 1.8752l-32.4864 18.8608c-0.1344-0.672-0.2688-1.2096-0.2688-1.8752z" fill="#97D1CF" p-id="24715"></path><path d="M541.44 266.4704l32.4864-18.8608c0 0.5312 0.1344 1.0688 0.2688 1.472l-32.4928 18.8608c-0.128-0.4032-0.128-0.9408-0.2624-1.472z" fill="#97D1CF" p-id="24716"></path><path d="M541.7024 267.9424l32.4928-18.8608c0.1344 0.3968 0.1344 0.9344 0.2688 1.3376l-32.4928 18.8608c-0.128-0.4032-0.2688-0.8064-0.2688-1.344zM541.9712 269.28l32.4928-18.8608c0.128 0.3968 0.128 0.8 0.2688 1.0688l-32.6272 18.9952c0-0.4032-0.128-0.8064-0.128-1.2032z" fill="#97D1CF" p-id="24717"></path><path d="M542.1056 270.4832l32.4928-18.8608c0.128 0.3968 0.128 0.6656 0.2624 0.9344l-32.4864 18.8608c-0.1344-0.2688-0.1344-0.672-0.2688-0.9344zM542.3744 271.4176l32.4928-18.8608c0.128 0.2688 0.128 0.5312 0.2624 0.8l-32.4864 18.8608c-0.1344-0.128-0.1344-0.5312-0.2688-0.8zM542.6432 272.352l32.4864-18.8608c0.1344 0.2688 0.1344 0.5376 0.2688 0.8064L542.912 273.152a1.9008 1.9008 0 0 1-0.2688-0.8064z" fill="#97D1CF" p-id="24718"></path><path d="M542.7712 273.024l32.4928-18.8608c0.1344 0.2688 0.1344 0.4032 0.2688 0.6656l-32.4928 18.8608c-0.128-0.128-0.128-0.3968-0.2624-0.6656z" fill="#97D1CF" p-id="24719"></path><path d="M543.04 273.6896l32.4928-18.8608c0 0.1344 0.128 0.4032 0.2688 0.5376l-32.4928 18.8608c-0.128-0.128-0.128-0.2688-0.2624-0.5376zM543.3088 274.3616l32.4928-18.8608c0 0.128 0.128 0.2688 0.128 0.4032l-32.4864 18.8608c-0.128-0.1344-0.128-0.2688-0.128-0.4032z" fill="#97D1CF" p-id="24720"></path><path d="M543.4432 274.7584c1.6 4.416 3.8784 7.36 7.0848 11.904l-24.1984 30.5024c-10.432-13.1072-18.1824-26.2144-23.264-40.6656-5.216-14.848-7.2192-28.4928-6.4192-41.6l44.256 25.5488c0.2688 4.8128 0.9344 10.0352 2.5408 14.3104z" fill="#FFFFFF" p-id="24721"></path><path d="M554.1376 258.304l32.4928-18.8608c2.0032-1.0688 4.672-0.9344 7.7504 0.8064l-32.4864 18.8608c-3.072-1.7408-5.7536-1.8752-7.7568-0.8z" fill="#D9F2F2" p-id="24722"></path><path d="M554.1376 258.304l32.4928-18.8608 0.8-0.3968-32.4928 18.8608-0.8 0.4032zM555.072 257.9072l32.4928-18.8608c0.2688-0.1344 0.5376-0.1344 0.8-0.2688l-32.4864 18.8608c-0.4032 0.1344-0.672 0.1344-0.8064 0.2688z" fill="#D9F2F2" p-id="24723"></path><path d="M555.744 257.6384l32.4928-18.8608c0.128 0 0.3968-0.128 0.6656-0.128l-32.4928 18.8544c-0.2624 0.1344-0.3968 0.1344-0.6656 0.1344zM556.416 257.6384l32.4864-18.8608h0.5376l-32.4928 18.8608h-0.5376z" fill="#D9F2F2" p-id="24724"></path><path d="M556.9408 257.6384L589.44 238.784h0.5376l-32.4928 18.8608h-0.5376z" fill="#D9F2F2" p-id="24725"></path><path d="M557.4784 257.6384l32.4928-18.8608h0.5376l-32.4928 18.8608h-0.5376z" fill="#D9F2F2" p-id="24726"></path><path d="M557.8816 257.6384l32.4928-18.8608c0.128 0 0.2624 0 0.5312 0.1344l-32.4864 18.8608c-0.1344-0.128-0.4032-0.128-0.5376-0.128z" fill="#D9F2F2" p-id="24727"></path><path d="M558.4192 257.7728l32.4864-18.8608c0.1344 0 0.2688 0 0.4032 0.128l-32.4864 18.8672c-0.1344-0.128-0.2688-0.128-0.4032-0.128z" fill="#D9F2F2" p-id="24728"></path><path d="M558.816 257.7728l32.4928-18.8608c0.128 0 0.2688 0.128 0.4032 0.128l-32.4928 18.8672c-0.128 0-0.2688 0-0.4032-0.128zM559.2192 257.9072l32.4864-18.8608c0.1344 0 0.2688 0.128 0.4032 0.128l-32.4864 18.8672s-0.1344 0-0.4032-0.1344zM559.7568 258.0416l32.4864-18.8608c0.1344 0 0.2688 0.128 0.4032 0.128l-32.4864 18.8672c-0.1344 0-0.2688 0-0.4032-0.1344zM560.1536 258.304l32.4928-18.8544c0.128 0 0.2688 0.128 0.4032 0.128l-32.4928 18.8672c-0.128 0-0.2688-0.1344-0.4032-0.1344z" fill="#D9F2F2" p-id="24729"></path><path d="M560.5568 258.4448l32.4864-18.8608c0.1344 0 0.2688 0.128 0.4032 0.2624l-32.4864 18.8608c0-0.128-0.2688-0.128-0.4032-0.2624zM561.088 258.7072l32.4928-18.8608c0.128 0.1344 0.2624 0.1344 0.3968 0.2688l-32.4864 18.8608c-0.1344-0.128-0.2688-0.2688-0.4032-0.2688z" fill="#D9F2F2" p-id="24730"></path><path d="M561.4912 258.8416l32.4928-18.8608c0.128 0 0.2688 0.1344 0.4032 0.1344l-32.4928 18.8608c-0.128 0-0.2688 0-0.4032-0.128z" fill="#D9F2F2" p-id="24731"></path><path d="M602.0032 265.9328l-32.4864 18.8608c1.8688-1.0688 3.072-3.6096 3.072-7.0912 0-7.0912-4.672-15.1168-10.8288-18.7264l32.4928-18.8608c6.144 3.4752 10.8288 11.6352 10.8288 18.7264 0 3.6096-1.2032 6.016-3.072 7.0912z" fill="#D9F2F2" p-id="24732"></path><path d="M561.8944 259.1232l32.4864-18.8608h0.1344l-32.6208 18.8608z" fill="#D9F2F2" p-id="24733"></path><path d="M562.0224 259.1104l32.4928-18.8608c0.128 0.128 0.2688 0.128 0.5376 0.2688l-32.6272 18.9952-0.4032-0.4032zM562.432 259.5136l32.4864-18.8608c0.1344 0.128 0.2688 0.2688 0.5376 0.2688l-32.4928 18.8608c-0.128-0.1344-0.2688-0.2688-0.5312-0.2688z" fill="#D9F2F2" p-id="24734"></path><path d="M562.9632 259.776l32.4864-18.8608a1.856 1.856 0 0 0 0.5376 0.4032l-32.4928 18.8608c-0.2624-0.128-0.3968-0.2624-0.5312-0.3968z" fill="#D9F2F2" p-id="24735"></path><path d="M563.5008 260.1792l32.4864-18.8608c0.1344 0.1344 0.2688 0.2688 0.5376 0.4032l-32.4928 18.8608a1.8304 1.8304 0 0 1-0.5312-0.4032z" fill="#D9F2F2" p-id="24736"></path><path d="M563.904 260.5824l32.4864-18.8608c0.128 0.128 0.2688 0.2688 0.5312 0.4032l-32.4864 18.8608c-0.1344-0.1344-0.2688-0.2688-0.5376-0.4032z" fill="#D9F2F2" p-id="24737"></path><path d="M564.4352 260.9856l32.4928-18.8608c0.128 0.128 0.2624 0.2624 0.5312 0.3968l-32.4864 18.8672c-0.1344-0.1344-0.4032-0.2688-0.5376-0.4032z" fill="#D9F2F2" p-id="24738"></path><path d="M564.9664 261.3824l32.4928-18.8608c0.128 0.1344 0.2688 0.2688 0.5312 0.4032l-32.4864 18.8608c-0.2688-0.128-0.4032-0.2688-0.5376-0.4032z" fill="#D9F2F2" p-id="24739"></path><path d="M565.3696 261.7856l32.4864-18.8608 0.4032 0.4032-32.4864 18.8608c0-0.1344-0.1344-0.2688-0.4032-0.4032zM565.9072 262.3232l32.4864-18.8608 0.4032 0.3968-32.4928 18.8608-0.3968-0.3968z" fill="#D9F2F2" p-id="24740"></path><path d="M566.304 262.72l32.4928-18.8608 0.4032 0.4032-32.4928 18.8608-0.4032-0.4032z" fill="#D9F2F2" p-id="24741"></path><path d="M566.7072 263.1232l32.4864-18.8608c0.1344 0.128 0.2688 0.2688 0.4032 0.5376l-32.4928 18.8608a1.856 1.856 0 0 1-0.3968-0.5376zM567.1104 263.6608l32.4928-18.8608c0.128 0.128 0.2624 0.2624 0.3968 0.5312l-32.4864 18.8608c-0.1344-0.128-0.2688-0.3968-0.4032-0.5312z" fill="#D9F2F2" p-id="24742"></path><path d="M567.5136 264.192l32.4864-18.8608c0.1344 0.2688 0.2688 0.4032 0.5376 0.672l-32.4928 18.8608c-0.128-0.2688-0.2688-0.5376-0.5312-0.672z" fill="#D9F2F2" p-id="24743"></path><path d="M568.0448 264.7296l32.4864-18.8608c0.2688 0.2688 0.4032 0.6656 0.672 0.9344L568.704 265.664c-0.2688-0.2688-0.4032-0.5376-0.6656-0.9344zM568.7104 265.664l32.4928-18.8608 0.8 1.2032-32.4864 18.8608-0.8064-1.2032zM569.5104 267.008l32.4928-18.8672c0.128 0.2688 0.4032 0.672 0.5376 0.9408l-32.4928 18.8608c-0.2688-0.4032-0.4032-0.672-0.5376-0.9408z" fill="#D9F2F2" p-id="24744"></path><path d="M569.92 267.808l32.4864-18.8608c0.128 0.2624 0.2688 0.3968 0.2688 0.6656L570.176 268.48c0-0.128-0.128-0.4032-0.2688-0.6656zM570.3168 268.48l32.4928-18.8672c0.128 0.1344 0.128 0.4032 0.2624 0.5376l-32.4864 18.8608c-0.1344-0.1344-0.1344-0.4032-0.2688-0.5376z" fill="#D9F2F2" p-id="24745"></path><path d="M570.5856 269.0112l32.4928-18.8608c0.128 0.128 0.128 0.4032 0.2624 0.5312l-32.4864 18.8672a1.0112 1.0112 0 0 1-0.2688-0.5376z" fill="#D9F2F2" p-id="24746"></path><path d="M570.848 269.5488l32.4928-18.8672c0.128 0.1344 0.128 0.2688 0.2688 0.5376L571.1168 270.08c-0.128-0.2688-0.2688-0.4032-0.2688-0.5376z" fill="#D9F2F2" p-id="24747"></path><path d="M570.9888 270.08l32.4864-18.8608c0.1344 0.128 0.1344 0.4032 0.2688 0.5376l-32.4928 18.8608c-0.128-0.2688-0.128-0.4032-0.2624-0.5376z" fill="#D9F2F2" p-id="24748"></path><path d="M571.2512 270.6176l32.4928-18.8608c0.128 0.128 0.128 0.3968 0.128 0.5312l-32.4864 18.8608c0-0.2688-0.1344-0.4032-0.1344-0.5312z" fill="#D9F2F2" p-id="24749"></path><path d="M571.392 271.0144l32.4864-18.8608c0 0.1344 0.128 0.4032 0.128 0.5376l-32.352 18.8608c-0.128-0.128-0.128-0.2688-0.2688-0.5376zM571.6544 271.552l32.4928-18.8608c0 0.128 0.128 0.4032 0.128 0.5376l-32.4864 18.8608c-0.1344-0.1344-0.1344-0.2688-0.1344-0.5376zM571.7888 272.2176l32.4864-18.8608c0 0.1344 0.1344 0.4032 0.1344 0.5376l-32.4864 18.8608c0-0.2688-0.1344-0.4032-0.1344-0.5376z" fill="#D9F2F2" p-id="24750"></path><path d="M571.9168 272.7552l32.4928-18.8608c0 0.128 0.128 0.4032 0.128 0.5312l-32.4864 18.8672c0-0.1344 0-0.4032-0.128-0.5376zM572.0512 273.2928l32.4928-18.8672c0 0.1344 0.1344 0.4032 0.1344 0.5376l-32.4928 18.8608c0-0.128 0-0.2688-0.128-0.5312z" fill="#D9F2F2" p-id="24751"></path><path d="M572.1856 273.824l32.4928-18.8608c0 0.1344 0.128 0.4032 0.128 0.5376l-32.4864 18.8608c0-0.128 0-0.2688-0.128-0.5376zM572.32 274.496l32.4928-18.8608c0 0.128 0.1344 0.4032 0.1344 0.5312l-32.4928 18.8608c0-0.128-0.128-0.3968-0.128-0.5312z" fill="#D9F2F2" p-id="24752"></path><path d="M572.4544 275.0272l32.4928-18.8608c0 0.1344 0 0.4032 0.128 0.5376l-32.6208 18.8608v-0.5376z" fill="#D9F2F2" p-id="24753"></path><path d="M572.4544 275.5648l32.4928-18.8608v0.5312l-32.4928 18.8672c0.1344-0.1344 0.1344-0.2688 0-0.5376zM572.5888 276.096l32.4864-18.8608v0.5376l-32.4864 18.8608v-0.5312zM572.5888 276.768l32.4864-18.8608v0.5376l-32.4864 18.8608v-0.5376z" fill="#D9F2F2" p-id="24754"></path><path d="M572.5888 277.3056l32.4864-18.8608v0.5312l-32.4864 18.8608c0.128-0.2688 0-0.4032 0-0.5312z" fill="#D9F2F2" p-id="24755"></path><path d="M572.5888 277.8368l32.4864-18.8608v0.5376l-32.4864 18.8608v-0.5376z" fill="#D9F2F2" p-id="24756"></path><path d="M572.5888 278.3744l32.4864-18.8608v0.5312l-32.4864 18.8672v-0.5376zM572.5888 278.912l32.4864-18.8608v0.5312l-32.4864 18.8608v-0.5312zM572.5888 279.4432l32.4928-18.8608c0 0.128 0 0.4032-0.1344 0.5376l-32.4928 18.8608c0-0.1344 0.1344-0.2688 0.1344-0.5376z" fill="#D9F2F2" p-id="24757"></path><path d="M572.4544 279.9808l32.4928-18.8608c0 0.128-0.128 0.3968-0.128 0.5312l-32.4992 18.8608c0.1344-0.128 0.1344-0.2688 0.1344-0.5312z" fill="#D9F2F2" p-id="24758"></path><path d="M572.32 280.512l32.4928-18.8608c0 0.1344-0.1344 0.4032-0.1344 0.5376l-32.4928 18.8608c0.1344-0.128 0.1344-0.2688 0.1344-0.5376zM572.1856 281.184l32.4928-18.8608c0 0.2624-0.128 0.3968-0.128 0.5312l-32.4992 18.8608c0-0.128 0.1344-0.3968 0.1344-0.5312z" fill="#D9F2F2" p-id="24759"></path><path d="M572.0576 281.7152l32.4864-18.8608c-0.128 0.2688-0.128 0.4032-0.2688 0.672l-32.4864 18.8608c0-0.2688 0.128-0.4032 0.2688-0.672z" fill="#D9F2F2" p-id="24760"></path><path d="M571.7888 282.3872l32.4864-18.8608c-0.128 0.2688-0.2624 0.5312-0.3968 0.6656l-32.4928 18.8608c0.1344-0.2624 0.2688-0.3968 0.4032-0.6656z" fill="#D9F2F2" p-id="24761"></path><path d="M571.392 283.0528l32.4864-18.8608a5.3888 5.3888 0 0 1-1.7408 1.7408l-32.4864 18.8608a5.3888 5.3888 0 0 0 1.7344-1.7408z" fill="#D9F2F2" p-id="24762"></path><path d="M561.8944 259.1104c6.144 3.4816 10.8288 11.6352 10.8288 18.7264s-4.6784 9.7664-10.8288 6.1568c-6.1504-3.4816-10.8352-11.6416-10.8352-18.7328 0-6.8224 4.6848-9.76 10.8352-6.1504z" fill="#FFFFFF" p-id="24763"></path><path d="M572.992 299.6416l32.4864-18.8608 2.0096-0.4032-32.4928 18.8608-2.0096 0.4032z" fill="#8F8F8F" p-id="24764"></path><path d="M574.9952 299.2384l32.4928-18.8608c0.6656-0.128 1.3376-0.2688 1.8688-0.5312l-32.4928 18.9952c-0.5312 0.128-1.2032 0.2624-1.8688 0.3968z" fill="#8A8A8A" p-id="24765"></path><path d="M576.864 298.8416l32.4928-18.8672a4.7488 4.7488 0 0 0 1.2032-0.5312l-32.4928 18.8608c-0.3968 0.128-0.8 0.4032-1.2032 0.5376z" fill="#858585" p-id="24766"></path><path d="M643.1808 334.8224l-32.4864 18.8608a27.2448 27.2448 0 0 0 9.6256-9.4976c5.3504-8.4224 7.36-19.6608 6.688-33.9776l32.4864-18.8608c0.8064 14.3168-1.3376 25.5488-6.6816 33.984a27.264 27.264 0 0 1-9.632 9.4912z" fill="#97D1CF" p-id="24767"></path><path d="M627.008 310.08l32.4864-18.8672c0 0.9408 0.1344 1.7408 0.1344 2.6752l-32.4864 18.8608c-0.1344-0.8-0.1344-1.7344-0.1344-2.6688z" fill="#97D1CF" p-id="24768"></path><path d="M627.136 312.7488l32.4928-18.8608v3.4816L627.136 316.224v-3.4816zM627.136 316.2304l32.4928-18.8608c0 1.0688 0 2.1376-0.1344 3.2128l-32.4864 18.8608c0.128-1.0752 0.128-2.144 0.128-3.2128z" fill="#97D1CF" p-id="24769"></path><path d="M627.008 319.4432l32.4864-18.8608c0 1.0688-0.1344 2.0032-0.1344 3.072l-32.4928 18.8608c0.1344-1.0688 0.1344-2.0032 0.1344-3.072zM626.8736 322.5152l32.4864-18.8608c-0.128 0.9408-0.128 2.0096-0.2624 2.944l-32.4928 18.8608c0.1344-1.0688 0.1344-2.0032 0.2688-2.944z" fill="#97D1CF" p-id="24770"></path><path d="M626.6048 325.4592l32.4928-18.8608-0.4032 2.816-32.4928 18.8544 0.4032-2.8096z" fill="#97D1CF" p-id="24771"></path><path d="M626.2016 328.2688l32.4928-18.8608c-0.1344 0.9344-0.4032 1.8752-0.5376 2.8096l-32.4864 18.8608c0.128-0.9344 0.2624-1.8752 0.5312-2.8096z" fill="#97D1CF" p-id="24772"></path><path d="M625.536 331.0784l32.4864-18.8608c-0.2624 0.9344-0.5312 2.0032-0.8 2.944l-32.4928 18.8608a10.624 10.624 0 0 0 0.8064-2.944zM624.864 334.016l32.4928-18.8544c-0.2688 1.0688-0.672 2.0032-0.9344 2.944l-32.4928 18.8608c0.2688-0.9408 0.672-1.8752 0.9344-2.944z" fill="#97D1CF" p-id="24773"></path><path d="M623.8016 336.96l32.4864-18.8544c-0.4032 1.0688-0.9344 2.272-1.3376 3.2064l-32.4864 18.8608c0.5312-0.9344 0.9344-2.0032 1.3376-3.2064zM622.464 340.3072l32.4864-18.8608c-0.672 1.3376-1.3376 2.6752-2.1376 3.8784-0.1344 0.2688-0.2688 0.4032-0.4032 0.672l-32.4928 18.8608c0.1344-0.2688 0.2688-0.4032 0.4032-0.672 0.8-1.3376 1.472-2.5408 2.1376-3.8784z" fill="#97D1CF" p-id="24774"></path><path d="M619.9168 344.8576l32.4928-18.8608a25.7536 25.7536 0 0 1-9.2224 8.96l-32.4928 18.8608c3.744-2.272 6.816-5.0816 9.2224-8.96z" fill="#97D1CF" p-id="24775"></path><path d="M582.6176 284.5248l32.4928-18.8608 44.3904 25.5488-32.4928 18.8608-44.3904-25.5488z" fill="#D9F2F2" p-id="24776"></path><path d="M627.008 310.08c0.8 14.3104-1.344 25.5488-6.688 33.9712-5.0816 8.5632-13.1008 12.7104-23.3984 13.7792l-23.936-58.1888c3.4816-0.5376 5.7536-0.9344 7.2256-3.6096 1.6-2.4064 2.272-6.9568 2.5408-11.5072l44.256 25.5488z" fill="#FFFFFF" p-id="24777"></path><path d="M529.1328 186.0736l32.4928-18.8608c10.2976-1.3376 20.7232 0.9344 31.9552 7.36 11.232 6.5536 21.7984 16.5824 31.8208 29.4272l-32.4864 18.8608c-10.0288-12.8448-20.5952-23.008-31.8208-29.4272-11.232-6.4256-21.664-8.6976-31.9616-7.36z" fill="#D9F2F2" p-id="24778"></path><path d="M529.1328 186.0736l32.4928-18.8608c0.672-0.1344 1.3376-0.1344 1.8752-0.2688l-32.4928 18.9952c-0.5376 0-1.2032 0.128-1.8752 0.128z" fill="#D9F2F2" p-id="24779"></path><path d="M531.008 185.9392l32.4864-18.8608c1.2032-0.1344 2.4064-0.1344 3.744-0.1344l-32.4864 18.8608c-1.2096-0.128-2.4128 0-3.744 0.1344z" fill="#D9F2F2" p-id="24780"></path><path d="M534.752 185.6704l32.4928-18.8608c1.0688 0 2.1376 0 3.2064 0.128l-32.4864 18.8672c-1.0688 0-2.144-0.128-3.2128-0.128z" fill="#D9F2F2" p-id="24781"></path><path d="M537.8304 185.8048l32.4864-18.8608c0.9408 0 1.8752 0.128 2.8096 0.2688l-32.4928 18.8608c-0.9344-0.1344-1.8688-0.1344-2.8032-0.2688zM540.6336 186.0736l32.4928-18.8608 2.5408 0.3968-32.4928 18.8672c-0.8-0.1344-1.6-0.2688-2.5408-0.4032zM543.3088 186.4768l32.4928-18.8672c0.8 0.1344 1.6 0.4032 2.4064 0.5376l-32.4928 18.8608c-0.8-0.128-1.6-0.2688-2.4064-0.5312z" fill="#D9F2F2" p-id="24782"></path><path d="M545.7152 187.008l32.4928-18.8608c0.8 0.128 1.6 0.4032 2.272 0.672l-32.4928 18.8608a20.6208 20.6208 0 0 1-2.272-0.672z" fill="#D9F2F2" p-id="24783"></path><path d="M547.9872 187.68l32.4864-18.8608c0.8064 0.2624 1.472 0.5312 2.2784 0.8l-32.4928 18.8608a43.4496 43.4496 0 0 0-2.272-0.8z" fill="#D9F2F2" p-id="24784"></path><path d="M550.2592 188.48l32.4928-18.8608c0.8 0.2688 1.472 0.5376 2.272 0.8l-32.4928 18.8608c-0.8-0.2624-1.472-0.5312-2.272-0.8zM552.5376 189.28l32.4864-18.8608c0.672 0.2688 1.472 0.672 2.272 0.9408l-32.4864 18.8608c-0.8064-0.2688-1.6-0.672-2.272-0.9408z" fill="#D9F2F2" p-id="24785"></path><path d="M554.6752 190.2208l32.4864-18.8608c0.8064 0.2688 1.472 0.6656 2.2784 1.0688l-32.4928 18.8608c-0.8064-0.4032-1.472-0.6656-2.272-1.0688z" fill="#D9F2F2" p-id="24786"></path><path d="M556.9472 191.2896l32.4928-18.8608c0.8 0.4032 1.472 0.8 2.272 1.2032l-32.4928 18.8608c-0.8-0.4032-1.472-0.8-2.272-1.2032z" fill="#D9F2F2" p-id="24787"></path><path d="M559.2192 192.4928l32.4864-18.8608c0.5376 0.2688 1.2032 0.672 1.7408 1.0688 0.128 0.1344 0.4032 0.2688 0.5376 0.2688l-32.4928 18.8608a1.0112 1.0112 0 0 0-0.5376-0.2688c-0.5312-0.3968-1.0688-0.8-1.7344-1.0688z" fill="#D9F2F2" p-id="24788"></path><path d="M561.4912 193.8304l32.4928-18.8608c0.8 0.4032 1.472 0.9344 2.272 1.3376l-32.4928 18.8608c-0.6656-0.5376-1.472-0.9344-2.272-1.3376z" fill="#D9F2F2" p-id="24789"></path><path d="M563.7632 195.168l32.4928-18.8608c0.8 0.5376 1.472 0.9344 2.272 1.472l-32.4864 18.8608c-0.672-0.5376-1.472-0.9344-2.2784-1.472z" fill="#D9F2F2" p-id="24790"></path><path d="M566.0352 196.64l32.4928-18.8608c0.8 0.5376 1.6 1.0688 2.4064 1.7408l-32.4928 18.8608a27.1168 27.1168 0 0 0-2.4064-1.7408z" fill="#D9F2F2" p-id="24791"></path><path d="M568.448 198.3808l32.4864-18.8608c0.8 0.5312 1.6 1.2032 2.4064 1.8688l-32.4928 18.8608c-0.8-0.6656-1.6-1.3376-2.4064-1.8688z" fill="#D9F2F2" p-id="24792"></path><path d="M570.8544 200.256l32.4864-18.8672c0.8064 0.672 1.7408 1.344 2.5408 2.0096l-32.4864 18.8608c-0.8064-0.672-1.6-1.344-2.5408-2.0096zM573.3952 202.2592l32.4864-18.8608c0.8064 0.6656 1.7408 1.472 2.5408 2.272l-32.4864 18.8608c-0.8064-0.8-1.6064-1.472-2.5408-2.272zM576.064 204.5312l32.4928-18.8608c0.9344 0.8064 1.7408 1.6 2.6752 2.4064l-32.4928 18.8608a48.2176 48.2176 0 0 1-2.6752-2.4064z" fill="#D9F2F2" p-id="24793"></path><path d="M578.6048 206.9376l32.4928-18.8608c0.9344 0.8064 1.7344 1.7408 2.6752 2.6752l-32.4928 18.8608c-0.8-0.9344-1.7408-1.7344-2.6752-2.6752z" fill="#D9F2F2" p-id="24794"></path><path d="M581.28 209.6128l32.4928-18.8608c0.9344 0.9408 1.7344 1.8752 2.6688 2.816l-32.4864 18.8544c-0.9344-0.9344-1.7408-1.8688-2.6752-2.8096z" fill="#D9F2F2" p-id="24795"></path><path d="M583.9552 212.4224l32.4928-18.8608c0.9344 0.9344 1.7344 2.0096 2.6688 2.944l-32.4864 18.8608c-0.9408-1.0688-1.7408-2.0032-2.6752-2.944z" fill="#D9F2F2" p-id="24796"></path><path d="M586.624 215.3664l32.4992-18.8608c0.9344 1.0688 1.8688 2.1376 2.6688 3.2128l-32.4864 18.8608c-0.9344-1.2032-1.7408-2.272-2.6752-3.2128z" fill="#D9F2F2" p-id="24797"></path><path d="M589.3056 218.5792l32.4864-18.8608c0.9408 1.2032 2.0096 2.4064 2.944 3.6096l-32.4928 18.8608a26.5152 26.5152 0 0 0-2.944-3.6096zM592.2432 222.1888l32.4928-18.8608c0.128 0.2688 0.3968 0.5376 0.5312 0.8l-32.352 18.7328-0.672-0.672z" fill="#D9F2F2" p-id="24798"></path><path d="M592.9152 222.8608l32.352-18.8608-20.7232 33.1712-32.4864 18.8608 20.8576-33.1712z" fill="#97D1CF" p-id="24799"></path><path d="M561.088 246.1376c-3.2-1.8752-5.4784-1.6064-9.2224-1.7408l-22.7328-58.3232c10.304-1.344 20.7296 0.9344 31.9552 7.36 11.232 6.5536 21.7984 16.5824 31.8272 29.4272l-20.7296 33.1712c-3.7376-4.1472-7.616-7.8912-11.0912-9.8944z" fill="#FFFFFF" p-id="24800"></path><path d="M642.6496 758.2016l31.0208-18.0608c1.472-0.9344 3.6096-0.8 5.8816 0.5376l-31.0208 18.0608c-2.272-1.3376-4.4096-1.472-5.8816-0.5376z" fill="#13A08C" p-id="24801"></path><path d="M642.6496 758.2016l31.0208-18.0608c0.2688-0.128 0.4032-0.2624 0.6656-0.2624l-31.0144 18.0544a1.024 1.024 0 0 0-0.672 0.2688z" fill="#13A08C" p-id="24802"></path><path d="M643.3216 757.9328l31.0144-18.0544c0.1344 0 0.4032-0.1344 0.5376-0.1344l-31.0208 18.0608c-0.1344 0-0.3968 0-0.5312 0.128z" fill="#13A08C" p-id="24803"></path><path d="M643.8592 757.6704l31.0144-18.0608c0.1344 0 0.2688 0 0.5376-0.1344l-31.0208 18.0608c-0.1344 0.1344-0.4032 0.1344-0.5312 0.1344zM644.3904 757.6704l31.0208-18.0608h0.3968l-31.0208 18.0608h-0.3968z" fill="#13A08C" p-id="24804"></path><path d="M644.7872 757.6704l31.0208-18.0608h0.4032l-31.0208 18.0608h-0.4032zM645.1968 757.6704l31.0144-18.0608h0.4032l-31.0208 18.0608h-0.3968z" fill="#13A08C" p-id="24805"></path><path d="M645.5936 757.6704l31.0208-18.0608h0.4032l-31.0208 18.0608h-0.4032zM645.8624 757.8048l31.0208-18.0608c0.1344 0 0.2624 0 0.3968 0.1344l-31.0144 18.0544c-0.1344-0.128-0.2688-0.128-0.4032-0.128z" fill="#13A08C" p-id="24806"></path><path d="M646.2656 757.8048l31.0144-18.0608c0.1344 0 0.2688 0 0.4032 0.1344l-31.0208 18.0544c-0.1344 0-0.2688-0.128-0.3968-0.128z" fill="#13A08C" p-id="24807"></path><path d="M646.528 757.9328l31.0208-18.0544c0.1344 0 0.2624 0.1344 0.2624 0.1344l-31.0144 18.0544c0-0.1344-0.1344-0.1344-0.2688-0.1344zM646.9312 758.0672l31.0208-18.0608c0.1344 0 0.2688 0.1344 0.2688 0.1344l-31.0208 18.0608c-0.1344-0.1344-0.1344-0.1344-0.2688-0.1344z" fill="#13A08C" p-id="24808"></path><path d="M647.1936 758.2016l31.0208-18.0608c0.1344 0 0.2688 0.1344 0.2688 0.1344l-31.0208 18.0608c0-0.1344-0.1344-0.1344-0.2688-0.1344zM647.5968 758.336l31.0208-18.0608c0.1344 0 0.2688 0.1344 0.2688 0.1344l-31.0208 18.0608c-0.1344-0.1344-0.1344-0.1344-0.2688-0.1344z" fill="#13A08C" p-id="24809"></path><path d="M647.8656 758.4704l31.0208-18.0608c0.128 0 0.2624 0.1344 0.3968 0.1344l-31.0208 18.0608c-0.128 0-0.2624-0.1344-0.3968-0.1344zM648.2688 758.6048l31.0208-18.0608c0.1344 0 0.1344 0.1344 0.2688 0.1344l-31.0208 18.0608c-0.1344 0-0.2688-0.1344-0.2688-0.1344z" fill="#13A08C" p-id="24810"></path><path d="M648.5312 758.7392l31.0208-18.0608 30.8864 17.9264-31.0208 18.0544-30.8864-17.92z" fill="#13A08C" p-id="24811"></path><path d="M696 750.5792l31.0144-18.0608-0.128 54.4448-31.0208 18.0608 0.1344-54.4448zM681.9584 735.7312l31.0208-18.0608c1.472-0.9344 3.6096-0.8064 5.8816 0.5312l-31.0144 18.0608c-2.2784-1.3376-4.416-1.3376-5.888-0.5312z" fill="#13A08C" p-id="24812"></path><path d="M681.9584 735.7248l31.0208-18.0544c0.2688-0.1344 0.4032-0.2688 0.672-0.2688l-31.0208 18.0608a1.056 1.056 0 0 0-0.672 0.2624z" fill="#13A08C" p-id="24813"></path><path d="M682.6304 735.4624l31.0208-18.0608c0.1344 0 0.3968-0.1344 0.5312-0.1344l-31.0208 18.0608c-0.128 0-0.3968 0-0.5312 0.1344z" fill="#13A08C" p-id="24814"></path><path d="M683.168 735.328l31.0208-18.0608c0.128 0 0.2624 0 0.5312-0.1344l-31.0208 18.0608c-0.2624 0-0.3968 0-0.5312 0.1344z" fill="#13A08C" p-id="24815"></path><path d="M683.6992 735.1936l31.0208-18.0608h0.3968l-31.0144 18.0608h-0.4032zM684.1024 735.1936l31.0144-18.0608h0.4032l-31.0208 18.0608h-0.3968z" fill="#13A08C" p-id="24816"></path><path d="M684.5056 735.1936l31.0144-18.0608h0.4032l-31.0208 18.0608h-0.3968z" fill="#13A08C" p-id="24817"></path><path d="M684.768 735.1936l31.0208-18.0608h0.3968l-31.0144 18.1952c-0.1344-0.1344-0.2688-0.1344-0.4032-0.1344zM685.1712 735.328l31.0144-18.0608c0.1344 0 0.2688 0 0.4032 0.1344l-31.0208 18.0608c-0.1344-0.1344-0.2624-0.1344-0.3968-0.1344z" fill="#13A08C" p-id="24818"></path><path d="M685.5744 735.328l31.0144-18.0608c0.1344 0 0.2688 0 0.4032 0.1344l-31.0208 18.0608c-0.2624 0-0.2688-0.1344-0.3968-0.1344z" fill="#13A08C" p-id="24819"></path><path d="M685.8368 735.4624l31.0208-18.0608c0.1344 0 0.2688 0.1344 0.2688 0.1344l-31.0208 18.0608c0-0.1344-0.1344-0.1344-0.2688-0.1344zM686.24 735.5968l31.0208-18.0608c0.1344 0 0.2688 0.1344 0.2688 0.1344l-31.0208 18.0608c-0.1344-0.1344-0.1344-0.1344-0.2688-0.1344z" fill="#13A08C" p-id="24820"></path><path d="M686.5024 735.7248l31.0208-18.0544c0.1344 0 0.2688 0.1344 0.2688 0.1344l-31.0208 18.0544c0-0.1344-0.1344-0.1344-0.2688-0.1344zM686.912 735.8592l31.0144-18.0544c0.1344 0 0.2688 0.1344 0.2688 0.1344l-31.0208 18.0544c-0.1344-0.1344-0.2624-0.1344-0.2624-0.1344z" fill="#13A08C" p-id="24821"></path><path d="M687.1744 735.9936l31.0208-18.0544c0.1344 0 0.2688 0.1344 0.3968 0.1344l-31.0144 18.0544c-0.1344 0-0.2688-0.1344-0.4032-0.1344z" fill="#13A08C" p-id="24822"></path><path d="M687.5776 736.128l31.0144-18.0608c0.1344 0 0.1344 0.1344 0.2688 0.1344l-31.0208 18.0608c-0.1344 0-0.2624 0-0.2624-0.1344zM687.8464 736.2624l31.0144-18.0608c4.5504 2.6816 8.16 8.9664 8.16 14.1824l-31.0208 18.0608c0-5.088-3.6096-11.5072-8.1536-14.1824z" fill="#13A08C" p-id="24823"></path><path d="M687.8464 736.2624l31.0144-18.0608h0.1344l-31.1488 18.0608c0 0.1344 0 0 0 0zM687.8464 736.3968l31.0144-18.0608c0.1344 0.1344 0.2688 0.1344 0.4032 0.2688l-31.0208 18.0608c-0.1344-0.1344-0.2688-0.2688-0.3968-0.2688z" fill="#13A08C" p-id="24824"></path><path d="M688.2432 736.5312l31.0208-18.0608c0.1344 0.1344 0.2688 0.1344 0.4032 0.2688l-31.0208 18.0608c-0.134" fill="#13A08C" p-id="24825"></path></svg>