<svg width="28" height="28" viewBox="0 0 28 28" fill="none" xmlns="http://www.w3.org/2000/svg">
<rect width="28" height="28" rx="4" fill="#7142F8"/>
<path d="M12.6148 9.16701C12.6524 9.2446 12.6777 9.32761 12.6898 9.41302L12.8983 12.518L13.0018 14.0788C13.0026 14.2394 13.0279 14.399 13.0768 14.552C13.202 14.8498 13.5028 15.0388 13.8305 15.0253L18.8233 14.699C19.04 14.6953 19.2485 14.7763 19.4038 14.924C19.5335 15.0463 19.6168 15.2075 19.6438 15.38L19.652 15.485C19.4458 18.3463 17.3443 20.7328 14.489 21.3485C11.6345 21.9643 8.70652 20.663 7.29577 18.1513C6.88945 17.4234 6.63507 16.6207 6.54801 15.7917C6.51202 15.547 6.49622 15.2996 6.50076 15.0523C6.49626 11.9848 8.68027 9.33275 11.738 8.69375C12.1063 8.63601 12.467 8.831 12.6148 9.16625V9.16701Z" fill="white"/>
<path d="M14.6524 6.49999C18.0724 6.58774 20.9464 9.04699 21.4999 12.359L21.4947 12.3837L21.4797 12.419L21.4819 12.5165C21.4738 12.647 21.4232 12.7713 21.3379 12.8705C21.2483 12.9751 21.1264 13.0469 20.9914 13.0745L20.9089 13.0857L15.1489 13.4592C15.0544 13.4687 14.959 13.4584 14.8686 13.4291C14.7782 13.3998 14.6949 13.3521 14.6239 13.289C14.5062 13.1847 14.4294 13.042 14.4072 12.8862L14.0209 7.13375C14.0142 7.11432 14.0142 7.09317 14.0209 7.07374C14.0237 6.99494 14.0422 6.91748 14.0754 6.84598C14.1087 6.77448 14.1559 6.71038 14.2144 6.65749C14.3339 6.54928 14.4914 6.49267 14.6524 6.49999Z" fill="white"/>
</svg>
