<svg width="28" height="28" viewBox="0 0 28 28" fill="none" xmlns="http://www.w3.org/2000/svg">
<rect width="28" height="28" rx="4" fill="#FFA900"/>
<path d="M12.25 5.5C12.3163 5.5 12.3799 5.52634 12.4268 5.57322C12.4737 5.62011 12.5 5.6837 12.5 5.75V9.5H15.5V5.75C15.5 5.6837 15.5263 5.62011 15.5732 5.57322C15.6201 5.52634 15.6837 5.5 15.75 5.5H17.25C17.3163 5.5 17.3799 5.52634 17.4268 5.57322C17.4737 5.62011 17.5 5.6837 17.5 5.75V9.5H22.25C22.2828 9.5 22.3153 9.50647 22.3457 9.51903C22.376 9.53159 22.4036 9.55001 22.4268 9.57322C22.45 9.59644 22.4684 9.624 22.481 9.65433C22.4935 9.68466 22.5 9.71717 22.5 9.75V11.25C22.5 11.3163 22.4737 11.3799 22.4268 11.4268C22.3799 11.4737 22.3163 11.5 22.25 11.5H20V18.25C20 18.3163 19.9737 18.3799 19.9268 18.4268C19.8799 18.4737 19.8163 18.5 19.75 18.5H15V20.5H19.75C19.8163 20.5 19.8799 20.5263 19.9268 20.5732C19.9737 20.6201 20 20.6837 20 20.75V22.25C20 22.3163 19.9737 22.3799 19.9268 22.4268C19.8799 22.4737 19.8163 22.5 19.75 22.5H13.25C13.1837 22.5 13.1201 22.4737 13.0732 22.4268C13.0263 22.3799 13 22.3163 13 22.25V18.5H8.25C8.1837 18.5 8.12011 18.4737 8.07322 18.4268C8.02634 18.3799 8 18.3163 8 18.25V11.5H5.75C5.6837 11.5 5.62011 11.4737 5.57322 11.4268C5.52634 11.3799 5.5 11.3163 5.5 11.25V9.75C5.5 9.6837 5.52634 9.62011 5.57322 9.57322C5.62011 9.52634 5.6837 9.5 5.75 9.5H10.5V5.75C10.5 5.6837 10.5263 5.62011 10.5732 5.57322C10.6201 5.52634 10.6837 5.5 10.75 5.5H12.25Z" fill="white"/>
</svg>
