<svg xmlns="http://www.w3.org/2000/svg" viewBox="0 0 395.4 27.5">
  <defs>
    <style>
      .cls-1 {
        fill: #fff;
      }
    </style>
  </defs>
  <title>资源 1</title>
  <g id="图层_2" data-name="图层 2">
    <g id="图层_1-2" data-name="图层 1">
      <g>
        <g>
          <g>
            <path class="cls-1" d="M8.2,26.7h8.3V22.9a44.2,44.2,0,0,1-8.3-1.5Z"/>
            <path class="cls-1" d="M16.5,14.3l3.6,3.5h8.8l3.5-3.5v3.2a56.4,56.4,0,0,0,8.4-1.4V0H35.4L24.5,10.9,13.5,0H8.2V16a44.2,44.2,0,0,0,8.3,1.5Z"/>
            <path class="cls-1" d="M32.4,26.7h8.4V21.5a56.4,56.4,0,0,1-8.4,1.4Z"/>
            <path class="cls-1" d="M46,10c1.2.8,1.8,1.6,1.8,2.5a3.1,3.1,0,0,1-1.4,2.4l.3.3a3.5,3.5,0,0,1,.8,1.3A3.9,3.9,0,0,0,49,13.8C49,12.4,47.9,11.1,46,10Z"/>
            <path class="cls-1" d="M24.5,19.3c-12.9,0-23.3-3-23.3-6.8A3.3,3.3,0,0,1,2.9,10C1.1,11.1,0,12.4,0,13.8c0,4.4,11,8,24.5,8,7.2,0,13.7-1,18.2-2.7a2.8,2.8,0,0,1-.8-2.1A59.1,59.1,0,0,1,24.5,19.3Z"/>
            <circle class="cls-1" cx="44.7" cy="17.2" r="1.8"/>
          </g>
          <g>
            <polygon class="cls-1" points="71.9 14.3 66.1 2.2 61.7 2.2 61.7 24.6 66.1 24.6 66.1 11.6 70.4 20.1 73.4 20.1 77.7 11.6 77.7 24.6 82 24.6 82 2.2 77.7 2.2 71.9 14.3"/>
            <polygon class="cls-1" points="87.2 24.6 102 24.6 102 20.7 91.6 20.7 91.6 15.3 100.4 15.3 100.4 11.4 91.6 11.4 91.6 6.1 102 6.1 102 2.2 87.2 2.2 87.2 24.6"/>
            <path class="cls-1" d="M121.1,12.9a6.2,6.2,0,0,0,1.2-3.8,6.6,6.6,0,0,0-1.9-4.9,7.5,7.5,0,0,0-5.4-2h-8.7V24.6h4.3V15.7h3.2l4.3,8.9h5.1l-5-9.6A6.8,6.8,0,0,0,121.1,12.9Zm-6.3-.9h-4.2V6.1h4.2c2.1,0,3.1,1,3.1,3S116.9,12,114.8,12Z"/>
            <path class="cls-1" d="M131.5,7.1a3.5,3.5,0,0,1,2.8-1.2,5.3,5.3,0,0,1,1.9.4l1.4,1.2,2.9-2.9a9.1,9.1,0,0,0-2.6-1.9,10,10,0,0,0-3.6-.7,8.2,8.2,0,0,0-6,2.5,7.3,7.3,0,0,0-2,3.9,14,14,0,0,0-.2,2.3v5.4a16.6,16.6,0,0,0,.2,2.4,7,7,0,0,0,2,3.8,7.9,7.9,0,0,0,6,2.5,8.3,8.3,0,0,0,3.6-.7,7.5,7.5,0,0,0,2.6-1.9l-2.9-2.9a4.7,4.7,0,0,1-1.4,1.2,3.8,3.8,0,0,1-1.9.4,3.5,3.5,0,0,1-2.8-1.2,3.3,3.3,0,0,1-.8-1.9,21.5,21.5,0,0,1-.3-4.4,21.5,21.5,0,0,1,.3-4.4A3.7,3.7,0,0,1,131.5,7.1Z"/>
            <path class="cls-1" d="M156.3,16.8c0,2.7-1.3,4.1-3.9,4.1s-3.9-1.4-3.9-4.1V2.2h-4.4V16.9a7.5,7.5,0,0,0,2.4,5.8,8.5,8.5,0,0,0,5.9,2.1,8.3,8.3,0,0,0,5.8-2.1,7.5,7.5,0,0,0,2.4-5.8V2.2h-4.3Z"/>
            <path class="cls-1" d="M180.3,12.9a6.2,6.2,0,0,0,1.2-3.8,6.6,6.6,0,0,0-1.9-4.9,7.2,7.2,0,0,0-5.3-2h-8.8V24.6h4.4V15.7H173l4.4,8.9h5l-5-9.6A6.2,6.2,0,0,0,180.3,12.9ZM174,12h-4.1V6.1H174c2.1,0,3.2,1,3.2,3S176.1,12,174,12Z"/>
            <polygon class="cls-1" points="192.5 11.2 188.3 2.2 183.5 2.2 190.3 15.4 190.3 24.6 194.6 24.6 194.6 15.4 201.3 2.2 196.6 2.2 192.5 11.2"/>
            <polygon class="cls-1" points="245.4 2.2 241 2.2 241 24.6 255.5 24.6 255.5 20.7 245.4 20.7 245.4 2.2"/>
            <path class="cls-1" d="M273.2,4.3a7.4,7.4,0,0,0-5.5-2.1h-8.6V24.6h4.3V16.2h4.3a7.4,7.4,0,0,0,5.5-2.1,6.6,6.6,0,0,0,1.9-4.9A6.6,6.6,0,0,0,273.2,4.3Zm-5.7,8h-4.1V6.1h4.1c2.2,0,3.3,1.1,3.3,3.1S269.7,12.3,267.5,12.3Z"/>
            <polygon class="cls-1" points="218.6 24.6 223 24.6 223 17.1 218.6 11.1 218.6 24.6"/>
            <polygon class="cls-1" points="231.4 15.9 222.2 2.2 218.6 2.2 218.6 5.1 223.2 12 223.2 12 231.9 24.6 235.8 24.6 235.8 2.2 231.4 2.2 231.4 15.9"/>
          </g>
        </g>
        <g>
          <path class="cls-1" d="M295.6,27.5h-2.3c-2.2-3.3-3.3-7.4-3.2-12.5s1.2-9.5,3.2-12.8h2.3c-2,3.4-3,7.7-3,12.8S293.7,24.4,295.6,27.5Z"/>
          <path class="cls-1" d="M307.7,24.9V4.5h9.1c3.6.2,5.4,1.9,5.7,5.2a4.5,4.5,0,0,1-2.7,4.2c2.5,1,3.8,2.6,3.8,5-.3,3.9-2.7,5.9-7,6Zm2.8-18.2v6.4h4.9c2.9.1,4.3-1,4.3-3.3s-1.4-3-4.3-3.1Zm0,8.8v7.1h5.9c2.8-.1,4.2-1.3,4.4-3.7s-1.6-3.4-4.9-3.4Z"/>
          <path class="cls-1" d="M342.1,22.5v2.4H327V4.5h14.9V6.9H329.8v6.3H341v2.5H329.8v6.8Z"/>
          <path class="cls-1" d="M344,6.9V4.5h16.5V6.9h-6.9v18h-2.7V6.9Z"/>
          <path class="cls-1" d="M374.5,19h-8.3l-2.1,5.9h-2.8L369,4.5h3.1l7.4,20.4h-3Zm-7.4-2.4h6.4l-3-9.1h-.1Z"/>
          <path class="cls-1" d="M389.9,2.2h2.2c2,3.3,3.1,7.6,3.3,12.8s-1.1,9.2-3.3,12.5h-2.2c1.8-3.1,2.8-7.3,3-12.5A28.4,28.4,0,0,0,389.9,2.2Z"/>
        </g>
      </g>
    </g>
  </g>
</svg>
