<svg xmlns="http://www.w3.org/2000/svg" viewBox="0 0 343.91 27.5"><defs><style>.cls-1{fill:#fff;}.cls-2{isolation:isolate;}</style></defs><g id="图层_2" data-name="图层 2"><g id="图层_1-2" data-name="图层 1"><path class="cls-1" d="M8.2,26.7h8.3V22.9a39.1,39.1,0,0,1-8.3-1.5Z"/><path class="cls-1" d="M16.5,14.3l3.6,3.5h8.8l3.5-3.5v3.2a61.34,61.34,0,0,0,8.4-1.4V0H35.4L24.5,10.9,13.5,0H8.2V16a39.1,39.1,0,0,0,8.3,1.5Z"/><path class="cls-1" d="M32.4,26.7h8.4V21.5a61.34,61.34,0,0,1-8.4,1.4Z"/><path class="cls-1" d="M46,10c1.2.8,1.8,1.6,1.8,2.5a3.16,3.16,0,0,1-1.4,2.4l.3.3a3.53,3.53,0,0,1,.8,1.3A3.73,3.73,0,0,0,49,13.8C49,12.4,47.9,11.1,46,10Z"/><path class="cls-1" d="M24.5,19.3c-12.9,0-23.3-3-23.3-6.8A3.24,3.24,0,0,1,2.9,10C1.1,11.1,0,12.4,0,13.8c0,4.4,11,8,24.5,8,7.2,0,13.7-1,18.2-2.7a3.23,3.23,0,0,1-.8-2.1A60.32,60.32,0,0,1,24.5,19.3Z"/><circle class="cls-1" cx="44.7" cy="17.2" r="1.8"/><polygon class="cls-1" points="72.8 14.3 67 2.2 62.6 2.2 62.6 24.6 67 24.6 67 11.6 71.3 20.1 74.3 20.1 78.6 11.6 78.6 24.6 82.9 24.6 82.9 2.2 78.6 2.2 72.8 14.3"/><polygon class="cls-1" points="87.2 24.6 102 24.6 102 20.7 91.6 20.7 91.6 15.3 100.4 15.3 100.4 11.4 91.6 11.4 91.6 6.1 102 6.1 102 2.2 87.2 2.2 87.2 24.6"/><path class="cls-1" d="M121.1,12.9a6.36,6.36,0,0,0,1.2-3.8,6.47,6.47,0,0,0-1.9-4.9,7.29,7.29,0,0,0-5.4-2h-8.7V24.6h4.3V15.7h3.2l4.3,8.9h5.1l-5-9.6A7.46,7.46,0,0,0,121.1,12.9Zm-6.3-.9h-4.2V6.1h4.2c2.1,0,3.1,1,3.1,3S116.9,12,114.8,12Z"/><path class="cls-1" d="M141.58,7.1a3.63,3.63,0,0,1,2.8-1.2,5.85,5.85,0,0,1,1.9.4l1.4,1.2,2.9-2.9A8.32,8.32,0,0,0,148,2.7a8.89,8.89,0,0,0-3.6-.7,8.39,8.39,0,0,0-6,2.5,7.33,7.33,0,0,0-2,3.9,17.85,17.85,0,0,0-.2,2.3v5.4a19.42,19.42,0,0,0,.2,2.4,7.78,7.78,0,0,0,2,3.8,7.52,7.52,0,0,0,6,2.5,8.89,8.89,0,0,0,3.6-.7,7,7,0,0,0,2.6-1.9l-2.9-2.9a5.26,5.26,0,0,1-1.4,1.2,4.06,4.06,0,0,1-1.9.4,3.63,3.63,0,0,1-2.8-1.2,3.26,3.26,0,0,1-.8-1.9,16.32,16.32,0,0,1-.3-4.4,16.32,16.32,0,0,1,.3-4.4A4.06,4.06,0,0,1,141.58,7.1Z"/><polygon class="cls-1" points="192.99 2.2 188.59 2.2 188.59 24.6 203.09 24.6 203.09 20.7 192.99 20.7 192.99 2.2"/><path class="cls-1" d="M221.49,4.3A7.61,7.61,0,0,0,216,2.2h-8.6V24.6h4.3V16.2H216a7.61,7.61,0,0,0,5.5-2.1,6.47,6.47,0,0,0,1.9-4.9A6.47,6.47,0,0,0,221.49,4.3Zm-5.7,8h-4.1V6.1h4.1c2.2,0,3.3,1.1,3.3,3.1S218,12.3,215.79,12.3Z"/><polygon class="cls-1" points="167.09 24.6 171.49 24.6 171.49 17.1 167.09 11.1 167.09 24.6"/><polygon class="cls-1" points="179.89 15.9 170.69 2.2 167.09 2.2 167.09 5.1 171.69 12 171.69 12 180.39 24.6 184.29 24.6 184.29 2.2 179.89 2.2 179.89 15.9"/><path class="cls-1" d="M244.09,27.5h-2.3c-2.2-3.3-3.3-7.4-3.2-12.5a25.75,25.75,0,0,1,3.2-12.8h2.3c-2,3.4-3,7.7-3,12.8S242.19,24.4,244.09,27.5Z"/><path class="cls-1" d="M338.39,2.2h2.2c2,3.3,3.1,7.6,3.3,12.8a20.29,20.29,0,0,1-3.3,12.5h-2.2c1.8-3.1,2.8-7.3,3-12.5A28.64,28.64,0,0,0,338.39,2.2Z"/><g class="cls-2"><path class="cls-1" d="M268.44,21.91V10.71c-2.08,1.6-3.49,2.4-4.21,2.4a1.24,1.24,0,0,1-.92-.41,1.34,1.34,0,0,1-.4-.95,1.08,1.08,0,0,1,.4-.93,8.81,8.81,0,0,1,1.39-.76,10.52,10.52,0,0,0,2.38-1.48,9.61,9.61,0,0,0,1.58-1.73,13.71,13.71,0,0,1,.9-1.18,1.06,1.06,0,0,1,.79-.23,1.25,1.25,0,0,1,1,.51,2.17,2.17,0,0,1,.4,1.39V21.43c0,1.65-.56,2.48-1.69,2.48a1.52,1.52,0,0,1-1.2-.51A2.11,2.11,0,0,1,268.44,21.91Z"/><path class="cls-1" d="M280.27,23.91a2,2,0,0,1-1.32-.49A1.75,1.75,0,0,1,278.4,22a1.79,1.79,0,0,1,.53-1.3,1.74,1.74,0,0,1,1.3-.54,1.8,1.8,0,0,1,1.32.54,1.89,1.89,0,0,1,0,2.67A1.84,1.84,0,0,1,280.27,23.91Z"/><path class="cls-1" d="M298,14.75a20.4,20.4,0,0,1-.25,3.47,7.74,7.74,0,0,1-.91,2.63,6.07,6.07,0,0,1-2.16,2.25,5.74,5.74,0,0,1-3,.78,5.61,5.61,0,0,1-3.35-1.06,6.38,6.38,0,0,1-2.23-2.93,10.58,10.58,0,0,1-.57-2.25,20.37,20.37,0,0,1-.17-2.68,26,26,0,0,1,.19-3.35,11,11,0,0,1,.62-2.56,5.51,5.51,0,0,1,5.41-3.63,6.29,6.29,0,0,1,2.31.41A5.28,5.28,0,0,1,295.72,7a7.11,7.11,0,0,1,1.33,2A14.21,14.21,0,0,1,298,14.75Zm-3.37-.25a20.45,20.45,0,0,0-.27-3.68,4.6,4.6,0,0,0-.91-2.17,2.24,2.24,0,0,0-1.78-.73,2.26,2.26,0,0,0-2.25,1.64,14.66,14.66,0,0,0-.64,5,21.73,21.73,0,0,0,.27,3.79,4.85,4.85,0,0,0,.91,2.24,2.4,2.4,0,0,0,3.51,0,4.86,4.86,0,0,0,.9-2.26A23.06,23.06,0,0,0,294.61,14.5Z"/><path class="cls-1" d="M303.14,23.91a2,2,0,0,1-1.32-.49,1.75,1.75,0,0,1-.55-1.38,1.79,1.79,0,0,1,.53-1.3,1.74,1.74,0,0,1,1.3-.54,1.83,1.83,0,0,1,1.33.54,1.92,1.92,0,0,1,0,2.67A1.88,1.88,0,0,1,303.14,23.91Z"/><path class="cls-1" d="M320.85,14.75a20.4,20.4,0,0,1-.25,3.47,7.74,7.74,0,0,1-.91,2.63,6.15,6.15,0,0,1-2.16,2.25,5.74,5.74,0,0,1-3,.78,5.61,5.61,0,0,1-3.35-1.06A6.47,6.47,0,0,1,309,19.89a10.59,10.59,0,0,1-.55-2.25,18.73,18.73,0,0,1-.18-2.68,26,26,0,0,1,.19-3.35,11,11,0,0,1,.62-2.56,5.51,5.51,0,0,1,5.41-3.63,6.29,6.29,0,0,1,2.31.41A5.28,5.28,0,0,1,318.59,7a7.11,7.11,0,0,1,1.33,2A14.21,14.21,0,0,1,320.85,14.75Zm-3.37-.25a20.45,20.45,0,0,0-.27-3.68,4.6,4.6,0,0,0-.91-2.17,2.24,2.24,0,0,0-1.78-.73,2.28,2.28,0,0,0-2.26,1.64,15,15,0,0,0-.63,5,21.73,21.73,0,0,0,.27,3.79,4.85,4.85,0,0,0,.91,2.24,2.4,2.4,0,0,0,3.51,0,4.86,4.86,0,0,0,.9-2.26A23.06,23.06,0,0,0,317.48,14.5Z"/></g><rect class="cls-1" x="127.5" y="2.2" width="4.38" height="22.4"/></g></g></svg>