<?xml version="1.0" encoding="utf-8"?>
<!-- Generator: Adobe Illustrator 25.2.3, SVG Export Plug-In . SVG Version: 6.00 Build 0)  -->
<svg version="1.1" id="图层_1" xmlns="http://www.w3.org/2000/svg" xmlns:xlink="http://www.w3.org/1999/xlink" x="0px" y="0px"
	 viewBox="0 0 395.4 27.5" style="enable-background:new 0 0 395.4 27.5;" xml:space="preserve">
<style type="text/css">
	.st0{fill:#FFFFFF;}
	.st1{font-family:'ArialRoundedMTBold';}
	.st2{font-size:25.2083px;}
</style>
<g>
	<g>
		<path class="st0" d="M8.2,26.7h8.3v-3.8c-2.8-0.2-5.6-0.7-8.3-1.5V26.7z"/>
		<path class="st0" d="M16.5,14.3l3.6,3.5h8.8l3.5-3.5v3.2c2.8-0.3,5.6-0.7,8.4-1.4V0h-5.4L24.5,10.9L13.5,0H8.2v16
			c2.7,0.8,5.5,1.3,8.3,1.5V14.3z"/>
		<path class="st0" d="M32.4,26.7h8.4v-5.2c-2.8,0.7-5.6,1.1-8.4,1.4V26.7z"/>
		<path class="st0" d="M46,10c1.2,0.8,1.8,1.6,1.8,2.5c-0.1,1-0.6,1.9-1.4,2.4l0.3,0.3c0.4,0.4,0.6,0.8,0.8,1.3
			c0.9-0.7,1.4-1.6,1.5-2.7C49,12.4,47.9,11.1,46,10z"/>
		<path class="st0" d="M24.5,19.3c-12.9,0-23.3-3-23.3-6.8c0.1-1.1,0.8-2,1.7-2.5C1.1,11.1,0,12.4,0,13.8c0,4.4,11,8,24.5,8
			c7.2,0,13.7-1,18.2-2.7c-0.5-0.6-0.8-1.3-0.8-2.1C36.2,18.6,30.4,19.4,24.5,19.3z"/>
		<circle class="st0" cx="44.7" cy="17.2" r="1.8"/>
	</g>
	<g>
		<polygon class="st0" points="71.9,14.3 66.1,2.2 61.7,2.2 61.7,24.6 66.1,24.6 66.1,11.6 70.4,20.1 73.4,20.1 77.7,11.6 
			77.7,24.6 82,24.6 82,2.2 77.7,2.2 		"/>
		<polygon class="st0" points="87.2,24.6 102,24.6 102,20.7 91.6,20.7 91.6,15.3 100.4,15.3 100.4,11.4 91.6,11.4 91.6,6.1 102,6.1 
			102,2.2 87.2,2.2 		"/>
		<path class="st0" d="M121.1,12.9c0.8-1.1,1.2-2.4,1.2-3.8c0.1-1.8-0.6-3.6-1.9-4.9c-1.5-1.4-3.4-2.1-5.4-2h-8.7v22.4h4.3v-8.9h3.2
			l4.3,8.9h5.1l-5-9.6C119.3,14.6,120.3,13.8,121.1,12.9z M114.8,12h-4.2V6.1h4.2c2.1,0,3.1,1,3.1,3S116.9,12,114.8,12z"/>
		<path class="st0" d="M131.5,7.1c0.7-0.8,1.7-1.2,2.8-1.2c0.7,0,1.3,0.2,1.9,0.4l1.4,1.2l2.9-2.9c-0.7-0.8-1.6-1.4-2.6-1.9
			c-1.1-0.5-2.4-0.7-3.6-0.7c-2.3,0-4.4,0.9-6,2.5c-1.1,1.1-1.7,2.4-2,3.9c-0.1,0.8-0.2,1.5-0.2,2.3v5.4c0,0.8,0.1,1.6,0.2,2.4
			c0.3,1.4,1,2.8,2,3.8c1.5,1.7,3.7,2.6,6,2.5c1.2,0,2.5-0.2,3.6-0.7c1-0.4,1.9-1.1,2.6-1.9l-2.9-2.9c-0.4,0.5-0.9,0.9-1.4,1.2
			c-0.6,0.3-1.2,0.4-1.9,0.4c-1.1,0-2.1-0.4-2.8-1.2c-0.5-0.5-0.7-1.2-0.8-1.9c-0.3-1.5-0.4-2.9-0.3-4.4c-0.1-1.5,0-2.9,0.3-4.4
			C130.8,8.3,131.1,7.6,131.5,7.1z"/>
		<path class="st0" d="M156.3,16.8c0,2.7-1.3,4.1-3.9,4.1s-3.9-1.4-3.9-4.1V2.2h-4.4v14.7c-0.1,2.2,0.8,4.3,2.4,5.8
			c1.6,1.4,3.7,2.2,5.9,2.1c2.1,0.1,4.2-0.7,5.8-2.1c1.6-1.5,2.5-3.6,2.4-5.8V2.2h-4.3V16.8z"/>
		<path class="st0" d="M180.3,12.9c0.8-1.1,1.2-2.4,1.2-3.8c0.1-1.8-0.6-3.6-1.9-4.9c-1.4-1.4-3.3-2.1-5.3-2h-8.8v22.4h4.4v-8.9h3.1
			l4.4,8.9h5l-5-9.6C178.6,14.6,179.6,13.9,180.3,12.9z M174,12h-4.1V6.1h4.1c2.1,0,3.2,1,3.2,3S176.1,12,174,12z"/>
		<polygon class="st0" points="192.5,11.2 188.3,2.2 183.5,2.2 190.3,15.4 190.3,24.6 194.6,24.6 194.6,15.4 201.3,2.2 196.6,2.2 		
			"/>
		<polygon class="st0" points="245.4,2.2 241,2.2 241,24.6 255.5,24.6 255.5,20.7 245.4,20.7 		"/>
		<path class="st0" d="M273.2,4.3c-1.5-1.4-3.5-2.2-5.5-2.1h-8.6v22.4h4.3v-8.4h4.3c2,0.1,4-0.7,5.5-2.1c1.3-1.3,2-3.1,1.9-4.9
			C275.2,7.4,274.5,5.6,273.2,4.3z M267.5,12.3h-4.1V6.1h4.1c2.2,0,3.3,1.1,3.3,3.1S269.7,12.3,267.5,12.3z"/>
		<polygon class="st0" points="218.6,24.6 223,24.6 223,17.1 218.6,11.1 		"/>
		<polygon class="st0" points="231.4,15.9 222.2,2.2 218.6,2.2 218.6,5.1 223.2,12 223.2,12 231.9,24.6 235.8,24.6 235.8,2.2 
			231.4,2.2 		"/>
	</g>
</g>
<path class="st0" d="M295.6,27.5h-2.3c-2.2-3.3-3.3-7.4-3.2-12.5s1.2-9.5,3.2-12.8h2.3c-2,3.4-3,7.7-3,12.8S293.7,24.4,295.6,27.5z"
	/>
<path class="st0" d="M389.9,2.2h2.2c2,3.3,3.1,7.6,3.3,12.8s-1.1,9.2-3.3,12.5h-2.2c1.8-3.1,2.8-7.3,3-12.5
	C392.9,10.6,391.9,6.2,389.9,2.2z"/>
<text transform="matrix(1 0 0 1 312.8353 23.6)" class="st0 st1 st2">1.0.0</text>
</svg>
