<?xml version="1.0" standalone="no"?><!DOCTYPE svg PUBLIC "-//W3C//DTD SVG 1.1//EN" "http://www.w3.org/Graphics/SVG/1.1/DTD/svg11.dtd"><svg t="1625564615965" class="icon" viewBox="0 0 1279 1024" version="1.1" xmlns="http://www.w3.org/2000/svg" p-id="23860" xmlns:xlink="http://www.w3.org/1999/xlink" width="249.8046875" height="200"><defs><style type="text/css"></style></defs><path d="M1179.844171 578.83881l-0.14078 30.082263-548.251016 319.149717v-30.082263l548.391796-319.149717zM631.452375 897.988527v30.082263L79.515467 608.921073l0.14078-30.082263 551.796128 319.149717z" fill="#37BCBD" p-id="23861"></path><path d="M1179.850571 578.83881l-548.398196 319.149717-551.796128-319.149717 548.257415-319.008937 551.936909 319.008937z" fill="#D9F2F2" p-id="23862"></path><path d="M257.641374 425.720663L134.925448 497.243629 11.217658 425.720663 134.074365 354.332079l123.567009 71.382185zM1179.421829 87.840722l-90.68833 52.792741-91.257852-52.792741 90.68833-52.792741 91.257852 52.792741zM1279.324893 468.29401l-47.615853 27.669795-47.891015-27.669795 47.609454-27.676195 47.897414 27.676195z" fill="#37BCBD" opacity=".4" p-id="23863"></path><path d="M177.012461 396.911825L89.011761 448.14318 0.588719 396.911825l87.859919-51.084176 88.563823 51.084176zM710.385522 870.600292l-122.863106 71.516567-123.56701-71.516567 122.863106-71.382184 123.56701 71.382184z" fill="#37BCBD" opacity=".4" p-id="23864"></path><path d="M629.750209 841.791454l-87.9943 51.231355-88.423042-51.231355 87.859919-51.084176 88.563822 51.084176zM846.418018 983.979903L777.691467 1024l-69.289672-40.020097 68.72655-40.154479 69.289673 40.154479z" fill="#37BCBD" opacity=".4" p-id="23865"></path><path d="M546.715227 530.589444v0.422342c-0.140781 1.139043-0.281561 2.130907-0.422342 3.263551v0.428741c-0.14718 0.703903-0.28796 1.561385-0.428741 2.271688-0.140781 0.703903-0.281561 1.279824-0.422342 1.983727-0.140781 0.569522-0.281561 1.139043-0.569522 1.702166-0.140781 0.575921-0.422342 1.279824-0.563123 1.849346-0.28796 0.851083-0.710302 1.842947-0.991863 2.694029-0.428741 1.139043-0.991864 2.271688-1.561385 3.404332 0 0.14718-0.140781 0.14718-0.140781 0.287961-0.569522 0.991864-1.132644 2.124508-1.702166 3.12277-0.140781 0.140781-0.140781 0.281561-0.281561 0.422342-0.569522 0.991864-1.279824 1.983727-1.983728 2.98199-0.140781 0.140781-0.281561 0.422342-0.428741 0.563123a41.338316 41.338316 0 0 1-2.265288 2.98199c-0.140781 0.140781-0.281561 0.428741-0.422342 0.569521l-2.124508 2.553249c-0.14718 0.281561-0.428741 0.428741-0.575921 0.703904-0.844684 0.998263-1.836547 1.990126-2.68763 2.841209l-0.563123 0.575921c-0.710302 0.703903-1.561385 1.407806-2.271687 2.124508-0.563123 0.563123-1.273425 1.132644-1.842947 1.702165-0.563123 0.569522-1.132644 0.991864-1.836547 1.561386-0.710302 0.563123-1.420605 1.132644-2.130907 1.561385-0.703903 0.422342-1.273425 0.991864-1.983728 1.420605-0.703903 0.563123-1.414206 0.991864-2.265288 1.554986-0.703903 0.428741-1.414206 0.998263-2.124508 1.420605-0.703903 0.569522-1.561385 0.991864-2.412468 1.561385-0.991864 0.569522-1.983727 1.279824-3.116372 1.842947-1.414206 0.851083-2.83481 1.561385-4.389796 2.412468-0.428741 0.14718-0.703903 0.428741-1.132645 0.575921-1.279824 0.703903-2.69403 1.407806-3.967454 1.983727-0.140781 0.140781-0.28796 0.140781-0.569522 0.281561-1.561385 0.703903-3.116371 1.420605-4.671357 2.130907-0.428741 0.140781-0.857482 0.281561-1.279824 0.563123-1.279824 0.569522-2.68763 1.139043-3.967455 1.702166a2.009324 2.009324 0 0 1-0.851083 0.28796c-1.554986 0.563123-3.263551 1.132644-4.818537 1.702166a9.624277 9.624277 0 0 0-1.132645 0.422342c-1.132644 0.428741-2.265289 0.710302-3.397932 1.139043-0.998263 0.281561-2.130907 0.703903-3.263552 0.991864-0.851083 0.281561-1.842947 0.569522-2.68763 0.851083-1.139043 0.281561-2.130907 0.569522-3.263551 0.851083-0.851083 0.281561-1.842947 0.428741-2.834811 0.710302a28.962418 28.962418 0 0 1-3.397932 0.703903c-0.991864 0.14718-1.842947 0.428741-2.834811 0.575921-1.132644 0.281561-2.265289 0.422342-3.404331 0.703903-0.985464 0.14718-1.983727 0.428741-3.116372 0.575921-0.422342 0.134382-0.991864 0.134382-1.414206 0.281562a49.068453 49.068453 0 0 1-4.818537 0.703903c-0.281561 0-0.569522 0.14718-0.703903 0.14718-1.849346 0.281561-3.685893 0.422342-5.52884 0.703903-0.428741 0-0.851083 0.14718-1.420605 0.14718-1.132644 0.140781-2.265289 0.281561-3.397932 0.281561a42.714127 42.714127 0 0 1-4.255415 0.281561c-0.851083 0-1.836547 0.140781-2.687631 0.140781-1.420605 0.14718-2.975591 0.14718-4.396195 0.28796-0.851083 0-1.702166 0.140781-2.54685 0.140781-1.279824 0-2.553249 0-3.826674 0.14078h-9.214733c-1.273425 0-2.54685-0.140781-3.826674-0.14078-0.851083 0-1.695767 0-2.68763-0.140781-1.420605-0.140781-2.69403-0.140781-3.967455-0.281561-0.851083 0-1.561385-0.14718-2.412468-0.14718-1.554986-0.140781-3.116371-0.281561-4.818537-0.422342-0.563123 0-0.991864-0.140781-1.554987-0.14078a709.854395 709.854395 0 0 1-6.239142-0.851083c-0.281561 0-0.563123-0.14718-0.991863-0.14718a448.57832 448.57832 0 0 1-5.38166-0.851083c-0.703903-0.140781-1.420605-0.281561-2.271688-0.422342-1.407806-0.281561-2.68763-0.569522-4.108235-0.710302l-2.124508-0.428741c-1.414206-0.281561-2.975591-0.703903-4.389796-0.991864-0.851083-0.140781-1.561385-0.422342-2.412469-0.563123-1.273425-0.28796-2.68763-0.710302-3.967454-0.998262-1.132644-0.281561-2.265289-0.563123-3.397933-0.991864l-1.279824-0.422342c-1.695767-0.575921-3.397933-0.998263-5.100099-1.561385-0.281561-0.14718-0.563123-0.28796-0.991863-0.287961-1.414206-0.422342-2.68763-0.991864-4.108235-1.420604a9.74586 9.74586 0 0 1-1.414206-0.563123c-1.139043-0.428741-2.130907-0.851083-3.263551-1.279824l-2.124508-0.851083a55.237205 55.237205 0 0 1-3.116372-1.420605c-0.703903-0.281561-1.279824-0.563123-1.983727-0.851083-1.132644-0.563123-2.124508-1.132644-3.263551-1.561385l-1.695767-0.851083c-1.561385-0.851083-3.263551-1.702166-4.818537-2.553249-25.929235-15.037932-38.970642-34.76642-38.970642-54.494907l-0.140781 46.265639c0 19.722088 12.894227 39.450576 38.970642 54.494907 1.554986 0.851083 3.116371 1.702166 4.818537 2.553249 0.563123 0.281561 1.132644 0.563123 1.554987 0.851083 1.139043 0.563123 2.130907 1.132644 3.263551 1.561385 0.703903 0.281561 1.273425 0.563123 1.983727 0.851083 0.991864 0.422342 1.983727 0.991864 3.116372 1.420605l2.124507 0.851083 2.124508 0.851083c0.428741 0.140781 0.703903 0.281561 1.132645 0.422341 0.428741 0.140781 0.851083 0.281561 1.420604 0.569522 1.414206 0.563123 2.68763 0.991864 4.108235 1.420605a2.047718 2.047718 0 0 0 0.991864 0.281561c1.702166 0.569522 3.397933 1.132644 5.100099 1.561385l1.279824 0.422342c0.703903 0.28796 1.407806 0.428741 2.124508 0.710303 0.422342 0.140781 0.851083 0.140781 1.273425 0.28796 1.279824 0.422342 2.68763 0.710302 3.967454 0.991864 0.851083 0.140781 1.561385 0.422342 2.406069 0.569521 1.420605 0.281561 2.975591 0.703903 4.396196 0.991864l1.702166 0.422342c0.140781 0 0.281561 0 0.422342 0.14718 1.414206 0.281561 2.68763 0.563123 4.108235 0.703903 0.710302 0.14718 1.420605 0.28796 2.271687 0.428741 1.836547 0.281561 3.538713 0.569522 5.38166 0.851083 0.281561 0 0.569522 0.140781 0.851083 0.140781 2.124508 0.28796 4.249016 0.569522 6.232743 0.851083 0.569522 0 0.991864 0.140781 1.561386 0.14078 1.554986 0.14718 3.116371 0.28796 4.818537 0.428741h0.140781c0.703903 0 1.414206 0.140781 2.265288 0.140781 1.420605 0.140781 2.68763 0.140781 4.108235 0.281561 0.851083 0 1.702166 0.14718 2.69403 0.14718 1.279824 0 2.553249 0.140781 3.826674 0.140781h9.208334c1.279824 0 2.553249 0 3.826674-0.140781h0.710302c0.569522 0 1.132644 0 1.842946-0.14718 1.414206 0 2.975591-0.140781 4.389797-0.281561 0.851083 0 1.842947-0.140781 2.694029-0.140781 1.414206-0.140781 2.83481-0.281561 4.249016-0.281561 0.428741 0 0.991864-0.14718 1.561385-0.14718 0.703903 0 1.279824-0.140781 1.983728-0.14078 0.428741 0 0.851083-0.140781 1.420604-0.140781 1.836547-0.140781 3.679494-0.422342 5.522441-0.710302 0.281561 0 0.569522-0.140781 0.851083-0.140781 1.554986-0.281561 3.116371-0.428741 4.818537-0.710302 0.422342-0.140781 0.991864-0.140781 1.414206-0.281562 0.428741 0 0.710302-0.140781 1.132644-0.14078 0.710302-0.14718 1.279824-0.28796 1.983728-0.428741 1.139043-0.281561 2.271688-0.422342 3.404331-0.710303 0.991864-0.140781 1.842947-0.422342 2.834811-0.569521 1.132644-0.281561 2.265289-0.563123 3.397932-0.703904 0.991864-0.28796 1.842947-0.428741 2.834811-0.710302 1.132644-0.28796 2.124508-0.569522 3.263551-0.851083 0.844684-0.28796 1.836547-0.569522 2.68763-0.851083 1.132644-0.28796 2.124508-0.710302 3.263552-0.998263 0.422342-0.140781 0.991864-0.281561 1.414205-0.422342 0.703903-0.140781 1.279824-0.428741 1.983727-0.710302a9.662671 9.662671 0 0 0 1.132645-0.428741c1.702166-0.563123 3.263551-1.132644 4.818537-1.702166 0.281561-0.140781 0.569522-0.281561 0.851083-0.281561 1.414206-0.569522 2.68763-1.132644 3.967455-1.561386 0.422342-0.140781 0.851083-0.281561 1.279824-0.569521l4.671357-2.124508c0.140781-0.14718 0.281561-0.14718 0.569522-0.28796 1.414206-0.703903 2.68763-1.279824 3.967454-1.983728 0.422342-0.140781 0.851083-0.428741 1.132645-0.569521 1.414206-0.851083 2.975591-1.561385 4.389796-2.412469 0.569522-0.281561 1.132644-0.569522 1.561385-0.991863 0.563123-0.281561 0.991864-0.569522 1.414206-0.851083 0.851083-0.569522 1.561385-0.991864 2.412468-1.561386 0.703903-0.428741 1.414206-0.991864 2.124508-1.420604 0.703903-0.563123 1.554986-0.991864 2.265289-1.561386 0.710302-0.422342 1.279824-0.991864 1.983727-1.420604 0.710302-0.563123 1.420605-1.132644 2.124508-1.554986 0.569522-0.575921 1.279824-0.998263 1.842946-1.561386 0.710302-0.575921 1.279824-1.139043 1.842947-1.702166 0.281561-0.28796 0.569522-0.428741 0.851083-0.710302 0.569522-0.428741 0.991864-0.998263 1.414205-1.420605 0.14718-0.140781 0.428741-0.281561 0.569522-0.569521 0.991864-0.991864 1.842947-1.842947 2.687631-2.834811 0.14718-0.28796 0.428741-0.428741 0.57592-0.710302l2.124508-2.559648c0.140781-0.140781 0.281561-0.422342 0.422342-0.563123 0-0.140781 0.140781-0.140781 0.140781-0.281561 0.703903-0.851083 1.420605-1.849346 1.983727-2.700429 0.140781-0.140781 0.281561-0.422342 0.428741-0.563122 0.703903-0.998263 1.273425-1.990126 1.983727-2.98199 0.140781-0.140781 0.140781-0.28796 0.281562-0.428741 0.281561-0.422342 0.422342-0.703903 0.703903-1.132644 0.428741-0.710302 0.710302-1.279824 1.139043-1.983728 0-0.14718 0-0.14718 0.140781-0.28796 0.569522-1.132644 1.132644-2.271688 1.554986-3.404332 0.28796-0.569522 0.575921-1.279824 0.710302-1.842947 0.140781-0.28796 0.140781-0.575921 0.281562-0.851083 0.28796-0.575921 0.428741-1.279824 0.575921-1.849345 0.134382-0.569522 0.275162-1.132644 0.563122-1.702166 0.140781-0.703903 0.281561-1.279824 0.422342-1.983727 0.140781-0.28796 0.140781-0.710302 0.281561-0.998263 0.140781-0.422342 0.140781-0.851083 0.287961-1.279824v-0.422342c0.140781-1.132644 0.281561-2.124508 0.422342-3.263551v-0.422342c0-0.710302 0.140781-1.561385 0.14078-2.271688v-1.139043l0.140781-46.25924c-0.140781 0.851083-0.140781 1.983727-0.281561 3.122771z" fill="#54CCCC" opacity=".75" p-id="23866"></path><path d="M546.715227 523.49282v0.428741c-0.140781 1.132644-0.281561 2.124508-0.422342 3.263551v0.422342c-0.14718 0.710302-0.28796 1.561385-0.428741 2.271688-0.140781 0.703903-0.281561 1.279824-0.422342 1.983727-0.140781 0.575921-0.281561 1.139043-0.569522 1.708565-0.140781 0.563123-0.422342 1.279824-0.563123 1.842947-0.28796 0.851083-0.710302 1.842947-0.991863 2.694029-0.428741 1.139043-0.991864 2.271688-1.561385 3.404332 0 0.14718-0.140781 0.14718-0.140781 0.28796-0.569522 0.991864-1.132644 2.124508-1.702166 3.122771-0.140781 0.140781-0.140781 0.281561-0.281561 0.422342-0.569522 0.998263-1.279824 1.983727-1.983728 2.98199-0.140781 0.140781-0.281561 0.428741-0.428741 0.569522a41.210334 41.210334 0 0 1-2.265288 2.97559c-0.140781 0.14718-0.281561 0.428741-0.422342 0.569522l-2.124508 2.559648c-0.14718 0.281561-0.428741 0.422342-0.575921 0.703903-0.844684 0.991864-1.836547 1.983727-2.68763 2.84121l-0.563123 0.563122c-0.710302 0.710302-1.561385 1.420605-2.271687 2.130907-0.563123 0.569522-1.273425 1.132644-1.842947 1.702166-0.563123 0.569522-1.132644 0.991864-1.836547 1.561386-0.710302 0.569522-1.420605 1.132644-2.130907 1.561385-0.703903 0.422342-1.273425 0.991864-1.983728 1.420605-0.703903 0.563123-1.414206 0.991864-2.265288 1.561385-0.703903 0.422342-1.414206 0.991864-2.124508 1.414205-0.703903 0.575921-1.561385 0.998263-2.412468 1.561386-0.991864 0.569522-1.983727 1.279824-3.116372 1.849345-1.414206 0.851083-2.83481 1.561385-4.389796 2.412469-0.428741 0.140781-0.703903 0.422342-1.132645 0.563122-1.279824 0.710302-2.69403 1.420605-3.967454 1.983728-0.140781 0.14718-0.28796 0.14718-0.569522 0.28796l-4.671357 2.130907a4.991314 4.991314 0 0 0-1.279824 0.563123c-1.279824 0.575921-2.68763 1.139043-3.967455 1.708565a2.009324 2.009324 0 0 1-0.851083 0.281561c-1.554986 0.569522-3.263551 1.132644-4.818537 1.702166a9.726663 9.726663 0 0 0-1.132645 0.428741c-1.132644 0.422342-2.265289 0.703903-3.397932 1.132644-0.998263 0.281561-2.130907 0.703903-3.263552 0.991864-0.851083 0.28796-1.842947 0.569522-2.68763 0.851083-1.139043 0.28796-2.130907 0.569522-3.263551 0.851083-0.851083 0.28796-1.842947 0.428741-2.834811 0.710302a28.962418 28.962418 0 0 1-3.397932 0.710302c-0.991864 0.140781-1.842947 0.428741-2.834811 0.569522-1.132644 0.281561-2.265289 0.422342-3.404331 0.703903-0.985464 0.14718-1.983727 0.428741-3.116372 0.575921-0.422342 0.140781-0.991864 0.140781-1.414206 0.281561a49.068453 49.068453 0 0 1-4.818537 0.703904c-0.281561 0-0.569522 0.14718-0.703903 0.147179-1.849346 0.281561-3.685893 0.422342-5.52884 0.703904-0.428741 0-0.851083 0.14718-1.420605 0.147179-1.132644 0.140781-2.265289 0.281561-3.397932 0.281562a42.714127 42.714127 0 0 1-4.255415 0.28796c-0.851083 0-1.836547 0.140781-2.687631 0.140781-1.420605 0.140781-2.975591 0.140781-4.396195 0.281561-0.851083 0-1.702166 0.140781-2.54685 0.140781-1.279824 0-2.553249 0-3.826674 0.14078h-9.214733c-1.273425 0-2.54685-0.140781-3.826674-0.14078-0.851083 0-1.695767 0-2.68763-0.140781-1.420605-0.140781-2.69403-0.140781-3.967455-0.281561-0.851083 0-1.561385-0.140781-2.412468-0.140781-1.554986-0.14718-3.116371-0.28796-4.818537-0.428741-0.563123 0-0.991864-0.140781-1.554987-0.140781-2.124508-0.281561-4.255415-0.569522-6.239142-0.851083-0.281561 0-0.563123-0.140781-0.991863-0.14078a448.57832 448.57832 0 0 1-5.38166-0.851083c-0.703903-0.14718-1.420605-0.28796-2.271688-0.428741-1.407806-0.281561-2.68763-0.569522-4.108235-0.703904l-2.124508-0.428741c-1.414206-0.28796-2.975591-0.710302-4.389796-0.998262-0.851083-0.140781-1.561385-0.422342-2.412469-0.563123-1.273425-0.28796-2.68763-0.710302-3.967454-0.998263-1.132644-0.281561-2.265289-0.563123-3.397933-0.991863l-1.279824-0.422342c-1.695767-0.569522-3.397933-0.998263-5.100099-1.561385a2.047718 2.047718 0 0 0-0.991863-0.287961c-1.414206-0.422342-2.68763-0.991864-4.108235-1.414205a9.662671 9.662671 0 0 1-1.414206-0.575921c-1.139043-0.422342-2.130907-0.844684-3.263551-1.273425l-2.124508-0.851083a55.237205 55.237205 0 0 1-3.116372-1.414206c-0.703903-0.28796-1.279824-0.575921-1.983727-0.857482-1.132644-0.563123-2.124508-1.132644-3.263551-1.561385l-1.695767-0.851083c-1.561385-0.851083-3.263551-1.702166-4.818537-2.553249-25.929235-15.037932-38.970642-34.76642-38.970642-54.488508l-0.140781 46.265639c0 19.722088 12.894227 39.444176 38.970642 54.488507 1.554986 0.851083 3.116371 1.702166 4.818537 2.553249 0.563123 0.281561 1.132644 0.569522 1.554987 0.851083 1.139043 0.569522 2.130907 1.132644 3.263551 1.561386 0.703903 0.281561 1.273425 0.569522 1.983727 0.851083 0.991864 0.422342 1.983727 0.991864 3.116372 1.420604l2.124507 0.851083 2.124508 0.851083c0.428741 0.140781 0.703903 0.281561 1.132645 0.422342 0.428741 0.14718 0.851083 0.28796 1.420604 0.569522 1.414206 0.569522 2.68763 0.991864 4.108235 1.420605a2.047718 2.047718 0 0 0 0.991864 0.281561c1.702166 0.569522 3.397933 1.139043 5.100099 1.561385l1.279824 0.428741c0.703903 0.281561 1.407806 0.422342 2.124508 0.703903 0.422342 0.14718 0.851083 0.14718 1.273425 0.287961 1.279824 0.422342 2.68763 0.703903 3.967454 0.991863 0.851083 0.140781 1.561385 0.428741 2.406069 0.569522 1.420605 0.281561 2.975591 0.703903 4.396196 0.991864l1.702166 0.422342c0.140781 0 0.281561 0 0.422342 0.147179 1.414206 0.281561 2.68763 0.563123 4.108235 0.703904 0.710302 0.14718 1.420605 0.28796 2.271687 0.428741 1.836547 0.281561 3.538713 0.569522 5.38166 0.851083 0.281561 0 0.569522 0.140781 0.851083 0.14078 2.124508 0.28796 4.249016 0.569522 6.232743 0.851083 0.569522 0 0.991864 0.14718 1.561386 0.14718 1.554986 0.140781 3.116371 0.281561 4.818537 0.422342h0.140781c0.703903 0 1.414206 0.140781 2.265288 0.140781 1.420605 0.140781 2.68763 0.140781 4.108235 0.28796 0.851083 0 1.702166 0.140781 2.69403 0.140781 1.279824 0 2.553249 0.140781 3.826674 0.14078h9.208334c1.279824 0 2.553249 0 3.826674-0.14078h0.710302c0.569522 0 1.132644 0 1.842946-0.140781 1.414206 0 2.975591-0.14718 4.389797-0.28796 0.851083 0 1.842947-0.140781 2.694029-0.140781 1.414206-0.140781 2.83481-0.281561 4.249016-0.281561 0.428741 0 0.991864-0.140781 1.561385-0.140781 0.703903 0 1.279824-0.14718 1.983728-0.14718 0.428741 0 0.851083-0.140781 1.420604-0.14078 1.836547-0.140781 3.679494-0.422342 5.522441-0.710303 0.281561 0 0.569522-0.140781 0.851083-0.14078 1.554986-0.281561 3.116371-0.422342 4.818537-0.703904 0.422342-0.14718 0.991864-0.14718 1.414206-0.28796 0.428741 0 0.710302-0.140781 1.132644-0.140781 0.710302-0.140781 1.279824-0.28796 1.983728-0.428741 1.139043-0.281561 2.271688-0.422342 3.404331-0.703903 0.991864-0.14718 1.842947-0.428741 2.834811-0.575921 1.132644-0.281561 2.265289-0.563123 3.397932-0.703903 0.991864-0.28796 1.842947-0.428741 2.834811-0.710302 1.132644-0.281561 2.124508-0.569522 3.263551-0.851083 0.844684-0.281561 1.836547-0.569522 2.68763-0.851083 1.132644-0.28796 2.124508-0.710302 3.263552-0.991864 0.422342-0.14718 0.991864-0.28796 1.414205-0.428741 0.703903-0.140781 1.279824-0.428741 1.983727-0.703903a9.662671 9.662671 0 0 0 1.132645-0.428741c1.702166-0.575921 3.263551-1.139043 4.818537-1.702166a2.009324 2.009324 0 0 1 0.851083-0.28796c1.414206-0.569522 2.68763-1.132644 3.967455-1.561386 0.422342-0.140781 0.851083-0.281561 1.279824-0.563122l4.671357-2.130907c0.140781-0.140781 0.281561-0.140781 0.569522-0.281562 1.414206-0.710302 2.68763-1.279824 3.967454-1.983727 0.422342-0.14718 0.851083-0.428741 1.132645-0.575921 1.414206-0.851083 2.975591-1.561385 4.389796-2.412468 0.569522-0.281561 1.132644-0.563123 1.561385-0.991864 0.563123-0.281561 0.991864-0.569522 1.414206-0.851083 0.851083-0.569522 1.561385-0.991864 2.412468-1.561385 0.703903-0.422342 1.414206-0.991864 2.124508-1.420604 0.703903-0.563123 1.554986-0.991864 2.265289-1.561386 0.710302-0.422342 1.279824-0.991864 1.983727-1.414205 0.710302-0.569522 1.420605-1.139043 2.124508-1.561386 0.569522-0.569522 1.279824-0.998263 1.842946-1.561385 0.710302-0.569522 1.279824-1.139043 1.842947-1.702166 0.281561-0.28796 0.569522-0.428741 0.851083-0.710302 0.569522-0.428741 0.991864-0.991864 1.414205-1.420605 0.14718-0.140781 0.428741-0.281561 0.569522-0.569522 0.991864-0.991864 1.842947-1.842947 2.687631-2.83481 0.14718-0.281561 0.428741-0.428741 0.57592-0.710302l2.124508-2.559648c0.140781-0.134382 0.281561-0.422342 0.422342-0.563123 0-0.140781 0.140781-0.140781 0.140781-0.281561 0.703903-0.851083 1.420605-1.849346 1.983727-2.700429 0.140781-0.140781 0.281561-0.422342 0.428741-0.563122 0.703903-0.998263 1.273425-1.983727 1.983727-2.98199 0.140781-0.140781 0.140781-0.281561 0.281562-0.428741 0.281561-0.422342 0.422342-0.703903 0.703903-1.132645 0.428741-0.703903 0.710302-1.279824 1.139043-1.983727 0-0.14718 0-0.14718 0.140781-0.28796 0.569522-1.132644 1.132644-2.271688 1.554986-3.404332 0.28796-0.569522 0.575921-1.279824 0.710302-1.842947 0.140781-0.28796 0.140781-0.569522 0.281562-0.851083 0.28796-0.575921 0.428741-1.279824 0.575921-1.849345 0.134382-0.563123 0.275162-1.132644 0.563122-1.702166 0.140781-0.703903 0.281561-1.279824 0.422342-1.983728 0.140781-0.28796 0.140781-0.710302 0.281561-0.998262 0.140781-0.422342 0.140781-0.844684 0.287961-1.273425v-0.428741c0.140781-1.132644 0.281561-2.124508 0.422342-3.263552v-0.422342c0-0.710302 0.140781-1.561385 0.14078-2.271687v-1.132644l0.140781-46.265639c-0.140781 0.851083-0.140781 1.983727-0.281561 3.122771z" fill="#13A08C" p-id="23867"></path><path d="M507.885366 465.593581c51.583307 29.800702 51.864869 78.197248 0.569521 108.132332-51.295347 29.800702-134.76547 29.800702-186.342377 0-51.576908-29.800702-51.864869-78.190849-0.563123-108.132332 51.295347-29.800702 134.759071-29.800702 186.342378 0z" fill="#37BCBD" p-id="23868"></path><path d="M633.013761 171.426029l59.940558-34.913599 169.192736 97.919336-59.940558 34.9072-169.192736-97.912937z" fill="#2A9192" p-id="23869"></path><path d="M802.206497 269.338966l59.940558-34.9072-0.851083 293.463648-59.799778 34.907201 0.710303-293.463649z" fill="#13A08C" p-id="23870"></path><path d="M640.807889 241.240429a770.582045 770.582045 0 0 1-7.794128-69.8144l169.192736 97.906538-0.851083 293.463649c-3.397933-2.975591-6.514304-6.098361-9.637075-9.214733a87.603954 87.603954 0 0 1-8.638812-10.366575c-16.720901-24.547025-31.886816-47.110322-45.350565-67.971454-13.45735-20.861132-25.359713-40.724-35.847871-59.882966-10.488158-19.158966-19.696492-37.88919-27.349839-56.337854a517.010511 517.010511 0 0 1-20.118834-56.760195 556.134731 556.134731 0 0 1-13.604529-61.02201z" fill="#37BCBD" p-id="23871"></path><path d="M831.117721 285.944683l59.940558-34.772819 168.341654 97.349814-59.940559 34.76642-168.341653-97.343415z" fill="#2A9192" p-id="23872"></path><path d="M977.919936 520.939571l-59.940558 34.9072a239.327093 239.327093 0 0 0 16.010598-10.212996 142.956344 142.956344 0 0 0 26.786717-24.412643c7.506168-9.080351 13.886091-19.862869 18.98619-32.635513 5.100099-12.772644 9.208334-27.669795 12.471885-44.557073 3.257152-17.034458 5.663221-37.178888 7.224606-60.599667l59.940559-34.907201c-1.561385 23.42078-3.967454 43.56521-7.224607 60.599668-3.263551 17.02166-7.512567 31.78443-12.471885 44.557073-5.100099 12.766245-11.339241 23.695942-18.98619 32.635513-7.512567 9.086751-16.43934 17.168839-26.786716 24.406244a193.496594 193.496594 0 0 1-16.010599 10.219395z" fill="#13A08C" p-id="23873"></path><path d="M999.459374 383.288098l59.940559-34.9072c-0.281561 3.263551-0.428741 6.527103-0.710303 9.790653l-59.940558 34.907201c0.281561-3.116371 0.569522-6.386322 0.710302-9.790654z" fill="#13A08C" p-id="23874"></path><path d="M998.749072 393.078752l59.940558-34.907201a580.259414 580.259414 0 0 1-2.54685 25.116547l-59.946957 34.913599c0.998263-7.947707 1.842947-16.317756 2.553249-25.122945z" fill="#13A08C" p-id="23875"></path><path d="M996.202222 418.195298l59.940558-34.9072a531.805277 531.805277 0 0 1-2.83481 19.440527l-59.940558 34.913599c0.991864-6.104761 1.983727-12.631863 2.83481-19.440527zM993.367412 437.642224l59.940558-34.913599c-0.428741 2.130907-0.710302 4.261814-1.132644 6.245541a235.941958 235.941958 0 0 1-2.271688 10.641737l-59.940558 34.913599c0.851083-3.410731 1.561385-6.955844 2.271688-10.648136 0.422342-1.983727 0.703903-4.114634 1.132644-6.239142z" fill="#13A08C" p-id="23876"></path><path d="M989.96308 454.388722l59.940558-34.9136a299.581208 299.581208 0 0 1-3.967454 15.466674l-59.940558 34.913599c1.420605-4.824937 2.83481-9.937834 3.967454-15.473073zM985.995626 469.996176l59.940558-34.9136a185.702466 185.702466 0 0 1-4.671358 14.193249l-59.940558 34.9072c1.695767-4.543375 3.257152-9.221132 4.671358-14.186849z" fill="#13A08C" p-id="23877"></path><path d="M981.317869 484.183025l59.940558-34.9072-1.695767 4.255414a149.931384 149.931384 0 0 1-3.685893 8.376449l-59.799778 34.9072c1.273425-2.69403 2.553249-5.535239 3.685894-8.370049 0.422342-1.420605 0.991864-2.841209 1.554986-4.261814z" fill="#13A08C" p-id="23878"></path><path d="M976.076989 496.814888l59.940559-34.9072c-2.265289 4.684156-4.677757 9.080351-7.224607 13.194985l-59.940558 34.907201c2.54685-4.114634 4.959318-8.51083 7.224606-13.194986z" fill="#13A08C" p-id="23879"></path><path d="M968.852383 510.009874l59.940558-34.907201c-2.553249 3.973854-5.247278 7.666146-8.07569 11.070478-7.512567 9.086751-16.43934 17.168839-26.786716 24.406244a193.490195 193.490195 0 0 1-16.010599 10.219395l-59.940558 34.9072a239.583057 239.583057 0 0 0 16.010598-10.219394 142.98194 142.98194 0 0 0 26.786717-24.406245c2.828411-3.404332 5.522441-7.096624 8.07569-11.070477z" fill="#13A08C" p-id="23880"></path><path d="M830.266638 582.102361l0.851083-296.164078 168.341653 97.349815c-1.561385 23.42078-3.967454 43.56521-7.224606 60.599667-3.263551 17.02166-7.512567 31.78443-12.471885 44.557074-5.100099 12.766245-11.339241 23.695942-18.98619 32.635512-7.512567 9.086751-16.43934 17.168839-26.786717 24.406245a239.179913 239.179913 0 0 1-35.70709 20.57957 1597.930685 1597.930685 0 0 1-45.484946 21.001912c-6.661484 0.428741-14.174051-1.279824-22.531302-4.965717z" fill="#37BCBD" p-id="23881"></path><path d="M631.452375 35.617503l59.940558-34.907201c1.561385-0.851083 4.255415-0.710302 7.934909 0.703904 6.379923 2.559648 14.596393 5.96398 24.374249 10.366574a299.517216 299.517216 0 0 0 32.168377 12.203122c11.620802 3.685893 22.672083 4.396196 33.01946 1.983727l-59.946958 34.907201c-10.481759 2.412468-21.392259 1.849346-33.01306-1.983728a299.517216 299.517216 0 0 1-32.168377-12.203122c-9.777856-4.402595-17.853545-7.947707-24.374249-10.366574-3.685893-1.407806-6.373524-1.695767-7.934909-0.703903z" fill="#13A08C" p-id="23882"></path><path d="M631.452375 35.617503l59.940558-34.907201c0.140781-0.14718 0.428741-0.14718 0.569522-0.28796L632.021897 35.335941a1.075052 1.075052 0 0 0-0.569522 0.281562z" fill="#13A08C" p-id="23883"></path><path d="M632.021897 35.335941l59.940558-34.913599c0.140781 0 0.422342-0.140781 0.563123-0.140781l-59.940558 34.76642c-0.140781 0.140781-0.422342 0.140781-0.563123 0.28796z" fill="#13A08C" p-id="23884"></path><path d="M632.58502 35.047981L692.525578 0.140781c0.14718 0 0.428741 0 0.569521-0.140781l-59.940558 34.9072c-0.140781 0.140781-0.281561 0.140781-0.569521 0.140781zM633.154541 35.047981L693.095099 0.140781h0.569522l-59.946957 34.9072h-0.563123zM633.724063 35.047981L693.664621 0.140781h0.563123l-59.940558 34.9072h-0.563123z" fill="#13A08C" p-id="23885"></path><path d="M634.287186 35.047981L694.227744 0.140781h0.710302l-59.940558 34.9072h-0.703903zM634.997488 35.047981l59.940558-34.76642c0.281561 0 0.422342 0.140781 0.710302 0.140781L635.70779 35.335941c-0.28796-0.14718-0.428741-0.14718-0.710302-0.28796z" fill="#13A08C" p-id="23886"></path><path d="M635.70779 35.188762L695.648348 0.281561c0.281561 0 0.563123 0.140781 0.844684 0.140781L636.552474 35.335941c-0.281561 0-0.563123 0-0.844684-0.147179zM636.552474 35.476722l59.940558-34.913599c0.28796 0.14718 0.569522 0.14718 0.991864 0.28796l-60.081339 34.76642c-0.281561 0-0.563123-0.140781-0.851083-0.140781z" fill="#13A08C" p-id="23887"></path><path d="M637.403557 35.617503l59.940558-34.907201a2.68763 2.68763 0 0 0 1.132644 0.281562l-59.940558 34.9072c-0.422342 0-0.703903-0.140781-1.132644-0.281561zM638.536201 36.039845l59.940558-34.907201c0.28796 0.140781 0.569522 0.140781 0.851083 0.287961 0.991864 0.422342 1.983727 0.851083 3.116372 1.279824l-59.940558 34.900801a69.788804 69.788804 0 0 1-3.116372-1.279824c-0.281561-0.134382-0.563123-0.275162-0.851083-0.275162zM642.510055 37.60123L702.450613 2.700429c5.240879 2.130907 11.473622 4.824937 18.557448 7.947707l-59.940558 34.9072a300.886628 300.886628 0 0 0-18.557448-7.947707z" fill="#13A08C" p-id="23888"></path><path d="M661.067503 45.548937l59.940558-34.9072c0.851083 0.428741 1.702166 0.703903 2.553249 1.132644 0.281561 0.14718 0.422342 0.14718 0.710303 0.28796l-59.940559 34.907201c-0.28796-0.140781-0.428741-0.140781-0.710302-0.281562a20.093237 20.093237 0 0 0-2.553249-1.139043z" fill="#13A08C" p-id="23889"></path><path d="M664.331054 46.969542l59.940559-34.907201c3.257152 1.414206 6.514304 2.83481 9.918636 4.114635l-59.940558 35.047981c-3.404332-1.414206-6.661484-2.83481-9.918637-4.255415zM674.249691 51.224957l59.940558-34.907201c3.967454 1.561385 7.934909 3.122771 12.043144 4.543376l-59.940558 34.9072c-4.108235-1.561385-8.21647-2.98199-12.043144-4.543375z" fill="#13A08C" p-id="23890"></path><path d="M686.292835 55.768332l59.940558-34.9072c3.116371 1.132644 6.232743 2.124508 9.496294 3.12277l1.273425 0.422342-59.940558 34.9072-1.273425-0.422342c-3.263551-0.991864-6.379923-2.130907-9.496294-3.12277z" fill="#13A08C" p-id="23891"></path><path d="M697.062554 59.313444l59.940558-34.9072c1.132644 0.428741 2.406069 0.703903 3.545113 0.991864l-59.940559 34.913599c-1.139043-0.28796-2.412468-0.710302-3.545112-0.998263zM700.607666 60.311707l59.940559-34.913599c1.273425 0.28796 2.406069 0.569522 3.679494 0.851083l-59.940558 34.913599c-1.273425-0.28796-2.406069-0.575921-3.679495-0.851083z" fill="#13A08C" p-id="23892"></path><path d="M704.287161 61.16279l59.940558-34.913599c1.279824 0.28796 2.553249 0.428741 3.826674 0.569521l-59.940559 34.907201c-1.273425-0.140781-2.54685-0.422342-3.826673-0.563123zM708.113834 61.725913l59.940559-34.907201c1.420605 0.140781 2.69403 0.281561 3.967454 0.428741l-59.940558 34.907201c-1.273425-0.140781-2.68763-0.281561-3.967455-0.428741z" fill="#13A08C" p-id="23893"></path><path d="M712.081289 62.148255l59.940558-34.900802c1.420605 0.140781 2.975591 0.140781 4.396196 0.140781l-59.940559 34.9072c-1.420605 0-2.83481 0-4.396195-0.14078z" fill="#13A08C" p-id="23894"></path><path d="M716.477484 62.295434l59.940559-34.9072c1.695767 0 3.257152-0.140781 4.818537-0.28796l-59.940558 34.913599c-1.561385 0.140781-3.263551 0.281561-4.818538 0.281561zM721.296022 62.013873l59.940558-34.913599c1.983727-0.140781 3.826674-0.422342 5.663221-0.851083l-59.940558 34.913599c-1.836547 0.422342-3.679494 0.703903-5.663221 0.851083zM726.965642 61.303571l59.940558-34.907201c0.563123-0.14718 1.273425-0.28796 1.836548-0.428741l-59.793379 34.907201c-0.710302 0.140781-1.279824 0.28796-1.983727 0.428741z" fill="#13A08C" p-id="23895"></path><path d="M728.949369 60.87483l59.940559-34.907201a90.259589 90.259589 0 0 0 20.400395-6.386321c6.239142-2.83481 12.331104-5.67602 18.141505-8.229269l-59.940558 34.9072c-5.810401 2.700429-11.902363 5.394458-18.141506 8.229269-6.232743 2.841209-13.035008 4.972116-20.400395 6.386322z" fill="#13A08C" p-id="23896"></path><path d="M728.949369 60.87483l59.940559-34.907201c0.281561 0 0.563123-0.140781 0.844683-0.14078l-59.940558 34.9072c-0.281561 0-0.563123 0-0.844684 0.140781zM729.800452 60.740448l59.940559-34.913599c4.389796-0.851083 8.498032-1.983727 12.465486-3.404332l-59.940559 34.9072c-4.108235 1.420605-8.21647 2.559648-12.465486 3.404332z" fill="#13A08C" p-id="23897"></path><path d="M742.125158 57.329717l59.940558-34.9072a152.043094 152.043094 0 0 0 7.224607-2.841209c6.239142-2.83481 12.331104-5.67602 18.141505-8.229269l-59.940558 34.9072c-5.810401 2.700429-11.902363 5.394458-18.141506 8.229269-2.265289 0.998263-4.677757 1.983727-7.224606 2.841209zM802.916799 38.599493L862.857357 3.685893l-0.569522 196.401795-59.940558 34.9072 0.569522-196.395395z" fill="#13A08C" p-id="23898"></path><path d="M767.49127 46.118459l59.940558-34.907201c5.810401-2.559648 11.620802-4.824937 17.284024-6.386321 5.66962-1.702166 11.761583-1.983727 18.141505-1.139044l-59.940558 34.9136c-6.379923-0.851083-12.471885-0.569522-18.141506 1.132644-5.663221 1.702166-11.473622 3.833073-17.284023 6.386322z" fill="#13A08C" p-id="23899"></path><path d="M767.49127 46.118459l59.940558-34.907201a119.292397 119.292397 0 0 1 11.051281-4.402594l-59.940559 34.913599c-3.545113 1.279824-7.224607 2.83481-11.05128 4.396196z" fill="#13A08C" p-id="23900"></path><path d="M778.54255 41.722263l59.940559-34.913599c2.124508-0.703903 4.108235-1.414206 6.232743-1.983727l3.404331-0.851083-59.940558 34.9072-3.404332 0.851083c-1.983727 0.569522-4.108235 1.279824-6.232743 1.983727zM788.179625 38.881054L848.120183 3.980253c1.414206-0.28796 2.83481-0.428741 4.249016-0.569522l-59.940558 34.9072c-1.414206 0.14718-2.83481 0.28796-4.249016 0.575921z" fill="#13A08C" p-id="23901"></path><path d="M792.428641 38.311532L852.369199 3.404332c1.273425-0.140781 2.412468-0.140781 3.685893-0.140781l-59.940558 34.907201c-1.273425 0-2.412468 0-3.685893 0.14078z" fill="#13A08C" p-id="23902"></path><path d="M796.114534 38.170752l59.940558-34.907201c1.132644 0 2.265289 0 3.397933 0.140781l-59.940558 34.9072c-1.132644-0.140781-2.265289-0.140781-3.397933-0.14078z" fill="#13A08C" p-id="23903"></path><path d="M799.512467 38.311532L859.453025 3.404332c1.132644 0.140781 2.124508 0.140781 3.263551 0.281561l-59.940558 34.9136c-1.139043-0.140781-2.130907-0.28796-3.263551-0.287961z" fill="#13A08C" p-id="23904"></path><path d="M802.776018 38.599493l59.940558-34.9136h0.140781l-59.940558 34.9136h-0.140781z" fill="#13A08C" p-id="23905"></path><path d="M767.49127 46.118459c5.810401-2.559648 11.620802-4.824937 17.284023-6.386322 5.66962-1.702166 11.761583-1.983727 18.141506-1.132644l-0.569522 196.395395-171.035682-98.9048a2239.084126 2239.084126 0 0 1-1.279824-45.977678 1960.568822 1960.568822 0 0 1-0.275163-50.661834c0-4.543375 3.257152-5.67602 9.630676-3.122771 6.379923 2.553249 14.596393 5.957581 24.374249 10.360175a299.536414 299.536414 0 0 0 32.168377 12.203122c11.620802 3.685893 22.672083 4.396196 33.019459 1.983728a90.259589 90.259589 0 0 0 20.400395-6.386322c6.239142-2.975591 12.331104-5.67602 18.141506-8.370049z" fill="#37BCBD" p-id="23906"></path><path d="M831.821625 53.215083l59.940558-34.913599c7.653348 6.527103 14.877954 14.621989 21.539438 24.271862a456.346852 456.346852 0 0 1 19.41493 30.792566 2173.928285 2173.928285 0 0 1 18.98619 33.486596 387.332342 387.332342 0 0 0 20.976316 33.352214 144.933672 144.933672 0 0 0 28.335304 30.223044c10.347377 8.088488 20.125233 15.185112 29.333566 21.142693 9.214733 5.96398 16.861682 11.070478 23.100824 15.185112l-59.940558 34.913599c-6.239142-4.121033-14.026871-9.227531-23.100824-15.185112-9.208334-5.96398-18.986189-13.054205-29.333567-21.149092-10.340978-8.088488-19.837272-18.160703-28.335304-30.223044a355.663096 355.663096 0 0 1-20.976315-33.345815c-6.373524-11.499219-12.753446-22.563298-18.98619-33.492995a456.359651 456.359651 0 0 0-19.41493-30.792566c-6.661484-9.649873-13.886091-17.738361-21.539438-24.265463z" fill="#13A08C" p-id="23907"></path><path d="M831.821625 53.215083l59.940558-34.913599c0.710302 0.575921 1.420605 1.279824 2.124508 1.849345l-59.940559 34.907201c-0.703903-0.569522-1.414206-1.279824-2.124507-1.842947z" fill="#13A08C" p-id="23908"></path><path d="M833.946132 55.05803l59.940559-34.907201c0.851083 0.703903 1.702166 1.561385 2.412468 2.271688l-59.940558 34.9072c-0.851083-0.710302-1.561385-1.561385-2.412469-2.271687z" fill="#13A08C" p-id="23909"></path><path d="M836.358601 57.329717l59.940558-34.9072c0.851083 0.703903 1.554986 1.561385 2.406069 2.412468l-59.940558 34.9072-2.406069-2.412468z" fill="#13A08C" p-id="23910"></path><path d="M838.76467 59.742185l59.940558-34.9072c0.710302 0.851083 1.561385 1.561385 2.271688 2.412468L841.036358 62.148255a37.614028 37.614028 0 0 0-2.271688-2.412469zM841.036358 62.148255l59.940558-34.900802c0.703903 0.851083 1.554986 1.702166 2.265288 2.553249l-59.940558 34.907201c-0.710302-0.991864-1.561385-1.702166-2.265288-2.559648z" fill="#13A08C" p-id="23911"></path><path d="M843.301646 64.567122l59.940558-34.76642c0.710302 0.851083 1.561385 1.702166 2.265289 2.69403l-59.940558 34.9072c-0.703903-0.991864-1.554986-1.983727-2.265289-2.83481z" fill="#13A08C" p-id="23912"></path><path d="M845.566935 67.267551l59.940558-34.9136c0.851083 0.991864 1.561385 1.842947 2.265288 2.834811l-59.940558 34.913599c-0.703903-0.991864-1.554986-1.842947-2.265288-2.841209zM847.838622 70.102361l59.940558-34.913599 2.54685 3.410731-59.940558 34.9072c-0.710302-1.139043-1.702166-2.271688-2.54685-3.404332zM850.526253 73.506693l59.940558-34.9072c0.991864 1.279824 1.983727 2.69403 2.83481 3.967454l2.124508 2.98199-59.940558 34.913599-2.124508-2.98199c-0.991864-1.279824-1.983727-2.559648-2.83481-3.973853zM855.485571 80.603317l59.940558-34.913599a464.876879 464.876879 0 0 1 16.58012 26.39637l-59.940558 34.9072a464.985664 464.985664 0 0 0-16.58012-26.389971zM872.065691 106.993288l59.940558-34.9072c0.281561 0.428741 0.569522 0.851083 0.851083 1.420605a2173.928285 2173.928285 0 0 1 18.98619 33.486595c0.991864 1.849346 1.983727 3.551512 3.12277 5.394459l-59.940558 34.913599c-0.991864-1.849346-2.130907-3.551512-3.122771-5.394458-6.373524-11.49282-12.753446-22.563298-18.986189-33.492995a5.362463 5.362463 0 0 1-0.851083-1.420605z" fill="#13A08C" p-id="23913"></path><path d="M894.878554 147.154166l59.940558-34.9072a348.560073 348.560073 0 0 0 13.60453 21.712215l-59.940558 34.9072a348.560073 348.560073 0 0 1-13.60453-21.712215zM908.483084 168.866381l59.940558-34.9072c1.420605 2.130907 2.83481 4.255415 4.396195 6.245541 0.563123 0.851083 1.132644 1.702166 1.695767 2.412468l-59.940558 34.9072c-0.563123-0.851083-1.132644-1.561385-1.695767-2.412468a168.859982 168.859982 0 0 1-4.396195-6.245541zM914.575046 177.52439l59.940558-34.9072c0.998263 1.279824 1.990126 2.69403 2.98199 3.967455l-59.940558 34.913599c-0.998263-1.279824-1.990126-2.559648-2.98199-3.973854z" fill="#13A08C" p-id="23914"></path><path d="M917.550637 181.491845l59.940558-34.900801c0.851083 1.132644 1.702166 2.265289 2.69403 3.263551l-59.940559 34.9072a55.000437 55.000437 0 0 1-2.694029-3.263551z" fill="#13A08C" p-id="23915"></path><path d="M920.244666 184.761795l59.940559-34.9072c0.851083 0.991864 1.702166 1.983727 2.553248 3.122771l-59.940558 34.9072c-0.851083-0.991864-1.702166-2.130907-2.553249-3.122771z" fill="#13A08C" p-id="23916"></path><path d="M922.797915 187.884566l59.940558-34.9072c0.851083 0.991864 1.702166 1.983727 2.69403 2.97559l-59.940558 34.9136c-0.851083-0.998263-1.842947-1.983727-2.69403-2.98199z" fill="#13A08C" p-id="23917"></path><path d="M925.491945 190.719376l59.940558-34.9072c0.844684 0.991864 1.836547 1.983727 2.828411 2.98199l-59.940558 34.9072c-0.991864-0.991864-1.836547-1.983727-2.828411-2.98199zM928.326755 193.701366l59.940558-34.9072c0.991864 0.991864 1.983727 1.983727 2.975591 2.83481l-59.940558 34.913599c-1.139043-0.857482-1.983727-1.849346-2.975591-2.841209zM931.155166 196.683356l59.940558-34.9072c0.991864 0.991864 1.983727 1.983727 3.122771 2.83481l-59.940558 34.9072c-0.991864-0.991864-1.983727-1.983727-3.122771-2.83481z" fill="#13A08C" p-id="23918"></path><path d="M934.271538 199.518166l59.946957-34.9072c0.991864 0.991864 2.124508 1.842947 3.116371 2.83481l-59.940558 34.9136c-0.991864-0.991864-1.983727-1.983727-3.12277-2.84121z" fill="#13A08C" p-id="23919"></path><path d="M937.535089 202.218595l59.940558-34.913599c1.132644 0.851083 2.124508 1.849346 3.257152 2.700428L940.792241 204.912625c-1.132644-0.851083-2.265289-1.702166-3.257152-2.69403z" fill="#13A08C" p-id="23920"></path><path d="M940.65146 204.912625l59.940559-34.907201 0.422342 0.422342c3.967454 3.122771 7.794128 6.104761 11.620802 8.79879l-59.799778 34.907201c-3.826674-2.83481-7.646949-5.8168-11.614403-8.798791-0.14718-0.140781-0.28796-0.281561-0.569522-0.422341zM952.835385 214.133757l59.940558-34.907201c3.967454 2.841209 7.794128 5.67602 11.480022 8.229269l-59.940558 34.913599c-3.685893-2.559648-7.512567-5.394458-11.480022-8.235667z" fill="#13A08C" p-id="23921"></path><path d="M964.315407 222.369424l59.940558-34.913599c2.124508 1.420605 4.108235 2.841209 6.232743 4.114634 9.214733 5.96398 16.868081 11.070478 23.100823 15.185112l-59.940558 34.913599c-6.232743-4.121033-14.026871-9.227531-23.100823-15.185112-1.983727-1.279824-4.108235-2.700429-6.232743-4.114634z" fill="#13A08C" p-id="23922"></path><path d="M993.648973 241.66917l59.940558-34.913599c6.232743 4.114634 9.355514 7.947707 9.355514 11.499219-0.14718 36.602967-0.710302 68.822537-1.702166 96.921073l-59.940558 34.907201c0.991864-27.957756 1.554986-60.311707 1.702166-96.921074 0.140781-3.404332-2.975591-7.237405-9.355514-11.49282z" fill="#13A08C" p-id="23923"></path><path d="M993.648973 241.66917l59.940558-34.913599c0.281561 0.140781 0.428741 0.28796 0.710303 0.428741l-59.940558 34.9072c-0.140781 0-0.428741-0.140781-0.710303-0.422342zM994.500056 242.232293l59.940558-34.9072c0.422342 0.281561 0.851083 0.569522 1.273425 0.991863l-59.940558 34.9136c-0.422342-0.428741-0.851083-0.710302-1.273425-0.998263z" fill="#13A08C" p-id="23924"></path><path d="M995.773481 243.083376l59.940558-34.9072c0.428741 0.281561 0.710302 0.569522 1.132645 0.851083l-59.940559 34.9072c-0.422342-0.281561-0.703903-0.563123-1.132644-0.851083zM996.906125 243.934459l59.940559-34.9072c0.28796 0.281561 0.569522 0.428741 0.851083 0.703903l-59.940559 34.913599c-0.281561-0.140781-0.563123-0.422342-0.851083-0.703903zM997.757208 244.65116l59.940559-34.913599c0.281561 0.281561 0.569522 0.428741 0.710302 0.703903l-59.940558 34.9136c-0.281561-0.140781-0.428741-0.422342-0.710303-0.703904zM998.467511 245.355064l59.940558-34.907201 0.569522 0.569522-59.940559 34.9072c-0.14718-0.140781-0.28796-0.428741-0.569521-0.569521z" fill="#13A08C" p-id="23925"></path><path d="M999.030633 245.924585l59.940558-34.9072 0.428742 0.422342-59.799778 34.9072a1.900539 1.900539 0 0 0-0.569522-0.422342zM999.600155 246.346927l59.940558-34.9072 0.428741 0.428741-59.940558 34.9072a26.98509 26.98509 0 0 1-0.428741-0.428741z" fill="#13A08C" p-id="23926"></path><path d="M1000.028896 246.775668l59.940558-34.9072 0.422342 0.422342-59.940558 34.9072c-0.281561-0.140781-0.281561-0.281561-0.422342-0.422342z" fill="#13A08C" p-id="23927"></path><path d="M1000.310457 247.19801l59.940558-34.9072c0.140781 0.140781 0.140781 0.281561 0.281562 0.428741l-59.940558 34.9072c0-0.140781-0.140781-0.281561-0.281562-0.428741z" fill="#13A08C" p-id="23928"></path><path d="M1000.592019 247.626751l59.940558-34.9072c0.140781 0.140781 0.140781 0.281561 0.281561 0.281561l-59.940558 34.907201c0-0.140781-0.140781-0.140781-0.281561-0.281562z" fill="#13A08C" p-id="23929"></path><path d="M1000.87358 247.914712l59.940558-34.9136c0.14718 0.140781 0.14718 0.281561 0.28796 0.281562l-59.940558 34.913599-0.28796-0.28796zM1001.16154 248.337054l59.940558-34.907201c0.140781 0.140781 0.281561 0.281561 0.281562 0.422342l-59.940558 34.907201c0-0.140781-0.140781-0.281561-0.281562-0.422342zM1001.583882 248.759396l59.940558-34.907201c0.140781 0.281561 0.281561 0.428741 0.428741 0.703904l-59.946957 34.913599c-0.140781-0.281561-0.281561-0.422342-0.422342-0.703903zM1002.012623 249.469698l59.940558-34.9072c0 0.140781 0.140781 0.140781 0.140781 0.281561l-59.940558 34.913599c-0.140781-0.14718-0.140781-0.28796-0.140781-0.28796z" fill="#13A08C" p-id="23930"></path><path d="M1002.153404 249.757658l59.940558-34.913599c0 0.14718 0.140781 0.14718 0.140781 0.28796l-59.940558 34.907201c0-0.140781-0.140781-0.140781-0.140781-0.281562z" fill="#13A08C" p-id="23931"></path><path d="M1002.294185 250.03922l59.940558-34.907201s0 0.140781 0.14078 0.140781l-59.940558 34.9072c-0.140781 0-0.140781-0.140781-0.14078-0.14078z" fill="#13A08C" p-id="23932"></path><path d="M1002.434965 250.18l59.940558-34.9072s0 0.140781 0.140781 0.140781l-60.081339 35.047981v-0.281562zM1002.434965 250.461562l59.940558-34.907201s0 0.140781 0.140781 0.140781l-59.940558 34.913599c0-0.14718-0.140781-0.14718-0.140781-0.147179z" fill="#13A08C" p-id="23933"></path><path d="M1002.575746 250.602342l59.940558-34.9072s0 0.14718 0.140781 0.14718l-59.940559 34.9072c-0.140781 0-0.140781-0.140781-0.14078-0.140781z" fill="#13A08C" p-id="23934"></path><path d="M1002.575746 250.749522l59.940558-34.9072v0.14078l-59.940558 34.907201c0.140781 0 0 0 0-0.140781zM1002.716526 250.890303l59.940559-34.907201v0.140781l-59.940559 34.9072v-0.14078zM1002.716526 251.178263l59.940559-34.913599v0.14078l-59.799778 34.9136c-0.140781 0-0.140781-0.14718-0.140781-0.14718zM1002.857307 251.319044l59.940558-34.9136v0.140781l-59.940558 34.913599v-0.14078z" fill="#13A08C" p-id="23935"></path><path d="M1002.857307 251.459824l59.940558-34.913599v0.14718l-59.940558 34.9072v-0.140781zM1002.857307 251.741386l59.940558-34.907201v0.140781l-59.940558 34.9072c0.14718 0 0-0.140781 0-0.14078zM1003.004487 251.882166l59.940558-34.9072v0.140781l-59.940558 34.9072v-0.140781z" fill="#13A08C" p-id="23936"></path><path d="M1003.004487 252.022947l59.940558-34.9072v0.14078l-59.940558 34.9136v-0.14718zM1003.004487 252.310907l59.940558-34.9072v0.140781l-59.940558 34.9072v-0.140781zM1003.004487 252.451688l59.940558-34.9072v0.14078l-59.940558 34.907201v-0.140781z" fill="#13A08C" p-id="23937"></path><path d="M1003.004487 252.592469l59.940558-34.907201v0.140781l-59.940558 34.9072c0.140781 0 0.140781 0 0-0.14078zM1003.145268 252.87403l59.940558-34.9072v0.14078l-59.940558 34.9136v-0.14718z" fill="#13A08C" p-id="23938"></path><path d="M1003.145268 253.02121l59.940558-34.9136v8.939571l-59.940558 34.913599V253.16199v-0.14078zM1003.004487 262.101561l59.940558-34.9072a3066.368774 3066.368774 0 0 1-1.561385 87.981502l-59.940558 34.907201c0.851083-25.686068 1.420605-55.05803 1.561385-87.987902z" fill="#13A08C" p-id="23939"></path><path d="M993.648973 241.66917c6.232743 4.114634 9.355514 7.941308 9.355514 11.49282-0.14718 36.609366-0.710302 68.822537-1.702166 96.921074L831.117721 251.741386l0.563123-198.526303c7.653348 6.527103 14.877954 14.61559 21.539438 24.265463a458.925698 458.925698 0 0 1 19.414931 30.792566 2171.029483 2171.029483 0 0 1 18.986189 33.492995 388.925723 388.925723 0 0 0 20.969917 33.345815 145.125645 145.125645 0 0 0 28.341703 30.223044c10.347377 8.094887 20.125233 15.185112 29.333566 21.149092 9.496294 5.957581 17.149642 11.070478 23.382385 15.185112z" fill="#37BCBD" p-id="23940"></path><path d="M811.984352 666.391571l39.962505-23.267201-153.470098 107.703591-39.956106 23.2736 153.463699-107.70999z" fill="#2A9192" p-id="23941"></path><path d="M720.585719 613.605229l39.962506-23.2736 91.398632 52.792741-39.962505 23.267201-91.398633-52.786342z" fill="#13A08C" p-id="23942"></path><path d="M778.260989 549.88919l39.956106-23.2736-57.66887 63.716039-39.962506 23.2736 57.67527-63.716039z" fill="#2A9192" p-id="23943"></path><path d="M709.105698 509.869093l39.962505-23.2736 69.155291 40.020097-39.962505 23.2736-69.155291-40.020097z" fill="#13A08C" p-id="23944"></path><path d="M811.984352 666.391571l-153.463699 107.70999 48.601318-106.289385-76.091938-43.987552 78.075665-113.955531 69.155291 40.020097-57.67527 63.716039 91.398633 52.786342z" fill="#37BCBD" p-id="23945"></path><path d="M355.131969 506.32398v-27.388234c0 0.422342 0.281561 0.991864 0.851083 1.420605v27.388234c-0.569522-0.428741-0.851083-0.998263-0.851083-1.420605z" fill="#CEEAE5" p-id="23946"></path><path d="M355.131969 506.32398v-27.388234c0 0.422342 0.281561 0.991864 0.851083 1.420605v27.388234c-0.569522-0.428741-0.851083-0.998263-0.851083-1.420605zM428.536276 482.76242v27.388234c0 1.567784-3.545113 2.841209-9.355513 3.410731v-27.388234c5.66962-0.569522 9.355514-1.983727 9.355513-3.404332z" fill="#CEEAE5" p-id="23947"></path><path d="M419.180763 513.561385v-27.388234c0.851083-0.140781 1.702166-0.140781 2.412468-0.281561v27.388234c-0.710302 0-1.561385 0.140781-2.412468 0.281561zM421.593231 513.273425v-27.388234c0.563123-0.140781 1.132644-0.140781 1.695767-0.281561v27.388234c-0.422342 0-0.991864 0.140781-1.695767 0.281561zM423.429778 512.851083v-27.388234c0.428741-0.140781 0.710302-0.140781 1.139044-0.281561v27.388234a4.370599 4.370599 0 0 1-1.132644 0.281561zM424.568822 512.569522v-27.388234c0.281561-0.14718 0.563123-0.14718 0.851083-0.287961v27.388234c-0.428741 0.140781-0.575921 0.28796-0.851083 0.287961z" fill="#CEEAE5" p-id="23948"></path><path d="M425.272725 512.422342v-27.388234c0.28796 0 0.428741-0.140781 0.569522-0.281561v27.388234c-0.140781 0.140781-0.281561 0.140781-0.569522 0.281561zM425.989426 512.140781v-27.388234c0.134382 0 0.275162-0.140781 0.563123-0.140781v27.388234c-0.28796 0-0.428741 0.140781-0.569522 0.140781z" fill="#CEEAE5" p-id="23949"></path><path d="M426.411768 512v-27.388234c0.140781 0 0.281561-0.140781 0.422342-0.140781v27.388234c-0.140781 0-0.281561 0-0.422342 0.140781zM426.83411 511.718439v-27.388234c0.140781 0 0.281561-0.14718 0.428741-0.14718v27.388234c-0.14718 0.14718-0.28796 0.14718-0.428741 0.14718z" fill="#CEEAE5" p-id="23950"></path><path d="M427.256452 511.571259v-27.388234c0.14718 0 0.28796-0.140781 0.287961-0.140781v27.388234c-0.140781 0-0.140781 0.140781-0.287961 0.140781zM427.544413 511.430478v-27.388234c0.140781 0 0.140781-0.140781 0.281561-0.14078v27.388234c-0.140781 0-0.140781 0-0.281561 0.14078zM427.825974 511.148917v-27.388234c0.140781 0 0.140781-0.140781 0.281561-0.140781v27.388234c-0.140781 0-0.140781 0.140781-0.281561 0.140781zM428.107535 511.008136v-27.388234l0.140781-0.14078v27.388234c-0.140781 0-0.140781 0.140781-0.140781 0.14078zM428.254715 510.860957v-27.388234l0.140781-0.140781v27.388234c-0.140781 0-0.140781 0-0.140781 0.140781z" fill="#CEEAE5" p-id="23951"></path><path d="M428.395496 510.579395v-27.388234c0-0.140781 0-0.140781 0.14078-0.281561v27.388234c-0.140781 0.140781-0.140781 0.281561-0.14078 0.281561z" fill="#CEEAE5" p-id="23952"></path><path d="M428.395496 510.438615v-27.388234-0.281562 27.388234c0.140781 0 0 0.140781 0 0.281562zM400.194573 515.122771l0.140781-27.388234 18.845409-1.561386v27.388234l-18.98619 1.561386zM442.563148 493.692117v27.388234c0 1.561385-3.545113 2.841209-9.355514 3.404332v-27.388234c5.66962-0.563123 9.355514-1.983727 9.355514-3.404332z" fill="#CEEAE5" p-id="23953"></path><path d="M433.207634 524.484683v-27.388234c0.851083-0.140781 1.702166-0.140781 2.559648-0.281561v27.388234c-0.857482 0-1.708565 0.140781-2.559648 0.281561z" fill="#CEEAE5" p-id="23954"></path><path d="M435.620102 524.203122v-27.388234c0.563123-0.140781 1.132644-0.140781 1.702166-0.281561v27.388234c-0.428741 0-0.991864 0.140781-1.702166 0.281561zM437.463049 523.78078v-27.388234c0.422342-0.14718 0.703903-0.14718 1.132644-0.28796v27.388234c-0.422342 0.140781-0.851083 0.281561-1.132644 0.281561zM438.595693 523.49282v-27.388234c0.281561-0.140781 0.563123-0.140781 0.851083-0.281562v27.388234a2.009324 2.009324 0 0 1-0.851083 0.281562z" fill="#CEEAE5" p-id="23955"></path><path d="M439.299596 523.352039v-27.388234c0.28796 0 0.428741-0.140781 0.575921-0.281561v27.388234c-0.14718 0.140781-0.28796 0.140781-0.575921 0.281561zM440.009899 523.070478v-27.388234c0.14718 0 0.28796-0.14718 0.569521-0.14718v27.388234c-0.281561 0-0.422342 0.14718-0.563122 0.14718z" fill="#CEEAE5" p-id="23956"></path><path d="M440.43864 522.923298v-27.388234c0.140781 0 0.281561-0.140781 0.422342-0.140781v27.388234s-0.281561 0-0.422342 0.140781zM440.860982 522.782517v-27.388234c0.140781 0 0.28796-0.140781 0.428741-0.14078v27.388234c-0.140781 0-0.28796 0-0.428741 0.14078z" fill="#CEEAE5" p-id="23957"></path><path d="M441.283324 522.500956v-27.388234c0.14718 0 0.28796-0.140781 0.28796-0.140781v27.388234s-0.140781 0.140781-0.281561 0.140781zM441.571284 522.360175v-27.388234c0.140781 0 0.140781-0.140781 0.281561-0.14078v27.388234c-0.140781 0-0.140781 0-0.281561 0.14078zM441.859244 522.072215v-27.388234c0.134382 0 0.134382-0.140781 0.281562-0.140781v27.388234c-0.14718 0-0.14718 0.140781-0.287961 0.140781zM442.140806 521.931434v-27.388234l0.14078-0.14078v27.388234c-0.140781 0-0.140781 0.140781-0.14078 0.14078zM442.281586 521.790654v-27.388234l0.140781-0.140781v27.388234s-0.140781 0-0.140781 0.140781zM442.422367 521.509092v-27.388234c0-0.140781 0-0.140781 0.140781-0.28796v27.388234c-0.140781 0.140781-0.140781 0.28796-0.140781 0.28796z" fill="#CEEAE5" p-id="23958"></path><path d="M442.422367 521.368312v-27.388234-0.287961 27.388234c0.140781 0 0.140781 0.140781 0 0.281562zM414.221445 526.046069l0.14078-27.388234 18.845409-1.561386v27.388234l-18.986189 1.561386zM355.983052 507.744585v-27.388234l32.027597 24.975766v27.388234l-32.027597-24.975766z" fill="#CEEAE5" p-id="23959"></path><path d="M439.875517 519.378185v27.388235c0-0.422342-0.28796-0.851083-0.857482-1.420605-2.828411-2.271688-12.183925-3.404332-20.688355-2.69403v-27.388234c8.504431-0.703903 17.853545 0.428741 20.688355 2.69403 0.569522 0.569522 0.851083 0.998263 0.851083 1.420604z" fill="#CEEAE5" p-id="23960"></path><path d="M418.32968 542.651785v-27.388234c0.28796 0 0.569522 0 0.991863-0.14078v27.388234c-0.422342 0.140781-0.703903 0.140781-0.991863 0.14078z" fill="#CEEAE5" p-id="23961"></path><path d="M419.180763 542.651785v-27.388234c0.569522 0 0.991864 0 1.561385-0.14078v27.388234c-0.428741 0-0.991864 0.140781-1.561385 0.14078zM420.742148 542.511005v-27.388234h0.991864v27.388234h-0.991864zM421.874792 542.511005v-27.388234h0.991864v27.388234h-0.991864z" fill="#CEEAE5" p-id="23962"></path><path d="M422.725875 542.511005v-27.388234h0.844684v27.388234h-0.844684zM423.717739 542.511005v-27.388234h0.851083v27.388234h-0.851083zM424.568822 542.511005v-27.388234h0.851083v27.388234h-0.851083z" fill="#CEEAE5" p-id="23963"></path><path d="M425.413506 542.511005v-27.388234h0.851083v27.388234h-0.844684zM426.264589 542.511005v-27.388234h0.851083v27.388234a0.895877 0.895877 0 0 1-0.851083 0zM427.256452 542.651785v-27.388234h0.851083v27.388234h-0.851083zM428.107535 542.651785v-27.388234c0.281561 0 0.569522 0 0.851083 0.140781v27.388234c-0.281561 0-0.569522-0.140781-0.851083-0.140781zM428.958618 542.792566v-27.388234c0.281561 0 0.569522 0 0.851083 0.140781v27.388234c-0.281561-0.140781-0.563123-0.140781-0.851083-0.140781zM429.809701 542.792566v-27.388234c0.281561 0 0.569522 0 0.851083 0.140781v27.388234c-0.281561 0-0.569522 0-0.851083-0.140781zM430.801565 542.933347v-27.388234c0.281561 0 0.569522 0.140781 0.851083 0.14078v27.388234c-0.281561 0-0.569522-0.140781-0.851083-0.14078zM431.652648 543.074127v-27.388234c0.281561 0 0.563123 0.14718 0.991863 0.14718v27.388234c-0.428741 0-0.703903-0.14718-0.991863-0.14718z" fill="#CEEAE5" p-id="23964"></path><path d="M432.503731 543.221307v-27.388234c0.281561 0 0.703903 0.140781 0.991863 0.140781v27.388234c-0.28796 0-0.569522-0.140781-0.991863-0.140781zM433.495594 543.362088v-27.388234c0.422342 0.140781 0.703903 0.140781 0.991864 0.281561v27.388234c-0.281561-0.140781-0.569522-0.140781-0.991864-0.281561zM434.487458 543.643649v-27.388234c0.422342 0.140781 0.851083 0.140781 1.132644 0.281561v27.388234c-0.281561-0.140781-0.703903-0.140781-1.132644-0.281561zM435.760883 543.92521v-27.388234c1.420605 0.428741 2.553249 0.857482 3.263551 1.420605 0.563123 0.428741 0.844684 0.851083 0.844684 1.420604v27.388235c0-0.422342-0.281561-0.851083-0.851083-1.420605a14.679582 14.679582 0 0 0-3.257152-1.420605zM407.137619 546.76642v-27.388235c0-1.842947 4.249016-3.404332 11.05128-4.114634v27.388234c-6.655085 0.703903-11.05128 2.271688-11.05128 4.114635z" fill="#CEEAE5" p-id="23965"></path><path d="M407.278399 546.484858v-27.388234c0-0.140781 0-0.140781 0.140781-0.28796v27.388234c-0.140781 0.14718-0.140781 0.14718-0.140781 0.28796z" fill="#CEEAE5" p-id="23966"></path><path d="M407.278399 546.196898v-27.388234c0-0.140781 0.140781-0.140781 0.140781-0.281561v27.388234c0 0.140781 0 0.140781-0.140781 0.281561zM407.559961 545.915337v-27.388234c0-0.140781 0.14718-0.140781 0.147179-0.281562v27.388234c-0.14718 0.140781-0.14718 0.281561-0.147179 0.281562z" fill="#CEEAE5" p-id="23967"></path><path d="M407.700741 545.774556v-27.388234l0.287961-0.287961v27.388235c-0.14718 0-0.14718 0.14718-0.287961 0.28796z" fill="#CEEAE5" p-id="23968"></path><path d="M407.988702 545.486596v-27.388235l0.281561-0.281561v27.388234l-0.281561 0.281562zM408.270263 545.205034v-27.388234c0.140781-0.140781 0.281561-0.140781 0.422342-0.281561v27.388234c-0.140781 0.140781-0.281561 0.281561-0.422342 0.281561z" fill="#CEEAE5" p-id="23969"></path><path d="M408.692605 545.064254v-27.388234c0.14718-0.140781 0.28796-0.140781 0.428741-0.281562v27.388234c-0.140781 0-0.281561 0.140781-0.428741 0.281562z" fill="#CEEAE5" p-id="23970"></path><path d="M409.121346 544.782692v-27.388234c0.140781-0.140781 0.281561-0.140781 0.563122-0.28796v27.388234c-0.281561 0.140781-0.422342 0.140781-0.563122 0.28796z" fill="#CEEAE5" p-id="23971"></path><path d="M409.543688 544.494732v-27.388234c0.140781-0.140781 0.428741-0.140781 0.569521-0.281561v27.388234c-0.140781 0.140781-0.281561 0.281561-0.569521 0.281561zM410.25399 544.353951v-27.388234c0.281561-0.140781 0.422342-0.140781 0.703903-0.281561V544.065991a1.08785 1.08785 0 0 0-0.703903 0.281561zM410.964292 544.065991v-27.388234c0.281561-0.134382 0.563123-0.134382 0.991864-0.281561v27.388234a2.623639 2.623639 0 0 0-0.991864 0.28796zM411.956156 543.78443v-27.388234c0.422342-0.140781 0.851083-0.281561 1.414206-0.281562v27.388234c-0.563123 0-0.991864 0.140781-1.414206 0.281562z" fill="#CEEAE5" p-id="23972"></path><path d="M413.229581 543.502868v-27.388234c0.703903-0.140781 1.279824-0.281561 2.124508-0.428741v27.388234l-2.124508 0.428741zM415.354089 543.080526v-27.388234c0.851083-0.14718 1.842947-0.28796 2.975591-0.28796v27.388234c-1.132644 0-1.983727 0.140781-2.975591 0.281561z" fill="#CEEAE5" p-id="23973"></path><path d="M359.099424 546.76642v-27.388235c0 1.842947 1.132644 3.551512 3.404332 5.394459 11.332842 8.79879 47.891015 13.623727 81.620777 10.641737 26.780318-2.412468 43.78278-8.939571 43.78278-16.036196v27.388235c0 7.096624-17.002462 13.623727-43.78278 16.036195-33.588982 2.98199-70.287935-1.842947-81.620777-10.641737-2.271688-1.842947-3.404332-3.692292-3.404332-5.394458z" fill="#CEEAE5" p-id="23974"></path><path d="M359.099424 546.76642v-27.388235c0 1.842947 1.132644 3.551512 3.404332 5.394459 2.828411 2.271688 7.365387 4.255415 12.894227 5.8168v27.388234c-5.66962-1.702166-10.065816-3.692292-12.900626-5.823199-2.265289-1.836547-3.391534-3.685893-3.391534-5.388059zM375.397983 557.977678v-27.388234c1.414206 0.422342 2.975591 0.851083 4.530577 1.279824v27.388234a188.953219 188.953219 0 0 0-4.530577-1.279824zM380.06934 559.257502v-27.388234c1.279824 0.281561 2.69403 0.563123 4.114635 0.851083v27.388234a204.57987 204.57987 0 0 1-4.114635-0.851083z" fill="#CEEAE5" p-id="23975"></path><path d="M384.036795 560.108585v-27.388234c1.279824 0.281561 2.553249 0.422342 3.826674 0.703903v27.388234c-1.273425-0.281561-2.54685-0.422342-3.826674-0.703903zM387.863469 560.818887v-27.388234c1.132644 0.140781 2.412468 0.422342 3.685893 0.563123v27.388234a33.01946 33.01946 0 0 1-3.685893-0.563123zM391.549362 561.38201v-27.388234c1.132644 0.140781 2.412468 0.28796 3.545113 0.569522v27.388234c-1.279824-0.140781-2.412468-0.428741-3.545113-0.569522z" fill="#CEEAE5" p-id="23976"></path><path d="M395.094475 561.951532v-27.388234c1.132644 0.140781 2.265289 0.281561 3.538713 0.422341v27.388235c-1.273425-0.140781-2.406069-0.281561-3.538713-0.422342z" fill="#CEEAE5" p-id="23977"></path><path d="M398.492407 562.373874v-27.388235c1.132644 0.14718 2.265289 0.28796 3.545113 0.428742v27.388234c-1.132644-0.281561-2.412468-0.281561-3.545113-0.428741z" fill="#CEEAE5" p-id="23978"></path><path d="M402.03752 562.661834v-27.388234c1.132644 0.140781 2.265289 0.140781 3.538713 0.281561v27.388234c-1.273425 0-2.406069-0.140781-3.538713-0.281561z" fill="#CEEAE5" p-id="23979"></path><path d="M405.435453 562.943395v-27.388234c1.132644 0.140781 2.271688 0.140781 3.545112 0.281561v27.388235c-1.132644 0-2.271688-0.140781-3.545112-0.281562z" fill="#CEEAE5" p-id="23980"></path><path d="M408.980565 563.231356v-27.388234c1.132644 0.140781 2.265289 0.140781 3.545113 0.14078v27.388234c-1.139043 0-2.412468 0-3.545113-0.14078zM412.525678 563.372136v-27.388234c1.132644 0 2.265289 0.140781 3.538713 0.140781v27.388234c-1.279824 0-2.406069 0-3.538713-0.140781z" fill="#CEEAE5" p-id="23981"></path><path d="M415.923611 563.512917v-27.388234c1.132644 0 2.265289 0 3.545112 0.14078v27.388235c-1.139043 0-2.271688 0-3.545112-0.140781z" fill="#CEEAE5" p-id="23982"></path><path d="M419.462324 563.653698v-27.388235h3.404332v27.388235h-3.397933zM422.866656 563.653698v-27.388235h3.545112v27.388235h-3.545112z" fill="#CEEAE5" p-id="23983"></path><path d="M426.405369 563.653698v-27.388235h3.685893v27.388235h-3.685893zM430.238442 563.653698v-27.388235c1.414206 0 2.68763-0.140781 4.108235-0.14078v27.388234c-1.420605 0-2.83481 0-4.108235 0.140781z" fill="#CEEAE5" p-id="23984"></path><path d="M434.199498 563.512917v-27.388234c1.983727-0.140781 4.114634-0.140781 6.098361-0.281561v27.388234c-1.983727 0-3.967454 0.140781-6.098361 0.281561zM440.43864 563.084176v-27.388234c1.279824-0.140781 2.54685-0.140781 3.685893-0.281561 4.108235-0.428741 7.934909-0.851083 11.620802-1.420605v27.388234c-3.545113 0.569522-7.512567 0.991864-11.620802 1.420605a34.811213 34.811213 0 0 1-3.685893 0.281561z" fill="#CEEAE5" p-id="23985"></path><path d="M455.745335 561.522791v-27.388235c2.828411-0.422342 5.663221-0.991864 8.21647-1.414205v27.388234c-2.68763 0.422342-5.388059 0.991864-8.222869 1.414206z" fill="#CEEAE5" p-id="23986"></path><path d="M463.821025 559.961405v-27.388234c1.842947-0.422342 3.679494-0.851083 5.240879-1.279824v27.388234a28.380098 28.380098 0 0 1-5.247279 1.279824zM469.202685 558.828761v-27.388234c1.279824-0.281561 2.553249-0.703903 3.826673-1.132644v27.388234c-1.279824 0.281561-2.553249 0.703903-3.826673 1.132644zM473.029358 557.696117v-27.388234c0.991864-0.28796 1.983727-0.710302 2.975591-0.991864v27.388234c-0.991864 0.281561-1.983727 0.563123-2.975591 0.991864z" fill="#CEEAE5" p-id="23987"></path><path d="M476.004949 556.697854v-27.388234c0.851083-0.281561 1.702166-0.563123 2.412469-0.991864v27.388234a17.258427 17.258427 0 0 0-2.412469 0.991864zM478.417418 555.71239v-27.388235c0.703903-0.28796 1.414206-0.575921 1.983727-0.998262v27.388234c-0.569522 0.422342-1.279824 0.703903-1.983727 0.991863z" fill="#CEEAE5" p-id="23988"></path><path d="M480.401145 554.714127v-27.388234l1.695767-0.851083v27.388234l-1.695767 0.851083zM482.096912 553.856645v-27.388234c0.569522-0.275162 0.991864-0.563123 1.420604-0.844684v27.388234c-0.428741 0.281561-0.851083 0.569522-1.420604 0.851083zM483.658297 552.87118v-27.388234l1.279824-0.851083v27.388234l-1.279824 0.851083z" fill="#CEEAE5" p-id="23989"></path><path d="M484.790941 552.020097v-27.388234a3.301946 3.301946 0 0 0 0.991864-0.998263v27.388234a3.308345 3.308345 0 0 1-0.991864 0.998263zM485.923586 551.021834v-27.388234c0.281561-0.281561 0.569522-0.563123 0.851082-0.991863v27.388234a6.162353 6.162353 0 0 1-0.851082 0.991863z" fill="#CEEAE5" p-id="23990"></path><path d="M486.633888 550.170752v-27.388235c0.281561-0.281561 0.422342-0.703903 0.563122-0.991863v27.388234c0 0.281561-0.281561 0.569522-0.563122 0.991864zM487.34419 549.178888v-27.388234c0.140781-0.281561 0.281561-0.703903 0.422342-0.991864v27.388234c-0.140781 0.281561-0.281561 0.563123-0.422342 0.991864zM487.766532 548.046244v-27.388234c0.140781-0.428741 0.140781-0.710302 0.140781-1.139044v27.388234c0 0.428741-0.140781 0.851083-0.140781 1.139044z" fill="#CEEAE5" p-id="23991"></path><path d="M424.421642 490.147005c7.231006-0.569522 15.025134 0.422342 17.431203 2.271687 2.412468 1.842947-1.414206 3.967454-8.638812 4.543376l-18.851808 1.695767 4.959318 3.839472c28.482484-0.428741 55.691542 4.108235 65.328618 11.48642 11.332842 8.79879-6.802265 18.448663-40.384847 21.430654-33.588982 2.98199-70.287935-1.842947-81.627177-10.641737-9.489895-7.378185 1.702166-15.325893 25.506893-19.440527l-32.021197-24.975766c-2.975591-2.271688 1.702166-4.684156 10.340978-5.535239 8.645211-0.710302 18.000725 0.422342 20.835535 2.69403l4.249016 3.263551 18.845409-1.702166c7.231006-0.569522 14.877954 0.428741 17.431203 2.271688 2.406069 1.842947-1.420605 3.967454-8.638812 4.543375l-18.851808 1.702166 5.247278 4.114634 18.83901-1.561385z m-6.091962 25.116546c-8.498032 0.703903-13.182187 3.122771-10.200198 5.394459 2.83481 2.265289 12.183925 3.404332 20.688356 2.694029 8.504431-0.703903 13.182187-3.122771 10.200197-5.394458-2.83481-2.124508-12.183925-3.404332-20.688355-2.69403z" fill="#FFFFFF" p-id="23992"></path></svg>